<svg xmlns="http://www.w3.org/2000/svg" width="478.742" height="450.818" viewBox="0 0 478.742 450.818">
  <g id="Group_128" data-name="Group 128" transform="translate(-2840 -2979.149)">
    <g id="Group_125" data-name="Group 125" transform="translate(2840 3015.055)">
      <path id="Path_1207" data-name="Path 1207" d="M635.094,117.741C483.476,107.531,458.7,284.8,376.48,322c-84.465,38.215-81.362,123.881,21.9,170.457,100.531,45.343,207.978,31.881,268.1,3.536,99.394-46.861,154.721-181.931,88.5-219.182C695.216,243.192,735.234,124.483,635.094,117.741Z" transform="translate(-311.967 -111.218)" fill="#f8e4c9"/>
      <path id="Path_1208" data-name="Path 1208" d="M540.09,528.639c50.726,0,97.031-10.569,130.978-26.573C743.895,467.73,789.419,391.44,791.357,337.521c1.016-28.241-9.315-49.278-29.873-60.844-25.209-14.182-32.69-42.978-40.61-73.465-10.859-41.793-22.085-85.007-82.174-89.055l-.061.905.061-.905c-97.274-6.538-144,62.553-185.232,123.52-24.681,36.495-47.993,70.965-79.237,85.1-39.133,17.7-61.566,46.19-61.547,78.15.022,37.942,30.606,73.49,83.906,97.532C444.056,519.87,493.907,528.635,540.09,528.639Zm86.013-413.1c4.066,0,8.216.139,12.475.426,58.784,3.958,69.843,46.53,80.54,87.7,7.667,29.513,15.6,60.031,41.478,74.589,19.928,11.213,29.94,31.681,28.949,59.2C787.627,390.832,742.5,466.385,670.3,500.425c-64.478,30.4-173.883,41.069-272.96-3.618-52.623-23.735-82.816-58.682-82.838-95.878-.017-31.217,22.026-59.1,60.481-76.5,31.711-14.346,55.162-49.024,79.991-85.737C494.116,180.811,538.263,115.542,626.1,115.542Z" transform="translate(-312.684 -113.726)" fill="#f8e4c9"/>
    </g>
    <g id="Group_121" data-name="Group 121" transform="translate(3050.354 2979.149)">
      <g id="Group_112" data-name="Group 112" transform="translate(20.046 112.813)">
        <path id="Path_1141" data-name="Path 1141" d="M963.83,919.829s2.1-1.332,2.759-1.828c.777-.582,2.969-2.506,2.969-2.506s7.325-7.059,6.759-7.559-2.5.011-3.1.288-1.338.543-1.944.82a1.3,1.3,0,0,1-1.708-.672c-.4-.727,1.774-2.356,2.635-2.769,2.689-1.289,10.568-3.283,11.393-3.53.976-.292,11.426-14.876,15.4-19.588h0c6.281-7.907,12.341-16.35,13-17.192l15.988-40.183,17.008.13s-17.117,44.845-18.229,46.99c-.529,1.021-16.507,18.219-16.514,18.214-8.4,7.972-15.824,14.977-17.211,16.363,0,0-3.036,5.261-4.772,8.726s-4.725,5.955-5.361,6.853a24.987,24.987,0,0,1-5.876,6.1c-3.239,2.378-1.252-1.386-1.252-1.386s5.213-5.5,4.711-5.847c-.387-.265-3.057,2.911-6.613,5.581-.915.687-1.82,1.361-2.656,1.973-2.194,1.607-3.8.7-1.775-1.358a26.972,26.972,0,0,1,2.924-2.614,22.388,22.388,0,0,0,2.6-2.615,29.464,29.464,0,0,0,2.66-2.711c-.129-.041-.032-.577-1.026.121-1.194.839-3.338,3.193-5.189,4.288-1.049.622-3.164,2.055-3.164,2.055s-3.681,1.945-3.844,1.762c-.877-.991,1.362-3.145,2.9-3.8a18.09,18.09,0,0,1,3.031-2.371s3.931-3.967,3.382-4.542c-.451-.473-11.689,7.179-12.5,6.123C960.553,922.284,963.83,919.829,963.83,919.829Z" transform="translate(-961.126 -825.108)" fill="#b85b4b"/>
      </g>
      <path id="Path_1142" data-name="Path 1142" d="M1186.3,563.026c-1.681-7.639-3.327-15.327,1.1-23.72a21.544,21.544,0,0,1,16.957-11.552c20.326-2.411,22.116,15.752,41.424,23.7,8.247,3.4,16.708,2.425,24.078,6.815,13.308,7.927,20.377,30.17,11.551,50.887-21.611,50.729-72.571,17.524-79.123,7.536C1197.419,609.263,1187.384,567.944,1186.3,563.026Z" transform="translate(-1096.899 -504.771)" fill="#13375b"/>
      <g id="Group_113" data-name="Group 113" transform="translate(91.645 64.264)">
        <path id="Path_1143" data-name="Path 1143" d="M1200.8,735.292c10.9,3.408,40.432,12.966,41.909,12.607l26.91-21.414,16.553,14.529s-36.934,27.349-39.034,28.352c-1.552.74-34.074-16.015-49.406-23.511C1197.951,740.865,1198.352,739.658,1200.8,735.292Z" transform="translate(-1197.732 -707.779)" fill="#b85b4b"/>
        <path id="Path_1144" data-name="Path 1144" d="M1370.563,695.371l16.861,21.832s17.773-13.661,24.327-21.01c7.952-8.917,16.646-28.06,15.363-28.761-3.6-1.966-11.37-3.54-16.73-2.342C1391.838,669.233,1370.563,695.371,1370.563,695.371Z" transform="translate(-1318.263 -664.673)" fill="#f76d54"/>
      </g>
      <g id="Group_114" data-name="Group 114" transform="translate(75.439 28.282)">
        <path id="Path_1145" data-name="Path 1145" d="M1184.076,778.887l-17.06-9.734s7.745-32.656,21.561-33.7Z" transform="translate(-1160.105 -678.05)" fill="#fbe3ba"/>
        <path id="Path_1146" data-name="Path 1146" d="M1429.982,1703.733s1.447,14.7,5.168,17.394,8.682,12.681,6.2,18.078a6.245,6.245,0,0,1-4.091,3.2,10.851,10.851,0,0,1-13.014-6.1,30.913,30.913,0,0,1-2.553-11.206c-.558-11.939-4.279-18.01-4.279-18.01Z" transform="translate(-1334.73 -1353.322)" fill="#b85b4b"/>
        <path id="Path_1147" data-name="Path 1147" d="M1187.857,1723.608s-1.173,14.828-.221,19.647c.51,2.581,3.348,7.893,2.046,10.321a6.53,6.53,0,0,1-2.79,3.035l-33.75.543c-1.839.029-.624-1.152.858-2.239,2.426-1.781,4.385-2.958,12.135-6.7.505-.244,2.346-1.412,3.009-1.817a23.336,23.336,0,0,0,4.829-4.256c2.423-2.693,2.635-15.751,2.635-15.751Z" transform="translate(-1149.781 -1367.182)" fill="#b85b4b"/>
        <path id="Path_1148" data-name="Path 1148" d="M1174.7,1061.8s-2.519,25.97.271,41.753,16.185,162.09,16.185,162.09l14.885.838s3.119-61.115,2.562-69.615-4.975-22.722-4.975-22.722l1.482-49.344-18.783-64.823Z" transform="translate(-1164.739 -904.37)" fill="#00a19a"/>
        <path id="Path_1149" data-name="Path 1149" d="M1230.928,1042.928s11.72,17.6,14.51,32.175-2.048,59.347,3.32,78.44c2.906,10.335,13.919,26.3,15.594,39.652s8.242,48.34,8.242,48.34l-14.878,2.943-34.577-87.371-27.122-78.97-6.947-40.672Z" transform="translate(-1175.486 -888.672)" fill="#05b7af"/>
        <path id="Path_1150" data-name="Path 1150" d="M1212.517,724.506a29.1,29.1,0,0,1,14.021,7.185c12.837,12.564-7.542,61.015-8.658,69.514s9.147,28.326,9.147,28.326-40.333,6.2-50.752-.678c0,0,.758-67.31,1.874-73.381s13.605-24.807,15.838-27.235S1212.517,724.506,1212.517,724.506Z" transform="translate(-1166.562 -670.418)" fill="#fff"/>
        <path id="Path_1151" data-name="Path 1151" d="M1246.987,655.328s.08.456.225,1.232c.692,3.724,3.356,16.074,5.156,19.47,2.174,4.1-7.446,17.191-16.708,15.593-2.757-.475,2.33-12.024,2.086-13.248-.468-2.342-1.1-5.537-1.752-8.812-.366-1.848-.737-3.722-1.086-5.483-.99-5-1.8-9.1-1.8-9.1Z" transform="translate(-1206.199 -621.934)" fill="#b85b4b"/>
        <path id="Path_1152" data-name="Path 1152" d="M1247.212,656.56c-.144-.776-.225-1.232-.225-1.232l-13.876-.345s.808,4.093,1.8,9.1c.346,1.751.715,3.613,1.079,5.452a13.014,13.014,0,0,0,6.626-3.315,17.474,17.474,0,0,0,5.019-7.45C1247.463,657.892,1247.319,657.138,1247.212,656.56Z" transform="translate(-1206.199 -621.934)" fill="#994636"/>
        <path id="Path_1153" data-name="Path 1153" d="M1218.573,547.115a16.379,16.379,0,0,1,9.759,6.077c4.1,5.292,8.519,21.658-1.667,30.556s-20.248-1.174-21.74-11.853S1203.735,546.729,1218.573,547.115Z" transform="translate(-1186.132 -546.702)" fill="#b85b4b"/>
        <path id="Path_1154" data-name="Path 1154" d="M1193.513,603.514c1.216,2.358,3.256,3.664,4.558,2.917s1.37-3.266.155-5.624-3.256-3.665-4.557-2.917S1192.3,601.155,1193.513,603.514Z" transform="translate(-1177.979 -581.971)" fill="#b85b4b"/>
        <path id="Path_1155" data-name="Path 1155" d="M1245.685,545.933s8.738,15.563,14.99,16.282,7.072,8.989,7.072,8.989-2.235-19.055-8.423-22.73S1245.685,545.933,1245.685,545.933Z" transform="translate(-1214.968 -545.768)" fill="#13375b"/>
        <path id="Path_1156" data-name="Path 1156" d="M1288.164,602.255c-.508,2.764.514,5.3,2.284,5.661s3.617-1.583,4.125-4.347-.514-5.3-2.284-5.661S1288.672,599.491,1288.164,602.255Z" transform="translate(-1244.502 -582.099)" fill="#b85b4b"/>
        <path id="Path_1157" data-name="Path 1157" d="M1436.642,1787.034c8.108,1.476,13.5-3.258,16.311-6.8,2.06,4.015,3.324,9.025,1.808,12.323-1.335,2.905-4.97,3.7-8.043,3.813a8.721,8.721,0,0,1-7.9-4.4A27,27,0,0,1,1436.642,1787.034Z" transform="translate(-1348.14 -1406.671)" fill="#3c8f7c"/>
        <path id="Path_1158" data-name="Path 1158" d="M1163.546,1797.182c8.926,2.286,15.524.732,19.215-.753.952,2.692,2.214,6.069,1.544,8.017-.819,2.385-1.986,2.924-3.016,2.95-8.153.214-29.865.5-36.082.585a1.013,1.013,0,0,1-.789-1.666C1145.96,1804.478,1162.88,1797.588,1163.546,1797.182Z" transform="translate(-1144.179 -1417.967)" fill="#3c8f7c"/>
      </g>
      <g id="Group_118" data-name="Group 118" transform="translate(0 141.492)">
        <g id="Group_117" data-name="Group 117">
          <g id="Group_115" data-name="Group 115" transform="translate(22.296 0.496)">
            <path id="Path_1159" data-name="Path 1159" d="M968.9,932.722c.656.719,18.762,2.59,18.762,2.59l-.353-.862S977.3,921.989,974.8,921.53C972.741,921.154,967.132,930.78,968.9,932.722Zm1.894-1.6a18.589,18.589,0,0,1,3.93-7.278c1.627,1.217,9.155,6.948,12.458,10.872C981.9,934.122,972.877,931.519,970.8,931.122Z" transform="translate(-968.562 -921.519)" fill="#f9a14c"/>
          </g>
          <g id="Group_116" data-name="Group 116" transform="translate(43.312)">
            <path id="Path_1160" data-name="Path 1160" d="M1038.01,933.024l.423,1.066s18.763-1.569,21.129-3.77-2.927-9.257-4.363-10.013-2.787-.78-7.713,2.206S1038.01,933.024,1038.01,933.024Zm.718.23c1.761-2.549,14.385-10.014,14.7-9.847,1.241.9,3.965,5.124,2.871,6.137C1055.282,930.385,1045.774,932.545,1038.728,933.254Z" transform="translate(-1038.01 -919.879)" fill="#f9a14c"/>
          </g>
          <path id="Path_1161" data-name="Path 1161" d="M1032.111,963h-1.056a1.832,1.832,0,0,1-1.895-1.761v-2.886a1.831,1.831,0,0,1,1.895-1.76h1.056a1.831,1.831,0,0,1,1.9,1.76v2.886A1.832,1.832,0,0,1,1032.111,963Z" transform="translate(-988.527 -945.486)" fill="#f9a14c"/>
          <path id="Path_1162" data-name="Path 1162" d="M906.645,966.723l85.835-.239a3.556,3.556,0,0,1,3.693,3.983l-1.328,8.14-4.3-.008-2.593,40.96a4.335,4.335,0,0,1-4.453,3.9h-68.51l-2.849-45.015-4.053-.008Z" transform="translate(-903.086 -952.381)" fill="#fc3a51"/>
          <path id="Path_1163" data-name="Path 1163" d="M913.06,1025.932h52.587l2.816-55.9H905.984l2.621,52.014A4.3,4.3,0,0,0,913.06,1025.932Z" transform="translate(-902.625 -954.855)" fill="#ff5c6f"/>
          <path id="Path_1164" data-name="Path 1164" d="M895.662,978.519l67.827.167,1.548-12.127-66.444.237a3.571,3.571,0,0,0-3.7,3.769Z" transform="translate(-894.882 -952.433)" fill="#ff5c6f"/>
          <path id="Path_1165" data-name="Path 1165" d="M972.509,1006.248l-64.693-.167,62.64,3.178Z" transform="translate(-903.902 -979.995)" fill="#fd3a51"/>
          <rect id="Rectangle_101" data-name="Rectangle 101" width="1.8" height="11.977" transform="translate(41.354 14.22)" fill="#f9a14c"/>
          <rect id="Rectangle_102" data-name="Rectangle 102" width="2.25" height="45.023" transform="translate(35.684 26.141)" fill="#f9a14c"/>
        </g>
      </g>
      <g id="Group_119" data-name="Group 119" transform="translate(54.479 109.922)">
        <path id="Path_1166" data-name="Path 1166" d="M1077.536,912.254s2.061-1.387,2.71-1.9c.762-.6,2.9-2.584,2.9-2.584s7.137-7.249,6.558-7.735-2.5.077-3.095.37-1.323.578-1.921.871a1.3,1.3,0,0,1-1.726-.627c-.417-.717,1.711-2.4,2.562-2.838,2.654-1.359,10.478-3.561,11.3-3.829.968-.318,11.03-15.172,14.882-19.988h0c6.071-8.07,11.906-16.67,12.545-17.528l14.923-40.591,17-.319s-15.929,45.281-16.984,47.454c-.5,1.034-16.021,18.648-16.028,18.643-8.187,8.191-15.423,15.389-16.774,16.811,0,0-2.9,5.339-4.54,8.848s-4.566,6.078-5.178,6.992a24.975,24.975,0,0,1-5.713,6.257c-3.175,2.463-1.288-1.353-1.288-1.353s5.065-5.638,4.555-5.969c-.393-.255-2.979,2.991-6.463,5.754-.9.71-1.783,1.408-2.6,2.042-2.151,1.665-3.784.8-1.81-1.311a26.986,26.986,0,0,1,2.855-2.69,22.4,22.4,0,0,0,2.527-2.682,29.45,29.45,0,0,0,2.588-2.781c-.13-.038-.047-.576-1.022.148-1.172.871-3.252,3.28-5.074,4.424-1.032.649-3.108,2.138-3.108,2.138s-3.628,2.041-3.8,1.863c-.9-.968,1.278-3.18,2.8-3.875a18.1,18.1,0,0,1,2.967-2.45s3.825-4.069,3.261-4.63c-.463-.461-11.5,7.484-12.333,6.45C1074.325,914.795,1077.536,912.254,1077.536,912.254Z" transform="translate(-1074.913 -815.555)" fill="#b85b4b"/>
      </g>
      <path id="Path_1167" data-name="Path 1167" d="M1275.73,793.644l-20-9.916s6-25.5,10.229-33.1c6.045-10.882,12.436-9.182,14.582-7.729,5.952,4.031,6.8,14.466,2.783,29.609S1275.73,793.644,1275.73,793.644Z" transform="translate(-1146.533 -654.216)" fill="#fbe3ba"/>
      <path id="Path_1168" data-name="Path 1168" d="M1362.226,1736.584s.783,13.844.788,13.873c.288,1.758,1.423,6.1,1.423,7.7,0,6-26.708-5.1-20.723-7.756.542-.24,3.38-2.062,3.558-4.1.275-3.148.971-9.516.971-9.516Z" transform="translate(-1207.283 -1347.949)" fill="#b85b4b"/>
      <path id="Path_1169" data-name="Path 1169" d="M1291.028,1781.48a96.289,96.289,0,0,0,9.482,2.3c3.211.459,7.446-3.407,9.717-2.362,2.5,1.149,2.013,14.694,2.013,14.694s-34.975,2.733-44.431-.314C1264.064,1794.586,1278.208,1785.756,1291.028,1781.48Z" transform="translate(-1154.531 -1379.087)" fill="#184655"/>
      <path id="Path_1170" data-name="Path 1170" d="M1556.678,1736.584s.784,13.844.788,13.873c.288,1.758,1.423,6.1,1.423,7.7,0,6-26.709-5.1-20.722-7.756.542-.24,4.222-3.421,4.4-5.464.274-3.149.129-8.157.129-8.157Z" transform="translate(-1342.893 -1347.949)" fill="#b85b4b"/>
      <path id="Path_1171" data-name="Path 1171" d="M1485.528,1781.48a96.215,96.215,0,0,0,9.482,2.3c3.212.459,7.446-3.407,9.718-2.362,2.5,1.149,3.142,14.405,3.142,14.405s-37.116,3.437-45.529,1C1458.561,1795.725,1472.709,1785.756,1485.528,1781.48Z" transform="translate(-1290.188 -1379.087)" fill="#184655"/>
      <path id="Path_1172" data-name="Path 1172" d="M1380.726,1076.163l-11.292,4.871-23.752,113.431.963,85.036,19.041.443s8.857-74.385,8.857-80.149,41.021-100.88,41.021-100.88Z" transform="translate(-1209.266 -887.378)" fill="#0f2b33"/>
      <path id="Path_1173" data-name="Path 1173" d="M1490.291,1088.031s3.156,86.048,3.156,100.781,4.5,97.554,4.5,97.554l26.5.866s1.376-25.133,3.423-62.105c.321-5.791-.412-17.474,0-23.469,2.97-43.116,8.841-83.7,6.037-99.794-.451-2.589-1.3-9.361-2.953-11.07C1518.45,1077.862,1490.291,1088.031,1490.291,1088.031Z" transform="translate(-1310.115 -893.005)" fill="#184655"/>
      <path id="Path_1174" data-name="Path 1174" d="M1466.972,663.422s13.17,1.831,16.636,4.377c3.9,2.867,7.263,14.264,7.263,14.264s-15.2,71.453-15.225,84.314c-.022,9.951,3.5,34.384,3.5,34.384s-48.864,3.084-67.371-4.221c0,0,5.844-29.058,5.844-36.688s6.989-77.014,8.581-81.86c1.443-4.4,4.082-12.3,13.01-14.245S1466.972,663.422,1466.972,663.422Z" transform="translate(-1255.36 -599.095)" fill="#ff826b"/>
      <path id="Path_1175" data-name="Path 1175" d="M1387.534,902.088l-.316,1.823a1.723,1.723,0,0,1-1.992,1.4l-37.769-6.541a1.723,1.723,0,0,1-1.4-1.992l.315-1.823a1.723,1.723,0,0,1,1.992-1.4l37.769,6.541A1.723,1.723,0,0,1,1387.534,902.088Z" transform="translate(-1209.507 -760.012)" fill="#13375b"/>
      <path id="Path_1176" data-name="Path 1176" d="M1468.506,697.407c-4.431-.128-8.351,29.1-5.542,31.984s6.256,38.2,6.256,38.2l-44.715-.359-.005.014c-.815-.547-9.573-6.428-10.825-7.714-1.314-1.348-7.7-.674-9.385,1.18s3.753.337,5.255,1.349-1.126,3.54-1.126,3.54-10.594,1.537-12.659-.655-7.582-5.9-8.332-3.709c-.388,1.131,2.458,4.556,4.06,5.995-2-1.5-4.395-3.088-5.217-2.811-1.5.506-.875,2.416-.062,2.979s9.223,6.983,10.537,7.432c1.283.439,20.845.922,24.225,1.671,0,0,59.64,11.285,62.775,10.5,2.749-.688,4.337-17.193,3.631-31.929C1486.73,741.578,1482.353,697.808,1468.506,697.407Z" transform="translate(-1236.936 -623.237)" fill="#b85b4b"/>
      <path id="Path_1177" data-name="Path 1177" d="M1626.819,675.373s7.711,1.776,15.677,10.727c7.245,8.141,14.187,53.612,14.187,53.612l-25.924,4.16-3.466-22.052-6.684-10.087Z" transform="translate(-1400.997 -607.871)" fill="#ff826b"/>
      <path id="Path_1178" data-name="Path 1178" d="M1212.234,729.052a6.388,6.388,0,0,0-5-1.669c-3.257.231-7.525,4.352-8.12,5.829-.307.76,1.74,6.764,2.63,8.085.525.782,1.734,1.17,2.158.759.279-.27-.013-1.635-.091-1.929-.151-.573-1.233-4.285-1.233-4.285s2.105,3.742,3.085,3.968a1.117,1.117,0,0,0,1.464-.879,23.6,23.6,0,0,0-1.935-4.629s2.466,3.619,3.677,3.24.708-1.669.527-2.1-1.868-2.934-1.868-2.934,2.673,3.7,3.2,2.375c.318-.806-1.429-4.314-1.429-4.314Z" transform="translate(-1107.026 -644.128)" fill="#b85b4b"/>
      <path id="Path_1179" data-name="Path 1179" d="M1553.033,603.388l-2.053,20.671s-10,13.22-16.254,10.294c-5.249-2.455-2.773-10.651-2.773-10.651s.909-3.662,2.169-7.868a30.513,30.513,0,0,0,1.559-8.459C1535.548,601.7,1553.033,603.388,1553.033,603.388Z" transform="translate(-1338.762 -557.505)" fill="#b85b4b"/>
      <path id="Path_1180" data-name="Path 1180" d="M1540.574,615.723a30.188,30.188,0,0,0,1.526-8.347c-.132-5.679,17.353-3.988,17.353-3.988l-.254,2.556a7.238,7.238,0,0,1-.355.812C1555.162,613.9,1546.391,617.66,1540.574,615.723Z" transform="translate(-1345.181 -557.505)" fill="#994636"/>
      <g id="Group_120" data-name="Group 120" transform="translate(181.606)">
        <path id="Path_1181" data-name="Path 1181" d="M1500.839,499.769s-2.04,11.687.85,19.5a43.142,43.142,0,0,0,6.781,12.31l9.183-31.486Z" transform="translate(-1498.589 -485.407)" fill="#184655"/>
        <path id="Path_1182" data-name="Path 1182" d="M1495.436,547.947c.9,2.787,2.938,4.625,4.558,4.1s2.207-3.2,1.309-5.99-2.938-4.624-4.559-4.1S1494.539,545.159,1495.436,547.947Z" transform="translate(-1495.016 -514.766)" fill="#994636"/>
        <path id="Path_1183" data-name="Path 1183" d="M1529.859,496.728c.4-.287,10.075,21.914,5.932,29.951s-14.73,11.794-20.3,7.967c-6.162-4.233-13.366-27.509-5.978-36.662S1529.859,496.728,1529.859,496.728Z" transform="translate(-1502.942 -481.078)" fill="#b85b4b"/>
        <path id="Path_1184" data-name="Path 1184" d="M1517.712,453.488c6.794,2.153,10.547,4.256,17.22,10.453,8.2,7.619,4.373,20.915-.724,27.765a48.3,48.3,0,0,0-7.009,13.014s.676-7.783.717-9.458c.037-1.489.039-6.539.274-7.974.62-3.785.717-4.589-1.453-6.977-1.672-1.839-2.913-6.962-5.594-10.025l-10.008,2.034s-6.325,1.131-10.676-.937C1487.967,465.444,1499.7,447.583,1517.712,453.488Z" transform="translate(-1495.189 -452.307)" fill="#333a64"/>
        <path id="Path_1185" data-name="Path 1185" d="M1595.587,544.339c-.06,2.928,1.271,5.33,2.973,5.365s3.129-2.31,3.189-5.237-1.271-5.33-2.973-5.365S1595.648,541.412,1595.587,544.339Z" transform="translate(-1565.152 -512.837)" fill="#b85b4b"/>
      </g>
    </g>
    <g id="Group_124" data-name="Group 124" transform="translate(2861.003 3168.776)">
      <g id="Group_123" data-name="Group 123">
        <path id="Path_1186" data-name="Path 1186" d="M430.558,1244.146c-10.535-8.53-38.135,3.262-42.246,8.766-4.044,5.413-12.253,62.534-6.211,66.485s24.739,11.951,32.515,4.893S430.558,1244.146,430.558,1244.146Z" transform="translate(-346.425 -1192.061)" fill="#ff5c6f"/>
        <path id="Path_1187" data-name="Path 1187" d="M566.688,1168.519s17.9-9.15,20.327-13.693,12.553-19.838,12.553-19.838,5.173.654,6.541,2.973c-1.68,6.3-6.837,23.77-13.5,28.919s-24.21,15.761-24.21,15.761Z" transform="translate(-476.652 -1118.029)" fill="#b85b4b"/>
        <path id="Path_1188" data-name="Path 1188" d="M669.261,1104.579a60.165,60.165,0,0,1-8.083-3.141,14.48,14.48,0,0,0,1.866-2.88c.714-2.271-3.8-11.156-3.056-11.884s3.493,3.9,3.948,3.448,1.1-10.6,2.608-10.572,0,8.625.944,8.644,2.6-10.23,4.086-9.172-2.074,8.984-1.079,9.4,3.862-7.087,4.921-7.066.261,1.686-.5,3.669-2.045,4.7-1.432,4.713,3.608-4.726,4.66-4.363-7.362,14.077-8.091,17.09A18.427,18.427,0,0,1,669.261,1104.579Z" transform="translate(-541.661 -1078.945)" fill="#b85b4b"/>
        <g id="Group_122" data-name="Group 122" transform="translate(33.375 154.808)">
          <path id="Path_1189" data-name="Path 1189" d="M536.086,1603.92s.545,11.172.545,17.984-10.491,33.515-9.537,37.33-9.886,3.3-9.886,3.3-.74-20.736,2.053-30.545,0-29.973,0-29.973Z" transform="translate(-475.458 -1598.535)" fill="#b85b4b"/>
          <path id="Path_1190" data-name="Path 1190" d="M413.76,1590.52s-3.52,18.464-6.382,22.688-18.256,32.97-18.256,36.649-9.673.681-9.673.681,8.174-31.472,11.444-41.009a113.7,113.7,0,0,0,4.5-17.439Z" transform="translate(-379.449 -1590.52)" fill="#b85b4b"/>
        </g>
        <path id="Path_1191" data-name="Path 1191" d="M443.71,1454.542c1.113,6.754,10.923,41.68,10.923,41.68-15.109,4.125-58.468,6.768-74.68-3.682,0,0,12.8-48.164,20.239-57.1l13.919-2.3,24.684-2.659S442.923,1449.764,443.71,1454.542Z" transform="translate(-346.425 -1324.106)" fill="#00a19a"/>
        <path id="Path_1192" data-name="Path 1192" d="M535.757,1795.532H505.989s-.614-10.763,1.43-12.806,1.5.258,4.9,1.56,5.623-1.837,7.179-3.394.451,4.967,6.991,4.967S537.256,1792.535,535.757,1795.532Z" transform="translate(-434.261 -1568.308)" fill="#ffbb59"/>
        <path id="Path_1193" data-name="Path 1193" d="M381.725,1781.268c1.539.354,6.385,4.307,7.993,8.582s1.149,5.8,1.149,5.8-4.925,2.19-14.38,1.5-8.012-1.728-8.012-1.728.675-9.727,2.281-12.684S379.029,1780.647,381.725,1781.268Z" transform="translate(-338.365 -1568.309)" fill="#ffbb59"/>
        <path id="Path_1194" data-name="Path 1194" d="M384.135,1364.272s-5.635,13.37-3.941,18.032,6.126,21.773,6.126,21.773-3.8,3.285-6.344,2.771c-3.434-5.265-12.626-20.21-12.022-28.3s4.222-21.272,4.222-21.272Z" transform="translate(-338.038 -1273.05)" fill="#b85b4b"/>
        <path id="Path_1195" data-name="Path 1195" d="M398.2,1495.872a58.079,58.079,0,0,1,7.457-3.768,13.95,13.95,0,0,0,.862,3.193c1.167,1.975,10.437,4.468,10.482,5.466s-5.041-.008-5.013.607,6.886,7.619,5.894,8.679-6.177-5.558-6.8-4.891,5.654,8.453,3.939,8.836-5.1-7.273-6.042-6.83,2.59,7.332,1.893,8.077-1.376-.9-2.305-2.724-2.05-4.493-2.454-4.062,1.062,5.63.124,6.149-5.342-14.343-7.031-16.805A17.843,17.843,0,0,1,398.2,1495.872Z" transform="translate(-359.152 -1367.078)" fill="#b85b4b"/>
        <path id="Path_1196" data-name="Path 1196" d="M367.926,1263.342a30.88,30.88,0,0,0,15.658,10.62c1.1-5.77,2.277-8.481,2.5-8.449.594.085,2.878,9.26,5.439,19.7,8.531,4.939,39.424,2.5,39.451-2.717.02-3.988-5.223-35.1.349-39.458,2.025-1.583,17.214-13.023,17.214-13.023s-4.44-11.168-8.861-15.55c0,0-9.34,3.753-17.584,7.069-10.816,4.35-19.613,6.409-25.652,9.154C375.866,1240.038,372.177,1246.356,367.926,1263.342Z" transform="translate(-338.038 -1173.453)" fill="#ffbb59"/>
        <path id="Path_1197" data-name="Path 1197" d="M437.6,1268.392c5.624,16.8,2.618,46.72-5.333,55.632-2.293-5.549,2.192-22.38-4.332-50.922C427.749,1271.655,437.034,1266.841,437.6,1268.392Z" transform="translate(-379.887 -1210.852)" fill="#ff5c6f"/>
        <path id="Path_1198" data-name="Path 1198" d="M509.959,1244.585c8.127,8.831,18.691,44.707,18.949,46.339-.357-28.673-9.675-45.319-11.495-48.651C516.212,1241.466,509.816,1243.719,509.959,1244.585Z" transform="translate(-437.088 -1192.729)" fill="#ff5c6f"/>
        <path id="Path_1199" data-name="Path 1199" d="M478.8,1222.858A23.222,23.222,0,0,0,480.761,1234s-5.294,5.191-14.13,2.177a48.852,48.852,0,0,0-1.351-15.584Z" transform="translate(-405.931 -1177.726)" fill="#b85b4b"/>
        <path id="Path_1200" data-name="Path 1200" d="M479.178,1228.979a24.308,24.308,0,0,1-.379-6.121l-13.519-2.269q.5,2.169.838,4.234C470.367,1227.935,475.121,1229.574,479.178,1228.979Z" transform="translate(-405.931 -1177.726)" fill="#994636"/>
        <path id="Path_1201" data-name="Path 1201" d="M457.3,1135.031c4.878,4.5,11.779,19.631,6,26.645-7.322,8.891-20.348,3.161-28.254-8.355S449.778,1128.09,457.3,1135.031Z" transform="translate(-383.699 -1116.75)" fill="#b85b4b"/>
        <path id="Path_1202" data-name="Path 1202" d="M425.3,1118.662s-5.672.172-3.437,5.5,6.273,7.133,4.125,9.282c-1.478,1.477-.226,4.641.445,6.384.347.9-1.207-1.007-3.346-1.192-5.2-.449-9.021-2.013-10.606-8.123,0,0-4.646-6.395-3.472-13.847.863-5.479,5.3-6.3,5.3-6.3s1.234-2.5,7.04-5.288c8.2-3.943,20.5-6.637,20.5.939C441.844,1110.735,443.868,1117.654,425.3,1118.662Z" transform="translate(-366.555 -1094.467)" fill="#07345a"/>
        <path id="Path_1203" data-name="Path 1203" d="M321.356,1126.769c-8.042-12.228-23.951-6.563-25.558,2.187-1.369,7.452-7.521,10.85-17.754,11.271-13.861.569-9.3,20.318-1.224,21.454-8.968,15.152,21.637,24.51,20.729,9.6,11.212-2.028,16.524-8.2,14.247-16.288s-3.433-28.859,4.28-25.117C324.084,1132.388,321.356,1126.769,321.356,1126.769Z" transform="translate(-269.157 -1107.389)" fill="#07345a"/>
        <path id="Path_1204" data-name="Path 1204" d="M450.328,1191.42c-.4-.206-5.865-2.607-7.544.294-1.372,2.37,1.26,7.425,5.363,7.425S455.484,1194.063,450.328,1191.42Z" transform="translate(-389.987 -1156.597)" fill="#b85b4b"/>
        <path id="Path_1205" data-name="Path 1205" d="M505.988,1818.622s-.128-2.235-.073-4.861c3.491,1.509,22.644,1.266,29.6,1.125a4.548,4.548,0,0,1,.237,3.736Z" transform="translate(-434.26 -1591.399)" fill="#fff"/>
        <path id="Path_1206" data-name="Path 1206" d="M376.487,1819.905c-9.455-.691-8.012-1.728-8.012-1.728s.156-2.241.494-4.9h0c6.583,5.875,16.861,2.875,21.358,1.126.865,2.911.538,4,.538,4S385.942,1820.6,376.487,1819.905Z" transform="translate(-338.365 -1591.062)" fill="#fff"/>
      </g>
    </g>
  </g>
</svg>
