<svg xmlns="http://www.w3.org/2000/svg" xmlns:xlink="http://www.w3.org/1999/xlink" width="160" height="99" viewBox="0 0 160 99">
  <defs>
    <polygon id="a" points=".115 9.6 6.872 9.6 6.872 .273 .115 .273 .115 9.6"/>
    <polygon id="c" points=".181 9.6 6.939 9.6 6.939 .273 .181 .273 .181 9.6"/>
  </defs>
  <g fill="none" fill-rule="evenodd">
    <path fill="#F89C24" d="M73.012032,6.988 C73.012032,3.12848 76.140672,0.00016 79.999872,0.00016 C83.859392,0.00016 86.988032,3.12848 86.988032,6.988 C86.988032,10.84752 83.859392,13.97616 79.999872,13.97616 C76.140672,13.97616 73.012032,10.84752 73.012032,6.988"/>
    <path fill="#0082BF" d="M95.603744,5.916448 C97.210464,8.623008 98.135904,11.781728 98.135904,15.157728 C98.135904,25.173728 90.016224,33.293408 79.999904,33.293408 C69.983904,33.293408 61.864224,25.173728 61.864224,15.157728 C61.864224,11.781728 62.789664,8.623008 64.396384,5.916448 C58.749664,10.474528 55.134624,17.449248 55.134624,25.271008 C55.134624,39.003808 66.267104,50.136608 79.999904,50.136608 C93.732704,50.136608 104.865184,39.003808 104.865184,25.271008 C104.865184,17.449248 101.250464,10.474528 95.603744,5.916448"/>
    <path fill="#43B4E4" d="M91.1672,5.916448 C91.31088,6.638688 91.38896,7.384608 91.38896,8.149088 C91.38896,14.439008 86.29008,19.537888 80.00016,19.537888 C73.70992,19.537888 68.61104,14.439008 68.61104,8.149088 C68.61104,7.384608 68.68912,6.638688 68.8328,5.916448 C67.23312,8.159328 66.2888,10.902048 66.2888,13.866848 C66.2888,21.439008 72.42768,27.577888 80.00016,27.577888 C87.57264,27.577888 93.71088,21.439008 93.71088,13.866848 C93.71088,10.902048 92.76688,8.159328 91.1672,5.916448"/>
    <path fill="#004E7D" d="M16.95344 95.01472L16.95344 87.42528 16.10128 87.42528 16.10128 86.61376 21.36944 86.61376C21.65104 86.61376 21.85456 86.67744 21.98064 86.80544 22.10672 86.93312 22.16944 87.13568 22.16944 87.41248L22.16944 88.33184 21.30448 88.33184 21.30448 87.71296C21.30448 87.52096 21.20848 87.42528 21.0168 87.42528L17.86992 87.42528 17.86992 90.77248 21.3368 90.77248 21.3368 91.584 17.86992 91.584 17.86992 94.71456C17.86992 94.90592 17.96784 95.00192 18.16432 95.00192L21.40048 95.00192C21.5928 95.00192 21.6888 94.90592 21.6888 94.71456L21.6888 94.10144 22.5416 94.10144 22.5416 95.01472C22.5416 95.29568 22.47728 95.49952 22.34896 95.62496 22.22096 95.7504 22.0184 95.81312 21.74128 95.81312L17.75344 95.81312C17.47184 95.81312 17.26832 95.7504 17.14224 95.62496 17.01616 95.49952 16.95344 95.29568 16.95344 95.01472M25.744544 95.813152L23.591264 90.306272C23.514144 90.089312 23.360544 89.980512 23.129824 89.980512L23.014624 89.980512 23.014624 89.233312 23.367264 89.233312C23.686944 89.233312 23.916384 89.278432 24.054624 89.368672 24.192224 89.459872 24.320224 89.649952 24.438624 89.940192L26.026784 94.055392 26.232864 94.825312 26.262944 94.825312C26.327264 94.527712 26.396064 94.272672 26.468704 94.060192L28.056544 89.945952C28.173024 89.648992 28.299424 89.455712 28.435104 89.366752 28.571104 89.277472 28.793504 89.233312 29.102304 89.233312L29.442144 89.233312 29.442144 89.980512 29.326624 89.980512C29.091424 89.980512 28.937824 90.089312 28.864864 90.306272L26.711904 95.813152 25.744544 95.813152zM30.983584 91.845664L35.129504 91.845664C35.103584 91.189984 34.915424 90.688544 34.564704 90.341664 34.213664 89.994464 33.779424 89.821024 33.261984 89.821024 32.692384 89.821024 32.197344 89.998624 31.776224 90.354144 31.354464 90.709664 31.090144 91.206944 30.983584 91.845664M30.028704 92.529504C30.028704 91.481824 30.340704 90.644064 30.964704 90.015904 31.588704 89.387744 32.358624 89.073504 33.274784 89.073504 34.151264 89.073504 34.831904 89.364384 35.317664 89.945504 35.803104 90.526624 36.045984 91.247904 36.045984 92.108064L36.020064 92.555104 30.944864 92.555104C30.953504 93.351584 31.205984 93.985504 31.701984 94.455904 32.198624 94.926304 32.801824 95.161504 33.511904 95.161504 34.238944 95.161504 34.878624 94.913504 35.430624 94.417504L35.494944 94.354464 35.930144 95.014944C35.861984 95.084384 35.759264 95.172704 35.622624 95.280224 35.485664 95.388384 35.204384 95.531104 34.779104 95.707424 34.353504 95.884704 33.917984 95.972704 33.473824 95.972704 32.489504 95.972704 31.669024 95.650464 31.012704 95.005024 30.356384 94.359904 30.028704 93.534624 30.028704 92.529504M37.834048 95.813152L37.834048 90.269472C37.834048 90.076512 37.737728 89.980512 37.545408 89.980512L36.994048 89.980512 36.994048 89.233312 37.913088 89.233312C38.462528 89.233312 38.737088 89.479072 38.737088 89.970912L38.736768 90.406432 38.711168 90.898272 38.736768 90.898272C38.903488 90.380512 39.168768 89.963552 39.531648 89.645472 39.895168 89.328032 40.326848 89.169312 40.826368 89.169312L41.179008 89.206432 41.179008 90.057312C41.072448 90.040352 40.963008 90.031712 40.851968 90.031712 40.399168 90.031712 40.003648 90.188832 39.666368 90.503072 39.329088 90.817632 39.085888 91.229472 38.936128 91.738592 38.812288 92.131872 38.749888 92.562272 38.749888 93.028192L38.749888 95.813152 37.834048 95.813152z"/>
    <g transform="translate(41.6 88.96)">
      <mask id="b" fill="white">
        <use xlink:href="#a"/>
      </mask>
      <path fill="#004E7D" d="M0.537824,8.289696 C0.537824,8.306976 0.577184,8.352736 0.656224,8.427616 C0.735264,8.501856 0.857824,8.580896 1.024544,8.664096 C1.190944,8.747296 1.357984,8.788896 1.524064,8.788896 C2.041184,8.788896 2.447264,8.435616 2.741664,7.728096 L3.117664,6.791776 L0.813344,1.346336 C0.727584,1.129376 0.573984,1.020576 0.351584,1.020576 L0.223584,1.020576 L0.223584,0.273056 L0.627104,0.273056 C0.926624,0.273056 1.139744,0.319136 1.265824,0.410336 C1.392544,0.501536 1.517984,0.694176 1.642144,0.987616 L3.334624,5.101216 L3.560224,5.787936 L3.584224,5.787936 C3.641184,5.540576 3.712224,5.309856 3.797984,5.096736 L5.445984,0.988576 C5.560864,0.690656 5.683424,0.496416 5.813664,0.407136 C5.943264,0.318176 6.161504,0.273056 6.468704,0.273056 L6.872224,0.273056 L6.872224,1.020576 L6.744224,1.020576 C6.517664,1.020576 6.364064,1.128736 6.283104,1.345376 L3.443424,8.227936 C3.267104,8.653536 3.014624,8.988256 2.685024,9.233056 C2.355424,9.478176 1.977184,9.600096 1.550304,9.600096 C0.981664,9.600096 0.511584,9.396896 0.140384,8.990176 L0.114784,8.950816 L0.537824,8.289696 Z" mask="url(#b)"/>
    </g>
    <path fill="#004E7D" d="M52.629696 94.838464L53.142656 94.219584C53.159296 94.245184 53.187776 94.280704 53.228736 94.325504 53.269696 94.370944 53.354816 94.452864 53.485376 94.570624 53.615616 94.689024 53.753216 94.792064 53.898816 94.880384 54.044096 94.968704 54.231936 95.048064 54.462976 95.119104 54.693696 95.190144 54.933056 95.225344 55.181056 95.225344 55.573376 95.225344 55.902656 95.132864 56.168896 94.947264 56.435456 94.761984 56.568576 94.501184 56.568576 94.164544 56.568576 93.901504 56.441536 93.671744 56.187456 93.475584 55.933056 93.279744 55.625856 93.108224 55.265856 92.961344 54.905536 92.814464 54.542656 92.666304 54.176256 92.517184 53.810496 92.367744 53.500096 92.149824 53.246016 91.863424 52.991936 91.577344 52.864896 91.235904 52.864896 90.840064 52.864896 90.270144 53.083776 89.833024 53.522816 89.529024 53.960896 89.225344 54.526336 89.073344 55.219136 89.073344 55.412736 89.073344 55.614336 89.093824 55.824576 89.134144 56.035136 89.174464 56.251136 89.236224 56.471936 89.319424 56.693056 89.402624 56.875776 89.525824 57.019456 89.689664 57.163136 89.853504 57.234816 90.046464 57.234816 90.267904L57.234816 90.830464 56.382656 90.830464 56.382656 90.508864C56.382656 90.286144 56.260416 90.115904 56.015296 89.998144 55.770176 89.879744 55.513216 89.820864 55.244736 89.820864 54.269376 89.820864 53.781376 90.139904 53.781376 90.778304 53.781376 91.046464 53.907776 91.276224 54.162176 91.467584 54.416256 91.659264 54.723136 91.827584 55.084416 91.972224 55.445696 92.117184 55.809216 92.263104 56.174016 92.409664 56.539456 92.555904 56.849216 92.778624 57.103616 93.076544 57.357696 93.374464 57.485056 93.729664 57.485056 94.141824 57.485056 94.678144 57.264896 95.117504 56.825216 95.459264 56.385856 95.801984 55.833216 95.972864 55.168256 95.972864 54.197696 95.972864 53.400576 95.651264 52.776896 95.007424L52.629696 94.838464zM59.240768 93.417536L59.240768 89.980736 58.395328 89.980736 58.395328 89.233216 59.260288 89.233216 59.260288 87.412416 60.157248 87.412416 60.157248 89.233216 61.791168 89.233216 61.791168 89.980736 60.157248 89.980736 60.157248 93.319296C60.157248 93.616896 60.194368 93.874176 60.269568 94.090496 60.344128 94.307136 60.434048 94.476416 60.538368 94.597376 60.643008 94.718336 60.764928 94.814016 60.903808 94.884096 61.042688 94.954496 61.168448 94.999616 61.281728 95.021376 61.395008 95.042176 61.513728 95.052736 61.637568 95.052736L61.938688 95.027136 61.938688 95.838016C61.832128 95.855616 61.706048 95.864256 61.560448 95.864256 61.376768 95.864256 61.197568 95.851456 61.022208 95.825856 60.847168 95.800256 60.647168 95.737536 60.422528 95.637376 60.197568 95.537536 60.003008 95.404416 59.839808 95.238016 59.675968 95.072256 59.535168 94.831296 59.417728 94.516736 59.299968 94.201216 59.240768 93.834816 59.240768 93.417536M63.781248 91.845664L67.927488 91.845664C67.901568 91.189984 67.713408 90.688544 67.362368 90.341664 67.011968 89.994464 66.577728 89.821024 66.059648 89.821024 65.490688 89.821024 64.995008 89.998624 64.573888 90.354144 64.152128 90.709664 63.888448 91.206944 63.781248 91.845664M62.826688 92.529504C62.826688 91.481824 63.138368 90.644064 63.762368 90.015904 64.387008 89.387744 65.156288 89.073504 66.072448 89.073504 66.948928 89.073504 67.630208 89.364384 68.115648 89.945504 68.601088 90.526624 68.843648 91.247904 68.843648 92.108064L68.818368 92.555104 63.742848 92.555104C63.751168 93.351584 64.003648 93.985504 64.500288 94.455904 64.996288 94.926304 65.599808 95.161504 66.310208 95.161504 67.037248 95.161504 67.676608 94.913504 68.228288 94.417504L68.292608 94.354464 68.728448 95.014944C68.659968 95.084384 68.557568 95.172704 68.420928 95.280224 68.283328 95.388384 68.002368 95.531104 67.576768 95.707424 67.151808 95.884704 66.716288 95.972704 66.271488 95.972704 65.287168 95.972704 64.467008 95.650464 63.811008 95.005024 63.154688 94.359904 62.826688 93.534624 62.826688 92.529504M71.496704 92.516896C71.496704 93.232096 71.682944 93.852256 72.054464 94.375776 72.425984 94.899616 72.940864 95.161696 73.598464 95.161696 74.201344 95.161696 74.706304 94.921376 75.113984 94.439456 75.522304 93.958176 75.726464 93.313056 75.726464 92.504096 75.726464 91.710816 75.534144 91.076256 75.149824 90.599776 74.764864 90.123296 74.260864 89.884576 73.637184 89.884576 73.034624 89.884576 72.527424 90.105056 72.115264 90.546016 71.702784 90.986976 71.496704 91.643616 71.496704 92.516896L71.496704 92.516896zM70.631744 98.432416L70.631744 90.269216C70.631744 90.076576 70.535744 89.980576 70.343424 89.980576L69.792384 89.980576 69.792384 89.233056 70.696064 89.233056C71.221184 89.233056 71.483904 89.458016 71.483904 89.907936L71.471104 90.344416 71.496704 90.344416 71.573824 90.212896C71.603904 90.158816 71.679424 90.056736 71.801344 89.906336 71.923264 89.756256 72.061184 89.624416 72.214784 89.511456 72.368384 89.399136 72.585024 89.297696 72.865344 89.208096 73.144704 89.118176 73.447104 89.073376 73.771904 89.073376 74.647744 89.073376 75.345024 89.387936 75.864064 90.016096 76.383104 90.643936 76.642944 91.473056 76.642944 92.504096 76.642944 93.534816 76.367424 94.370656 75.816384 95.011616 75.265024 95.652576 74.555904 95.972896 73.688384 95.972896 73.389504 95.972896 73.109824 95.928416 72.849024 95.839136 72.588224 95.750176 72.380864 95.642976 72.227264 95.516576 72.073664 95.390496 71.940224 95.267616 71.826944 95.148256 71.713664 95.028896 71.635584 94.923296 71.593024 94.831776L71.522624 94.701856 71.496704 94.701856C71.513984 94.860256 71.522624 95.053536 71.522624 95.280416L71.522624 98.432416 70.631744 98.432416zM82.204992 92.485024C82.204992 93.241184 82.454272 93.876384 82.954432 94.390624 83.453952 94.904544 84.062912 95.161504 84.780992 95.161504 85.490112 95.161504 86.092992 94.904544 86.591232 94.390624 87.088832 93.876384 87.337792 93.241184 87.337792 92.485024 87.337792 91.745504 87.088832 91.127264 86.591232 90.630304 86.092992 90.133024 85.490112 89.884704 84.780992 89.884704 84.062912 89.884704 83.453952 90.133024 82.954432 90.630304 82.454272 91.127264 82.204992 91.745504 82.204992 92.485024M81.288512 92.485024C81.288512 91.519904 81.626752 90.709664 82.304192 90.054944 82.980992 89.400864 83.802432 89.073504 84.768192 89.073504 85.737472 89.073504 86.561152 89.399264 87.238272 90.052064 87.915392 90.704864 88.253632 91.515744 88.253632 92.485024 88.253632 93.470304 87.915392 94.298144 87.238272 94.968224 86.561152 95.638304 85.742272 95.972704 84.780992 95.972704 83.810752 95.972704 82.986432 95.638304 82.306752 94.968224 81.627712 94.298144 81.288512 93.470304 81.288512 92.485024M89.932512 95.813152L89.932512 89.980512 89.131872 89.980512 89.131872 89.233312 89.932512 89.233312 89.932512 88.996832C89.932512 88.489952 90.016352 88.059872 90.183072 87.706272 90.350752 87.352992 90.564832 87.100192 90.827232 86.949152 91.089952 86.798112 91.331872 86.693792 91.554272 86.635872 91.776352 86.578912 92.002912 86.549792 92.233312 86.549792L92.637152 86.576032 92.637152 87.386912C92.560032 87.369632 92.455392 87.361312 92.323232 87.361312 92.165152 87.361312 92.015712 87.380192 91.874592 87.418272 91.733472 87.456672 91.578912 87.525472 91.409952 87.624352 91.240992 87.724192 91.105632 87.893472 91.003232 88.131872 90.900512 88.371232 90.848992 88.659872 90.848992 88.998432L90.848992 89.233312 92.509152 89.233312 92.509152 89.980512 90.848992 89.980512 90.848992 95.813152 89.932512 95.813152zM97.564992 93.417536L97.564992 89.980736 96.718592 89.980736 96.718592 89.233216 97.584512 89.233216 97.584512 87.412416 98.481152 87.412416 98.481152 89.233216 100.115392 89.233216 100.115392 89.980736 98.481152 89.980736 98.481152 93.319296C98.481152 93.616896 98.518272 93.874176 98.593472 94.090496 98.668032 94.307136 98.757952 94.476416 98.862592 94.597376 98.967232 94.718336 99.089152 94.814016 99.227712 94.884096 99.366592 94.954496 99.492672 94.999616 99.605952 95.021376 99.719232 95.042176 99.837632 95.052736 99.961472 95.052736L100.262912 95.027136 100.262912 95.838016C100.156032 95.855616 100.029952 95.864256 99.884672 95.864256 99.700992 95.864256 99.521152 95.851456 99.346112 95.825856 99.171392 95.800256 98.971392 95.737536 98.746112 95.637376 98.521472 95.537536 98.327232 95.404416 98.164032 95.238016 97.999872 95.072256 97.859392 94.831296 97.741312 94.516736 97.623552 94.201216 97.564992 93.834816 97.564992 93.417536M101.76688 95.813152L101.76688 87.649632C101.76688 87.457312 101.67376 87.361312 101.48752 87.361312L100.95312 87.361312 100.95312 86.613792 101.88208 86.613792C102.16432 86.613792 102.36816 86.675232 102.49392 86.798432 102.62032 86.921312 102.68336 87.116512 102.68336 87.383392L102.68336 90.156512 102.65776 90.690912 102.68336 90.690912C102.84112 90.303712 103.14928 89.937312 103.60752 89.592032 104.0664 89.246432 104.628 89.073312 105.2936 89.073312 106.0968 89.073312 106.67088 89.286432 107.01616 89.713312 107.36144 90.139872 107.53392 90.775712 107.53392 91.620192L107.53392 94.775392C107.53392 94.968992 107.62736 95.065632 107.8136 95.065632L108.348 95.065632 108.348 95.813152 107.41872 95.813152C107.13712 95.813152 106.93328 95.752672 106.8072 95.630432 106.6808 95.509152 106.61776 95.312352 106.61776 95.040032L106.61776 91.859232C106.61776 91.557792 106.60176 91.304352 106.56976 91.097632 106.53808 90.891552 106.47376 90.687712 106.37776 90.487712 106.28176 90.287712 106.13392 90.137312 105.9336 90.036192 105.73296 89.935392 105.47952 89.884832 105.17232 89.884832 104.6136 89.884832 104.11312 90.060192 103.67184 90.410912 103.23056 90.761312 102.93712 91.212832 102.79216 91.764832 102.72368 91.999712 102.68752 92.292832 102.68336 92.643872L102.68336 95.813152 101.76688 95.813152zM110.084672 91.845664L114.230592 91.845664C114.204992 91.189984 114.016832 90.688544 113.665472 90.341664 113.315072 89.994464 112.880192 89.821024 112.362752 89.821024 111.794112 89.821024 111.298432 89.998624 110.876992 90.354144 110.455552 90.709664 110.191232 91.206944 110.084672 91.845664M109.129792 92.529504C109.129792 91.481824 109.441472 90.644064 110.065472 90.015904 110.689792 89.387744 111.459712 89.073504 112.375552 89.073504 113.252352 89.073504 113.933632 89.364384 114.418752 89.945504 114.904192 90.526624 115.147072 91.247904 115.147072 92.108064L115.121472 92.555104 110.046272 92.555104C110.054272 93.351584 110.307072 93.985504 110.803392 94.455904 111.299712 94.926304 111.902912 95.161504 112.612992 95.161504 113.340032 95.161504 113.980032 94.913504 114.531392 94.417504L114.596032 94.354464 115.031872 95.014944C114.963392 95.084384 114.860352 95.172704 114.723392 95.280224 114.586752 95.388384 114.305472 95.531104 113.879872 95.707424 113.454272 95.884704 113.019712 95.972704 112.574592 95.972704 111.590272 95.972704 110.770432 95.650464 110.114112 95.005024 109.457792 94.359904 109.129792 93.534624 109.129792 92.529504M122.016576 95.813152L120.126016 90.306272C120.057536 90.089312 119.903616 89.980512 119.664576 89.980512L119.491456 89.980512 119.491456 89.233312 119.952896 89.233312C120.301376 89.233312 120.550336 89.276832 120.700096 89.364512 120.849856 89.451552 120.979776 89.641952 121.088896 89.934112L122.419136 94.113952 122.639936 94.808352 122.654656 94.808352C122.694016 94.561632 122.733376 94.337952 122.772736 94.139552L124.387776 89.258912 125.334656 89.258912 126.922176 94.130592 127.149696 94.827232 127.169856 94.827232C127.210496 94.581152 127.259136 94.352352 127.316416 94.139552L128.686976 89.969952C128.784576 89.662112 128.900096 89.462752 129.033856 89.370912 129.167616 89.279072 129.395776 89.233312 129.718976 89.233312L130.180416 89.233312 130.180416 89.980512 129.994816 89.980512C129.759296 89.980512 129.606016 90.089312 129.533376 90.306272L127.642816 95.813152 126.662656 95.813152 125.085376 91.117472 124.850816 90.420512 124.820096 90.420512C124.746816 90.666592 124.662016 90.897632 124.562816 91.114272L122.960896 95.813152 122.016576 95.813152zM131.685312 93.981888C131.685312 94.313408 131.814272 94.603648 132.072512 94.852288 132.331392 95.101248 132.692992 95.225408 133.158592 95.225408 133.752832 95.225408 134.237632 94.970688 134.613632 94.461888 134.989312 93.952768 135.177472 93.387968 135.177472 92.767168L135.177472 92.465728 134.799232 92.465728C134.564032 92.465728 134.365632 92.469568 134.203392 92.478528 134.041152 92.487168 133.822272 92.504448 133.546432 92.530048 133.271232 92.555968 133.037952 92.602048 132.848192 92.668608 132.657792 92.735488 132.466752 92.821248 132.274752 92.926848 132.082112 93.032128 131.935552 93.175488 131.835712 93.356288 131.735232 93.536768 131.685312 93.745088 131.685312 93.981888M130.768832 94.033408C130.768832 92.515648 132.116352 91.756608 134.812032 91.756608L135.177472 91.756608 135.177472 91.680128C135.177472 90.998848 135.045952 90.517888 134.783232 90.239488 134.520832 89.960448 134.083392 89.820928 133.472832 89.820928 133.203712 89.820928 132.921472 89.864448 132.627072 89.951488 132.332032 90.039488 132.184832 90.187328 132.184832 90.395648L132.184832 90.817408 131.332352 90.817408 131.332352 90.184768C131.332352 89.975808 131.415872 89.790848 131.582592 89.628928 131.748992 89.467328 131.957312 89.350208 132.207232 89.278208 132.457152 89.205568 132.689152 89.152768 132.902912 89.121408 133.116032 89.089088 133.310272 89.073408 133.485632 89.073408 134.465472 89.073408 135.144512 89.295808 135.524032 89.740928 135.903872 90.185728 136.093952 90.806848 136.093952 91.603328L136.093952 94.775168C136.093952 94.969088 136.189952 95.065728 136.382272 95.065728L136.933312 95.065728 136.933312 95.813248 136.027712 95.813248C135.737152 95.813248 135.529152 95.751168 135.404032 95.627968 135.278592 95.504448 135.215872 95.308608 135.215872 95.040128L135.228352 94.562368 135.203392 94.562368C135.212672 94.562368 135.193472 94.610048 135.146432 94.704448 135.099392 94.798848 135.020352 94.917248 134.908992 95.059968 134.797952 95.202688 134.664512 95.343168 134.508352 95.481728 134.352512 95.620288 134.140672 95.736448 133.873792 95.830848 133.606592 95.925248 133.318912 95.972928 133.011712 95.972928 132.409472 95.972928 131.884672 95.802688 131.438272 95.462528 130.991872 95.122688 130.768832 94.646208 130.768832 94.033408"/>
    <g transform="translate(136.96 88.96)">
      <mask id="d" fill="white">
        <use xlink:href="#c"/>
      </mask>
      <path fill="#004E7D" d="M0.604064,8.289696 C0.604064,8.306976 0.643424,8.352736 0.722464,8.427616 C0.801504,8.501856 0.924704,8.580896 1.090784,8.664096 C1.257824,8.747296 1.424224,8.788896 1.590944,8.788896 C2.107744,8.788896 2.513824,8.435616 2.808544,7.728096 L3.184224,6.791776 L0.879584,1.346336 C0.794144,1.129376 0.640224,1.020576 0.418464,1.020576 L0.289824,1.020576 L0.289824,0.273056 L0.693984,0.273056 C0.993184,0.273056 1.206304,0.319136 1.332064,0.410336 C1.458784,0.501536 1.584224,0.694176 1.708384,0.987616 L3.400864,5.101216 L3.626464,5.787936 L3.650784,5.787936 C3.707744,5.540576 3.779104,5.309856 3.864224,5.096736 L5.512544,0.988576 C5.627104,0.690656 5.749664,0.496416 5.879904,0.407136 C6.009824,0.318176 6.227744,0.273056 6.534944,0.273056 L6.938784,0.273056 L6.938784,1.020576 L6.810784,1.020576 C6.583904,1.020576 6.430624,1.128736 6.349344,1.345376 L3.509664,8.227936 C3.333984,8.653536 3.080864,8.988256 2.751264,9.233056 C2.422304,9.478176 2.043744,9.600096 1.616544,9.600096 C1.048224,9.600096 0.578784,9.396896 0.206624,8.990176 L0.181344,8.950816 L0.604064,8.289696 Z" mask="url(#d)"/>
    </g>
    <path fill="#004E7D" d="M139.4928 62.877216C139.4928 61.864096 140.31392 61.042976 141.32704 61.042976 142.34016 61.042976 143.1616 61.864096 143.1616 62.877216 143.1616 63.890336 142.34016 64.711456 141.32704 64.711456 140.31392 64.711456 139.4928 63.890336 139.4928 62.877216M0 70.130656C0 67.597856.8512 65.476896 2.55296 63.767776 4.25472 62.058976 6.38048 61.204576 8.92928 61.204576 9.55584 61.204576 10.22336 61.274976 10.93056 61.415776 11.63808 61.556576 12.35296 61.767456 13.07648 62.049056 13.79968 62.330656 14.39648 62.738656 14.86656 63.273376 15.33632 63.808096 15.57184 64.429536 15.57184 65.137056L15.57184 67.090976 12.64384 67.090976 12.64384 66.101856C12.64384 65.506976 12.25856 65.044576 11.48832 64.714656 10.71808 64.385056 9.88928 64.220256 9.00192 64.220256 7.38048 64.220256 6.03776 64.754976 4.9728 65.824416 3.90816 66.894176 3.376 68.329376 3.376 70.130656 3.376 71.843616 3.928 73.305056 5.03328 74.515296 6.13824 75.725536 7.49344 76.330656 9.09888 76.330656 9.72608 76.330656 10.3312 76.252256 10.91424 76.095456 11.4976 75.938336 11.99264 75.743456 12.39872 75.510496 12.80512 75.277216 13.16864 75.045856 13.49088 74.817056 13.8128 74.587616 14.04608 74.401056 14.19104 74.256096L14.40768 74.002656 16.12576 76.330656C16.06144 76.410976 15.96256 76.517856 15.82944 76.650336 15.69632 76.783136 15.39776 77.022496 14.9344 77.368096 14.4704 77.713696 13.9872 78.021536 13.4848 78.290656 12.98208 78.560416 12.3264 78.803296 11.51808 79.020256 10.70912 79.237536 9.88672 79.346336 9.05024 79.346336 6.3888 79.346336 4.2144 78.469856 2.52896 76.716576.84288 74.963936 0 72.768416 0 70.130656M18.790016 79.044704L18.790016 64.691424C18.790016 64.329184 18.608896 64.147744 18.245696 64.147744L17.253696 64.147744 17.253696 61.506144 20.254016 61.506144C21.375296 61.506144 21.935936 62.057184 21.935936 63.158624L21.935936 67.585504 21.887616 68.647264 21.935936 68.647264C22.266496 67.971424 22.815296 67.386464 23.581696 66.891744 24.348096 66.397344 25.243136 66.149984 26.267776 66.149984 29.227776 66.149984 30.708096 67.746464 30.708096 70.938784L30.708096 75.860384C30.708096 76.221984 30.886656 76.402784 31.243776 76.402784L32.220736 76.402784 32.220736 79.044704 29.219776 79.044704C28.638976 79.044704 28.217536 78.911904 27.955776 78.646624 27.693376 78.381344 27.562176 77.955104 27.562176 77.368224L27.562176 71.590304C27.562176 70.753824 27.412736 70.117024 27.114816 69.678304 26.816256 69.239904 26.295936 69.021024 25.553856 69.021024 24.747136 69.021024 24.037056 69.262304 23.424256 69.744864 22.811136 70.227104 22.379456 70.858464 22.129856 71.638304 22.000896 72.080864 21.935936 72.623584 21.935936 73.266784L21.935936 79.044704 18.790016 79.044704zM34.83376 77.36816L34.83376 69.63824C34.83376 69.27504 34.6552 69.0936 34.29808 69.0936L33.32112 69.0936 33.32112 66.45168 36.32208 66.45168C36.90288 66.45168 37.32432 66.58544 37.58672 66.85232 37.84848 67.1192 37.97968 67.53936 37.97968 68.11312L37.97968 75.8584C37.97968 76.2216 38.15824 76.40272 38.516 76.40272L39.492 76.40272 39.492 79.04464 36.49168 79.04464C35.91088 79.04464 35.4888 78.91408 35.22704 78.65296 34.96496 78.39152 34.83376 77.96304 34.83376 77.36816M42.069536 77.36816L42.069536 64.69168C42.069536 64.32912 41.887776 64.148 41.524896 64.148L40.532896 64.148 40.532896 61.5064 43.533536 61.5064C44.654496 61.5064 45.215456 62.06032 45.215456 63.16752L45.215456 75.85904C45.215456 76.2216 45.396576 76.40272 45.759776 76.40272L46.727776 76.40272 46.727776 79.04464 43.751456 79.04464C43.154336 79.04464 42.724576 78.91408 42.462496 78.65296 42.200736 78.39152 42.069536 77.96304 42.069536 77.36816M54.355936 76.704384C55.253216 76.704384 56.006816 76.374144 56.617056 75.712384 57.227296 75.050944 57.532576 74.062784 57.532576 72.747584 57.532576 71.700864 57.259616 70.795904 56.714016 70.032704 56.168736 69.270144 55.399136 68.888064 54.404896 68.888064 53.491616 68.888064 52.733856 69.235904 52.131616 69.930944 51.529376 70.626304 51.228576 71.573184 51.228576 72.771584 51.228576 73.950464 51.517216 74.900544 52.095456 75.622144 52.673056 76.343744 53.426656 76.704384 54.355936 76.704384M48.082656 72.771584C48.082656 70.786624 48.614816 69.186624 49.679776 67.971904 50.744096 66.757184 52.113376 66.150144 53.786656 66.150144 55.394336 66.150144 56.566496 66.612544 57.302496 67.537664L57.435616 67.709504 57.483936 67.709504C57.467616 67.488704 57.459616 67.234944 57.459616 66.948544L57.459616 64.697344C57.459616 64.330944 57.278496 64.147904 56.914976 64.147904L55.922976 64.147904 55.922976 61.506304 58.923616 61.506304C60.044576 61.506304 60.605536 62.060224 60.605536 63.167424L60.605536 75.863424C60.605536 76.223104 60.786976 76.402944 61.149856 76.402944L62.117856 76.402944 62.117856 79.044544 59.213856 79.044544C58.173536 79.044544 57.653536 78.620864 57.653536 77.772864L57.653536 77.304384 57.604896 77.304384C57.572256 77.352704 57.528096 77.424704 57.471776 77.520704 57.415136 77.617024 57.273696 77.780544 57.047136 78.012864 56.821216 78.244864 56.572576 78.451264 56.301856 78.631424 56.031136 78.811584 55.659296 78.975744 55.186656 79.124224 54.713696 79.272064 54.202336 79.346304 53.653216 79.346304 51.964256 79.346304 50.613536 78.738944 49.601376 77.525184 48.588896 76.311104 48.082656 74.726464 48.082656 72.771584M64.743296 79.044704L64.743296 69.637344C64.743296 69.274784 64.561536 69.093344 64.198656 69.093344L63.206976 69.093344 63.206976 66.451424 66.096576 66.451424C67.226176 66.451424 67.791616 66.946464 67.791616 67.935904L67.791616 68.666464 67.743616 69.432224 67.791616 69.432224C68.090496 68.512224 68.598976 67.755104 69.316736 67.161504 70.034816 66.567904 70.865536 66.270624 71.809216 66.270624L72.378176 66.317984 72.378176 69.334304C72.160256 69.302624 71.902016 69.286304 71.603456 69.286304 70.861696 69.286304 70.167616 69.510944 69.522496 69.960864 68.877056 70.410784 68.425536 71.072864 68.167296 71.947424 67.982016 72.596064 67.889216 73.284704 67.889216 74.013344L67.889216 79.044704 64.743296 79.044704zM76.554208 71.119712L82.034848 71.119712C82.018848 70.379872 81.782368 69.770592 81.327648 69.292512 80.871328 68.814112 80.312928 68.574752 79.651488 68.574752 78.844768 68.574752 78.173408 68.801952 77.637088 69.256352 77.100128 69.710752 76.739488 70.331872 76.554208 71.119712M73.263008 72.748192C73.263008 70.802272 73.855648 69.216032 75.041568 67.989792 76.227168 66.763552 77.771808 66.150112 79.675488 66.150112 81.425888 66.150112 82.796768 66.715232 83.789408 67.845152 84.781408 68.974752 85.277408 70.404192 85.277408 72.133152L85.204128 73.290912 76.470368 73.290912C76.583328 74.371872 76.994528 75.211232 77.704288 75.808672 78.414048 76.406112 79.265248 76.704352 80.257248 76.704352 80.854368 76.704352 81.449248 76.588832 82.042208 76.357152 82.635168 76.125792 83.071968 75.891872 83.354528 75.656032L83.802848 75.290272 85.131488 77.465952C85.082528 77.513632 85.007968 77.583072 84.906848 77.674272 84.806048 77.765792 84.586528 77.916192 84.247648 78.126432 83.908768 78.336992 83.558688 78.523552 83.195488 78.686112 82.832288 78.848352 82.364768 78.999072 81.792288 79.137952 81.219168 79.276512 80.639008 79.346272 80.050208 79.346272 78.017248 79.346272 76.378208 78.706912 75.132128 77.428192 73.886048 76.149792 73.263008 74.589792 73.263008 72.748192M88.289984 79.044704L88.289984 69.637344C88.289984 69.274784 88.111424 69.093344 87.754304 69.093344L86.777344 69.093344 86.777344 66.451424 89.681344 66.451424C90.785984 66.451424 91.338304 66.918304 91.338304 67.851104L91.338304 68.224864 91.289664 68.767584 91.338304 68.767584C91.684224 68.076384 92.227904 67.467104 92.968384 66.940384 93.709504 66.413664 94.647104 66.149984 95.782144 66.149984 98.724224 66.149984 100.195904 67.740384 100.195904 70.920544L100.195904 75.858464C100.195904 76.221664 100.374784 76.402784 100.731904 76.402784L101.708544 76.402784 101.708544 79.044704 98.723264 79.044704C98.129344 79.044704 97.702144 78.911904 97.441024 78.646624 97.180224 78.381344 97.049984 77.955104 97.049984 77.368224L97.049984 71.573984C97.049984 70.743264 96.905344 70.109664 96.615424 69.674464 96.325504 69.238624 95.809984 69.021024 95.070144 69.021024 94.249024 69.021024 93.536704 69.254304 92.933184 69.720544 92.329024 70.186784 91.914624 70.810464 91.689664 71.590304 91.528384 72.080864 91.443584 72.639584 91.435904 73.266784L91.435904 79.044704 88.289984 79.044704zM105.122496 63.473152L105.120896 63.471232C105.157056 63.327232 105.182336 63.179072 105.182336 63.023872 105.182336 62.011072 104.360896 61.189312 103.347776 61.189312 103.327296 61.189312 103.308096 61.195072 103.287936 61.195712L103.275776 61.180352 103.271616 61.197312C102.294656 61.238272 101.513536 62.036992 101.513536 63.023872 101.513536 63.703872 101.887616 64.290432 102.436736 64.607232L101.900736 66.864512 103.969216 66.899712 105.021696 63.768512C105.053376 63.696512 105.075776 63.620352 105.098176 63.544192L105.122496 63.473152zM104.941888 77.112832L106.429888 75.058432C106.543808 75.187392 106.714048 75.357312 106.941248 75.566912 107.168768 75.776512 107.610688 76.054592 108.268608 76.401472 108.925568 76.748352 109.575168 76.921472 110.216448 76.921472 110.722688 76.921472 111.134848 76.818432 111.452288 76.611392 111.770048 76.404672 111.928768 76.090752 111.928768 75.668352 111.928768 75.352512 111.694528 75.058432 111.226688 74.786752 110.758208 74.515392 110.203648 74.240832 109.563008 73.964352 108.922368 73.687872 108.265408 73.404032 107.591808 73.112512 106.917888 72.821632 106.355008 72.390912 105.903168 71.820672 105.451328 71.250112 105.225728 70.587712 105.225728 69.832832 105.225728 68.625472 105.695488 67.709632 106.635008 67.085952 107.575168 66.462272 108.752768 66.149952 110.168128 66.149952 110.648448 66.149952 111.126848 66.190272 111.603008 66.270592 112.079808 66.351232 112.556288 66.487872 113.032448 66.680512 113.508928 66.873792 113.897728 67.151232 114.198848 67.513472 114.500288 67.875072 114.651008 68.292992 114.651008 68.767552L114.651008 70.082112 111.819968 70.082112 111.819968 69.454912C111.819968 69.173632 111.657088 68.956672 111.331648 68.803712 111.005888 68.651392 110.642048 68.574592 110.240128 68.574592 109.661568 68.574592 109.205248 68.668032 108.871488 68.853952 108.538368 69.040512 108.371648 69.305152 108.371648 69.646912 108.371648 69.989312 108.602368 70.287872 109.065088 70.542592 109.527168 70.797632 110.082688 71.056512 110.732608 71.320192 111.382208 71.583552 112.039488 71.850112 112.703808 72.119552 113.368128 72.388672 113.929408 72.817472 114.387968 73.405632 114.845248 73.993792 115.074368 74.693952 115.074368 75.506112 115.074368 76.666112 114.615168 77.596352 113.696768 78.296192 112.778048 78.996352 111.618368 79.346112 110.216448 79.346112 109.185408 79.346112 108.229888 79.156992 107.350208 78.778752 106.470528 78.400832 105.849088 78.032512 105.486208 77.674112L104.941888 77.112832zM127.40688 71.879712L131.63984 71.879712 130.148 67.485792 129.49648 64.859872 129.45168 64.859872C129.21936 65.961312 129.00624 66.837792 128.81136 67.488992L127.40688 71.879712zM121.34288 79.044832L121.34288 76.306592 121.73008 76.306592C122.12496 76.306592 122.38384 76.125792 122.5048 75.763872L127.73168 61.506272 131.01328 61.506272 136.24016 75.797792C136.35376 76.136992 136.60784 76.306592 137.00272 76.306592L137.40208 76.306592 137.40208 79.044832 135.4824 79.044832C134.88304 79.044832 134.4424 78.945632 134.1624 78.747552 133.8824 78.549472 133.64336 78.167392 133.44656 77.601632L132.38128 74.521312 126.55568 74.521312 125.53872 77.678752C125.32336 78.214432 125.06704 78.576352 124.7704 78.763552 124.47344 78.951072 123.99792 79.044832 123.34352 79.044832L121.34288 79.044832zM139.915328 77.36816L139.915328 69.63824C139.915328 69.27504 139.736128 69.0936 139.379008 69.0936L138.402688 69.0936 138.402688 66.45168 141.403328 66.45168C141.984128 66.45168 142.405568 66.58544 142.667968 66.85232 142.929728 67.1192 143.060608 67.53936 143.060608 68.11312L143.060608 75.8584C143.060608 76.2216 143.240128 76.40272 143.597248 76.40272L144.573248 76.40272 144.573248 79.04464 141.572928 79.04464C140.992128 79.04464 140.570688 78.91408 140.308608 78.65296 140.045888 78.39152 139.915328 77.96304 139.915328 77.36816"/>
    <path fill="#004E7D" d="M6.318112,15.264384 C7.215392,15.264384 7.968672,14.934144 8.578912,14.272384 C9.189152,13.610944 9.494112,12.622784 9.494112,11.307584 C9.494112,10.260864 9.221472,9.355904 8.676192,8.592704 C8.130592,7.830144 7.360672,7.448064 6.366432,7.448064 C5.453792,7.448064 4.696032,7.795904 4.093792,8.490944 C3.491552,9.186304 3.190752,10.133184 3.190752,11.331584 C3.190752,12.510464 3.479392,13.460544 4.057312,14.182144 C4.635232,14.903744 5.389152,15.264384 6.318112,15.264384 M0.044832,11.331584 C0.044832,9.346624 0.576992,7.746624 1.641632,6.531904 C2.706272,5.317184 4.075232,4.710144 5.748192,4.710144 C7.356512,4.710144 8.528672,5.172544 9.264032,6.097664 L9.397792,6.269504 L9.445472,6.269504 C9.429792,6.048704 9.421472,5.794944 9.421472,5.508544 L9.421472,3.257344 C9.421472,2.890944 9.240032,2.707904 8.877152,2.707904 L7.885152,2.707904 L7.885152,0.066304 L10.885472,0.066304 C12.006752,0.066304 12.567392,0.620224 12.567392,1.727424 L12.567392,14.423424 C12.567392,14.783104 12.749152,14.962944 13.111712,14.962944 L14.080032,14.962944 L14.080032,17.604544 L11.176032,17.604544 C10.135712,17.604544 9.615072,17.180864 9.615072,16.332864 L9.615072,15.864384 L9.567072,15.864384 C9.534432,15.912704 9.489952,15.984704 9.433312,16.080704 C9.377312,16.177024 9.235232,16.340544 9.009312,16.572864 C8.783392,16.804864 8.534752,17.011264 8.263712,17.191424 C7.993312,17.371584 7.621152,17.535744 7.148512,17.684224 C6.675872,17.832064 6.164832,17.906304 5.615072,17.906304 C3.926432,17.906304 2.575712,17.298944 1.563552,16.085184 C0.551072,14.871104 0.044832,13.286464 0.044832,11.331584" transform="translate(145.92 61.44)"/>
    <path fill="#004E7D" d="M34.36704,62.877216 C34.36704,61.864096 35.18848,61.042976 36.2016,61.042976 C37.2144,61.042976 38.03584,61.864096 38.03584,62.877216 C38.03584,63.890336 37.2144,64.711456 36.2016,64.711456 C35.18848,64.711456 34.36704,63.890336 34.36704,62.877216"/>
  </g>
</svg>
