<svg xmlns="http://www.w3.org/2000/svg" xmlns:xlink="http://www.w3.org/1999/xlink" width="1950.039" height="609.062" viewBox="0 0 1950.039 609.062">
  <defs>
    <filter id="Intersection_4" x="0" y="0" width="1950.039" height="609.062" filterUnits="userSpaceOnUse">
      <feOffset dy="2" input="SourceAlpha"/>
      <feGaussianBlur stdDeviation="5" result="blur"/>
      <feFlood flood-opacity="0.2"/>
      <feComposite operator="in" in2="blur"/>
      <feComposite in="SourceGraphic"/>
    </filter>
  </defs>
  <g id="Group_245" data-name="Group 245" transform="translate(15 -192.104)">
    <g id="Group_243" data-name="Group 243" transform="translate(-8556.5 1381.277)">
      <g transform="matrix(1, 0, 0, 1, 8541.5, -1189.17)" filter="url(#Intersection_4)">
        <path id="Intersection_4-2" data-name="Intersection 4" d="M1513.283,576.228c-1.733.62-3.046-.73-4.252-2.08-1.3-1.449-2.468-2.9-3.9-1.91-3.113,4.762-8.1-.365-11.644-4-8.222-12.543-19.645-15.9-29.553-4.488-9.024-6.637-18.062-2.879-27.088.008-18.919-10.917-37.409-10.013-56.172-1.668-11.048-.821-21.915-2.016-32.806,3.2-5.957-1.034-11.913-.142-17.9.751-4.965.74-9.953,1.48-14.982,1.123-10.152-4.214-14.5-6.827-22.289-8.006-1.683.194-3.233-1.454-4.806-3.1-2.727-2.859-5.523-5.718-9.2,1.045-12.111-12.328-20.448-5.5-32.132-2.646-7.845-4.628-15.685-4.409-23.46-4.189-5.1.144-10.178.288-15.207-.938-10.282-3.443-16.416-5.633-27.529-3.824-13.875-3.418-27.633-1.568-41.352,3.434-13.718,6-27.386,3.915-41.066.639-5.551,2.028-11.645-.279-17.834-2.587-7.43-2.77-15-5.541-21.923-.806-3.294-.74-6.439,1.226-9.555,3.19-3.425,2.159-6.814,4.318-10.323,2.89a67.868,67.868,0,0,1-31.224,4.828c-14.276-2.755-24.494-5.915-39.224,3.359-17.1,3.269-34.207,4.613-51.323,0,0-2.4-45.047-5.716-45.047,0-8.3-2.307-16.956-.5-25.632,1.3-10.915,2.268-21.869,4.535-32.214-1.38-10.607-3.575-22.343-.066-32.586,5.085-3.12,3.118-5.942,2.069-8.8,1.02-2.734-1.005-5.5-2.011-8.58.648-10.542-2.306-12.487,1.137-20.475-4.612-6.625,3.177-18.348-7.748-26.53-8.387-7.107-3.443-16.26-7.192-23.484-.282-7.365.821-15.872,5.94-23.081.274-6.358-2.434-11.439-.651-16.545,1.131-5.547,1.936-11.124,3.872-18.4.4-12.772-6.263-21.084-22.506-34.764-8.354-2.91.075-5.62-.91-8.265-1.895-3.5-1.3-6.885-2.6-10.473-1.456-13.342-4.472-27.956.191-41.883-5.683-14.289-8.794-25.636-8.96-40.262-4.273-8.109-.872-16.213-.342-24.319.188-9.1.595-18.191,1.19-27.29-.2-6.457.448-13.031,2.215-19.476.091-4.528-8.074-7.915-6.324-11.171-4.575-2.405,1.293-4.74,2.584-7.411-.079-11.125-6.289-21.538-17.67-35.245-7.027-12.033-2.8-24.157-5.666-36.177.05-13.784-3.02-26.583-.888-38.045-6.512-8.662-8.088-19.45-6.479-29.578-3.443-23.508-4.538-47.031-1.278-70.54.083-15.471,2.673-30.936,1.755-46.4.836-8.049-.478-16.1-.956-24.15-.927-6.232,1.563-12.563.648-18.823-.267-8.161-1.193-16.2-2.386-23.734,1.91-13.226-.166-28.281,4.463-42.078,5.657-14.627,5.857-29.163,1.211-43.7-.332q-.687-.377-1.374-.724V97.379c5.778,1.8,11.616,3.4,17.686,3.138,4.421.389,8.989-.826,13.566-2.041,7.422-1.97,14.871-3.94,21.768.929,14.951,10.353,29.591-1.676,44.308-3.55,14.73,3.683,29.539,2.041,44.814,1.294,14.653,5.865,32.78,8.03,46.849-.888,7.311-8.673,13.862-7.421,20.664-6.169,4.792.882,9.707,1.765,15.1-.824a14.656,14.656,0,0,1,7.88-.078c3.391.662,6.421,1.324,10.338-2.486,8.04-1.717,18.3-1.51,26.906-2.646,5.019-6.869,9.155-11.116,14.42-2.024,12.734-1.742,24.339-10.594,37.422-4.6,15.38-3.028,30.318-1.112,45.852,1.659,2.551,4.034,5.624,1.937,8.683-.159,3.173-2.176,6.331-4.352,8.874.325,6.043-5.1,8.623-.448,12.177-6.072,2.509.643,4.371-2.03,6.608-4.7,2.581-3.085,5.663-6.17,10.819-4.157,5.355-2.938,10.6-2.005,15.829-1.072,5.87,1.048,11.711,2.1,17.639-2.346,3.926.6,7.829-1.231,11.722-3.062,5.62-2.644,11.221-5.288,16.844-.613,2.944-3.361,5.657-2.916,8.409-2.472,2.133.344,4.289.689,6.594-.738,12.76-3.916,25.921-7.715,39.264-1.386,5.1-1.445,10.831-.53,16.567.386,6.483,1.035,12.973,2.07,18.573-.3,17.713-1.062,37.76-11.83,53.1-10.055,10.438-3.177,18.413-13.962,30.874-4.911,9.557,3.194,25.9.954,34.83-.216,1.659-7.723-1.453-9.474.337-7.814,12.163-1.17,24.482-6.628,36.839-1.884,7.223,6,14.464,3.84,21.7,1.676,5.13-1.535,10.257-3.069,15.373-1.692,3.281,1.658,6.729,1.1,10.127.545a23.547,23.547,0,0,1,6.562-.47c7.274-.39,13.965-6.695,21.214-3.053,13.927,3.26,29.279,11.879,43.4-.332,10.425,1.709,17.842,3.111,27.554-1.618,4.4.046,9.006-1.688,13.692-3.422,8.02-2.966,16.275-5.933,24.133.02,4.76,2.838,9.36,2.251,13.95,1.663,5.363-.687,10.713-1.373,16.288,3.405,12.824,4.994,25.35,2.431,38.2,4.969,10.945-.713,21.292.042,32.184.714,9.334-3.637,18.534-.868,27.74,1.9,6.459,1.943,12.921,3.886,19.434,3.616,8.188-.008,16.6.543,25.04,1.095,8.529.558,17.083,1.115,25.453,1.095,9.647,12.1,18.79,7.118,28.527,4.389,3.346.631,6.594.006,9.825-.619,5.945-1.15,11.831-2.3,18.157,4.377,6.523,2.094,13.307,1.392,20.022.689A86.074,86.074,0,0,1,1191.9,46.1c5.614,4.322,7.573-.979,12.319-2.356,5.6,4.82,13.485-.539,19.865-2.771,10.789-3.683,22.563-10.395,32.755,1.875,11.4,1.667,20.708,2.994,32.327,2.2,10.1.888,21.044-1.41,32.171-2.738,6.393-2.7,12.848-1.6,19.234-.5,4.726.814,9.413,1.628,14.012.9,11.022,2.348,18.764,11.548,28.1-3.684,11.411-7.574,24.3-3.318,37.643-9.349,13.343.954,27.14.738,40.379-5.483.791-2.563,17.077-3.1,34.92-3.675,17.842-6.106,37.229-7.541,44.231.763,9.011-8.039,15.236-1.145,21.8-7.972,3.327.737,5.968-1.151,8.793-3.039,3.371-2.254,7-4.508,12.382-2.3,11.522,2.018,21.986-.463,32.5-2.944,8.111-1.914,16.252-3.828,24.932-3.676,13.33-1.5,28.372-2.738,40.884,1.991,8.4,7.408,17.324,6.014,25.065,8.777,10.685,7.532,15.975,5.882,28.93,4.123,8.117-.224,16.247-3.352,24.365,0a143.126,143.126,0,0,0,14.8-.169,117.629,117.629,0,0,1,17.931.086c5.9-6.177,11.26-3.082,16.8.014,3.748,2.093,7.581,4.186,11.723,3.413,13.368,4.43,26.375.978,39.147-1.327,2.011,2.406,5.462,1.429,8.373.452a14.9,14.9,0,0,1,3.972-1.05c3.267,3.1,2.308-2.033,5.563-4.48,1.519-2.158,4.732-1.469,7.578-.78,1.892.458,3.621.916,4.584.539,6.212-2.057,12.423-1.02,18.622-.041,1.52,3.379,3.846,2.338,6.415,1.3,1.627-.659,3.351-1.319,5.029-.855V526.3c-4.9,4.69-9.808,1.641-14.712-.579-6.016-5.1-12.487-1.949-18.426.042-5.237,5.005-6.569,4.763-7.811,4.52-.88-.172-1.714-.343-3.86,1.353-2.939,4.469-8.862,3.819-14.87,3.17-5.256-.568-10.577-1.136-14.02,1.725-8.895-2.9-14.445.406-22.51,4.115-1.115,6.122-.674,4.056-2.113,1.526-2.4,1.551-6.744,4.422-9.415.1-5.513-1.327-11.027-.884-16.538-.44a87.9,87.9,0,0,1-9.707.423c-4.339,1.754-11.152,1.182-17.882.611-7.147-.607-14.2-1.214-18.1.965-4.888,2.439-9.932,4.422-13.161,9.382-2.282,1.851-2.515,9.971-6.573,4.82-4.565-2.074-12.967-6.081-17.9,3.932-7.7-5.573-15.668-2.706-23.627.161-6.484,2.336-12.958,4.671-19.268,2.444a14.969,14.969,0,0,1-5.967-1.082c-4.043-1.289-8.147-2.578-11.641,2.915-3.979,2.541-7.211,1.863-10.588,1.185-3.36-.674-6.865-1.349-11.391,1.146-10.127-2.281-20.255-4.77-30.381-.008-1.572-.53-3.326.11-5.1.751-2.561.923-5.174,1.846-7.371-.734-1.967,5.948-3.449,4.217-4.876,2.487-1.255-1.521-2.466-3.041-3.928.649a11.525,11.525,0,0,1-2.366-.165c-2.106-.291-4.233-.582-6.258,2.189-2.412-.008-3.786-6.545-6.418,2.953-1.278,2.609-3.2,1.679-5.162.749-2-.947-4.045-1.9-5.5.9a44.563,44.563,0,0,1-7.445.553C1534.42,579.062,1521.7,576.415,1513.283,576.228Z" transform="translate(15 13)" fill="#fff" opacity="0.381"/>
      </g>
      <path id="Intersection_3" data-name="Intersection 3" d="M1591.993,520.869a11.825,11.825,0,0,1-4.289-.629c-2.736-.773-5.28-1.546-8.77,2-8.1-2-11.437-2.972-18.633-4.948a18.66,18.66,0,0,0-7.936-.967c-3.509.149-6.967.3-13.3-3.84-10.011.4-20.385-.2-30.46-.249-1.711.65-3.674-.165-5.678-.981-2.859-1.163-5.8-2.325-8.209.765-2.464,4.093-5.149.623-8.027-3.429-1.929-.872-3.856-.084-5.778.7-3.478,1.426-6.943,2.852-10.392-5.552-16.247-9.573-33.169-5.206-51.336-12.778-5.027-1.277-10.176-.5-15.387.269-5.733.851-11.54,1.7-17.341-.177-11.061,1.22-22.083,5.5-32.444-.589-3.105-3.063-5.886-2.643-8.635-2.223-2.521.385-5.018.769-7.716-1.53-2.758,2.313-5.582.257-8.428-1.8-3.282-2.372-6.591-4.745-9.856-.408-8.571-2.7-16.83-7.8-25.246-3.562-6.951-1.668-12.721-6.21-19.114-5.18-8.3-1.553-18.128-3.114-27.127-4.625-12.319-5.089-24.508-3.719-37.033-1.984-8.092-1.685-14.835,2.067-22.848,2.856-2.126-2.814-4.266-1.76-6.393.772-2.828,9.133-4.941,14.039-6.355,4.035-4.383,4.234-8.753,11.773-13.732,1.013-1.485.386-3.534-.125-5.722-.637-3.869-.906-8.17-1.811-10.538,2.257-4.253,8.036-5.238,12.6-9.893,3.113-7.067,4.732-16.689,6.309-23.885-.125-6.392,3.655-12.783,2.065-19.172.476-5.744-1.429-11.487-2.858-17.227-.476-2.986.084-6.056-.065-9.18-.214-7.271-.347-14.839-.694-22.33,1.907-4.037,1.539-8.05-.1-11.981-1.731-6.5-2.7-12.776-5.406-18.569,6.239-18.894-1.229-39.317,6.716-59.351,7.04-1.53.116-3.047,7.364-4.564-.133-3.449,2.341-6.224,7.265-8.324,2.707-4.734-.349-6.587-4.367-12.021.689-4.954-4.3-9.468-1.739-13.914.825-3.61,2.081-7.173,4.163-10.892,2.571-6.912-2.7-12.526-1.071-20.657,1.586-6.933-5.075-12.846-2.284-18.85.508-4.653,2.163-9.361,4.326-14.642,2.829-12.268-1.478-24.6-3.653-36.866,0-8.039,5.2-13.473.174-21.019-1.735-9.518-6.683-22.355.872-30.718,1.735-9.622-1.063-17.143-5.048-24.184-4-2.91-7.091-4.668-6.97-7.045-6.848-1.956.1-4.332.2-8.113-3.72-8.221,1.187-19.139,5.928-28.19-5.322-8.441-5.107-20.859-3.463-32.253-1.818-7.055,1.018-13.717,2.037-18.8,1.453,0-1.594-3.138-4.342-3.138.357a1.632,1.632,0,0,1-2.225.62c-.623-.278-1.016-.557-1.173,1.074-1.771-.376-3.319.609-4.861,1.594-2.139,1.366-4.268,2.733-6.965.465-7.157,3.014-15.547,4.508-23.366,1.42-5.1,5.9-9.479-1.7-14.381-3.337-2.334.693-4.646-.7-6.965-2.1-3.376-2.029-6.766-4.058-10.255.352-6.833.341-5.225,5.471-10.036-2.955-6.367-.058-16.429-6.3-23.976-3.844-19.1,3.13-41.78,6.352-57.742-3.537-10.075-7.505-16.027-13.765-27.451-13.093-10.348-10.965-20.068-8.207-30.44-5.448-5.523,1.469-11.231,2.937-17.318,2.335-12.37,10.66-24.767,11.557-37.137-.008-7.565,1.533-14.577.044-21.647-1.444-6.25-1.316-12.544-2.632-19.3-1.86-7.08,8.311-8.545,4.292-15.211-2.856-8.882-6.185-14.367-7.978-25.052-3.869-17.038-2.49-34.1.008-51.154.116-4.908-5.769-10.238-3.476-15.443-1.183-3.775,1.664-7.485,3.327-10.919,1.914-5.9,9.514-7.9,10.519-14.069,2.682-10.127-4.45-17.765-6.941-26.3-5.928-8.078-2.321-17.574-1.794-27.276-1.267-9.594.521-19.389,1.043-28.208-1.191-5.107-1.9-10.833-.789-16.559.318-6.008,1.161-12.014,2.322-17.3.015-7.43,3.454-14.3,3.379-21.759,3.221-9.971,8.983-17.3,8.518-26.763,7.7-7.054,4.616-16.974,2.648-24.365.341,0-1.879-1.5-3.045-3.876-3.7V93.013q1.243.229,2.476.54c5.978-1.735,14.043.282,19.593,1.827,1.623,3.479,2.623,2.925,3.849,2.372a2.782,2.782,0,0,1,3.348.335c3.021-.564,7.2-2.382,10.348.365a117.99,117.99,0,0,0,18.249.074c6.568-.311,13.159-.622,19.718.234,12.681-1.386,25.234-1.029,37.28-2.457,6.185-4.5,10.361-6.609,16.119-3.346,8.506-10.2,19.294-5.147,28.216-2.458,12.889,8.244,21.641-4.06,33.96-8.476,11.7-3.545,26.7-7.406,39.186-.955,5.665-3.9,10.547-2.84,14.906-1.781,5.63,1.368,10.389,2.735,14.84-6.571,3.385-1.574,9.1-.117,15.658,1.34,11.055,2.455,24.516,4.91,33.305-7.135,7.515,3.658,14.356.789,21.107-2.081,7.007-2.978,13.917-5.956,21.386-1.639,13.511-.921,27.411,1.121,40.4-5.795,5.835,1.591,11.337.366,16.906-.861,5.148-1.133,10.351-2.267,15.927-1.174,9.31-3.678,20.021-6.517,29.85-4.243,14.432-5.106,29.279-5.089,44.048-3.453,10.879-5.264,21.72-3.105,32.664-2.292,10.958-2.8,22-3.636,33.286.017,12.254,6.65,24.248,1.395,35.983-.017,11.748,1.237,23.224,8.933,34.466-4.624,11.009-4.259,22.5-4.267,34.946-5.355,11.515-8.285,25.247-7.248,36.191-.706a42.272,42.272,0,0,1,8.165-.368c5.631.125,10.97.25,17.6-5.078,2.387.742,4.527-.9,6.6-2.545,2.935-2.328,5.737-4.655,8.922-.2a27.425,27.425,0,0,1,9.126-.313c3.409.265,6.857.531,10.506-.65,2.318,2.109,5.679.886,9.053-.337,3.8-1.376,7.608-2.752,9.97.619,3.231,1.244,5-1.1,6.84-3.448,1.8-2.3,3.667-4.608,7.034-3.51,4.489-.7,10.272-.166,16.244.365,7.345.653,14.977,1.306,20.841-.323,0-8.037,32.651-8.12,65.315,0,15.97-.142,31.94-.066,44.089.01,12.691.08,21.213.159,21.213-.01,11.969-9.291,23.484-1.188,34.8.531,11.321,7.1,22.447,6.808,33.624,3.612,5.236-4.368,11.1-1.517,17.023,1.334,5.078,2.444,10.2,4.888,15.006,2.784a14.087,14.087,0,0,0,6.408.789c2.175-.156,3.939-.312,7.285,2.258,4.033,8.925,9.53,8.526,13.732.282,6.9-2.142,13.813-1.021,20.685.1,8.048,1.312,16.045,2.624,23.921-1.3,8.519-2.042,16.676-4.857,25.39-2.1,4.576-6.2,8.739-4.633,12.971-3.069,2.255.833,4.528,1.666,6.895,1.326,10.2-5.944,24.767-4.483,34.7-.008,8.221,2.325,14.316,3.1,20.994,7.613,14.627,9.847,29.967,5.471,45.877,8.626,9.066,2.637,18.323,1.794,27.744.95,7.1-.636,14.285-1.271,21.557-.418,4.011-2.605,8.463-1.311,12.736-.017a24.263,24.263,0,0,0,7.4,1.486c1.412-1.494,2.5.434,3.5,2.363,1.3,2.5,2.435,5,3.914.053a17.383,17.383,0,0,0,10.762.947c5.564,1.507,11.769.26,17.893-.987s12.161-2.491,17.4-.989c9.154-2.864,13.849-5.969,21.991-8.651,8.117-2.807,20.994-1.461,30.162-.955,3.892.886,7.791.405,11.69-.075,4.1-.5,8.2-1.01,12.3.075,1.171.434,2.665.065,4.163-.3,1.767-.436,3.54-.872,4.8.014,6.86-6.111,5-11.856,8.649-14,6.471,4.6,22.3-5.5,34.038-7.273,9.09,2.69,16.545.05,25.481-1.985,6.519,1.12,12.906-.923,19.3-2.966,5.923-1.894,11.848-3.789,17.88-3.161a79.582,79.582,0,0,0,9.441-.7c6.1-.691,12.371-1.382,18.218.579,10.317-2.263,20.115-1.935,29.845-1.607,7.477.252,14.914.5,22.516-.419,13.641,7.821,27.113.465,40.664-2.715,13.551-1.345,27.192-1.038,41.157-.258a60.472,60.472,0,0,0,10.734.527c8.23-.1,15.833-.2,23.591,8.565,11.8,1.154,25.246,8.559,38.369,7.555,9.959-5.421,19.179,1.021,29.137,1.187,6.562,1.345,12.215,7.771,17.882,4.5,10.218-.656,18.037.216,30.732,5.836.784,1.761,1.846,1.175,3.086.588a4.222,4.222,0,0,1,2.264-.569V463.551c-.859-.691-1.677-1.167-2.782.746-5.753-2.072-11.542-1.056-17.332-.04s-11.575,2.031-17.329-.035c-9.621,2.764-22.264,1.918-31.484-.332-4.255-5.976-6.315-4.957-9.641-3.939a14.5,14.5,0,0,1-5.076.767c-9.752-7.181-19.684,7.389-27.957,8.593-7.339,1.71-12.4,9.282-21.11,5.554-5.939-6.94-11.968,2.433-17.7,2.441-6.224.473-13.083,2-19.671,1.859-12.137-2.233-26.323-3.429-37.125,2.781-2.614-.22-4.722,2.537-6.643,5.294-2.587,3.712-4.837,7.425-7.53,3.871a9.988,9.988,0,0,1-5.189.586c-3.821-.248-7.635-.5-10.838,8.945-4.629.772-9.129,7.331-16.767,6.65-16.066-2.242-33.416-7.09-48.976,1.843-1.492,12.819-.791,9.456-5.356,6.949-2.154,3.925-4.694,3.741-6.272,3.557-.958-.112-1.562-.224-1.508.586-2.024-5.6-4.107-3.066-6.209-.536-1.173,1.412-2.353,2.823-3.531,2.823C1593.339,522.516,1592.665,522.055,1591.993,520.869Z" transform="translate(8556.5 -1141.44)" fill="#fff6ed" stroke="rgba(0,0,0,0)" stroke-miterlimit="10" stroke-width="1" opacity="0.52"/>
    </g>
  </g>
</svg>
