<svg id="undraw_gifts_btw0" xmlns="http://www.w3.org/2000/svg" xmlns:xlink="http://www.w3.org/1999/xlink" width="442.559" height="289.554" viewBox="0 0 442.559 289.554">
  <defs>
    <linearGradient id="linear-gradient" x1="0.5" y1="1" x2="0.5" gradientUnits="objectBoundingBox">
      <stop offset="0" stop-color="gray" stop-opacity="0.251"/>
      <stop offset="0.54" stop-color="gray" stop-opacity="0.122"/>
      <stop offset="1" stop-color="gray" stop-opacity="0.102"/>
    </linearGradient>
    <linearGradient id="linear-gradient-2" x1="-2.497" y1="1" x2="-2.497" y2="0" xlink:href="#linear-gradient"/>
  </defs>
  <ellipse id="Ellipse_12" data-name="Ellipse 12" cx="221.28" cy="34.804" rx="221.28" ry="34.804" transform="translate(0 219.947)" fill="#f9a14c" opacity="0.1"/>
  <path id="Path_37" data-name="Path 37" d="M858.519,472.98v24.125l-6.379,12.87h0l-.2.407-16.884-1.115-6.49-.431-15.064-.993V478.984l15.064.423,6.735.19,17.042.483Z" transform="translate(-491.765 -285.919)" fill="#f86d70"/>
  <path id="Path_38" data-name="Path 38" d="M917.579,476.58v22.7l-1.562,3.144h0l-1.594,3.223h0l-3.223,6.5.36-24.125.071-4.869,3.065-3.389h0l1.337-1.479Z" transform="translate(-550.825 -288.095)" opacity="0.1"/>
  <path id="Path_39" data-name="Path 39" d="M857.35,454.138v8.428l-.862,1.38-1.55,2.464-1.368,2.183-3.03,4.825-.071,0-40.329-2.076v-8.309l.1-.111,4.813-5.213,1.744-1.887,3.152-3.409Z" transform="translate(-489.734 -273.484)" fill="#f86d70"/>
  <path id="Path_40" data-name="Path 40" d="M850.54,481.167v8.313l-40.4-2.08v-8.309l.1-.111Z" transform="translate(-489.734 -289.546)" opacity="0.1"/>
  <path id="Path_41" data-name="Path 41" d="M919.1,456.78v8.428l-6.81,10.852v-8.313Z" transform="translate(-551.484 -276.126)" opacity="0.15"/>
  <path id="Path_42" data-name="Path 42" d="M862.46,463.229l0,5.66,0,2.733-.012,21.4h0l-1.594,3.223.237-22.444.036-3.437h0l.055-5.07-38.6-2.381,1.744-1.887Z" transform="translate(-497.247 -278.695)" fill="#3f3d56"/>
  <path id="Path_43" data-name="Path 43" d="M861.054,467.29l-2.705,5.873-.024,2.994-.245,29.67-6.49-.431V472.772l3.461-5.482Z" transform="translate(-514.79 -282.479)" fill="#3f3d56"/>
  <path id="Path_44" data-name="Path 44" d="M883.295,536.621a8.552,8.552,0,0,1-4.841.17,1.938,1.938,0,0,1-.846-.4,2.206,2.206,0,0,1-.526-1.04,8.182,8.182,0,0,1-.463-2.488,2.769,2.769,0,0,1,1.036-2.223,2.43,2.43,0,0,0,.4-.3,1.668,1.668,0,0,0,.3-.617c.475-1.412,1.388-2.9,2.859-3.128,1.357-.206,2.591.74,3.639,1.629l2.294,1.954a3.619,3.619,0,0,1,6.751-.091,12.8,12.8,0,0,1,5.1-3.5,1.582,1.582,0,0,1,1.341-.051,1.5,1.5,0,0,1,.534.716,11.015,11.015,0,0,1,1,4.351.763.763,0,0,1,.886.3,2.013,2.013,0,0,1,.293.957,13.214,13.214,0,0,1,.091,1.582,2.373,2.373,0,0,1-.4,1.582,2.593,2.593,0,0,1-1.977.617.8.8,0,0,1-.206,1.186,2.31,2.31,0,0,1-1.341.261,9.216,9.216,0,0,1-5.169-1.056c-.585-.4-1.076-.914-1.665-1.305a8.091,8.091,0,0,0-4.916-.918C885.921,534.892,884.727,536.138,883.295,536.621Z" transform="translate(-545.937 -351.414)" fill="#3f3d56"/>
  <path id="Path_45" data-name="Path 45" d="M866.731,551.224S851.84,553.3,849.76,562.3l3.12-.459,2.191,3.923s2.31-8.772,9.12-10.852a73.23,73.23,0,0,1,9.235-2.42s4.746,1.151,9,14.89l2.424-3.35,4.271.925s-3.117-10.738-11.545-13.735Z" transform="translate(-529.701 -366.409)" fill="#3f3d56"/>
  <path id="Path_46" data-name="Path 46" d="M781.761,496.84v32.589l-8.614,17.378v0l-.273.55-22.808-1.507-8.768-.581-20.348-1.345v-38.98l20.348.573,9.1.257,23.022.649Z" transform="translate(-435.818 -300.342)" fill="#f9a14c"/>
  <path id="Path_47" data-name="Path 47" d="M861.544,501.7v30.667l-2.1,4.244v0l-2.159,4.35h0l-4.35,8.78.486-32.589.1-6.573,4.137-4.576v0l1.8-1.993Z" transform="translate(-515.6 -303.28)" opacity="0.1"/>
  <path id="Path_48" data-name="Path 48" d="M780.194,471.377v11.386l-1.171,1.863-2.088,3.326-1.851,2.95-4.09,6.518-.1-.008-54.476-2.8V483.385l.135-.146,6.506-7.04,2.353-2.551,4.259-4.607Z" transform="translate(-433.079 -283.537)" fill="#f9a14c"/>
  <path id="Path_49" data-name="Path 49" d="M770.994,507.894v11.228l-54.574-2.808V505.086l.135-.146Z" transform="translate(-433.079 -305.239)" opacity="0.1"/>
  <path id="Path_50" data-name="Path 50" d="M863.609,474.95v11.386l-9.2,14.657V489.765Z" transform="translate(-516.495 -287.109)" opacity="0.15"/>
  <path id="Path_51" data-name="Path 51" d="M787.092,483.66l-.008,7.649V495l-.016,28.915v0l-2.159,4.35.324-30.319.047-4.639v0l.075-6.85-52.146-3.211,2.353-2.551Z" transform="translate(-443.229 -290.579)" fill="#3f3d56"/>
  <path id="Path_52" data-name="Path 52" d="M785.186,489.15l-3.654,7.934-.031,4.046-.332,40.076-8.768-.581V496.558l4.679-7.408Z" transform="translate(-466.919 -295.693)" fill="#3f3d56"/>
  <path id="Path_53" data-name="Path 53" d="M801.027,553.331a11.572,11.572,0,0,1-6.538.229,2.6,2.6,0,0,1-1.143-.53,2.971,2.971,0,0,1-.712-1.4,11.075,11.075,0,0,1-.625-3.366,3.741,3.741,0,0,1,1.4-3,3.717,3.717,0,0,0,.53-.4,2.2,2.2,0,0,0,.4-.834c.637-1.906,1.875-3.919,3.864-4.224,1.831-.281,3.5,1,4.912,2.2l3.1,2.638a4.892,4.892,0,0,1,9.12-.123,17.315,17.315,0,0,1,6.893-4.746,2.125,2.125,0,0,1,1.815-.071,2.06,2.06,0,0,1,.72.965,14.924,14.924,0,0,1,1.345,5.877,1.028,1.028,0,0,1,1.187.4,2.725,2.725,0,0,1,.4,1.3,18.268,18.268,0,0,1,.126,2.132,3.2,3.2,0,0,1-.562,2.136,3.555,3.555,0,0,1-2.7.839,1.081,1.081,0,0,1-.281,1.6,3.109,3.109,0,0,1-1.811.352c-2.412-.024-4.975-.091-6.981-1.432-.791-.526-1.455-1.23-2.25-1.756-1.946-1.289-4.39-1.349-6.644-1.242C804.575,550.994,802.961,552.683,801.027,553.331Z" transform="translate(-494.791 -359.341)" fill="#3f3d56"/>
  <path id="Path_54" data-name="Path 54" d="M778.629,573.08s-20.115,2.808-22.939,14.969l4.212-.625,2.962,5.3s3.12-11.865,12.32-14.657a104.673,104.673,0,0,1,12.474-3.275s6.391,1.558,12.161,20.115l3.275-4.524,5.786,1.25s-4.212-14.5-15.594-18.557Z" transform="translate(-472.836 -379.624)" fill="#3f3d56"/>
  <path id="Path_55" data-name="Path 55" d="M899.725,537.77v20.17L894.394,568.7h0l-.17.34-14.115-.933-5.426-.36-12.593-.831V542.789l12.593.352,5.632.158,14.25.4Z" transform="translate(-521.137 -325.085)" fill="#3f3d56"/>
  <path id="Path_56" data-name="Path 56" d="M949.1,540.77v18.984l-1.3,2.626h0l-1.337,2.693v0l-2.693,5.434.3-20.17.063-4.07,2.559-2.836h0l1.119-1.234Z" transform="translate(-570.514 -326.898)" opacity="0.1"/>
  <path id="Path_57" data-name="Path 57" d="M898.75,522.008v7.048l-.724,1.151-1.293,2.061-1.143,1.827-2.531,4.03H893l-33.716-1.736v-6.949l.083-.091,4.026-4.358,1.459-1.574,2.634-2.856Z" transform="translate(-519.439 -314.681)" fill="#3f3d56"/>
  <path id="Path_58" data-name="Path 58" d="M893.059,544.607v6.949L859.28,549.82v-6.949l.083-.091Z" transform="translate(-519.439 -328.113)" opacity="0.1"/>
  <path id="Path_59" data-name="Path 59" d="M950.381,524.22v7.048l-5.691,9.069v-6.949Z" transform="translate(-571.07 -316.893)" opacity="0.15"/>
  <path id="Path_60" data-name="Path 60" d="M903.018,529.615v4.734l0,2.282-.008,17.9h0l-1.337,2.693.2-18.762.028-2.875h0l.047-4.24-32.276-1.989,1.459-1.574Z" transform="translate(-525.72 -319.046)" fill="#f9a14c"/>
  <path id="Path_61" data-name="Path 61" d="M901.844,533.01l-2.262,4.912-.02,2.5-.206,24.805-5.426-.36V537.594l2.9-4.584Z" transform="translate(-540.385 -322.207)" fill="#f9a14c"/>
  <path id="Path_62" data-name="Path 62" d="M927.068,604.75a7.191,7.191,0,0,1-4.046.142,1.649,1.649,0,0,1-.708-.332,1.864,1.864,0,0,1-.439-.866,6.86,6.86,0,0,1-.4-2.084,2.314,2.314,0,0,1,.866-1.855,1.983,1.983,0,0,0,.328-.249,1.362,1.362,0,0,0,.253-.514c.4-1.186,1.163-2.424,2.393-2.614,1.135-.174,2.167.617,3.041,1.361l1.918,1.633a3.026,3.026,0,0,1,5.644-.071,10.765,10.765,0,0,1,4.267-2.927,1.313,1.313,0,0,1,1.119-.044,1.259,1.259,0,0,1,.447.6,9.174,9.174,0,0,1,.831,3.639.633.633,0,0,1,.74.253,1.71,1.71,0,0,1,.249.791,11.4,11.4,0,0,1,.075,1.321,1.977,1.977,0,0,1-.348,1.321,2.177,2.177,0,0,1-1.669.518.672.672,0,0,1-.17.993,1.938,1.938,0,0,1-1.123.218,7.675,7.675,0,0,1-4.323-.886c-.49-.324-.9-.759-1.392-1.088a6.773,6.773,0,0,0-4.109-.767C929.263,603.3,928.266,604.347,927.068,604.75Z" transform="translate(-573.056 -393.615)" fill="#f9a14c"/>
  <path id="Path_63" data-name="Path 63" d="M913.236,616.94s-12.45,1.736-14.186,9.266l2.606-.4,1.831,3.283s1.93-7.336,7.625-9.073a62.329,62.329,0,0,1,7.72-2.025s3.955.965,7.514,12.446l2.029-2.8,3.559.791s-2.606-8.974-9.65-11.469Z" transform="translate(-559.497 -406.137)" fill="#f9a14c"/>
  <path id="Path_64" data-name="Path 64" d="M695.984,172.836c-.443-2.65-8.661-8.384-8.661-8.384a22.846,22.846,0,0,1-5.537-4.267c-1.23-1.455-1.614-1.44-1.728-1.242a.593.593,0,0,0-.269-.091c-.075-.055-.15-.107-.222-.166h0a.53.53,0,0,0-.3-.542,3.026,3.026,0,0,1-.281-.2,9.058,9.058,0,0,1-.922-3.884c-.091-1.661-1.978-1.242-2.575-1.06-.435-.827-.862-1.693-1.262-2.555a4.546,4.546,0,0,0,.411-.89c1.147-2.531.894-5.43,1.392-8.1.36-1.938,1.1-3.955.957-5.841v-.138a.068.068,0,0,1,0,.028,5.111,5.111,0,0,0-.316-1.376c-.328-.85-.906-1.582-1.187-2.464-.415-1.273-.15-2.681-.494-3.979a5.913,5.913,0,0,0-3.338-3.631,16.324,16.324,0,0,0-4.94-1.186c-4.224-.538-8.7-.858-12.557.945a2.2,2.2,0,0,1-1.187.32,3.512,3.512,0,0,1-1.068-.5,3.189,3.189,0,0,0-3.259.51,9.742,9.742,0,0,0-2.167,2.674,8.353,8.353,0,0,1-2.234,2.614c-1.127.763-2.614,1.02-3.492,2.053a3.319,3.319,0,0,0-.728,1.709.068.068,0,0,0,0-.028v.558a4.256,4.256,0,0,0,0,.5,10.918,10.918,0,0,0,.747,2.808,3.916,3.916,0,0,0,1.02,1.764c1.353,1.123,3.488.063,5.141.688a3.922,3.922,0,0,1,.4.186l-.059.19a13.447,13.447,0,0,0,13.02,17.184,7.286,7.286,0,0,0,.831-.032c.04.146.083.293.119.439a14.862,14.862,0,0,1,.4,5.031l-.083-.732a3.743,3.743,0,0,0-.562-.221,4.983,4.983,0,0,0-1.681-.257c-1.839-.028-4.612.728-7.566,4.374,0,0-3.773,2.136-4.884,2.65a.55.55,0,0,0-.206.237h0s-4.991,7.764-5.509,10.69l-.071.4-8.464-.4a15.627,15.627,0,0,0-1.424-6.095,2.179,2.179,0,0,0-.767-1.02,2.261,2.261,0,0,0-1.926.075,18.419,18.419,0,0,0-7.329,5,5.213,5.213,0,0,0-9.694.13l-3.294-2.768c-1.5-1.27-3.271-2.622-5.221-2.326-2.112.324-3.429,2.448-4.109,4.461a2.306,2.306,0,0,1-.435.882,1.529,1.529,0,0,1-.123.1l-2.594-.119-4.524,4.865-2.5,2.693-6.913,7.435-.146.154v7.427a13.5,13.5,0,0,0-.5,1.649l.5-.075v2.871l1.906.1V238.9l21.63,1.42,9.322.6L630.928,242c0,1.554.649,3.737,2.029,4.6a3.8,3.8,0,0,1,.91.819c-.071.138-.142.281-.21.423a8.716,8.716,0,0,0-1.143,3.832,5.251,5.251,0,0,1-.791,3.421s-4.983,15.721-4.872,20.238-1.776,14.447-1.776,14.447-2.057,6.4-.834,8.218,2.61,9.765,2.61,9.765a8.144,8.144,0,0,1,.886,3.366,16.784,16.784,0,0,0,.89,4.35l3.109,11.418a10.3,10.3,0,0,0,.835,5.185c1.167,2.151,1.052,1.487.5,5.24s.664,7.226,2.666,8.329a1.238,1.238,0,0,1,.573,1.716h-.02c-.51-.2-.933.87-1.186,1.736-.154.158-.257.249-.257.249l.174.044c-.111.415-.174.728-.174.728s-5.216,4.414-5.537,6.012-4,2.428-4,2.428a63.644,63.644,0,0,0-7,2.318,2.662,2.662,0,0,0-1.531,2.14,6.01,6.01,0,0,0,.2,2.159c.558,2.262,8.329,2.484,12.047,1.879s11.438-2.816,11.438-2.816,8.1-.791,10.493-1.764.5-3.528.5-3.528V358.7c.059-.921.225-4.267-.348-5.165a7.6,7.6,0,0,1-.36-3.453c1.622-2.966-1.863-11.865-1.863-11.865s.668-8.7.221-9.982-2.33-12.078-2.33-12.078-1.167-4.912-.724-5.739-.277-3.2-.277-3.2-1.886-2.646-1.72-3.472a5.115,5.115,0,0,0-.554-2.318s5.664-8.606,5.161-10.2a9.367,9.367,0,0,1,.221-4.192l1.582-2.678c1.052-1.788,2.326-3.935,2.768-4.6a57.833,57.833,0,0,0,2.59-6.557c.309-.886.518-1.495.518-1.495s.89,16.215,1.665,17.872,1.946,14.724,1.946,14.724a9.175,9.175,0,0,1,.554,3.642c-.111,2.041,1.776,10.92,1.776,10.92s.834,6.288.277,7.942-.111,13.842-.111,13.842-3.053,2.373-3.828,4.188.111,6.787.111,6.787l.356.17a10.34,10.34,0,0,0-.633,2.144c-.111,1.048-1.78,5.794-1.61,6.455s-.724,2.7-.835,3.749-1.5,2.594-1.61,3.164a13.375,13.375,0,0,1-.613,1.455,14.366,14.366,0,0,0-.72,2.242c-.554,2.314,6.051,2.7,6.051,2.7,9.769,1.819,11.548-5.624,11.548-5.624s1.218-6.621,1.665-7.119a.823.823,0,0,0,.075-.633h0A8.625,8.625,0,0,0,671,357.2a3.7,3.7,0,0,1-.281-2.159,4.47,4.47,0,0,0,.835-.154c3.955-1.159,2.333-7.835,2.333-7.835s2.662-4.41,2.662-6.122a68.729,68.729,0,0,1,.945-6.949c3.385-6.178,2.053-21.179,2.61-22.393s-1.167-5.735-2.555-7.775-.831-7.558,0-9.156-.831-7.119-.831-7.119,1.61-10.7,1.554-12.355,1.384-6.565,1.384-6.565,1.444-2.535,1.111-3.306,1.111-2.768.724-3.643.332-3.583,1.052-5.185a31.019,31.019,0,0,0,1.186-5.082l.119-.66c1.618,1.04,3.089,1.815,3.639,1.606.989-.4-.585-5.537-1.669-8.748.186-.138.261-.245.186-.3-.664-.439.075-2.428.075-2.428,3.923-2.373,2.591-4.117,1.333-5.141s-.443-3.955-.815-5.141.443-6.545,1.111-10.441a7.588,7.588,0,0,0-.024-2.559c.716-1.1,1.451-2.254,2.1-3.326,2.219-3.674,6.957-21.179,6.957-21.179l-.032-.091c.463-.929.791-1.685.993-2.187C699.092,186.956,696.427,175.482,695.984,172.836Zm-34.5-10.077.1-.051v.087ZM639.95,350.5a1.752,1.752,0,0,1-.7-.138Z" transform="translate(-367.295 -107.212)" fill="url(#linear-gradient)"/>
  <path id="Path_65" data-name="Path 65" d="M615.822,364.476c3.251,1.234,10.821,1.372,14.182,1.368h1.653l2.155-4.386-2.155-3.658s-1.977-.542-4.6-1.016c-3.876-.7-9.18-1.246-11.707.324C611.108,359.726,611.582,362.866,615.822,364.476Z" transform="translate(-386.213 -248.453)" fill="#fec2be"/>
  <path id="Path_66" data-name="Path 66" d="M652.41,366.9h1.653l2.156-4.386-2.156-3.658s-1.977-.542-4.6-1.016C651.592,359.4,656.717,362.8,652.41,366.9Z" transform="translate(-408.619 -249.51)" opacity="0.1"/>
  <path id="Path_67" data-name="Path 67" d="M687.52,242.846l-.953-1.1s-4.9,7.752-5.41,10.678-1.186,6.292-1.186,6.292-1.222,3.8-2.013,5.482a19.118,19.118,0,0,0-1.606,4.022c-.071.732.293,2.341-1.246,3.362s-1.9,3.8-1.9,3.8-5.537,5.41-8.483,5.557-11.335,1.61-11.042,3.073-3.512,2.341-5.047,2.705,9.887,4.746,3.219,10.386c0,0,4.24.878,4.679,1.9s4.9-.585,4.9-.585a4.636,4.636,0,0,1,4.244-2.413c3.291-.146,4.971-1.61,4.971-1.831a18.693,18.693,0,0,1,5.122-2.559c1.831-.514,4.24-.732,4.315-1.242s10.967-47.538,10.967-47.538Z" transform="translate(-408.031 -179.333)" fill="#4c4981"/>
  <path id="Path_68" data-name="Path 68" d="M687.52,242.846l-.953-1.1s-4.9,7.752-5.41,10.678-1.186,6.292-1.186,6.292-1.222,3.8-2.013,5.482a19.118,19.118,0,0,0-1.606,4.022c-.071.732.293,2.341-1.246,3.362s-1.9,3.8-1.9,3.8-5.537,5.41-8.483,5.557-11.335,1.61-11.042,3.073-3.512,2.341-5.047,2.705,9.887,4.746,3.219,10.386c0,0,4.24.878,4.679,1.9s4.9-.585,4.9-.585a4.636,4.636,0,0,1,4.244-2.413c3.291-.146,4.971-1.61,4.971-1.831a18.693,18.693,0,0,1,5.122-2.559c1.831-.514,4.24-.732,4.315-1.242s10.967-47.538,10.967-47.538Z" transform="translate(-408.031 -179.333)" opacity="0.05"/>
  <path id="Path_69" data-name="Path 69" d="M766.836,722.627c9.654,1.811,11.41-5.592,11.41-5.592s1.187-6.581,1.645-7.076a.811.811,0,0,0,.075-.629h0a8.578,8.578,0,0,0-1.392-3.1c-.605-.716-.111-3.678-.111-3.678L767.275,699.7a16.831,16.831,0,0,0-1.1,3.29c-.107,1.04-1.756,5.762-1.582,6.419s-.712,2.689-.823,3.73-1.479,2.579-1.582,3.128a13.469,13.469,0,0,1-.605,1.443,14.115,14.115,0,0,0-.712,2.231C760.3,722.243,766.836,722.627,766.836,722.627Z" transform="translate(-475.949 -456.166)" fill="#ca8496"/>
  <path id="Path_70" data-name="Path 70" d="M766.809,737.346c9.654,1.811,11.41-5.592,11.41-5.592s1.186-6.581,1.645-7.075a.81.81,0,0,0,.075-.629l-2.325,6.66s-1.918,4.006-9.049,3.4c-4.058-.34-6.055-1.1-7.024-1.681a14.105,14.105,0,0,0-.712,2.231C760.275,736.963,766.809,737.346,766.809,737.346Z" transform="translate(-475.922 -470.886)" opacity="0.1"/>
  <path id="Path_71" data-name="Path 71" d="M791.059,728.388s-2.413.055-2.579-1.918Z" transform="translate(-492.657 -472.349)" opacity="0.1"/>
  <path id="Path_72" data-name="Path 72" d="M688.3,466.68c1.187,1.811,2.579,9.709,2.579,9.709a8.191,8.191,0,0,1,.878,3.346,17.254,17.254,0,0,0,.878,4.35l3.073,11.355a10.208,10.208,0,0,0,.823,5.141c1.155,2.128,1.04,1.483.49,5.213s.66,7.186,2.634,8.282-.878,3.674-.878,3.674,12.616,3.4,15.25,1.317-1.372-12.395-1.372-12.395.657-8.669.221-9.931-2.306-12.023-2.306-12.023-1.151-4.88-.712-5.7-.277-3.184-.277-3.184-1.863-2.63-1.7-3.453a5.071,5.071,0,0,0-.55-2.294s5.592-8.559,5.1-10.148a9.469,9.469,0,0,1,.217-4.169s.708-1.214,1.558-2.662c1.04-1.78,2.3-3.911,2.721-4.576a58.888,58.888,0,0,0,2.559-6.522l.514-1.487s.874,16.124,1.645,17.77,1.918,14.633,1.918,14.633a9.19,9.19,0,0,1,.55,3.623c-.111,2.029,1.756,10.86,1.756,10.86s.823,6.253.273,7.91-.111,13.767-.111,13.767-3.018,2.373-3.785,4.169.111,6.747.111,6.747,8.776,4.386,12.656,3.235,2.3-7.787,2.3-7.787,2.634-4.39,2.634-6.091a68.877,68.877,0,0,1,.933-6.909c3.346-6.146,2.029-21.064,2.575-22.27s-1.131-5.707-2.511-7.72-.823-7.514,0-9.1-.815-7.119-.815-7.119,1.582-10.643,1.538-12.288,1.372-6.526,1.372-6.526,1.424-2.523,1.1-3.291,1.1-2.745.712-3.623.328-3.559,1.044-5.141a33.086,33.086,0,0,0,1.187-5.054c.336-1.894.585-3.559.585-3.559l-9.053-7.293-22.6-5.932-8.5-2.745-8.282,13.051s-.854,1.364-1.614,2.939a8.738,8.738,0,0,0-1.127,3.809,5.265,5.265,0,0,1-.767,3.4s-4.956,15.642-4.845,20.147-1.74,14.372-1.74,14.372S687.092,464.868,688.3,466.68Z" transform="translate(-431.867 -275.473)" fill="#4c4981"/>
  <path id="Path_73" data-name="Path 73" d="M610.482,209.76v34.23l-9.049,18.256h0l-.289.577-23.955-1.582-9.207-.609-21.372-1.412V218.275l21.372.605,9.559.269,24.177.684Z" transform="translate(-330.428 -126.801)" fill="#f9a14c"/>
  <path id="Path_74" data-name="Path 74" d="M694.279,214.87v32.209l-2.211,4.457v0l-2.27,4.568v0l-4.568,9.223.51-34.23.1-6.905,4.346-4.809h0l1.894-2.1Z" transform="translate(-414.225 -129.89)" opacity="0.1"/>
  <path id="Path_75" data-name="Path 75" d="M608.831,183.026v11.956l-1.226,1.958-2.2,3.5-1.946,3.1-4.295,6.842-.1,0-57.216-2.942V195.634l.142-.154,6.83-7.4,2.476-2.674,4.469-4.841Z" transform="translate(-327.551 -109.155)" fill="#f9a14c"/>
  <path id="Path_76" data-name="Path 76" d="M599.169,221.375v11.79l-57.319-2.946V218.424l.142-.154Z" transform="translate(-327.551 -131.945)" opacity="0.1"/>
  <path id="Path_77" data-name="Path 77" d="M696.442,186.78v11.956l-9.662,15.393v-11.79Z" transform="translate(-415.162 -112.909)" opacity="0.15"/>
  <path id="Path_78" data-name="Path 78" d="M616.075,195.927l-.008,8.032v3.876l-.016,30.366v0l-2.27,4.568.34-31.841.051-4.876h0l.079-7.194-54.772-3.378,2.476-2.674Z" transform="translate(-338.208 -116.555)" fill="#3f3d56"/>
  <path id="Path_79" data-name="Path 79" d="M614.081,201.69l-3.84,8.333-.032,4.248-.352,42.093-9.207-.609V209.465l4.912-7.775Z" transform="translate(-363.096 -121.923)" fill="#3f3d56"/>
  <path id="Path_80" data-name="Path 80" d="M628.708,264.841a12.174,12.174,0,0,1-6.862.241,2.8,2.8,0,0,1-1.187-.558,3.132,3.132,0,0,1-.743-1.475,11.686,11.686,0,0,1-.657-3.532,4,4,0,0,1,1.467-3.164,3.219,3.219,0,0,0,.558-.419,2.241,2.241,0,0,0,.431-.874c.672-2,1.977-4.117,4.058-4.437,1.926-.293,3.678,1.052,5.161,2.314l3.255,2.768a5.141,5.141,0,0,1,9.579-.131,18.169,18.169,0,0,1,7.242-4.967,2.222,2.222,0,0,1,1.9-.075,2.179,2.179,0,0,1,.755,1.016,15.609,15.609,0,0,1,1.412,6.17,1.08,1.08,0,0,1,1.254.435,2.836,2.836,0,0,1,.419,1.36,19.269,19.269,0,0,1,.131,2.243,3.386,3.386,0,0,1-.589,2.242,3.726,3.726,0,0,1-2.832.878,1.14,1.14,0,0,1-.293,1.685,3.291,3.291,0,0,1-1.906.368c-2.531-.024-5.224-.095-7.332-1.5-.831-.554-1.527-1.293-2.373-1.847-2.045-1.353-4.611-1.416-6.977-1.305C632.438,262.4,630.741,264.177,628.708,264.841Z" transform="translate(-390.363 -184.528)" fill="#3f3d56"/>
  <path id="Path_81" data-name="Path 81" d="M605.2,285.62s-21.127,2.946-24.078,15.721l4.426-.653,3.109,5.569s3.279-12.45,12.941-15.4,13.1-3.441,13.1-3.441,6.723,1.641,12.774,21.127l3.441-4.746,6.059,1.313s-4.422-15.231-16.378-19.49Z" transform="translate(-367.307 -205.853)" fill="#3f3d56"/>
  <path id="Path_82" data-name="Path 82" d="M772.181,204.293c.348-.142,24.208-9.994,20.922-11.956-1.95-1.163-4.35-6.087-6-9.943-1.147-2.7-1.926-4.865-1.926-4.865s-19.15-3.4-12.3,8.337a21.705,21.705,0,0,1,2.416,5.782C777.256,199.642,772.34,204.147,772.181,204.293Z" transform="translate(-482.335 -140.235)" fill="#fec2be"/>
  <path id="Path_83" data-name="Path 83" d="M772.885,185.867a21.705,21.705,0,0,1,2.416,5.782,13.383,13.383,0,0,0,11.307-7.949,12.618,12.618,0,0,0,.5-1.305c-1.147-2.7-1.926-4.865-1.926-4.865S766.031,174.129,772.885,185.867Z" transform="translate(-482.335 -140.235)" opacity="0.1"/>
  <path id="Path_84" data-name="Path 84" d="M745.05,158.6a13.384,13.384,0,0,0,25.628,5.4,13.249,13.249,0,0,0,1.139-5.4,13.384,13.384,0,1,0-26.767,0Z" transform="translate(-466.404 -120.98)" fill="#fec2be"/>
  <path id="Path_85" data-name="Path 85" d="M712.4,416.8a8.17,8.17,0,0,1,1.942,3.7s6.6,4.5,6.146,1.645,3.4-14.368,3.4-14.368l-.439,15.685s21.06-.985,22.6-2.523,10.532-4.5,10.532-4.5,2.768,2.211,5.284,3.888c.336-1.894.585-3.559.585-3.559l-9.053-7.293-22.6-5.932-8.5-2.745-8.282,13.051S713.159,415.228,712.4,416.8Z" transform="translate(-446.667 -275.479)" opacity="0.1"/>
  <path id="Path_86" data-name="Path 86" d="M707.587,295.561c1.752,1.1,2.412,4.062,2.412,4.062s6.581,4.5,6.142,1.645,3.4-14.372,3.4-14.372l-.439,15.685s21.064-.985,22.6-2.523,10.532-4.5,10.532-4.5,7.787,6.253,9.215,5.707-2.523-11.193-2.523-11.193l-4.058-62.31s1.1-18.541-.55-19.2a2.373,2.373,0,0,1-.692-.431c-1.084-.977-1.408-2.954-1.5-4.615-.107-1.977-2.741-.989-2.741-.989l1.534,1.977-13.593,8.262-.119.075a15.5,15.5,0,0,0-1.633-.744c-1.187-.463-2.8-.9-3.852-.463a3.713,3.713,0,0,0-1.44,1.293,16.294,16.294,0,0,0-1.851,3.753l-4.936,8.337s-2.523,11.074-2.523,11.517-.767,10.532-1.645,11.628-1.756,6.585-1.428,8.23-.55,7.787-.55,7.787c-3.619,2.962-5.485,13.051-5.485,13.051s-5.7,11.3-6.142,12.616S705.831,294.465,707.587,295.561Z" transform="translate(-442.542 -155.476)" fill="#fff"/>
  <path id="Path_87" data-name="Path 87" d="M785.85,213.869c1.333,1.977,5.185,4.746,5.185,4.746l11.117-9.389c-1.084-.977-1.408-2.954-1.5-4.615-.107-1.977-2.741-.989-2.741-.989l.316.4a1.768,1.768,0,0,1-.475,2.594Z" transform="translate(-491.068 -156.135)" opacity="0.1"/>
  <path id="Path_88" data-name="Path 88" d="M785.85,212.759c1.333,1.977,5.185,4.746,5.185,4.746l11.117-9.389c-1.084-.977-1.408-2.954-1.5-4.615-.107-1.977-2.741-.989-2.741-.989l.316.4a1.768,1.768,0,0,1-.475,2.594Z" transform="translate(-491.068 -155.464)" fill="#fff"/>
  <path id="Path_89" data-name="Path 89" d="M772.85,229.958c1.436,1.72,3.472,3.666,3.377,2.689s1.214-3.128,2.049-4.093a6.071,6.071,0,0,0-3.987.107A3.757,3.757,0,0,0,772.85,229.958Z" transform="translate(-483.209 -171.183)" opacity="0.1"/>
  <path id="Path_90" data-name="Path 90" d="M772.29,228.627c1.44,1.716,3.472,3.666,3.378,2.689s1.08-2.555,1.914-3.52c-1.187-.463-2.8-.9-3.852-.467A3.693,3.693,0,0,0,772.29,228.627Z" transform="translate(-482.871 -170.509)" fill="#fff"/>
  <circle id="Ellipse_13" data-name="Ellipse 13" cx="0.878" cy="0.878" r="0.878" transform="translate(292.141 65.486)" fill="#ff718d"/>
  <circle id="Ellipse_14" data-name="Ellipse 14" cx="0.878" cy="0.878" r="0.878" transform="translate(285.484 89.18)" fill="#ff718d"/>
  <circle id="Ellipse_15" data-name="Ellipse 15" cx="0.878" cy="0.878" r="0.878" transform="translate(277.95 113.171)" fill="#ff718d"/>
  <circle id="Ellipse_16" data-name="Ellipse 16" cx="0.878" cy="0.878" r="0.878" transform="translate(277.733 139.278)" fill="#ff718d"/>
  <circle id="Ellipse_17" data-name="Ellipse 17" cx="0.878" cy="0.878" r="0.878" transform="translate(288.265 76.675)" fill="#ff718d"/>
  <circle id="Ellipse_18" data-name="Ellipse 18" cx="0.878" cy="0.878" r="0.878" transform="translate(282.34 101.029)" fill="#ff718d"/>
  <circle id="Ellipse_19" data-name="Ellipse 19" cx="0.878" cy="0.878" r="0.878" transform="translate(276.562 124.945)" fill="#ff718d"/>
  <circle id="Ellipse_20" data-name="Ellipse 20" cx="0.878" cy="0.878" r="0.878" transform="translate(277.879 142.204)" fill="#ff718d"/>
  <path id="Path_91" data-name="Path 91" d="M797.174,217.868s-.146-1.317,1.756.949a23.163,23.163,0,0,0,5.486,4.244s8.12,5.7,8.555,8.337,3.069,14.04,1.681,17.845-12,22.013-12,22.013,2.768,3.291,2.124,7.166-1.463,9.215-1.1,10.386-.439,4.093.791,5.118,2.559,2.768-1.317,5.122c0,0-.732,1.978-.075,2.413s-9.725,4.975-13.823,2.559-11.469-21.721-11.628-26.035,2.266-18.588,3.583-21.942,5.268-16.453,6.949-19.379S797.174,217.868,797.174,217.868Z" transform="translate(-486.093 -164.666)" opacity="0.1"/>
  <path id="Path_92" data-name="Path 92" d="M798.266,217.868s-.146-1.317,1.756.949a23.163,23.163,0,0,0,5.486,4.244s8.115,5.7,8.558,8.337,3.069,14.04,1.681,17.845-12.011,22.013-12.011,22.013,2.768,3.291,2.124,7.166-1.463,9.215-1.1,10.386-.439,4.093.791,5.118,2.559,2.768-1.317,5.122c0,0-.732,1.978-.075,2.413s-9.725,4.975-13.823,2.559-11.469-21.721-11.628-26.035,2.266-18.588,3.583-21.942,5.268-16.453,6.949-19.379S798.266,217.868,798.266,217.868Z" transform="translate(-486.746 -164.666)" fill="#4c4981"/>
  <path id="Path_93" data-name="Path 93" d="M826.282,249.88s-6.288,6.949-6.071,11.556C820.212,261.436,820.125,253.977,826.282,249.88Z" transform="translate(-511.836 -184.248)" opacity="0.1"/>
  <path id="Path_94" data-name="Path 94" d="M802.492,278.73c0,.221-4.24,16.018-4.022,17.991s-1.242,7.823-1.242,7.823l-1.977-.514s1.535-8.116,1.827-11.113S802.492,278.73,802.492,278.73Z" transform="translate(-496.75 -201.688)" opacity="0.1"/>
  <path id="Path_95" data-name="Path 95" d="M809.31,392.64c.146.221,10.022,11.41,7.242,12.213S809.31,392.64,809.31,392.64Z" transform="translate(-505.249 -270.547)" opacity="0.1"/>
  <path id="Path_96" data-name="Path 96" d="M829.84,385.43c.217.146,3.955,8.044,4.386,5.932s-3.215,5.778-3.8-.075Z" transform="translate(-517.66 -266.188)" opacity="0.1"/>
  <path id="Path_97" data-name="Path 97" d="M745.032,224s-4.078-2.484-9.2,3.876c0,0-3.729,2.124-4.825,2.634s-2.341,14.115-2.341,14.115-2.412,5.849-1.756,9.215-1.9,14.922-1.9,14.922-4.244,20.767-4.1,21.357,4.315-6.51,4.24-10.018,3.512-14.483,4.026-15.14,4.026-19.458,4.026-19.458,2.852-7.973,4.679-10.6,4.1-7.605,5.047-8.483a9.58,9.58,0,0,1,2.266-1.463Z" transform="translate(-451.811 -168.314)" opacity="0.1"/>
  <path id="Path_98" data-name="Path 98" d="M744.376,224s-4.572-2.484-9.694,3.876c0,0-3.73,2.124-4.825,2.634s-2.341,14.115-2.341,14.115-2.412,5.849-1.756,9.215-1.9,14.922-1.9,14.922-4.244,20.767-4.1,21.357,4.315-6.51,4.244-10.018,3.508-14.483,4.022-15.14,4.022-19.454,4.022-19.454,2.852-7.973,4.679-10.6,4.1-7.605,5.047-8.483a8.988,8.988,0,0,1,2.705-1.463Z" transform="translate(-451.116 -168.314)" fill="#4c4981"/>
  <path id="Path_99" data-name="Path 99" d="M700.606,334.7s-8.7-5.7-12.909-2.891-11.074,6.8-4.315,9.694,16.124,2.337,16.124,2.337Z" transform="translate(-427.406 -233.303)" fill="#fec2be"/>
  <path id="Path_100" data-name="Path 100" d="M745.843,470.9c1.3,2.768,2.373,16.765,3.093,21.2,1.04-1.78,2.3-3.911,2.721-4.576A58.9,58.9,0,0,0,754.215,481c-.827-2.009-3.109-7.768-3.109-9.887,0-2.579-4.169-5.814-4.169-5.814A4.843,4.843,0,0,0,745.843,470.9Z" transform="translate(-466.591 -314.47)" opacity="0.1"/>
  <path id="Path_101" data-name="Path 101" d="M797.656,584.637S788,580.52,785.15,583.451,797.656,584.637,797.656,584.637Z" transform="translate(-490.431 -385.256)" opacity="0.1"/>
  <path id="Path_102" data-name="Path 102" d="M803.58,592.22s9.765,5.486,6.419,6.415S803.58,592.22,803.58,592.22Z" transform="translate(-501.785 -391.194)" opacity="0.1"/>
  <path id="Path_103" data-name="Path 103" d="M729.8,580.15s4.169.273,2.575,1.1S729.8,580.15,729.8,580.15Z" transform="translate(-457.185 -383.897)" opacity="0.1"/>
  <path id="Path_104" data-name="Path 104" d="M716.62,583.34c.055.273,12.122,4.168,9.765,5.932S716.62,583.34,716.62,583.34Z" transform="translate(-449.218 -385.826)" opacity="0.1"/>
  <path id="Path_105" data-name="Path 105" d="M800.156,663.955c-1.807-.273-11.9-4.936-7.953-1.582A7.835,7.835,0,0,0,800.156,663.955Z" transform="translate(-494.359 -432.871)" opacity="0.1"/>
  <path id="Path_106" data-name="Path 106" d="M793.319,677.51s-.878,3.4-4.224,2.962S793.319,677.51,793.319,677.51Z" transform="translate(-492.513 -442.752)" opacity="0.1"/>
  <path id="Path_107" data-name="Path 107" d="M796,691.441c-.605-.166-7.791-3.457-7.953-1.922s6.854,4.224,7.4,3.4a2.935,2.935,0,0,0,.55-1.479Z" transform="translate(-492.393 -449.765)" opacity="0.1"/>
  <path id="Path_108" data-name="Path 108" d="M732.919,683c-.878-.055-9.1-2.685-10.749-.328Z" transform="translate(-452.573 -445.281)" opacity="0.1"/>
  <path id="Path_109" data-name="Path 109" d="M725.688,687.669a2.911,2.911,0,0,0-2.852-.6C721.412,687.728,725.688,687.669,725.688,687.669Z" transform="translate(-452.8 -448.414)" opacity="0.1"/>
  <path id="Path_110" data-name="Path 110" d="M773.683,723.28a2.444,2.444,0,0,1-1.863,1.918Z" transform="translate(-482.586 -470.42)" opacity="0.1"/>
  <path id="Path_111" data-name="Path 111" d="M670.346,709.225c.55,2.246,8.23,2.468,11.9,1.863s11.3-2.78,11.3-2.78,8.009-.767,10.366-1.756.494-3.512.494-3.512v-.233c.055-.918.221-4.244-.344-5.141-.661-1.04-.277-4.441-.277-4.441s-11.351,2.195-11.572,1.151-1.977-2.523-2.8-2.851-1.428,2.741-1.428,2.741-5.141,4.39-5.485,5.98-3.955,2.412-3.955,2.412a62.43,62.43,0,0,0-6.913,2.306,2.662,2.662,0,0,0-1.515,2.128A6.07,6.07,0,0,0,670.346,709.225Z" transform="translate(-421.101 -451.208)" fill="#ca8496"/>
  <path id="Path_112" data-name="Path 112" d="M670.369,726.509c.55,2.246,8.23,2.468,11.9,1.863s11.3-2.78,11.3-2.78,8.009-.767,10.366-1.756.494-3.512.494-3.512v-.233l-11.469,2.539s-5.648,2.413-9.266,2.413c-3.164,0-10.243,1.3-13.53-.668A6.07,6.07,0,0,0,670.369,726.509Z" transform="translate(-421.124 -468.492)" opacity="0.1"/>
  <path id="Path_113" data-name="Path 113" d="M710,714.4s.55,3.623,2.745,4.829Z" transform="translate(-445.216 -465.052)" opacity="0.1"/>
  <path id="Path_114" data-name="Path 114" d="M746.37,154.9a3.561,3.561,0,0,0,.649.269c1.032.277,2.037-.415,2.95-.969s2.175-.965,2.966-.249c1.032.937.285,2.942,1.349,3.844.672.573,1.74.4,2.488.85a3.526,3.526,0,0,1,1.163,2.393c.19.894.566,1.906,1.44,2.167s1.681-.312,2.539-.281c.178,0,.4.028.506-.1a.53.53,0,0,0,.083-.4,8.457,8.457,0,0,1,.281-3.164,3.058,3.058,0,0,1,2.227-2.088c1.542-.237,2.836,1.115,3.741,2.373a38.869,38.869,0,0,1,2.594,4.176,3.087,3.087,0,0,1,.13.289,13.249,13.249,0,0,0,1.139-5.4A13.384,13.384,0,0,0,746.37,154.9Z" transform="translate(-467.202 -120.978)" opacity="0.1"/>
  <path id="Path_115" data-name="Path 115" d="M757.783,147.665c-.906-1.27-2.2-2.618-3.741-2.373a3.026,3.026,0,0,0-2.227,2.084,8.4,8.4,0,0,0-.277,3.164.545.545,0,0,1-.091.4c-.118.131-.324.111-.5.1-.858-.032-1.713.526-2.539.281s-1.25-1.273-1.44-2.167a3.423,3.423,0,0,0-1.163-2.373c-.767-.467-1.815-.277-2.488-.85-1.064-.906-.316-2.911-1.349-3.844-.791-.72-2.053-.308-2.966.245s-1.918,1.246-2.95.973c-.348-.095-.66-.3-1-.427-1.625-.617-3.734.431-5.07-.684a3.9,3.9,0,0,1-1.012-1.752,11.162,11.162,0,0,1-.74-2.792,3.733,3.733,0,0,1,.744-2.725c.87-1.028,2.341-1.281,3.453-2.041a8.632,8.632,0,0,0,2.207-2.6,9.787,9.787,0,0,1,2.14-2.662,3.162,3.162,0,0,1,3.219-.5,3.626,3.626,0,0,0,1.056.5,2.194,2.194,0,0,0,1.186-.32c3.8-1.792,8.234-1.475,12.407-.941a16.094,16.094,0,0,1,4.884,1.186,5.855,5.855,0,0,1,3.294,3.611c.34,1.289.079,2.689.49,3.955.277.862.846,1.582,1.186,2.448.89,2.31-.174,4.849-.625,7.285-.494,2.662-.245,5.537-1.376,8.064-.222.494-.471,1.361-1.028,1.032-.4-.241-.815-1.645-1.052-2.08A38.5,38.5,0,0,0,757.783,147.665Z" transform="translate(-456.218 -109.321)" fill="#9a5e7f"/>
  <path id="Path_116" data-name="Path 116" d="M778.532,269.987l1.977,5.632s-4.683,17.4-6.878,21.064-5.41,8.337-5.41,8.337a20.087,20.087,0,0,1-11.7,1.463c-6.292-1.242-24.647-4.536-24.647-4.536a2.434,2.434,0,0,1-2.337-.878c-.8-1.171-4.975-1.756-4.975-1.756s-4.825-7.02,1.1-9.947c0,0,.728,1.61,3.876.514s4.094.878,4.094.878,5.122,1.024,7.973.657,9.947-.51,10.678-1.1a.937.937,0,0,1,1.317.071,7.99,7.99,0,0,0,2.337-1.313c.585-.656,1.392.728,1.392.728s1.024-.581.732-1.313.949-3.512.949-3.512a7.1,7.1,0,0,0,.218-3.291c-.368-1.463,1.831-6.723,1.831-6.723a9.31,9.31,0,0,0-.293-2.634c-.368-1.317,2.768-3.955,2.768-3.955s3.073-14.918,9.583-10.018A12.793,12.793,0,0,1,778.532,269.987Z" transform="translate(-452.897 -188.776)" opacity="0.1"/>
  <path id="Path_117" data-name="Path 117" d="M779.66,269.987l1.977,5.632s-4.683,17.4-6.878,21.064-5.41,8.337-5.41,8.337a20.1,20.1,0,0,1-11.7,1.463c-6.288-1.242-24.655-4.536-24.655-4.536a2.434,2.434,0,0,1-2.337-.878c-.8-1.171-4.975-1.756-4.975-1.756s-4.825-7.02,1.1-9.947c0,0,.728,1.61,3.876.514s4.093.878,4.093.878,5.141,1.024,7.973.657,9.947-.51,10.678-1.1a.933.933,0,0,1,1.313.071,8,8,0,0,0,2.341-1.313c.585-.656,1.392.728,1.392.728s1.02-.581.728-1.313.953-3.512.953-3.512a7.094,7.094,0,0,0,.217-3.291c-.368-1.463,1.831-6.723,1.831-6.723a9.31,9.31,0,0,0-.293-2.634c-.368-1.317,2.768-3.955,2.768-3.955s3.073-14.918,9.583-10.018A12.81,12.81,0,0,1,779.66,269.987Z" transform="translate(-453.574 -188.776)" fill="#4c4981"/>
  <path id="Path_118" data-name="Path 118" d="M743.434,348.82c.075.51,1.685,2.559,1.1,2.923s-1.538.146-.661,1.317.791,2.927.221,2.705-1.535-2.852-1.535-3.876A11.508,11.508,0,0,1,743.434,348.82Z" transform="translate(-464.899 -244.057)" opacity="0.1"/>
  <path id="Path_119" data-name="Path 119" d="M799.7,345.86s.439,5.118,4.022,6.581S799.7,345.86,799.7,345.86Z" transform="translate(-499.44 -242.268)" opacity="0.1"/>
  <path id="Path_120" data-name="Path 120" d="M818.56,341.42c.218.071,5.118,2.705,2.923,4.24S818.56,341.42,818.56,341.42Z" transform="translate(-510.841 -239.584)" opacity="0.1"/>
  <path id="Path_121" data-name="Path 121" d="M819.3,332.17s7.166,1.463,4.746,2.705S819.3,332.17,819.3,332.17Z" transform="translate(-511.288 -233.992)" opacity="0.1"/>
  <g id="Group_36" data-name="Group 36" transform="translate(271.978 27.234)" opacity="0.1">
    <path id="Path_122" data-name="Path 122" d="M787.4,165.913a3.053,3.053,0,0,1,2.227-2.084c1.542-.237,2.836,1.111,3.741,2.373a38.412,38.412,0,0,1,2.594,4.172c.237.439.641,1.843,1.052,2.084.558.328.791-.542,1.028-1.036,1.131-2.515.882-5.4,1.376-8.06a46.9,46.9,0,0,0,.941-4.7c.166,1.91-.581,3.923-.941,5.873-.494,2.662-.245,5.537-1.376,8.06-.221.494-.471,1.36-1.028,1.036-.4-.241-.815-1.645-1.052-2.084a38.419,38.419,0,0,0-2.579-4.169c-.906-1.273-2.2-2.618-3.741-2.373a3.027,3.027,0,0,0-2.227,2.084,5.8,5.8,0,0,0-.293,1.645A7.567,7.567,0,0,1,787.4,165.913Z" transform="translate(-763.796 -156.338)"/>
    <path id="Path_123" data-name="Path 123" d="M728.945,155.42a3.92,3.92,0,0,0,1.012,1.752c1.337,1.115,3.445.063,5.07.684a9.97,9.97,0,0,0,1,.423c1.032.277,2.037-.4,2.95-.969s2.175-.965,2.966-.249c1.032.937.285,2.942,1.349,3.844.672.577,1.74.4,2.488.85a3.521,3.521,0,0,1,1.163,2.373c.19.874.566,1.906,1.44,2.167s1.681-.312,2.539-.281c.178,0,.4.028.5-.1a.29.29,0,0,0,.063-.107c0,.293,0,.585.028.878a.554.554,0,0,1-.091.4c-.119.131-.324.111-.5.1-.858-.032-1.713.526-2.539.281s-1.25-1.277-1.44-2.167a3.518,3.518,0,0,0-1.163-2.393c-.767-.486-1.815-.277-2.488-.85-1.064-.9-.316-2.907-1.349-3.844-.791-.716-2.053-.3-2.966.249s-1.918,1.246-2.95.969c-.348-.095-.661-.293-1-.423-1.625-.621-3.733.431-5.07-.684a3.911,3.911,0,0,1-1.012-1.756,11.073,11.073,0,0,1-.74-2.792,4.524,4.524,0,0,1,.024-.981A11.87,11.87,0,0,0,728.945,155.42Z" transform="translate(-728.189 -152.79)"/>
  </g>
  <path id="Path_124" data-name="Path 124" d="M274.06,578.821c0,24.687,14.329,44.691,32,44.691s32-20.012,32-44.691-14.329-44.691-32-44.691S274.06,554.138,274.06,578.821Zm2.207-.6c0-21.61,12.6-39.13,28.139-39.13s28.163,17.528,28.163,39.13-12.6,39.13-28.143,39.13S276.267,599.834,276.267,578.224Z" transform="translate(-181.688 -356.078)" fill="#35323e"/>
  <path id="Path_125" data-name="Path 125" d="M313.165,400.18l2.207,37.525h43.37a15.029,15.029,0,0,1,10.2,3.856,13.59,13.59,0,0,1,4.374,8.835v56.283h-5.537l.04-3.864H313.145v-5.537H367.89l.451-45.158a7.334,7.334,0,0,0-.174-1.689,8.915,8.915,0,0,0-3.844-5.723,7.166,7.166,0,0,0-3.678-.957H311.5l-2.768-39.178H292.2V400.18Z" transform="translate(-192.654 -275.105)" fill="#464353"/>
  <path id="Path_126" data-name="Path 126" d="M313.165,400.18l2.207,37.525h43.37a15.029,15.029,0,0,1,10.2,3.856,13.59,13.59,0,0,1,4.374,8.835v56.283h-5.537l.04-3.864H313.145v-5.537H367.89l.451-45.158a7.334,7.334,0,0,0-.174-1.689,8.915,8.915,0,0,0-3.844-5.723,7.166,7.166,0,0,0-3.678-.957H311.5l-2.768-39.178H292.2V400.18Z" transform="translate(-192.654 -275.105)" opacity="0.1"/>
  <path id="Path_127" data-name="Path 127" d="M237.551,365.066,195.89,363.69l2.207,57.936,99.874,1.1-2.484-23.449-54.353,9.1Z" transform="translate(-118.416 -219.852)" fill="#35323e"/>
  <rect id="Rectangle_36" data-name="Rectangle 36" width="55.18" height="5.517" transform="translate(81.334 222.189)" fill="#464353"/>
  <path id="Path_128" data-name="Path 128" d="M336.793,610.375V594.16h4.414v16.215c1.633,1.222,2.768,3.745,2.768,6.668,0,4.113-2.227,7.447-4.967,7.447s-4.967-3.334-4.967-7.447C334.044,614.121,335.171,611.6,336.793,610.375Z" transform="translate(-217.946 -392.366)" fill="#464353"/>
  <path id="Path_129" data-name="Path 129" d="M380.724,667.951a5.189,5.189,0,0,0-6.783-.241h0s-6.621,4.414-.554,23.176c0,0,4.418,2.768,2.207-6.071s-1.1-14.349,1.1-14.349,4.967,6.071,4.967,6.071l3.864-1.653A23.468,23.468,0,0,0,380.724,667.951Z" transform="translate(-240.184 -436.135)" fill="#464353"/>
  <path id="Path_130" data-name="Path 130" d="M485.364,667.951a5.189,5.189,0,0,0-6.783-.241h0s-6.621,4.414-.554,23.176c0,0,4.418,2.768,2.211-6.071s-1.107-14.349,1.1-14.349,4.964,6.071,4.964,6.071l3.864-1.653A23.468,23.468,0,0,0,485.364,667.951Z" transform="translate(-303.44 -436.135)" fill="#464353"/>
  <ellipse id="Ellipse_21" data-name="Ellipse 21" cx="12.415" cy="16.555" rx="12.415" ry="16.555" transform="translate(169.07 236.538)" fill="#35323e"/>
  <ellipse id="Ellipse_22" data-name="Ellipse 22" cx="12.415" cy="16.555" rx="12.415" ry="16.555" transform="translate(127.686 236.538)" fill="#35323e"/>
  <path id="Path_131" data-name="Path 131" d="M333.8,461.018a7.486,7.486,0,0,0-4.4-2.266c-2.472,0-12.217-11.564-12.865-13.2-.237-.6-.633-.4-1.036.131a30.721,30.721,0,0,1-2.1-6.387c1.044-.265,1.712-.459,1.712-.459s.127-3.726-.791-4.113h-.024c-.886-.522-.886-8.207-.886-8.207s-2.076-6.791-1.815-9.243-5.185-21.115-5.185-21.115-1.428-11.22-4.026-12.355c-2.2-.961-20.684-6.237-26.4-7.858-.123-.277-1.008-2.017-3.88-2.017-3.12,0-12.474.13-15.59-3.469a7.207,7.207,0,0,1-.961-1.558c1.542-2.836,1.641-7.514,1.088-8.594a20.805,20.805,0,0,1-1.3-4.627s-.4-7.451-.918-9.381-2.721-17.734-2.721-17.734-4.418-4.212-7.538-5.122a13.051,13.051,0,0,1-3.777-1.977c.047-.257.095-.49.13-.688a11.679,11.679,0,0,0,3.955-6.621,1.862,1.862,0,0,0,.127-.439,4.452,4.452,0,0,0,.032-.609c.04-.372.063-.747.067-1.127v-.245a1.508,1.508,0,0,1,.218-.514c.455-.653,1.392-.791,2.14-1.115a3.256,3.256,0,0,0,.328-.174l.095-.063c.071-.044.138-.087.2-.134l.111-.091.162-.138.107-.107c.047-.047.095-.095.138-.146l.1-.123c.04-.051.079-.1.115-.15l.095-.138a1.581,1.581,0,0,0,.095-.15c.032-.051.063-.1.091-.158s.051-.1.075-.146.059-.119.083-.178a1.36,1.36,0,0,0,.055-.134c.028-.067.055-.134.079-.2l.036-.107c.024-.079.051-.158.075-.241V307.5a6.181,6.181,0,0,0,.182-2.053h0a3.2,3.2,0,0,0-.059-.514,13.188,13.188,0,0,1-.479-3.579h0a1.673,1.673,0,0,1,.051-.308v-.036a3.125,3.125,0,0,1,.087-.316c.162-.471.439-.9.589-1.372h0a2.716,2.716,0,0,0,.075-.3v-.079c0-.083.024-.166.028-.249v-.059a3.005,3.005,0,0,0-.044-.649h0a4.244,4.244,0,0,0-1.412-2.373,10.891,10.891,0,0,0-3.856-1.914,44.343,44.343,0,0,0-11.034-2.551c-1.653-.107-3.817-.617-5.141.4a17.916,17.916,0,0,1-4.434,2.883c-1.388.581-2.836,1.475-3.164,2.879a11.071,11.071,0,0,0-.067,1.883,14.663,14.663,0,0,1-1.064,3.654,5.536,5.536,0,0,0-.293,2.207v.036a1.389,1.389,0,0,0,.04.257v.044a2.945,2.945,0,0,0,.17.55c0,.024.02.044.028.067s.063.13.1.194l.036.067c.051.083.1.162.162.241.241.32.566.589.791.925a3.789,3.789,0,0,1,.451,1.7c.063.6.123,1.206.186,1.807v.134c-.02.265-.032.534-.032.791a11.985,11.985,0,0,0,.15,1.859c-1.317.993-2.674,2.183-2.954,3.053a1.475,1.475,0,0,0-.312.87h0c-1.238.969-6.5.4-6.5.4s-4.287,2.314-5.845,1.412-10.916,6.3-10.916,6.3-2.468.13-2.6,1.159c0,0-3.116,2.314-5.458,2.314s-3.769,2.954-3.769,2.954a42.145,42.145,0,0,1-5.2,2.057c-1.3.257-3.508,1.542-2.855,2.057s-.131,1.669-1.3,2.571-2.99,5.537-1.428,6.166,5.845,1.93,7.016,2.571a2.535,2.535,0,0,0,1.455.273,3.721,3.721,0,0,0,1.661-.273l.182-.225a11.69,11.69,0,0,0,5.43,2.539c3.014.3,9.492,1.535,12.237,2.068v.51c-.024,4.8.2,9.777,1.127,11.3,1.95,3.215,2.207,28.4,2.207,28.4s6.106.9,8.187,2.828c1.977,1.819,11.936,5.141,13.9.827l.625.269c5.062,2.195,11.782,5.319,12.553,6.723,1.246,2.314,10.212,6.17,10.212,6.17s5.849.126,4.157,5.537,11.224,18.359,11.224,18.359a3.559,3.559,0,0,0,.744,2.266,3.7,3.7,0,0,0,.554.562,10.967,10.967,0,0,0,4,1.44,8.048,8.048,0,0,1,.791,2.159c-.067.15.562.708,1.388,1.436h0a29.364,29.364,0,0,0,2.235,4.078h0a3.37,3.37,0,0,0,1.159,1.167c1.266.514,14.451,8.353,16.923,8.61,2.3.241,6.965,1.368,11.165-1.9l-.676,5.482-.225,1.819s6.628,2.7,9.357,2.7,11.952,4.37,11.952,4.37,6.107,1.285,10.137-1.412C335.8,464.265,335.2,462.43,333.8,461.018Zm-41.922-59.593c-.653,1.412-.229,3.983.079,3.983s1.74,2.057.961,4.37,5.066,23.386,7.665,26.213a.6.6,0,0,1-.047.194c-.19.858-.736,4.35,2.907,4.56h.415c.277,2.2.692,5.659.945,8.531-.585-1.7-2.844-3.433-5.1-4.793a45.006,45.006,0,0,0-5.228-2.666s-7.277-1.732-8.835-3.164a48.333,48.333,0,0,0-6.205-4h0c-.732-.66-1.554-1.4-2.329-2.116.043-.3.071-.617.087-.953a15.228,15.228,0,0,0-.688-1.977,3.846,3.846,0,0,0-1.131-1.637c-1.036-.641-4.548-13.878-4.548-15.424s-2.207-8.867-2.986-10.152a26.31,26.31,0,0,1-1.689-4.509,108.648,108.648,0,0,0,22.867.791C288.994,398.724,292.5,400.009,291.873,401.425ZM200.38,342.053v.15l-.688-.17C200.119,342.053,200.38,342.053,200.38,342.053Zm37.509-19.613v.716l-.134-.138c-.111-.123-.214-.249-.32-.376a3.545,3.545,0,0,0,.455-.2ZM250.6,349.489c-.13-.755-.2-1.187-.2-1.187l.047-.724Zm-60.115-9.124a3.779,3.779,0,0,1,.846-.182,2.1,2.1,0,0,1,.724.2c.3.142.621.277.941.4l-2.266-.4a1.256,1.256,0,0,0-.241-.012Z" transform="translate(-119.635 -209.06)" fill="url(#linear-gradient-2)"/>
  <path id="Path_132" data-name="Path 132" d="M414.17,644.637s2.61,5.4,2.484,5.786,5.608,4.971,5.608,4.971l6.249-4.461-.637-3.061s-7.012-6.328-7.514-7.052S414.17,644.637,414.17,644.637Z" transform="translate(-266.385 -420.526)" fill="#a1616a"/>
  <path id="Path_133" data-name="Path 133" d="M455.672,670.675c-4.35,4.208-9.436,2.931-11.865,2.678s-15.365-8.036-16.611-8.547a3.29,3.29,0,0,1-1.135-1.155h0a29.838,29.838,0,0,1-2.191-4.05c.087.024,4.331,1.234,5.4,0,0,0,1.784-2.191,2.167-2.191s.028-3.84.028-3.84a50.83,50.83,0,0,1,6.095,3.955c1.531,1.388,8.669,3.124,8.669,3.124a44.018,44.018,0,0,1,5.141,2.646C454.77,665.372,458.14,668.282,455.672,670.675Z" transform="translate(-272.249 -428.28)" fill="#67647e"/>
  <path id="Path_134" data-name="Path 134" d="M459.021,685.558c-4.35,4.208-9.437,2.931-11.865,2.678s-15.365-8.037-16.611-8.547a3.293,3.293,0,0,1-1.135-1.155c1.511-.9,11.367,5.367,14.127,6.514s9.737.51,13.692-1.147c1.977-.827-.028-3.37-2.519-5.711C458.119,680.255,461.489,683.165,459.021,685.558Z" transform="translate(-275.598 -443.163)" opacity="0.1"/>
  <path id="Path_135" data-name="Path 135" d="M503,660.444s1.819,13.645,1.357,15.424,11.4-6.122,11.4-6.122-4.149-8.551-2.935-10.516S503,660.444,503,660.444Z" transform="translate(-320.083 -431.314)" fill="#a1616a"/>
  <path id="Path_136" data-name="Path 136" d="M389.589,564.15s-7.4,2.167-11.469,1.91c-3.559-.221-3.041-3.67-2.851-4.524.028-.123.047-.194.047-.194-2.551-2.8-8.305-23.73-7.514-26.016s-.637-4.35-.941-4.35-.716-2.551-.079-3.955-2.8-2.678-2.8-2.678a104.7,104.7,0,0,1-22.444-.791,25.992,25.992,0,0,0,1.657,4.477c.767,1.274,2.935,8.547,2.935,10.077s3.441,14.665,4.461,15.3a3.822,3.822,0,0,1,1.111,1.621,15.487,15.487,0,0,1,.676,1.95c-.4,8.543-10.077,5.228-11.469,4.082a3.5,3.5,0,0,1-1.273-2.808s-12.656-12.85-11-18.2-4.081-5.482-4.081-5.482-8.8-3.836-10.022-6.13c-.755-1.412-7.356-4.513-12.324-6.692-3.113-1.365-5.584-2.373-5.584-2.373l2.068-7.4,1.641-5.849,3.069-1.155,9.8-3.674,17.619-2.424,1.614.21,17.113,2.215s25,7.139,27.546,8.266,3.955,12.26,3.955,12.26,5.355,18.493,5.1,20.926,1.784,9.172,1.784,9.172,0,7.629.866,8.147h.028C389.712,560.453,389.589,564.15,389.589,564.15Z" transform="translate(-195.326 -334.763)" fill="#4c4981"/>
  <path id="Path_137" data-name="Path 137" d="M415.044,547.894A104.7,104.7,0,0,1,392.6,547.1c-.767-2.409-11.469-9.041-11.469-9.041C389.906,535.9,415.044,547.894,415.044,547.894Z" transform="translate(-246.412 -358.298)" opacity="0.1"/>
  <path id="Path_138" data-name="Path 138" d="M419.181,642.89c-.4,8.543-10.077,5.228-11.469,4.081a3.577,3.577,0,0,1-.542-.558c3.389,1.25,9.393,2.211,11.347-5.474A15.492,15.492,0,0,1,419.181,642.89Z" transform="translate(-262.154 -420.645)" fill="#444053"/>
  <path id="Path_139" data-name="Path 139" d="M509.586,657.667s-7.4,2.167-11.469,1.91c-3.56-.221-3.041-3.67-2.852-4.524,3.745-.119,10.192-.471,13.538-1.483h.028C509.709,653.969,509.586,657.667,509.586,657.667Z" transform="translate(-315.323 -428.28)" fill="#444053"/>
  <path id="Path_140" data-name="Path 140" d="M419.181,642.89c-.4,8.543-10.077,5.228-11.469,4.081a3.577,3.577,0,0,1-.542-.558c3.389,1.25,9.393,2.211,11.347-5.474A15.492,15.492,0,0,1,419.181,642.89Z" transform="translate(-262.154 -420.645)" opacity="0.1"/>
  <path id="Path_141" data-name="Path 141" d="M509.586,657.667s-7.4,2.167-11.469,1.91c-3.56-.221-3.041-3.67-2.852-4.524,3.745-.119,10.192-.471,13.538-1.483h.028C509.709,653.969,509.586,657.667,509.586,657.667Z" transform="translate(-315.323 -428.28)" opacity="0.1"/>
  <path id="Path_142" data-name="Path 142" d="M530.631,700.223c-3.955,2.678-9.947,1.4-9.947,1.4s-9.053-4.35-11.73-4.35-9.183-2.677-9.183-2.677l.218-1.8,1.06-8.642s9.935-.253,10.33-1.147c0,0,1.788-4.394,2.424-2.768s10.2,13.1,12.624,13.1a7.324,7.324,0,0,1,4.319,2.246C532.118,697,532.687,698.823,530.631,700.223Z" transform="translate(-318.131 -444.183)" fill="#67647e"/>
  <path id="Path_143" data-name="Path 143" d="M481.28,540.75s-8.305,5.228-5.992,6.375S481.28,540.75,481.28,540.75Z" transform="translate(-303.085 -360.08)" opacity="0.1"/>
  <path id="Path_144" data-name="Path 144" d="M492.027,566.22s-7.143,6.783-4.465,6.961S492.027,566.22,492.027,566.22Z" transform="translate(-310.388 -375.477)" opacity="0.1"/>
  <path id="Path_145" data-name="Path 145" d="M515.2,620.72s-3.607,6.834-2.262,8S515.2,620.72,515.2,620.72Z" transform="translate(-325.911 -408.422)" opacity="0.1"/>
  <path id="Path_146" data-name="Path 146" d="M403.649,631.29c1.274,1.277-12.118-4.208-9.057-4.465S403.649,631.29,403.649,631.29Z" transform="translate(-254.275 -412.106)" opacity="0.1"/>
  <path id="Path_147" data-name="Path 147" d="M316.932,369.823l-.423-.063c-1.582-.245-7.336-1.147-12.494-2.266-1.258-.273-2.476-.558-3.6-.85-3.955-1.036-6.6-2.155-4.912-3.069a9.034,9.034,0,0,0,4.038-5.319q.091-.281.166-.546a14.063,14.063,0,0,0,.514-2.935s14.412-5.1,11.6,0a4.836,4.836,0,0,0,.85,5.976,11.206,11.206,0,0,0,3.1,2.314Z" transform="translate(-194.34 -246.286)" fill="#a1616a"/>
  <path id="Path_148" data-name="Path 148" d="M300.905,386.29s5.141,3.7,10.417.637,12.154,27.04,12.154,27.04l7.143,17.6s4.627,3.828-1.131,5.486-18.529-1.657-21.772,3.188-9.365,5.612-10.01,5.612-3.057-18.236-3.057-18.236L294,401.2Z" transform="translate(-193.742 -266.708)" opacity="0.1"/>
  <path id="Path_149" data-name="Path 149" d="M328.9,434.456c-5.758,1.657-18.533-1.657-21.752,3.188a12.483,12.483,0,0,1-5.49,4.418,14.418,14.418,0,0,1-4.524,1.186c-.083,0-.2-.336-.344-.914-.9-3.69-2.713-17.323-2.713-17.323l-.629-26.4,6.059-13.126.827-1.8a10.909,10.909,0,0,0,2.626,1.277,9.255,9.255,0,0,0,7.8-.637c1.546-.9,3.231,1.056,4.841,4.271,3.872,7.736,7.309,22.765,7.309,22.765l7.143,17.6a6.2,6.2,0,0,1,.486.467C331.528,430.5,333.431,433.151,328.9,434.456Z" transform="translate(-193.409 -265.136)" fill="#f3f5f9"/>
  <path id="Path_150" data-name="Path 150" d="M301.44,424.449a33.221,33.221,0,0,1,.17,6.723,78.194,78.194,0,0,1-1.186,9.492,3.165,3.165,0,0,1-.154.577c-3.113-1.365-5.584-2.373-5.584-2.373l2.057-7.416c-.9-3.69-2.713-17.323-2.713-17.323l-.629-26.4,6.059-13.126c-3.955-1.036-6.6-2.155-4.912-3.069a9.366,9.366,0,0,0,4.2-5.865,21.4,21.4,0,0,0,3.623,3.9l.079.067.459,4.449.142,1.368.293,2.84s-1.4,33.538-2.424,35.452-.51,5.612.4,9.947C301.357,423.938,301.4,424.188,301.44,424.449Z" transform="translate(-193.379 -254.243)" opacity="0.1"/>
  <path id="Path_151" data-name="Path 151" d="M260.249,410.9c.894,4.35.127,11.469-.894,16.963s-11.865,1.914-13.9,0-8.036-2.8-8.036-2.8-.253-25-2.167-28.187c-.91-1.511-1.127-6.447-1.1-11.212,0-4.283.229-8.428.308-9.836.02-.324.028-.5.028-.5s-8.305-14.028-8.159-15.049,2.551-1.147,2.551-1.147,9.179-7.143,10.71-6.249,5.739-1.4,5.739-1.4,5.335.605,6.435-.423a.562.562,0,0,0,.2-.471c-.127-1.633,5.434-5.118,5.608-5.225-4.687,4.216,2.891,10.71,3.749,11.422l.079.067.894,8.657s-1.4,33.538-2.424,35.452S259.355,406.561,260.249,410.9Z" transform="translate(-152.832 -241.96)" fill="#f9a14c"/>
  <circle id="Ellipse_23" data-name="Ellipse 23" cx="0.637" cy="0.637" r="0.637" transform="translate(106.285 131.866)" fill="#444053"/>
  <path id="Path_152" data-name="Path 152" d="M299.555,358.038l-3.876,3.749L290,352.3a.573.573,0,0,0,.2-.471c-.127-1.633,5.434-5.118,5.6-5.225C291.115,350.832,298.7,357.326,299.555,358.038Z" transform="translate(-191.324 -242.715)" opacity="0.1"/>
  <circle id="Ellipse_24" data-name="Ellipse 24" cx="0.637" cy="0.637" r="0.637" transform="translate(105.012 152.27)" opacity="0.1"/>
  <circle id="Ellipse_25" data-name="Ellipse 25" cx="0.637" cy="0.637" r="0.637" transform="translate(105.012 152.013)" fill="#444053"/>
  <path id="Path_153" data-name="Path 153" d="M300.189,356.748l-3.876,3.749-5.683-9.492a.562.562,0,0,0,.2-.471c-.127-1.633,5.434-5.118,5.608-5.224C291.753,349.538,299.331,356.036,300.189,356.748Z" transform="translate(-191.705 -241.935)" fill="#f9a14c"/>
  <path id="Path_154" data-name="Path 154" d="M369.27,422.491c-3.188,1.4-24.105-2.294-27.163-3.188s-7.514-7.779-5.359-12.755-.767-9.836-.767-9.836-4.592-9.816-5.612-11.73a87.3,87.3,0,0,1-3.445-8.416.791.791,0,0,1,.182-.585c.831-1.262,4.026-3.5,4.026-3.5.9.324,1.012-2.254.977-4.149-.02-1.06-.083-1.906-.083-1.906s.423.431,1.115,1.016c.253.214.542.447.858.688a13.292,13.292,0,0,0,4.026,2.215c3.061.9,7.4,5.082,7.4,5.082l-1.277,19.589s2.935,18.418,6,21.99,12.26,3.441,15.3,3.441S369.27,422.491,369.27,422.491Z" transform="translate(-213.643 -254.703)" opacity="0.1"/>
  <path id="Path_155" data-name="Path 155" d="M369.909,420.58c-3.188,1.4-24.1-2.3-27.163-3.192s-7.514-7.779-5.355-12.751-.767-9.82-.767-9.82-4.592-9.82-5.612-11.734-3.144-7.483-3.441-8.416a.735.735,0,0,1,.182-.581c.827-1.266,4.026-3.5,4.026-3.5.9.328,1.012-2.25.977-4.145-.02-1.064-.083-1.91-.083-1.91s.423.431,1.111,1.02c.253.21.542.447.862.688a13.178,13.178,0,0,0,4.018,2.2c3.061.906,7.4,5.086,7.4,5.086L344.787,393.1s2.935,18.418,5.992,21.99,12.26,3.445,15.306,3.445S369.909,420.58,369.909,420.58Z" transform="translate(-214.033 -253.554)" fill="#f9a14c"/>
  <path id="Path_156" data-name="Path 156" d="M335.9,365.82s-.123.676-.324,1.709c-.684,3.5-2.322,11.149-3.5,10.852-.846-.214-2.278-1.713-3.389-3.006.831-1.266,4.026-3.5,4.026-3.5.9.328,1.012-2.25.977-4.145l1.032-.89Z" transform="translate(-214.706 -254.334)" opacity="0.1"/>
  <path id="Path_157" data-name="Path 157" d="M335.254,364.53s-.119.676-.32,1.709c-.688,3.5-2.325,11.149-3.5,10.852-.846-.214-2.278-1.712-3.389-3.006.827-1.266,4.026-3.5,4.026-3.5.9.328,1.013-2.25.977-4.145l1.028-.89Z" transform="translate(-214.319 -253.554)" fill="#f9a14c"/>
  <path id="Path_158" data-name="Path 158" d="M267.555,329.83v12.941l-3.421,6.9h0l-.107.217-9.057-.6-3.48-.233-8.08-.534V333.049l8.08.229,3.615.1,9.136.257Z" transform="translate(-147.143 -199.384)" fill="#f86d70"/>
  <path id="Path_159" data-name="Path 159" d="M299.231,331.76v12.177l-.835,1.685h0l-.858,1.728h0l-1.728,3.488L296,337.9l.04-2.61,1.641-1.815v0l.716-.791Z" transform="translate(-178.819 -200.551)" opacity="0.1"/>
  <path id="Path_160" data-name="Path 160" d="M266.936,319.729v4.517l-.463.74-.831,1.325-.736,1.171-1.622,2.587-.04,0-21.626-1.111V324.5l.051-.059,2.583-2.8.937-1.009,1.689-1.831Z" transform="translate(-146.06 -192.716)" fill="#f86d70"/>
  <path id="Path_161" data-name="Path 161" d="M263.285,334.225v4.457l-21.665-1.115v-4.457l.051-.059Z" transform="translate(-146.06 -201.33)" opacity="0.1"/>
  <path id="Path_162" data-name="Path 162" d="M300.05,321.15v4.517l-3.65,5.822v-4.457Z" transform="translate(-179.175 -194.137)" opacity="0.15"/>
  <path id="Path_163" data-name="Path 163" d="M269.672,324.6l0,3.037v1.467l0,11.477h0l-.858,1.728.127-12.035.02-1.843v0l.032-2.717-20.7-1.277.937-1.009Z" transform="translate(-150.086 -195.515)" fill="#3f3d56"/>
  <path id="Path_164" data-name="Path 164" d="M268.918,326.78l-1.451,3.152-.012,1.606-.134,15.911-3.48-.233V329.722l1.859-2.943Z" transform="translate(-159.492 -197.54)" fill="#3f3d56"/>
  <path id="Path_165" data-name="Path 165" d="M299.629,402.894a4.564,4.564,0,0,1-2.594.091,1.024,1.024,0,0,1-.455-.21,1.151,1.151,0,0,1-.281-.558,4.319,4.319,0,0,1-.249-1.337,1.471,1.471,0,0,1,.554-1.186,1.389,1.389,0,0,0,.21-.158.85.85,0,0,0,.166-.332c.253-.755.744-1.554,1.531-1.677a2.5,2.5,0,0,1,1.954.874l1.23,1.048a1.942,1.942,0,0,1,3.619-.051,6.857,6.857,0,0,1,2.737-1.875.854.854,0,0,1,.72-.032.878.878,0,0,1,.289.4,5.932,5.932,0,0,1,.53,2.333.4.4,0,0,1,.475.166,1.048,1.048,0,0,1,.158.514,6.717,6.717,0,0,1,.051.846,1.262,1.262,0,0,1-.225.846,1.4,1.4,0,0,1-1.068.332.431.431,0,0,1-.111.637,1.238,1.238,0,0,1-.72.142,4.921,4.921,0,0,1-2.768-.57c-.316-.21-.577-.49-.894-.7a4.314,4.314,0,0,0-2.638-.494C301.037,401.964,300.38,402.637,299.629,402.894Z" transform="translate(-194.98 -273.44)" fill="#3f3d56"/>
  <path id="Path_166" data-name="Path 166" d="M290.746,410.708s-7.985,1.111-9.1,5.932l1.669-.245,1.187,2.1s1.238-4.706,4.888-5.822a39.115,39.115,0,0,1,4.952-1.3s2.539.617,4.829,7.985l1.3-1.8,2.29.494s-1.673-5.758-6.19-7.364Z" transform="translate(-186.276 -281.464)" fill="#3f3d56"/>
  <path id="Path_167" data-name="Path 167" d="M335.223,447.7s-6.379-1.274-8.163-4.082-13.929-5.228-12.45-2.294,12.45,12.529,12.45,12.529l4.746,6.806,6.328-1.61,2.674-5.2Z" transform="translate(-206.125 -299.173)" fill="#a1616a"/>
  <path id="Path_168" data-name="Path 168" d="M328.77,477.89s6.178,2.294,7.119,5.355S328.77,477.89,328.77,477.89Z" transform="translate(-214.761 -322.081)" opacity="0.1"/>
  <path id="Path_169" data-name="Path 169" d="M319.176,486.9s-.562,3.188,7.182,2.931Z" transform="translate(-208.956 -327.527)" opacity="0.1"/>
  <path id="Path_170" data-name="Path 170" d="M199.5,383.323l-2.8-.253s-3.061,2.294-5.359,2.294-3.7,2.935-3.7,2.935a41.429,41.429,0,0,1-5.1,2.041c-1.277.257-3.441,1.531-2.8,2.041s-.127,1.657-1.273,2.551-2.935,5.482-1.4,6.118,5.739,1.914,6.886,2.551a3.168,3.168,0,0,0,2.551,0s6.755-8.8,10.2-7.139a22.024,22.024,0,0,0,8.163,1.657l3.7-7.779Z" transform="translate(-122.69 -264.762)" opacity="0.1"/>
  <path id="Path_171" data-name="Path 171" d="M368.116,427.818a3.409,3.409,0,0,1-2.373,1.653,18.022,18.022,0,0,1-7.423-.684s12.846-4.082.475-14h3.314l1.107-.419-.506-2.642-.728-23.825,2.677-.637s2.155,15.685,2.674,17.6.9,9.31.9,9.31a21.479,21.479,0,0,0,1.277,4.592C370.058,419.912,369.928,425.1,368.116,427.818Z" transform="translate(-232.624 -267.294)" fill="#f9a14c"/>
  <path id="Path_172" data-name="Path 172" d="M366.808,469.245a3.413,3.413,0,0,1-2.373,1.653,18.033,18.033,0,0,1-7.435-.684s12.846-4.081.475-14h3.318l1.1-.419C363.723,459.005,366.575,464.728,366.808,469.245Z" transform="translate(-231.826 -308.721)" opacity="0.1"/>
  <path id="Path_173" data-name="Path 173" d="M368.116,469.245a3.409,3.409,0,0,1-2.373,1.653,18.022,18.022,0,0,1-7.423-.684s12.846-4.082.475-14h3.314l1.107-.419C365.024,459.005,367.883,464.728,368.116,469.245Z" transform="translate(-232.624 -308.721)" fill="none"/>
  <path id="Path_174" data-name="Path 174" d="M368.116,469.245a3.409,3.409,0,0,1-2.373,1.653,18.022,18.022,0,0,1-7.423-.684s12.846-4.082.475-14h3.314l1.107-.419C365.024,459.005,367.883,464.728,368.116,469.245Z" transform="translate(-232.624 -308.721)" fill="#f9a14c"/>
  <path id="Path_175" data-name="Path 175" d="M319.644,360.726a11.611,11.611,0,0,1-13.134-2.511q.091-.281.166-.546a14.068,14.068,0,0,0,.514-2.935s14.412-5.1,11.6,0A4.854,4.854,0,0,0,319.644,360.726Z" transform="translate(-201.304 -246.262)" opacity="0.1"/>
  <path id="Path_176" data-name="Path 176" d="M321.442,327.619v.111a10.2,10.2,0,0,1-.063,1.119c-.04.368-.091.7-.158,1.044a11.612,11.612,0,0,1-22.361,1.5c-.075-.225-.146-.451-.21-.68a11.561,11.561,0,0,1-.419-3.093,6.526,6.526,0,0,1,.032-.791,11.6,11.6,0,0,1,23.18.791Z" transform="translate(-196.299 -224.233)" fill="#a1616a"/>
  <path id="Path_177" data-name="Path 177" d="M321.478,327.712a5.2,5.2,0,0,0-.063,1.119,4.4,4.4,0,0,1-.032.605,1.74,1.74,0,0,1-.127.439,2.172,2.172,0,0,1-3.01,1.1,3.267,3.267,0,0,1-.906-1.186c-1.072-1.978-2.563-4.283-4.908-4.323a10.9,10.9,0,0,0-2.911.649,3.051,3.051,0,0,1-2.836-.4c-.554-.506-.815-1.372-1.558-1.55s-1.432.506-1.772,1.186a3.536,3.536,0,0,1-1.3,1.8c-.308.15-.668.194-.969.356-1.388.763-.751,3.425-2.191,3.856l-.138.032-.071-.712-.4-3.892a11.6,11.6,0,0,1,23.18.791Z" transform="translate(-196.335 -224.214)" opacity="0.1"/>
  <path id="Path_178" data-name="Path 178" d="M297.9,296.207c-1.361.577-2.768,1.467-3.089,2.859a11.29,11.29,0,0,0-.063,1.867,14.924,14.924,0,0,1-1.044,3.627,4.041,4.041,0,0,0,.245,3.635c.241.32.558.585.771.921a3.757,3.757,0,0,1,.447,1.689l.629,6.276c1.622-.3.9-3.1,2.329-3.888.3-.162.66-.21.969-.36.688-.344.957-1.131,1.3-1.8s1.016-1.353,1.772-1.186,1,1.044,1.558,1.546a3.153,3.153,0,0,0,2.84.4,11.838,11.838,0,0,1,2.907-.653c2.345.04,3.836,2.333,4.908,4.323a3.314,3.314,0,0,0,.906,1.186,2.189,2.189,0,0,0,3.136-1.546c.107-.747-.127-1.582.309-2.219s1.364-.791,2.1-1.107c1.863-.858,2.44-3.184,2.132-5.141-.225-1.4-.791-2.855-.324-4.208.158-.467.431-.894.577-1.36a3.708,3.708,0,0,0-1.313-3.694,10.853,10.853,0,0,0-3.781-1.9,43.58,43.58,0,0,0-10.833-2.531c-1.622-.1-3.745-.609-5.031.4A16.662,16.662,0,0,1,297.9,296.207Z" transform="translate(-193.379 -210.143)" fill="#464353"/>
  <circle id="Ellipse_26" data-name="Ellipse 26" cx="0.637" cy="0.637" r="0.637" transform="translate(106.922 121.789)" opacity="0.1"/>
  <circle id="Ellipse_27" data-name="Ellipse 27" cx="0.637" cy="0.637" r="0.637" transform="translate(106.922 121.536)" fill="#444053"/>
  <circle id="Ellipse_28" data-name="Ellipse 28" cx="0.637" cy="0.637" r="0.637" transform="translate(102.845 161.833)" opacity="0.1"/>
  <circle id="Ellipse_29" data-name="Ellipse 29" cx="0.637" cy="0.637" r="0.637" transform="translate(102.845 161.58)" fill="#444053"/>
  <circle id="Ellipse_30" data-name="Ellipse 30" cx="0.637" cy="0.637" r="0.637" transform="translate(105.012 172.42)" opacity="0.1"/>
  <circle id="Ellipse_31" data-name="Ellipse 31" cx="0.637" cy="0.637" r="0.637" transform="translate(105.012 172.163)" fill="#444053"/>
  <path id="Path_179" data-name="Path 179" d="M362.1,419s1.4,9.523,0,11.185S362.1,419,362.1,419Z" transform="translate(-234.529 -286.481)" opacity="0.1"/>
  <path id="Path_180" data-name="Path 180" d="M255.788,463.68s-2.681,5.77,0,11.3,4.35,7.779,3.441,11.311S255.788,463.68,255.788,463.68Z" transform="translate(-169.922 -313.491)" opacity="0.1"/>
  <path id="Path_181" data-name="Path 181" d="M530.631,719.967c-3.955,2.677-9.947,1.4-9.947,1.4s-9.053-4.35-11.73-4.35-9.183-2.677-9.183-2.677l.218-1.8c2.646.51,8.653,1.72,9.346,2.314.894.767,11.865,4.465,11.865,4.465s7.467-.933,9.547-4C532.118,716.744,532.687,718.567,530.631,719.967Z" transform="translate(-318.131 -463.928)" opacity="0.1"/>
  <g id="Group_37" data-name="Group 37" transform="translate(100.008 89.354)" opacity="0.1">
    <path id="Path_182" data-name="Path 182" d="M296.82,310.279v.059A.311.311,0,0,0,296.82,310.279Z" transform="translate(-295.455 -309.86)"/>
    <path id="Path_183" data-name="Path 183" d="M320.813,330.808c-.732.34-1.653.459-2.1,1.107s-.2,1.471-.308,2.219c-.2,1.337-2,2.345-3.136,1.546a3.283,3.283,0,0,1-.906-1.186c-1.072-1.977-2.563-4.283-4.908-4.323a11.489,11.489,0,0,0-2.907.653,3.049,3.049,0,0,1-2.84-.4c-.554-.5-.815-1.368-1.558-1.546s-1.428.5-1.772,1.186-.613,1.455-1.3,1.8c-.308.15-.668.2-.969.36-1.428.791-.708,3.587-2.329,3.888l-.629-6.277a3.758,3.758,0,0,0-.447-1.689c-.214-.336-.53-.6-.771-.921a2.836,2.836,0,0,1-.522-1.349,3.271,3.271,0,0,0,.522,2.373c.241.32.558.585.771.922a3.757,3.757,0,0,1,.447,1.689l.629,6.277c1.622-.3.9-3.1,2.329-3.888.3-.162.66-.21.969-.36.688-.344.961-1.131,1.3-1.8s1.016-1.353,1.772-1.186,1,1.044,1.558,1.546a3.153,3.153,0,0,0,2.84.4,11.839,11.839,0,0,1,2.907-.653c2.345.04,3.836,2.333,4.908,4.323a3.314,3.314,0,0,0,.906,1.186,2.189,2.189,0,0,0,3.136-1.546c.107-.747-.127-1.582.308-2.219s1.364-.791,2.1-1.107c1.7-.791,2.329-2.8,2.187-4.627A4.149,4.149,0,0,1,320.813,330.808Z" transform="translate(-293.369 -319.544)"/>
    <path id="Path_184" data-name="Path 184" d="M367.649,310.823c-.146.467-.419.894-.577,1.361a3.955,3.955,0,0,0-.131,1.7,3.2,3.2,0,0,1,.146-.657c.158-.467.431-.894.577-1.36a2.875,2.875,0,0,0,.075-1.333A2.972,2.972,0,0,1,367.649,310.823Z" transform="translate(-337.82 -310.265)"/>
  </g>
  <path id="Path_185" data-name="Path 185" d="M257.16,435.145c-2.935-.641-9.82-2.674-9.82-2.674l-1.23-.245c0-4.283.229-8.428.309-9.836h.028s5.869,1.91,7.269,2.931,5.739.767,5.739.767a19.736,19.736,0,0,1,12.371,6.632C277.437,438.957,260.095,435.789,257.16,435.145Z" transform="translate(-164.792 -288.531)" opacity="0.1"/>
  <path id="Path_186" data-name="Path 186" d="M200.03,420.465a1.7,1.7,0,0,0-.4,2.859c1.55,1.285,3.82,2.828,5.984,3.045,3.615.364,12.308,2.108,13.174,2.282l.134.032c.716.21,6.988,2.049,9.753,2.654,2.935.645,20.277,3.832,14.665-2.416a19.831,19.831,0,0,0-12.26-6.625,2.12,2.12,0,0,0-.225,0c-.657.032-4.35.158-5.64-.791a12.107,12.107,0,0,0-2.108-1.048,40.344,40.344,0,0,0-8.622-2.488l-5.984-1.009a1.732,1.732,0,0,0-1.009.127Z" transform="translate(-136.328 -285.233)" fill="#a1616a"/>
  <path id="Path_187" data-name="Path 187" d="M198.209,383.323l-2.8-.253s-3.061,2.294-5.359,2.294-3.7,2.935-3.7,2.935a41.429,41.429,0,0,1-5.1,2.041c-1.277.257-3.441,1.531-2.8,2.041s-.127,1.657-1.273,2.551-2.935,5.482-1.4,6.118,5.739,1.914,6.886,2.551a3.168,3.168,0,0,0,2.551,0s6.755-8.8,10.2-7.139a22.084,22.084,0,0,0,8.179,1.657l3.7-7.779Z" transform="translate(-121.91 -264.762)" fill="#f9a14c"/>
  <path id="Path_188" data-name="Path 188" d="M241.323,502v33.107H294.3v5.537H241.877v23.73H236.34V502Z" transform="translate(-158.886 -336.655)" fill="#464353"/>
  <path id="Path_189" data-name="Path 189" d="M187.55,400.18h20.961l2.207,37.525H254.1a15.029,15.029,0,0,1,10.2,3.856,13.589,13.589,0,0,1,4.374,8.835v56.283h-5.517l.546-54.539a7.332,7.332,0,0,0-.174-1.689,8.915,8.915,0,0,0-3.844-5.723,7.167,7.167,0,0,0-3.678-.957H206.866L204.1,404.594H187.55Z" transform="translate(-129.392 -275.105)" fill="#464353"/>
  <path id="Path_190" data-name="Path 190" d="M169.42,578.821c0,24.687,14.329,44.691,32,44.691s32-20.012,32-44.691-14.329-44.691-32-44.691S169.42,554.138,169.42,578.821Zm2.207-.6c0-21.61,12.6-39.13,28.139-39.13s28.143,17.52,28.143,39.13-12.6,39.13-28.143,39.13S171.627,599.834,171.627,578.224Z" transform="translate(-118.433 -356.078)" fill="#35323e"/>
  <ellipse id="Ellipse_32" data-name="Ellipse 32" cx="4.967" cy="7.451" rx="4.967" ry="7.451" transform="translate(74.713 216.672)" fill="#35323e"/>
  <ellipse id="Ellipse_33" data-name="Ellipse 33" cx="1.103" cy="2.207" rx="1.103" ry="2.207" transform="translate(77.474 222.193)" fill="#464353"/>
  <path id="Path_191" data-name="Path 191" d="M389.86,622.528V628.6a5.551,5.551,0,0,1,5.315-.063,10.022,10.022,0,0,1,5.509,6.486c1.337,4.627,3.955,13.732,6.28,22.29,3.31,12.118,9.381,9.349,9.381,9.349l42.211,3.037,17.936-9.1v-5.537H431.245s-10.485,3.864-14.9,5.537-2.768-1.657-8.586-22.476S389.86,622.528,389.86,622.528Z" transform="translate(-251.69 -409.162)" fill="#464353"/>
  <path id="Path_192" data-name="Path 192" d="M416.33,640.981l42.211,3.033,17.936-9.1-44.145-.55Z" transform="translate(-251.673 -383.474)" opacity="0.1"/>
  <ellipse id="Ellipse_34" data-name="Ellipse 34" cx="23.52" cy="4.524" rx="23.52" ry="4.524" transform="translate(381.894 246.659)" fill="#f9a14c"/>
  <ellipse id="Ellipse_35" data-name="Ellipse 35" cx="2.737" cy="3.583" rx="2.737" ry="3.583" transform="translate(402.286 245.678)" fill="#3f3d56"/>
  <ellipse id="Ellipse_36" data-name="Ellipse 36" cx="2.737" cy="3.583" rx="2.737" ry="3.583" transform="translate(402.286 241.296)" fill="#3f3d56"/>
  <ellipse id="Ellipse_37" data-name="Ellipse 37" cx="2.737" cy="3.583" rx="2.737" ry="3.583" transform="translate(402.286 236.918)" fill="#3f3d56"/>
  <ellipse id="Ellipse_38" data-name="Ellipse 38" cx="2.737" cy="3.583" rx="2.737" ry="3.583" transform="translate(402.286 232.535)" fill="#3f3d56"/>
  <ellipse id="Ellipse_39" data-name="Ellipse 39" cx="2.737" cy="3.583" rx="2.737" ry="3.583" transform="translate(402.286 228.153)" fill="#3f3d56"/>
  <ellipse id="Ellipse_40" data-name="Ellipse 40" cx="2.737" cy="3.583" rx="2.737" ry="3.583" transform="translate(402.286 223.771)" fill="#3f3d56"/>
  <ellipse id="Ellipse_41" data-name="Ellipse 41" cx="2.737" cy="3.583" rx="2.737" ry="3.583" transform="translate(402.286 219.389)" fill="#3f3d56"/>
  <path id="Path_193" data-name="Path 193" d="M1054.687,539.447a13.58,13.58,0,0,0,1.02-1.5l-7.2-1.186,7.783.055a13.151,13.151,0,0,0,.249-10.39l-10.437,5.414,9.626-7.079a13.119,13.119,0,1,0-21.665,14.681,13.278,13.278,0,0,0-1.495,2.393l9.342,4.853-9.97-3.334a13.126,13.126,0,0,0,2.112,12.316,13.115,13.115,0,1,0,20.621,0,13.131,13.131,0,0,0,0-16.215Z" transform="translate(-639.413 -346.453)" fill="#f9a14c"/>
  <path id="Path_194" data-name="Path 194" d="M1031.28,592.115a13.052,13.052,0,0,0,2.8,8.112,13.115,13.115,0,1,0,20.621,0C1056.481,598,1031.28,590.644,1031.28,592.115Z" transform="translate(-639.431 -391.014)" opacity="0.1"/>
  <ellipse id="Ellipse_42" data-name="Ellipse 42" cx="16.184" cy="3.113" rx="16.184" ry="3.113" transform="translate(20.629 249.043)" fill="#f9a14c"/>
  <ellipse id="Ellipse_43" data-name="Ellipse 43" cx="1.883" cy="2.468" rx="1.883" ry="2.468" transform="translate(34.661 248.367)" fill="#3f3d56"/>
  <ellipse id="Ellipse_44" data-name="Ellipse 44" cx="1.883" cy="2.468" rx="1.883" ry="2.468" transform="translate(34.661 245.353)" fill="#3f3d56"/>
  <ellipse id="Ellipse_45" data-name="Ellipse 45" cx="1.883" cy="2.468" rx="1.883" ry="2.468" transform="translate(34.661 242.34)" fill="#3f3d56"/>
  <ellipse id="Ellipse_46" data-name="Ellipse 46" cx="1.883" cy="2.468" rx="1.883" ry="2.468" transform="translate(34.661 239.322)" fill="#3f3d56"/>
  <ellipse id="Ellipse_47" data-name="Ellipse 47" cx="1.883" cy="2.468" rx="1.883" ry="2.468" transform="translate(34.661 236.308)" fill="#3f3d56"/>
  <ellipse id="Ellipse_48" data-name="Ellipse 48" cx="1.883" cy="2.468" rx="1.883" ry="2.468" transform="translate(34.661 233.295)" fill="#3f3d56"/>
  <ellipse id="Ellipse_49" data-name="Ellipse 49" cx="1.883" cy="2.468" rx="1.883" ry="2.468" transform="translate(34.661 230.281)" fill="#3f3d56"/>
  <path id="Path_195" data-name="Path 195" d="M126.087,597.971a9.3,9.3,0,0,0,.7-1.032l-4.952-.791,5.355.039a9.021,9.021,0,0,0,.17-7.151l-7.182,3.726,6.625-4.869a9.025,9.025,0,1,0-14.906,10.1,9.179,9.179,0,0,0-1.028,1.645l6.427,3.342-6.854-2.3a9.1,9.1,0,0,0-.475,2.9,8.978,8.978,0,0,0,1.93,5.58,9.029,9.029,0,1,0,14.186,0,9.017,9.017,0,0,0,0-11.161Z" transform="translate(-82.492 -385.851)" fill="#f9a14c"/>
  <path id="Path_196" data-name="Path 196" d="M109.991,634.177a8.977,8.977,0,0,0,1.93,5.58,9.029,9.029,0,1,0,14.186,0C127.309,638.223,109.991,633.165,109.991,634.177Z" transform="translate(-82.504 -416.477)" opacity="0.1"/>
  <ellipse id="Ellipse_50" data-name="Ellipse 50" cx="11.833" cy="2.274" rx="11.833" ry="2.274" transform="translate(228.66 240.188)" fill="#f9a14c"/>
  <ellipse id="Ellipse_51" data-name="Ellipse 51" cx="1.376" cy="1.803" rx="1.376" ry="1.803" transform="translate(238.919 239.69)" fill="#3f3d56"/>
  <ellipse id="Ellipse_52" data-name="Ellipse 52" cx="1.376" cy="1.803" rx="1.376" ry="1.803" transform="translate(238.919 237.487)" fill="#3f3d56"/>
  <ellipse id="Ellipse_53" data-name="Ellipse 53" cx="1.376" cy="1.803" rx="1.376" ry="1.803" transform="translate(238.919 235.284)" fill="#3f3d56"/>
  <ellipse id="Ellipse_54" data-name="Ellipse 54" cx="1.376" cy="1.803" rx="1.376" ry="1.803" transform="translate(238.919 233.081)" fill="#3f3d56"/>
  <ellipse id="Ellipse_55" data-name="Ellipse 55" cx="1.376" cy="1.803" rx="1.376" ry="1.803" transform="translate(238.919 230.874)" fill="#3f3d56"/>
  <ellipse id="Ellipse_56" data-name="Ellipse 56" cx="1.376" cy="1.803" rx="1.376" ry="1.803" transform="translate(238.919 228.671)" fill="#3f3d56"/>
  <ellipse id="Ellipse_57" data-name="Ellipse 57" cx="1.376" cy="1.803" rx="1.376" ry="1.803" transform="translate(238.919 226.469)" fill="#3f3d56"/>
  <path id="Path_197" data-name="Path 197" d="M643.112,606.714a6.475,6.475,0,0,0,.514-.751l-3.619-.6,3.915.032a6.642,6.642,0,0,0,.6-2.768,6.559,6.559,0,0,0-.479-2.468l-5.252,2.725,4.845-3.559a6.6,6.6,0,1,0-10.9,7.388,6.642,6.642,0,0,0-.755,1.186l4.7,2.44-5.007-1.681a6.6,6.6,0,0,0,1.064,6.2,6.6,6.6,0,1,0,10.37,0,6.6,6.6,0,0,0,0-8.163Z" transform="translate(-397.659 -393.515)" fill="#f9a14c"/>
  <path id="Path_198" data-name="Path 198" d="M631.33,633.142a6.569,6.569,0,0,0,1.412,4.082,6.6,6.6,0,1,0,10.37,0C644,636.1,631.33,632.4,631.33,633.142Z" transform="translate(-397.659 -415.872)" opacity="0.1"/>
  <circle id="Ellipse_58" data-name="Ellipse 58" cx="6.039" cy="6.039" r="6.039" transform="translate(179.025 31.015)" fill="#f9a14c" opacity="0.1"/>
  <circle id="Ellipse_59" data-name="Ellipse 59" cx="10.125" cy="10.125" r="10.125" transform="translate(196.545 0)" fill="#f9a14c" opacity="0.1"/>
  <circle id="Ellipse_60" data-name="Ellipse 60" cx="10.125" cy="10.125" r="10.125" transform="translate(183.146 49.128)" fill="#f9a14c" opacity="0.1"/>
  <circle id="Ellipse_61" data-name="Ellipse 61" cx="6.039" cy="6.039" r="6.039" transform="translate(374.993 94.689)" fill="#f9a14c" opacity="0.1"/>
  <circle id="Ellipse_62" data-name="Ellipse 62" cx="10.125" cy="10.125" r="10.125" transform="translate(349.298 63.675)" fill="#f9a14c" opacity="0.1"/>
  <circle id="Ellipse_63" data-name="Ellipse 63" cx="10.125" cy="10.125" r="10.125" transform="translate(362.701 112.803)" fill="#f9a14c" opacity="0.1"/>
  <circle id="Ellipse_64" data-name="Ellipse 64" cx="3.421" cy="3.421" r="3.421" transform="translate(36.235 108.247)" fill="#f9a14c" opacity="0.1"/>
  <circle id="Ellipse_65" data-name="Ellipse 65" cx="5.735" cy="5.735" r="5.735" transform="translate(48.587 92.985)" fill="#f9a14c" opacity="0.1"/>
  <circle id="Ellipse_66" data-name="Ellipse 66" cx="5.735" cy="5.735" r="5.735" transform="translate(21.139 101.88)" fill="#f9a14c" opacity="0.1"/>
  <circle id="Ellipse_67" data-name="Ellipse 67" cx="14.337" cy="14.337" r="14.337" transform="translate(71.122 32.854)" fill="#f9a14c" opacity="0.1"/>
  <circle id="Ellipse_68" data-name="Ellipse 68" cx="8.274" cy="8.274" r="8.274" transform="translate(159.843 111.688)" fill="#f9a14c" opacity="0.1"/>
  <circle id="Ellipse_69" data-name="Ellipse 69" cx="8.274" cy="8.274" r="8.274" transform="translate(220.75 151.237)" fill="#f9a14c" opacity="0.1"/>
</svg>
