<svg xmlns="http://www.w3.org/2000/svg" xmlns:xlink="http://www.w3.org/1999/xlink" width="452.253" height="407.63" viewBox="0 0 452.253 407.63">
  <defs>
    <linearGradient id="linear-gradient" x1="-0.351" y1="0.5" x2="0.649" y2="0.5" gradientUnits="objectBoundingBox">
      <stop offset="0" stop-color="#dee5f4"/>
      <stop offset="1" stop-color="#a9b6e5"/>
    </linearGradient>
    <linearGradient id="linear-gradient-2" x1="1.855" y1="-0.509" x2="0.398" y2="0.576" gradientUnits="objectBoundingBox">
      <stop offset="0" stop-color="#dee5f4"/>
      <stop offset="1" stop-color="#9dadd6"/>
    </linearGradient>
    <linearGradient id="linear-gradient-3" x1="-1.012" y1="-0.304" x2="0.707" y2="0.589" xlink:href="#linear-gradient-2"/>
    <clipPath id="clip-path">
      <path id="Path_1103" data-name="Path 1103" d="M509.729,276.129l-44.836-8.609-45.122,8.663A7.107,7.107,0,0,0,414,283.162v70.867a42.263,42.263,0,0,0,10.574,22.139c17.909,19.451,40.316,29.54,40.316,29.54s25.345-12.526,40.116-29.625a47.279,47.279,0,0,0,10.775-22.054V283.456A7.461,7.461,0,0,0,509.729,276.129Zm.3,75.844a41.692,41.692,0,0,1-9.5,19.451c-13.03,15.083-35.382,26.128-35.382,26.128s-19.763-8.9-35.559-26.054a37.28,37.28,0,0,1-9.326-19.525v-62.5a6.267,6.267,0,0,1,5.087-6.155l39.8-7.643,39.544,7.595a6.579,6.579,0,0,1,5.34,6.462Z" transform="translate(-414.002 -267.52)" fill="#00a19a"/>
    </clipPath>
  </defs>
  <g id="Group_127" data-name="Group 127" transform="translate(-3452 -2306.193)">
    <g id="Group_106" data-name="Group 106" transform="translate(3452 2306.193)">
      <path id="Path_741" data-name="Path 741" d="M457.248,117.718c143.229-9.645,166.632,157.817,244.3,192.956,79.792,36.1,76.86,117.027-20.688,161.026C585.9,514.534,484.394,501.817,427.6,475.041,333.7,430.772,281.439,303.176,344,267.986,400.453,236.228,362.649,124.087,457.248,117.718Z" transform="translate(-310.243 -95.881)" fill="#f8e4c9"/>
      <path id="Path_742" data-name="Path 742" d="M550.113,505.681c-47.919,0-91.663-9.984-123.731-25.1-68.8-32.436-111.8-104.5-113.633-155.44-.96-26.678,8.8-46.552,28.221-57.478,23.814-13.4,30.881-40.6,38.363-69.4,10.258-39.48,20.863-80.3,77.627-84.127l.058.855-.058-.855c91.892-6.176,136.034,59.092,174.983,116.685,23.315,34.475,45.337,67.038,74.853,80.393,36.967,16.725,58.16,43.635,58.142,73.826-.021,35.843-28.912,69.424-79.264,92.136C640.833,497.4,593.741,505.678,550.113,505.681Zm-81.253-390.24c-3.841,0-7.762.132-11.784.4-55.531,3.739-65.979,43.956-76.083,82.847-7.243,27.88-14.734,56.709-39.183,70.462-18.826,10.592-28.283,29.928-27.348,55.924,1.812,50.422,44.445,121.794,112.651,153.951,60.91,28.716,164.262,38.8,257.857-3.418,49.711-22.421,78.234-55.435,78.254-90.573.016-29.49-20.807-55.83-57.134-72.266-29.957-13.553-52.11-46.311-75.565-80.994C593.543,177.1,551.839,115.441,468.859,115.441Z" transform="translate(-312.684 -98.052)" fill="#f8e4c9"/>
      <g id="Group_96" data-name="Group 96" transform="translate(201.798 0)">
        <rect id="Rectangle_81" data-name="Rectangle 81" width="175.04" height="383.076" rx="5.927" transform="translate(6.941 7.85)" fill="#fff"/>
        <path id="Path_744" data-name="Path 744" d="M623.448,111.819a19.574,19.574,0,0,0-15.7-7.861h-149.7a19.626,19.626,0,0,0-19.605,19.629V482.114a19.6,19.6,0,0,0,19.605,19.605h149.7a19.625,19.625,0,0,0,19.628-19.605V123.587A19.414,19.414,0,0,0,623.448,111.819ZM620.433,480.57a14.325,14.325,0,0,1-14.323,14.324H459.689a14.305,14.305,0,0,1-14.3-14.324V126.119a14.286,14.286,0,0,1,14.3-14.3H606.11a14.305,14.305,0,0,1,14.323,14.3Z" transform="translate(-438.444 -103.958)" fill="#00a19a"/>
        <path id="Path_745" data-name="Path 745" d="M617.184,119.6H443c1.568-6.2,7.535-10.753,13.078-10.735L604.2,108.85C611.1,108.85,615.616,113.406,617.184,119.6Z" transform="translate(-435.688 -101)" fill="url(#linear-gradient)"/>
        <g id="Group_93" data-name="Group 93" transform="translate(156.981 10.197)">
          <path id="Path_746" data-name="Path 746" d="M547.1,116.367h-9.5a1.324,1.324,0,0,1-1.322-1.322v-3.41a1.324,1.324,0,0,1,1.322-1.322h9.5a1.325,1.325,0,0,1,1.324,1.322v3.41A1.325,1.325,0,0,1,547.1,116.367Zm-9.5-5.387a.657.657,0,0,0-.656.655v3.41a.658.658,0,0,0,.656.656h9.5a.658.658,0,0,0,.658-.656v-3.41a.657.657,0,0,0-.658-.655Z" transform="translate(-536.274 -110.313)" fill="#fff"/>
          <path id="Path_747" data-name="Path 747" d="M544.463,114.823h-6.776a.783.783,0,0,1-.772-.8v-2.219a.784.784,0,0,1,.772-.8h4.365Z" transform="translate(-535.886 -109.89)" fill="#fff"/>
          <path id="Path_748" data-name="Path 748" d="M544.672,112v.762a.235.235,0,0,1-.234.246h-.8v-1.252h.8A.241.241,0,0,1,544.672,112Z" transform="translate(-531.821 -109.443)" fill="#fff"/>
        </g>
        <g id="Group_94" data-name="Group 94" transform="translate(20.693 10.583)">
          <path id="Path_749" data-name="Path 749" d="M459.806,112.23l-.928.979a4.755,4.755,0,0,0-6.6.048l-.942-.966a6.1,6.1,0,0,1,8.466-.061Z" transform="translate(-451.34 -110.553)" fill="#fff"/>
          <path id="Path_750" data-name="Path 750" d="M457.89,112.93l-.934.992a2.723,2.723,0,0,0-3.787.027l-.956-.979a4.1,4.1,0,0,1,5.677-.04Z" transform="translate(-450.812 -109.795)" fill="#fff"/>
          <path id="Path_751" data-name="Path 751" d="M455.934,113.648l-1.4,1.478-1.422-1.457a2.037,2.037,0,0,1,2.824-.021Z" transform="translate(-450.27 -109.019)" fill="#fff"/>
        </g>
        <g id="Group_95" data-name="Group 95" transform="translate(32.409 10.112)">
          <rect id="Rectangle_82" data-name="Rectangle 82" width="1.859" height="6.578" transform="translate(9.708 6.578) rotate(180)" fill="#fff"/>
          <rect id="Rectangle_83" data-name="Rectangle 83" width="1.859" height="5.122" transform="translate(6.945 6.578) rotate(180)" fill="#fff"/>
          <rect id="Rectangle_84" data-name="Rectangle 84" width="1.859" height="3.89" transform="translate(4.383 6.578) rotate(180)" fill="#fff"/>
          <rect id="Rectangle_85" data-name="Rectangle 85" width="1.859" height="1.945" transform="translate(1.859 6.578) rotate(180)" fill="#fff"/>
        </g>
      </g>
      <g id="Group_97" data-name="Group 97" transform="translate(230.778 66.642)">
        <path id="Path_752" data-name="Path 752" d="M456.771,145.756v0Z" transform="translate(-456.343 -145.328)" fill="#fff"/>
        <path id="Path_753" data-name="Path 753" d="M456.932,166.238a.429.429,0,0,1-.428-.428V145.917a.428.428,0,1,1,.857,0V165.81A.428.428,0,0,1,456.932,166.238Z" transform="translate(-456.504 -145.489)" fill="#0051e3"/>
      </g>
      <g id="Group_98" data-name="Group 98" transform="translate(240.397 72.332)">
        <path id="Path_754" data-name="Path 754" d="M462.766,149.34l12.009-.038-5.563,8.513Z" transform="translate(-462.337 -148.874)" fill="#fff"/>
        <path id="Path_755" data-name="Path 755" d="M469.382,158.4a.432.432,0,0,1-.35-.168l-6.446-8.476a.427.427,0,0,1,.339-.687l12.012-.039a.429.429,0,0,1,.359.663l-5.563,8.513A.434.434,0,0,1,469.382,158.4Zm-5.592-8.477,5.557,7.307,4.8-7.341Z" transform="translate(-462.498 -149.035)" fill="#0051e3"/>
      </g>
      <rect id="Rectangle_86" data-name="Rectangle 86" width="159.707" height="101.126" rx="2.513" transform="translate(216.384 46.148)" fill="#7891d4"/>
      <rect id="Rectangle_87" data-name="Rectangle 87" width="159.706" height="27.025" transform="translate(216.384 163.581)" fill="#acc3f4"/>
      <rect id="Rectangle_88" data-name="Rectangle 88" width="159.707" height="170.975" rx="6.517" transform="translate(216.384 206.784)" fill="#e2e8f4"/>
      <path id="Path_756" data-name="Path 756" d="M579.265,132.713,528.419,233.852h-50.56L528.7,132.713Z" transform="translate(-212.814 -86.572)" fill="url(#linear-gradient-2)"/>
      <path id="Path_757" data-name="Path 757" d="M522.957,132.718l-50.464,101.12H455.314a7.779,7.779,0,0,1-7.786-7.766V190.7l31.733-57.985Z" transform="translate(-231.153 -86.569)" fill="url(#linear-gradient-3)"/>
      <rect id="Rectangle_89" data-name="Rectangle 89" width="22.745" height="20.782" rx="0.975" transform="translate(233.565 81.329)" fill="#ffdea6"/>
      <rect id="Rectangle_90" data-name="Rectangle 90" width="0.485" height="20.782" transform="translate(240.134 81.329)" fill="#edc682"/>
      <path id="Path_758" data-name="Path 758" d="M468.556,173.573h-.485V157.7h6.972v.485h-6.487Z" transform="translate(-218.733 -71.462)" fill="#edc682"/>
      <rect id="Rectangle_91" data-name="Rectangle 91" width="6.811" height="0.485" transform="translate(233.565 86.24)" fill="#edc682"/>
      <rect id="Rectangle_92" data-name="Rectangle 92" width="6.811" height="0.485" transform="translate(233.565 91.149)" fill="#edc682"/>
      <rect id="Rectangle_93" data-name="Rectangle 93" width="6.811" height="0.485" transform="translate(233.565 95.874)" fill="#edc682"/>
      <rect id="Rectangle_94" data-name="Rectangle 94" width="6.729" height="0.485" transform="translate(249.581 91.149)" fill="#edc682"/>
      <rect id="Rectangle_95" data-name="Rectangle 95" width="6.729" height="0.485" transform="translate(249.581 95.874)" fill="#edc682"/>
      <g id="Group_99" data-name="Group 99" transform="translate(361.63 75.323)">
        <path id="Path_759" data-name="Path 759" d="M538.746,158.479a.7.7,0,0,1-.534-1.141,2.649,2.649,0,0,0,.436-1.547,2.681,2.681,0,0,0-.432-1.5.7.7,0,0,1,1.1-.855,4,4,0,0,1,.727,2.351,3.918,3.918,0,0,1-.761,2.436A.693.693,0,0,1,538.746,158.479Z" transform="translate(-538.051 -149.525)" fill="#fff"/>
        <path id="Path_760" data-name="Path 760" d="M540.206,159.785a.689.689,0,0,1-.366-.106.7.7,0,0,1-.225-.956,5.479,5.479,0,0,0,.717-2.511,7.269,7.269,0,0,0-.748-2.676.7.7,0,0,1,1.243-.624,8.748,8.748,0,0,1,.9,3.307,6.853,6.853,0,0,1-.927,3.24A.7.7,0,0,1,540.206,159.785Z" transform="translate(-537.168 -149.914)" fill="#fff"/>
        <path id="Path_761" data-name="Path 761" d="M541.64,161.428a.7.7,0,0,1-.6-1.04,8.832,8.832,0,0,0,1.054-3.71,11.631,11.631,0,0,0-1.077-3.917.694.694,0,1,1,1.253-.6,12.814,12.814,0,0,1,1.216,4.515,10.092,10.092,0,0,1-1.239,4.4A.7.7,0,0,1,541.64,161.428Z" transform="translate(-536.301 -150.377)" fill="#fff"/>
        <path id="Path_762" data-name="Path 762" d="M543.162,163.105a.7.7,0,0,1-.6-1.048,10.258,10.258,0,0,0,1.273-4.83,17.81,17.81,0,0,0-1.446-5.345.7.7,0,0,1,1.271-.571,19.1,19.1,0,0,1,1.568,5.862,11.546,11.546,0,0,1-1.463,5.586A.692.692,0,0,1,543.162,163.105Z" transform="translate(-535.466 -150.899)" fill="#fff"/>
      </g>
      <path id="Path_763" data-name="Path 763" d="M529.467,189.961a10.923,10.923,0,1,1,10.923,10.924A10.921,10.921,0,0,1,529.467,189.961Z" transform="translate(-181.611 -58.561)" fill="#f9a14c"/>
      <rect id="Rectangle_96" data-name="Rectangle 96" width="83.944" height="7.691" rx="1.278" transform="translate(233.565 128.619)" fill="#fff"/>
      <rect id="Rectangle_97" data-name="Rectangle 97" width="61.427" height="7.691" rx="1.277" transform="translate(233.565 59.859)" fill="#fff"/>
      <g id="Group_100" data-name="Group 100" transform="translate(236.619 225.545)">
        <path id="Path_764" data-name="Path 764" d="M475.044,324.452a.859.859,0,0,0,.822,1.115h20.161a7.247,7.247,0,0,0-2.29,5.323,6.517,6.517,0,1,0,12.991,0,7.247,7.247,0,0,0-2.29-5.323h32.657a7.252,7.252,0,0,0-2.288,5.323,6.516,6.516,0,1,0,12.989,0,7.252,7.252,0,0,0-2.288-5.323h7.224a.861.861,0,1,0,0-1.722h-75.7l3.373-10.969a8.125,8.125,0,0,1,6.345-5.841l45.6-7.319a.861.861,0,1,0-.273-1.7l-45.6,7.319a9.832,9.832,0,0,0-7.717,7.035Zm66.257,1.115a5.354,5.354,0,1,1-4.772,5.323A5.077,5.077,0,0,1,541.3,325.567Zm-41.067,0a5.354,5.354,0,1,1-4.775,5.323A5.077,5.077,0,0,1,500.233,325.567Z" transform="translate(-451.159 -212.176)" fill="#667bb3"/>
        <path id="Path_765" data-name="Path 765" d="M460.144,248.537a3.891,3.891,0,0,0,3.739,4.018,3.814,3.814,0,0,0,3.646-3.158h1.67a5.578,5.578,0,0,1,5.3,4.926l11.977,73.368a6.914,6.914,0,0,0,2.755,4.557,6.023,6.023,0,0,0,3.517,1.151,5.925,5.925,0,0,0,.963-.08l78.078-12.847a5.843,5.843,0,0,0,4.7-5.022l1.354-8.9a.854.854,0,0,0,.422-.873.835.835,0,0,0-.223-.432l5.018-32.951a6.265,6.265,0,0,0-1.407-5.048,5.278,5.278,0,0,0-4.042-1.9H478.042l-1.845-11.3a7.289,7.289,0,0,0-7-6.37h-1.67a3.814,3.814,0,0,0-3.646-3.158A3.891,3.891,0,0,0,460.144,248.537ZM481.5,286.542l7.548-.433,2.118,14.753-7.214.7Zm2.73,16.723,7.181-.7,2.221,15.462-6.818,1.065Zm92.088,1.844-5.8.907.916-11.234,6.553-.637Zm-44.41-21.462,12.646-.725v12.746l-12.425,1.208Zm-1.5,13.4-11.475,1.115-.849-13.718,12.1-.695Zm15.867-14.222,11.791-.676-.6,12.264-11.2,1.09Zm11.11,13.326-.582,12.009L546.279,309.8V297.231Zm-12.832,13.923-12.174,1.9-.221-13.37,12.4-1.207Zm-13.891,2.169-10.753,1.68-.87-14.042,11.4-1.109ZM518.2,314.19l-11.353,1.773-1.611-14.742,12.089-1.175Zm-13.152-14.679L503.5,285.279l12.874-.74.852,13.787Zm-1.743-15.945-1.8-16.5h13.782l.974,15.757Zm13.7-16.5h12.9l.25,14.96-12.182.7Zm14.625,0h12.92V281.2l-12.673.727Zm14.642,0H558.8l-.648,13.352-11.876.682Zm14.246,0h11.447l-1.029,12.619-11.062.635Zm10.278,14.35-.963,11.794L559.2,294.243l.594-12.2Zm1.735-.1,7.473-.428-1.752,11.5-6.677.65Zm-3.763,24.973-10.233,1.6.579-11.906,10.578-1.029Zm-.144,1.765L567.7,319.4l-9.8,1.613.552-11.37ZM556.168,321.3l-9.889,1.627v-11.38l10.443-1.632Zm-11.611,1.911L532.6,325.175l-.189-11.463,12.144-1.9Zm-13.671,2.25-10.156,1.67-.709-11.481,10.674-1.667Zm-11.863,1.951L508.3,329.176l-1.258-11.5,11.274-1.76Zm-12.43,2.044L497.235,331l-1.654-11.528,9.755-1.524Zm-11.258-11.691-2.2-15.363,10.395-1.013,1.624,14.841Zm-4.559-31.754,11-.631,1.563,14.3-10.454,1.017Zm-.245-1.711-2.474-17.234h11.717l1.815,16.6Zm90.827-12.264-1.083,7.113-7.6.436,1.021-12.519h3.91a3.59,3.59,0,0,1,2.737,1.3A4.562,4.562,0,0,1,581.357,272.035Zm-9.849,46.74-2.055.339.924-11.332,5.672-.887-1.264,8.3A4.132,4.132,0,0,1,571.508,318.774Zm-83.335,8.639-1.08-6.621,6.784-1.059,1.658,11.541-2.1.347a4.28,4.28,0,0,1-3.195-.77A5.276,5.276,0,0,1,488.174,327.414Zm-9.849-60.348h7.993l2.489,17.333-7.582.435Zm-16.459-18.529a2.033,2.033,0,1,1,2.017,2.3A2.173,2.173,0,0,1,461.866,248.537Z" transform="translate(-460.144 -244.517)" fill="#667bb3"/>
      </g>
      <g id="Group_101" data-name="Group 101" transform="translate(353.301 165.82)">
        <path id="Path_766" data-name="Path 766" d="M534.094,220.986,532.86,219.8a4.992,4.992,0,0,0,.014-6.934l1.232-1.189a6.7,6.7,0,0,1-.013,9.312Z" transform="translate(-532.86 -204.651)" fill="#7989bc"/>
        <path id="Path_767" data-name="Path 767" d="M536.486,225.641l-1.253-1.168a10.024,10.024,0,0,0-.108-13.785l1.237-1.186a11.737,11.737,0,0,1,.124,16.139Z" transform="translate(-531.491 -205.964)" fill="#7989bc"/>
        <path id="Path_768" data-name="Path 768" d="M538.911,230.372l-1.261-1.16a15.124,15.124,0,0,0-.23-20.727l1.234-1.187a16.839,16.839,0,0,1,.257,23.075Z" transform="translate(-530.103 -207.297)" fill="#7989bc"/>
      </g>
      <g id="Group_104" data-name="Group 104" transform="translate(162.578 262.456)">
        <path id="Path_772" data-name="Path 772" d="M509.729,276.129l-44.836-8.609-45.122,8.663A7.107,7.107,0,0,0,414,283.162v70.867a42.263,42.263,0,0,0,10.574,22.139c17.909,19.451,40.316,29.54,40.316,29.54s25.345-12.526,40.116-29.625a47.279,47.279,0,0,0,10.775-22.054V283.456A7.461,7.461,0,0,0,509.729,276.129Zm.3,75.844a41.692,41.692,0,0,1-9.5,19.451c-13.03,15.083-35.382,26.128-35.382,26.128s-19.763-8.9-35.559-26.054a37.28,37.28,0,0,1-9.326-19.525v-62.5a6.267,6.267,0,0,1,5.087-6.155l39.8-7.643,39.544,7.595a6.579,6.579,0,0,1,5.34,6.462Z" transform="translate(-414.002 -267.52)" fill="#ff4a00"/>
        <g id="Group_103" data-name="Group 103" transform="translate(0 0)" clip-path="url(#clip-path)">
          <path id="Path_773" data-name="Path 773" d="M417.9,343.789l49.872,7.648H417.9Z" transform="translate(-411.645 -221.405)" fill="#00a19a"/>
          <path id="Path_774" data-name="Path 774" d="M417.9,343.311l54.877,8.415h-5.005L417.9,344.079Z" transform="translate(-411.645 -221.695)" fill="#00a19a"/>
          <path id="Path_775" data-name="Path 775" d="M417.9,342.833l59.882,9.183h-5L417.9,343.6Z" transform="translate(-411.645 -221.984)" fill="#00a19a"/>
          <path id="Path_776" data-name="Path 776" d="M417.9,342.355l64.887,9.95h-5.005L417.9,343.122Z" transform="translate(-411.645 -222.273)" fill="#00a19a"/>
          <path id="Path_777" data-name="Path 777" d="M417.9,341.876l69.892,10.717h-5l-64.887-9.95Z" transform="translate(-411.645 -222.562)" fill="#00a19a"/>
          <path id="Path_778" data-name="Path 778" d="M417.9,341.4l74.9,11.485h-5.005L417.9,342.166Z" transform="translate(-411.645 -222.851)" fill="#00a19a"/>
          <path id="Path_779" data-name="Path 779" d="M417.9,340.92l79.9,12.253h-5l-74.9-11.485Z" transform="translate(-411.645 -223.141)" fill="#00a19a"/>
          <path id="Path_780" data-name="Path 780" d="M417.9,340.441l83.3,12.774-.037.246H497.8l-79.9-12.253Z" transform="translate(-411.645 -223.43)" fill="#00a19a"/>
          <path id="Path_781" data-name="Path 781" d="M417.9,339.963l83.417,12.791-.115.75L417.9,340.73Z" transform="translate(-411.645 -223.719)" fill="#00a19a"/>
          <path id="Path_782" data-name="Path 782" d="M417.9,339.485l83.532,12.809-.115.75L417.9,340.252Z" transform="translate(-411.645 -224.008)" fill="#00a19a"/>
          <path id="Path_783" data-name="Path 783" d="M417.9,339.006l83.647,12.827-.115.75L417.9,339.774Z" transform="translate(-411.645 -224.297)" fill="#00a19a"/>
          <path id="Path_784" data-name="Path 784" d="M417.9,338.528l83.762,12.845-.115.75L417.9,339.3Z" transform="translate(-411.645 -224.587)" fill="#00a19a"/>
          <path id="Path_785" data-name="Path 785" d="M417.9,338.05l83.877,12.862-.115.75L417.9,338.817Z" transform="translate(-411.645 -224.876)" fill="#00a19a"/>
          <path id="Path_786" data-name="Path 786" d="M417.9,337.571l83.992,12.88-.115.75L417.9,338.339Z" transform="translate(-411.645 -225.165)" fill="#00a19a"/>
          <path id="Path_787" data-name="Path 787" d="M417.9,337.093l84.107,12.9-.115.75L417.9,337.861Z" transform="translate(-411.645 -225.454)" fill="#00a19a"/>
          <path id="Path_788" data-name="Path 788" d="M417.9,336.615l84.222,12.915-.115.75-84.107-12.9Z" transform="translate(-411.645 -225.743)" fill="#00a19a"/>
          <path id="Path_789" data-name="Path 789" d="M417.9,336.137l84.337,12.932-.115.75L417.9,336.9Z" transform="translate(-411.645 -226.033)" fill="#00a19a"/>
          <path id="Path_790" data-name="Path 790" d="M417.9,335.658l84.452,12.95-.115.75L417.9,336.426Z" transform="translate(-411.645 -226.322)" fill="#00a19a"/>
          <path id="Path_791" data-name="Path 791" d="M417.9,335.18l84.567,12.968-.115.75L417.9,335.947Z" transform="translate(-411.645 -226.611)" fill="#00a19a"/>
          <path id="Path_792" data-name="Path 792" d="M417.9,334.7l84.682,12.986-.115.75L417.9,335.469Z" transform="translate(-411.645 -226.9)" fill="#00a19a"/>
          <path id="Path_793" data-name="Path 793" d="M417.9,334.223l84.8,13-.115.75L417.9,334.991Z" transform="translate(-411.645 -227.189)" fill="#00a19a"/>
          <path id="Path_794" data-name="Path 794" d="M417.9,333.745l84.912,13.021-.115.75-84.8-13Z" transform="translate(-411.645 -227.478)" fill="#00a19a"/>
          <path id="Path_795" data-name="Path 795" d="M417.9,333.267l85.027,13.039-.115.75L417.9,334.034Z" transform="translate(-411.645 -227.768)" fill="#00a19a"/>
          <path id="Path_796" data-name="Path 796" d="M417.9,332.789l85.142,13.056-.115.75L417.9,333.556Z" transform="translate(-411.645 -228.057)" fill="#00a19a"/>
          <path id="Path_797" data-name="Path 797" d="M417.9,332.31l85.257,13.073-.115.75L417.9,333.078Z" transform="translate(-411.645 -228.346)" fill="#00a19a"/>
          <path id="Path_798" data-name="Path 798" d="M417.9,331.832l85.372,13.091-.115.75L417.9,332.6Z" transform="translate(-411.645 -228.635)" fill="#00a19a"/>
          <path id="Path_799" data-name="Path 799" d="M417.9,331.354l85.487,13.109-.115.75L417.9,332.121Z" transform="translate(-411.645 -228.924)" fill="#00a19a"/>
          <path id="Path_800" data-name="Path 800" d="M417.9,330.875,503.5,344l-.115.75L417.9,331.643Z" transform="translate(-411.645 -229.214)" fill="#00a19a"/>
          <path id="Path_801" data-name="Path 801" d="M417.9,330.4l85.717,13.144-.115.75-85.6-13.127Z" transform="translate(-411.645 -229.503)" fill="#00a19a"/>
          <path id="Path_802" data-name="Path 802" d="M417.9,329.919l85.832,13.162-.115.75L417.9,330.686Z" transform="translate(-411.645 -229.792)" fill="#00a19a"/>
          <path id="Path_803" data-name="Path 803" d="M417.9,329.44l85.947,13.179-.115.75L417.9,330.208Z" transform="translate(-411.645 -230.081)" fill="#00a19a"/>
          <path id="Path_804" data-name="Path 804" d="M417.9,328.962l86.061,13.2-.115.75L417.9,329.73Z" transform="translate(-411.645 -230.37)" fill="#00a19a"/>
          <path id="Path_805" data-name="Path 805" d="M417.9,328.484,504.078,341.7l-.115.75-86.061-13.2Z" transform="translate(-411.645 -230.66)" fill="#00a19a"/>
          <path id="Path_806" data-name="Path 806" d="M417.9,328.006l86.291,13.232-.115.75L417.9,328.773Z" transform="translate(-411.645 -230.949)" fill="#00a19a"/>
          <path id="Path_807" data-name="Path 807" d="M417.9,327.527l86.407,13.25-.115.75L417.9,328.295Z" transform="translate(-411.645 -231.238)" fill="#00a19a"/>
          <path id="Path_808" data-name="Path 808" d="M417.9,327.049l86.521,13.268-.115.75L417.9,327.817Z" transform="translate(-411.645 -231.527)" fill="#00a19a"/>
          <path id="Path_809" data-name="Path 809" d="M417.9,326.571l86.636,13.285-.115.75L417.9,327.338Z" transform="translate(-411.645 -231.816)" fill="#00a19a"/>
          <path id="Path_810" data-name="Path 810" d="M417.9,326.093l86.751,13.3-.115.75L417.9,326.86Z" transform="translate(-411.645 -232.105)" fill="#00a19a"/>
          <path id="Path_811" data-name="Path 811" d="M417.9,325.614l86.867,13.32-.115.75-86.751-13.3Z" transform="translate(-411.645 -232.395)" fill="#00a19a"/>
          <path id="Path_812" data-name="Path 812" d="M417.9,325.136l86.982,13.338-.115.75L417.9,325.9Z" transform="translate(-411.645 -232.684)" fill="#00a19a"/>
          <path id="Path_813" data-name="Path 813" d="M417.9,324.658,505,338.014l-.115.75L417.9,325.425Z" transform="translate(-411.645 -232.973)" fill="#00a19a"/>
          <path id="Path_814" data-name="Path 814" d="M417.9,324.179l87.211,13.374-.115.75-87.1-13.356Z" transform="translate(-411.645 -233.262)" fill="#00a19a"/>
          <path id="Path_815" data-name="Path 815" d="M417.9,323.7l87.326,13.391-.115.75L417.9,324.468Z" transform="translate(-411.645 -233.551)" fill="#00a19a"/>
          <path id="Path_816" data-name="Path 816" d="M417.9,323.223l87.441,13.408-.115.75L417.9,323.99Z" transform="translate(-411.645 -233.841)" fill="#00a19a"/>
          <path id="Path_817" data-name="Path 817" d="M417.9,322.745l87.556,13.426-.115.75L417.9,323.512Z" transform="translate(-411.645 -234.13)" fill="#00a19a"/>
          <path id="Path_818" data-name="Path 818" d="M417.9,322.266l87.671,13.444-.115.75L417.9,323.034Z" transform="translate(-411.645 -234.419)" fill="#00a19a"/>
          <path id="Path_819" data-name="Path 819" d="M417.9,321.788l87.786,13.462-.115.75L417.9,322.556Z" transform="translate(-411.645 -234.708)" fill="#00a19a"/>
          <path id="Path_820" data-name="Path 820" d="M417.9,321.31l87.9,13.479-.115.75L417.9,322.077Z" transform="translate(-411.645 -234.997)" fill="#00a19a"/>
          <path id="Path_821" data-name="Path 821" d="M417.9,320.831l88.016,13.5-.115.75L417.9,321.6Z" transform="translate(-411.645 -235.287)" fill="#00a19a"/>
          <path id="Path_822" data-name="Path 822" d="M417.9,320.353l88.131,13.515-.115.75-88.016-13.5Z" transform="translate(-411.645 -235.576)" fill="#00a19a"/>
          <path id="Path_823" data-name="Path 823" d="M417.9,319.875l88.246,13.532-.115.75L417.9,320.642Z" transform="translate(-411.645 -235.865)" fill="#00a19a"/>
          <path id="Path_824" data-name="Path 824" d="M417.9,319.4l88.361,13.55-.115.75L417.9,320.164Z" transform="translate(-411.645 -236.154)" fill="#00a19a"/>
          <path id="Path_825" data-name="Path 825" d="M417.9,318.918l88.476,13.568-.115.75L417.9,319.686Z" transform="translate(-411.645 -236.443)" fill="#00a19a"/>
          <path id="Path_826" data-name="Path 826" d="M417.9,318.44l88.591,13.585-.115.75L417.9,319.207Z" transform="translate(-411.645 -236.732)" fill="#00a19a"/>
          <path id="Path_827" data-name="Path 827" d="M417.9,317.961l88.706,13.6-.115.75L417.9,318.729Z" transform="translate(-411.645 -237.022)" fill="#00a19a"/>
          <path id="Path_828" data-name="Path 828" d="M417.9,317.483l88.821,13.62-.115.75-88.706-13.6Z" transform="translate(-411.645 -237.311)" fill="#00a19a"/>
          <path id="Path_829" data-name="Path 829" d="M417.9,317l88.936,13.638-.115.75L417.9,317.772Z" transform="translate(-411.645 -237.6)" fill="#00a19a"/>
          <path id="Path_830" data-name="Path 830" d="M417.9,316.527l89.051,13.656-.115.75L417.9,317.294Z" transform="translate(-411.645 -237.889)" fill="#00a19a"/>
          <path id="Path_831" data-name="Path 831" d="M417.9,316.048l89.166,13.673-.115.75L417.9,316.816Z" transform="translate(-411.645 -238.178)" fill="#00a19a"/>
          <path id="Path_832" data-name="Path 832" d="M417.9,315.57l89.281,13.691-.115.75L417.9,316.338Z" transform="translate(-411.645 -238.468)" fill="#00a19a"/>
          <path id="Path_833" data-name="Path 833" d="M417.9,315.092,507.3,328.8l-.115.75L417.9,315.859Z" transform="translate(-411.645 -238.757)" fill="#00a19a"/>
          <path id="Path_834" data-name="Path 834" d="M417.9,314.613l89.511,13.726-.115.75-89.4-13.708Z" transform="translate(-411.645 -239.046)" fill="#00a19a"/>
          <path id="Path_835" data-name="Path 835" d="M417.9,314.135l89.626,13.743-.115.75L417.9,314.9Z" transform="translate(-411.645 -239.335)" fill="#00a19a"/>
          <path id="Path_836" data-name="Path 836" d="M417.9,313.657l89.741,13.761-.115.75L417.9,314.424Z" transform="translate(-411.645 -239.624)" fill="#00a19a"/>
          <path id="Path_837" data-name="Path 837" d="M417.9,313.178l89.768,13.766v.585l-.027.178L417.9,313.946Z" transform="translate(-411.645 -239.914)" fill="#00a19a"/>
          <path id="Path_838" data-name="Path 838" d="M417.9,312.7l89.768,13.765v.768L417.9,313.468Z" transform="translate(-411.645 -240.203)" fill="#00a19a"/>
          <path id="Path_839" data-name="Path 839" d="M417.9,312.222l89.768,13.765v.768L417.9,312.99Z" transform="translate(-411.645 -240.492)" fill="#00a19a"/>
          <path id="Path_840" data-name="Path 840" d="M417.9,311.744l89.768,13.766v.767L417.9,312.511Z" transform="translate(-411.645 -240.781)" fill="#00a19a"/>
          <path id="Path_841" data-name="Path 841" d="M417.9,311.266l89.768,13.765v.768L417.9,312.033Z" transform="translate(-411.645 -241.07)" fill="#00a19a"/>
          <path id="Path_842" data-name="Path 842" d="M417.9,310.787l89.768,13.766v.767L417.9,311.555Z" transform="translate(-411.645 -241.36)" fill="#00a19a"/>
          <path id="Path_843" data-name="Path 843" d="M417.9,310.309l89.768,13.766v.767L417.9,311.076Z" transform="translate(-411.645 -241.649)" fill="#00a19a"/>
          <path id="Path_844" data-name="Path 844" d="M417.9,309.831,507.669,323.6v.767L417.9,310.6Z" transform="translate(-411.645 -241.938)" fill="#00a19a"/>
          <path id="Path_845" data-name="Path 845" d="M417.9,309.352l89.768,13.766v.767L417.9,310.12Z" transform="translate(-411.645 -242.227)" fill="#00a19a"/>
          <path id="Path_846" data-name="Path 846" d="M417.9,308.874l89.768,13.765v.768L417.9,309.642Z" transform="translate(-411.645 -242.516)" fill="#00a19a"/>
          <path id="Path_847" data-name="Path 847" d="M417.9,308.4l89.768,13.765v.767L417.9,309.163Z" transform="translate(-411.645 -242.805)" fill="#00a19a"/>
          <path id="Path_848" data-name="Path 848" d="M417.9,307.917l89.768,13.765v.768L417.9,308.685Z" transform="translate(-411.645 -243.095)" fill="#00a19a"/>
          <path id="Path_849" data-name="Path 849" d="M417.9,307.439,507.669,321.2v.767L417.9,308.207Z" transform="translate(-411.645 -243.384)" fill="#00a19a"/>
          <path id="Path_850" data-name="Path 850" d="M417.9,306.961l89.768,13.766v.767L417.9,307.728Z" transform="translate(-411.645 -243.673)" fill="#00a19a"/>
          <path id="Path_851" data-name="Path 851" d="M417.9,306.482l89.768,13.766v.768L417.9,307.25Z" transform="translate(-411.645 -243.962)" fill="#00a19a"/>
          <path id="Path_852" data-name="Path 852" d="M417.9,306l89.768,13.766v.767L417.9,306.772Z" transform="translate(-411.645 -244.251)" fill="#00a19a"/>
          <path id="Path_853" data-name="Path 853" d="M417.9,305.526l89.768,13.766v.767L417.9,306.293Z" transform="translate(-411.645 -244.541)" fill="#00a19a"/>
          <path id="Path_854" data-name="Path 854" d="M417.9,305.048l89.768,13.765v.768L417.9,305.815Z" transform="translate(-411.645 -244.83)" fill="#00a19a"/>
          <path id="Path_855" data-name="Path 855" d="M417.9,304.569l89.768,13.766v.767L417.9,305.337Z" transform="translate(-411.645 -245.119)" fill="#00a19a"/>
          <path id="Path_856" data-name="Path 856" d="M417.9,304.091l89.768,13.765v.768L417.9,304.858Z" transform="translate(-411.645 -245.408)" fill="#00a19a"/>
          <path id="Path_857" data-name="Path 857" d="M417.9,303.613l89.768,13.766v.767L417.9,304.38Z" transform="translate(-411.645 -245.697)" fill="#00a19a"/>
          <path id="Path_858" data-name="Path 858" d="M417.9,303.134,507.669,316.9v.768L417.9,303.9Z" transform="translate(-411.645 -245.987)" fill="#00a19a"/>
          <path id="Path_859" data-name="Path 859" d="M417.9,302.656l89.768,13.766v.767L417.9,303.423Z" transform="translate(-411.645 -246.276)" fill="#00a19a"/>
          <path id="Path_860" data-name="Path 860" d="M417.9,302.178l89.768,13.766v.767L417.9,302.945Z" transform="translate(-411.645 -246.565)" fill="#00a19a"/>
          <path id="Path_861" data-name="Path 861" d="M417.9,301.7l89.768,13.766v.768L417.9,302.467Z" transform="translate(-411.645 -246.854)" fill="#00a19a"/>
          <path id="Path_862" data-name="Path 862" d="M417.9,301.221l89.768,13.765v.768L417.9,301.989Z" transform="translate(-411.645 -247.143)" fill="#00a19a"/>
          <path id="Path_863" data-name="Path 863" d="M417.9,300.743l89.768,13.766v.768L417.9,301.511Z" transform="translate(-411.645 -247.433)" fill="#00a19a"/>
          <path id="Path_864" data-name="Path 864" d="M417.9,300.265l89.768,13.765v.767L417.9,301.032Z" transform="translate(-411.645 -247.722)" fill="#00a19a"/>
          <path id="Path_865" data-name="Path 865" d="M417.9,299.786l89.768,13.766v.767L417.9,300.554Z" transform="translate(-411.645 -248.011)" fill="#00a19a"/>
          <path id="Path_866" data-name="Path 866" d="M417.9,299.308l89.768,13.766v.768L417.9,300.076Z" transform="translate(-411.645 -248.3)" fill="#00a19a"/>
          <path id="Path_867" data-name="Path 867" d="M417.9,298.83,507.669,312.6v.767L417.9,299.6Z" transform="translate(-411.645 -248.589)" fill="#00a19a"/>
          <path id="Path_868" data-name="Path 868" d="M417.9,298.352l89.768,13.766v.768L417.9,299.119Z" transform="translate(-411.645 -248.878)" fill="#00a19a"/>
          <path id="Path_869" data-name="Path 869" d="M417.9,297.873l89.768,13.766v.767L417.9,298.641Z" transform="translate(-411.645 -249.168)" fill="#00a19a"/>
          <path id="Path_870" data-name="Path 870" d="M417.9,297.395l89.768,13.765v.768L417.9,298.162Z" transform="translate(-411.645 -249.457)" fill="#00a19a"/>
          <path id="Path_871" data-name="Path 871" d="M417.9,296.917l89.768,13.766v.767L417.9,297.684Z" transform="translate(-411.645 -249.746)" fill="#00a19a"/>
          <path id="Path_872" data-name="Path 872" d="M417.9,296.438,507.669,310.2v.767L417.9,297.206Z" transform="translate(-411.645 -250.035)" fill="#00a19a"/>
          <path id="Path_873" data-name="Path 873" d="M417.9,295.96l89.768,13.765v.768L417.9,296.728Z" transform="translate(-411.645 -250.324)" fill="#00a19a"/>
          <path id="Path_874" data-name="Path 874" d="M417.9,295.482l89.768,13.766v.767L417.9,296.249Z" transform="translate(-411.645 -250.614)" fill="#00a19a"/>
          <path id="Path_875" data-name="Path 875" d="M417.9,295l89.768,13.765v.768L417.9,295.771Z" transform="translate(-411.645 -250.903)" fill="#00a19a"/>
          <path id="Path_876" data-name="Path 876" d="M417.9,294.525l89.768,13.765v.767L417.9,295.293Z" transform="translate(-411.645 -251.192)" fill="#00a19a"/>
          <path id="Path_877" data-name="Path 877" d="M417.9,294.047l89.768,13.765v.768L417.9,294.814Z" transform="translate(-411.645 -251.481)" fill="#00a19a"/>
          <path id="Path_878" data-name="Path 878" d="M417.9,293.568l89.768,13.766v.767L417.9,294.336Z" transform="translate(-411.645 -251.77)" fill="#00a19a"/>
          <path id="Path_879" data-name="Path 879" d="M417.9,293.09l89.768,13.765v.768L417.9,293.858Z" transform="translate(-411.645 -252.06)" fill="#00a19a"/>
          <path id="Path_880" data-name="Path 880" d="M417.9,292.612l89.768,13.765v.768L417.9,293.379Z" transform="translate(-411.645 -252.349)" fill="#00a19a"/>
          <path id="Path_881" data-name="Path 881" d="M417.9,292.134,507.669,305.9v.767L417.9,292.9Z" transform="translate(-411.645 -252.638)" fill="#00a19a"/>
          <path id="Path_882" data-name="Path 882" d="M417.9,291.655l89.768,13.766v.768L417.9,292.423Z" transform="translate(-411.645 -252.927)" fill="#00a19a"/>
          <path id="Path_883" data-name="Path 883" d="M417.9,291.177l89.768,13.765v.768L417.9,291.945Z" transform="translate(-411.645 -253.216)" fill="#00a19a"/>
          <path id="Path_884" data-name="Path 884" d="M417.9,290.7l89.768,13.766v.767L417.9,291.466Z" transform="translate(-411.645 -253.505)" fill="#00a19a"/>
          <path id="Path_885" data-name="Path 885" d="M417.9,290.22l89.768,13.765v.768L417.9,290.988Z" transform="translate(-411.645 -253.795)" fill="#00a19a"/>
          <path id="Path_886" data-name="Path 886" d="M417.9,289.742l89.768,13.765v.767L417.9,290.51Z" transform="translate(-411.645 -254.084)" fill="#00a19a"/>
          <path id="Path_887" data-name="Path 887" d="M417.9,289.264l89.768,13.766v.767L417.9,290.032Z" transform="translate(-411.645 -254.373)" fill="#00a19a"/>
          <path id="Path_888" data-name="Path 888" d="M417.9,288.786l89.768,13.765v.768L417.9,289.553Z" transform="translate(-411.645 -254.662)" fill="#00a19a"/>
          <path id="Path_889" data-name="Path 889" d="M417.9,288.307l89.768,13.765v.767L417.9,289.075Z" transform="translate(-411.645 -254.951)" fill="#00a19a"/>
          <path id="Path_890" data-name="Path 890" d="M417.9,287.829l89.768,13.766v.767L417.9,288.6Z" transform="translate(-411.645 -255.241)" fill="#00a19a"/>
          <path id="Path_891" data-name="Path 891" d="M417.9,287.351l89.768,13.765v.767L417.9,288.118Z" transform="translate(-411.645 -255.53)" fill="#00a19a"/>
          <path id="Path_892" data-name="Path 892" d="M417.9,286.872l89.768,13.766v.767L417.9,287.64Z" transform="translate(-411.645 -255.819)" fill="#00a19a"/>
          <path id="Path_893" data-name="Path 893" d="M417.9,286.394l89.768,13.766v.767L417.9,287.162Z" transform="translate(-411.645 -256.108)" fill="#00a19a"/>
          <path id="Path_894" data-name="Path 894" d="M417.9,285.916l89.768,13.765v.768L417.9,286.683Z" transform="translate(-411.645 -256.397)" fill="#00a19a"/>
          <path id="Path_895" data-name="Path 895" d="M417.9,285.438,507.669,299.2v.767L417.9,286.205Z" transform="translate(-411.645 -256.687)" fill="#00a19a"/>
          <path id="Path_896" data-name="Path 896" d="M417.9,284.959l89.768,13.766v.767L417.9,285.727Z" transform="translate(-411.645 -256.976)" fill="#00a19a"/>
          <path id="Path_897" data-name="Path 897" d="M417.9,284.481l89.768,13.765v.768L417.9,285.248Z" transform="translate(-411.645 -257.265)" fill="#00a19a"/>
          <path id="Path_898" data-name="Path 898" d="M417.9,284l89.768,13.765v.768L417.9,284.77Z" transform="translate(-411.645 -257.554)" fill="#00a19a"/>
          <path id="Path_899" data-name="Path 899" d="M417.9,283.524l89.768,13.766v.767L417.9,284.292Z" transform="translate(-411.645 -257.843)" fill="#00a19a"/>
          <path id="Path_900" data-name="Path 900" d="M417.9,283.046l89.768,13.766v.767L417.9,283.814Z" transform="translate(-411.645 -258.132)" fill="#00a19a"/>
          <path id="Path_901" data-name="Path 901" d="M417.9,282.568l89.768,13.765v.768L417.9,283.335Z" transform="translate(-411.645 -258.422)" fill="#00a19a"/>
          <path id="Path_902" data-name="Path 902" d="M417.9,282.09l89.768,13.765v.767L417.9,282.857Z" transform="translate(-411.645 -258.711)" fill="#00a19a"/>
          <path id="Path_903" data-name="Path 903" d="M417.9,281.611l89.768,13.765v.767L417.9,282.379Z" transform="translate(-411.645 -259)" fill="#00a19a"/>
          <path id="Path_904" data-name="Path 904" d="M417.9,281.133,507.669,294.9v.767L417.9,281.9Z" transform="translate(-411.645 -259.289)" fill="#00a19a"/>
          <path id="Path_905" data-name="Path 905" d="M417.9,280.655l89.768,13.766v.767L417.9,281.422Z" transform="translate(-411.645 -259.578)" fill="#00a19a"/>
          <path id="Path_906" data-name="Path 906" d="M417.9,280.176l89.768,13.765v.768L417.9,280.944Z" transform="translate(-411.645 -259.868)" fill="#00a19a"/>
          <path id="Path_907" data-name="Path 907" d="M417.9,279.7l89.768,13.765v.767L417.9,280.466Z" transform="translate(-411.645 -260.157)" fill="#00a19a"/>
          <path id="Path_908" data-name="Path 908" d="M417.9,279.22l89.768,13.766v.767L417.9,279.987Z" transform="translate(-411.645 -260.446)" fill="#00a19a"/>
          <path id="Path_909" data-name="Path 909" d="M417.9,278.741l89.768,13.765v.768L417.9,279.509Z" transform="translate(-411.645 -260.735)" fill="#00a19a"/>
          <path id="Path_910" data-name="Path 910" d="M417.9,278.263l89.768,13.765v.767L417.9,279.031Z" transform="translate(-411.645 -261.024)" fill="#00a19a"/>
          <path id="Path_911" data-name="Path 911" d="M417.9,278.048l.04-.259,89.728,13.759v.767L417.9,278.55Z" transform="translate(-411.645 -261.311)" fill="#00a19a"/>
          <path id="Path_912" data-name="Path 912" d="M417.926,278.071l.115-.75,89.614,13.742v.767Z" transform="translate(-411.629 -261.594)" fill="#00a19a"/>
          <path id="Path_913" data-name="Path 913" d="M418,277.6l.115-.75,89.5,13.725v.767Z" transform="translate(-411.586 -261.876)" fill="#00a19a"/>
          <path id="Path_914" data-name="Path 914" d="M418.069,277.136l.115-.75,89.384,13.706v.768Z" transform="translate(-411.543 -262.159)" fill="#00a19a"/>
          <path id="Path_915" data-name="Path 915" d="M418.141,276.669l.115-.75,89.269,13.689v.767Z" transform="translate(-411.5 -262.441)" fill="#00a19a"/>
          <path id="Path_916" data-name="Path 916" d="M418.212,276.2l.115-.75,89.154,13.671v.767Z" transform="translate(-411.456 -262.724)" fill="#00a19a"/>
          <path id="Path_917" data-name="Path 917" d="M418.284,275.735l.115-.75,89.039,13.653v.768Z" transform="translate(-411.413 -263.007)" fill="#00a19a"/>
          <path id="Path_918" data-name="Path 918" d="M418.356,275.267l.115-.75,88.924,13.636v.767Z" transform="translate(-411.37 -263.289)" fill="#00a19a"/>
          <path id="Path_919" data-name="Path 919" d="M418.427,274.8l.115-.75,88.809,13.618v.768Z" transform="translate(-411.326 -263.572)" fill="#00a19a"/>
          <path id="Path_920" data-name="Path 920" d="M418.5,274.333l.115-.75,88.694,13.6v.767Z" transform="translate(-411.283 -263.854)" fill="#00a19a"/>
          <path id="Path_921" data-name="Path 921" d="M418.571,273.865l.115-.75L507.264,286.7v.767Z" transform="translate(-411.24 -264.137)" fill="#00a19a"/>
          <path id="Path_922" data-name="Path 922" d="M418.642,273.4l.115-.75,88.464,13.565v.768Z" transform="translate(-411.196 -264.419)" fill="#00a19a"/>
          <path id="Path_923" data-name="Path 923" d="M418.714,272.676c.011-.075,4.508-.075,4.508-.075l83.956,12.874v.767Z" transform="translate(-411.153 -264.448)" fill="#00a19a"/>
          <path id="Path_924" data-name="Path 924" d="M426.528,272.6l78.951,12.107v.768L421.523,272.6Z" transform="translate(-409.455 -264.448)" fill="#00a19a"/>
          <path id="Path_925" data-name="Path 925" d="M429.647,272.6l73.947,11.339v.768L424.642,272.6Z" transform="translate(-407.569 -264.448)" fill="#00a19a"/>
          <path id="Path_926" data-name="Path 926" d="M432.766,272.6l68.941,10.572v.767L427.761,272.6Z" transform="translate(-405.683 -264.448)" fill="#00a19a"/>
          <path id="Path_927" data-name="Path 927" d="M435.885,272.6l63.937,9.8v.768L430.88,272.6Z" transform="translate(-403.797 -264.448)" fill="#00a19a"/>
          <path id="Path_928" data-name="Path 928" d="M439,272.6l58.932,9.037v.767L434,272.6Z" transform="translate(-401.911 -264.448)" fill="#00a19a"/>
          <path id="Path_929" data-name="Path 929" d="M442.123,272.6l53.927,8.269v.768L437.118,272.6Z" transform="translate(-400.025 -264.448)" fill="#00a19a"/>
          <path id="Path_930" data-name="Path 930" d="M445.242,272.6l48.922,7.5v.767L440.237,272.6Z" transform="translate(-398.139 -264.448)" fill="#00a19a"/>
          <path id="Path_931" data-name="Path 931" d="M448.361,272.6l43.917,6.735v.767l-48.922-7.5Z" transform="translate(-396.254 -264.448)" fill="#00a19a"/>
          <path id="Path_932" data-name="Path 932" d="M451.48,272.6l38.912,5.967v.768L446.475,272.6Z" transform="translate(-394.368 -264.448)" fill="#00a19a"/>
          <path id="Path_933" data-name="Path 933" d="M454.6,272.6l33.907,5.2v.768L449.595,272.6Z" transform="translate(-392.482 -264.448)" fill="#00a19a"/>
          <path id="Path_934" data-name="Path 934" d="M457.718,272.6l28.9,4.432v.767l-33.907-5.2Z" transform="translate(-390.596 -264.448)" fill="#00a19a"/>
          <path id="Path_935" data-name="Path 935" d="M460.838,272.6l23.9,3.664v.768l-28.9-4.432Z" transform="translate(-388.71 -264.448)" fill="#00a19a"/>
          <path id="Path_936" data-name="Path 936" d="M463.957,272.6l18.892,2.9v.768l-23.9-3.664Z" transform="translate(-386.824 -264.448)" fill="#00a19a"/>
          <path id="Path_937" data-name="Path 937" d="M480.963,275.5l-18.892-2.9h18.892Z" transform="translate(-384.938 -264.448)" fill="#00a19a"/>
          <path id="Path_938" data-name="Path 938" d="M414,343.191l94.7,14.522-.344,2.241H414Z" transform="translate(-414.002 -221.767)" fill="#00a19a"/>
          <path id="Path_939" data-name="Path 939" d="M414,342.713l94.819,14.54-.115.75L414,343.481Z" transform="translate(-414.002 -222.056)" fill="#00a19a"/>
          <path id="Path_940" data-name="Path 940" d="M414,342.235l94.933,14.557-.115.75L414,343Z" transform="translate(-414.002 -222.345)" fill="#00a19a"/>
          <path id="Path_941" data-name="Path 941" d="M414,341.757l95.048,14.575-.115.75L414,342.524Z" transform="translate(-414.002 -222.635)" fill="#00a19a"/>
          <path id="Path_942" data-name="Path 942" d="M414,341.278l95.163,14.593-.115.75L414,342.046Z" transform="translate(-414.002 -222.924)" fill="#00a19a"/>
          <path id="Path_943" data-name="Path 943" d="M414,340.8l95.278,14.61-.115.75L414,341.567Z" transform="translate(-414.002 -223.213)" fill="#00a19a"/>
          <path id="Path_944" data-name="Path 944" d="M414,340.322l95.393,14.628-.115.75L414,341.089Z" transform="translate(-414.002 -223.502)" fill="#00a19a"/>
          <path id="Path_945" data-name="Path 945" d="M414,339.843l95.509,14.646-.115.75L414,340.611Z" transform="translate(-414.002 -223.791)" fill="#00a19a"/>
          <path id="Path_946" data-name="Path 946" d="M414,339.365l95.623,14.663-.115.75L414,340.132Z" transform="translate(-414.002 -224.081)" fill="#00a19a"/>
          <path id="Path_947" data-name="Path 947" d="M414,338.887l95.738,14.681-.115.75L414,339.654Z" transform="translate(-414.002 -224.37)" fill="#00a19a"/>
          <path id="Path_948" data-name="Path 948" d="M414,338.408l95.853,14.7-.115.75L414,339.176Z" transform="translate(-414.002 -224.659)" fill="#00a19a"/>
          <path id="Path_949" data-name="Path 949" d="M414,337.93l95.968,14.716-.115.75L414,338.7Z" transform="translate(-414.002 -224.948)" fill="#00a19a"/>
          <path id="Path_950" data-name="Path 950" d="M414,337.452l96.083,14.734-.115.75L414,338.219Z" transform="translate(-414.002 -225.237)" fill="#00a19a"/>
          <path id="Path_951" data-name="Path 951" d="M414,336.974l96.2,14.751-.115.75L414,337.741Z" transform="translate(-414.002 -225.527)" fill="#00a19a"/>
          <path id="Path_952" data-name="Path 952" d="M414,336.5l96.313,14.769-.115.749L414,337.263Z" transform="translate(-414.002 -225.816)" fill="#00a19a"/>
          <path id="Path_953" data-name="Path 953" d="M414,336.017,510.43,350.8l-.115.75L414,336.785Z" transform="translate(-414.002 -226.105)" fill="#00a19a"/>
          <path id="Path_954" data-name="Path 954" d="M414,335.539l96.543,14.8-.115.75L414,336.306Z" transform="translate(-414.002 -226.394)" fill="#00a19a"/>
          <path id="Path_955" data-name="Path 955" d="M414,335.06l96.658,14.822-.115.75L414,335.828Z" transform="translate(-414.002 -226.683)" fill="#00a19a"/>
          <path id="Path_956" data-name="Path 956" d="M414,334.582l96.773,14.84-.115.75L414,335.35Z" transform="translate(-414.002 -226.972)" fill="#00a19a"/>
          <path id="Path_957" data-name="Path 957" d="M414,334.1l96.888,14.857-.115.75L414,334.871Z" transform="translate(-414.002 -227.262)" fill="#00a19a"/>
          <path id="Path_958" data-name="Path 958" d="M414,333.626l97,14.875-.115.75L414,334.393Z" transform="translate(-414.002 -227.551)" fill="#00a19a"/>
          <path id="Path_959" data-name="Path 959" d="M414,333.147,511.12,348.04l-.115.75-97-14.875Z" transform="translate(-414.002 -227.84)" fill="#00a19a"/>
          <path id="Path_960" data-name="Path 960" d="M414,332.669l97.233,14.91-.115.75L414,333.436Z" transform="translate(-414.002 -228.129)" fill="#00a19a"/>
          <path id="Path_961" data-name="Path 961" d="M414,332.191l97.348,14.928-.115.75L414,332.958Z" transform="translate(-414.002 -228.418)" fill="#00a19a"/>
          <path id="Path_962" data-name="Path 962" d="M414,331.712l97.463,14.946-.115.75L414,332.48Z" transform="translate(-414.002 -228.708)" fill="#00a19a"/>
          <path id="Path_963" data-name="Path 963" d="M414,331.234,511.58,346.2l-.115.75L414,332Z" transform="translate(-414.002 -228.997)" fill="#00a19a"/>
          <path id="Path_964" data-name="Path 964" d="M414,330.756,511.7,345.737l-.115.75L414,331.523Z" transform="translate(-414.002 -229.286)" fill="#00a19a"/>
          <path id="Path_965" data-name="Path 965" d="M414,330.277l97.808,15-.115.75L414,331.045Z" transform="translate(-414.002 -229.575)" fill="#00a19a"/>
          <path id="Path_966" data-name="Path 966" d="M414,329.8l97.923,15.016-.115.75-97.808-15Z" transform="translate(-414.002 -229.864)" fill="#00a19a"/>
          <path id="Path_967" data-name="Path 967" d="M414,329.321l98.038,15.034-.115.75L414,330.088Z" transform="translate(-414.002 -230.153)" fill="#00a19a"/>
          <path id="Path_968" data-name="Path 968" d="M414,328.843l98.153,15.051-.115.75L414,329.61Z" transform="translate(-414.002 -230.443)" fill="#00a19a"/>
          <path id="Path_969" data-name="Path 969" d="M414,328.364l98.268,15.069-.115.75L414,329.132Z" transform="translate(-414.002 -230.732)" fill="#00a19a"/>
          <path id="Path_970" data-name="Path 970" d="M414,327.886l98.383,15.086-.115.75L414,328.653Z" transform="translate(-414.002 -231.021)" fill="#00a19a"/>
          <path id="Path_971" data-name="Path 971" d="M414,327.408l98.5,15.1-.115.75L414,328.175Z" transform="translate(-414.002 -231.31)" fill="#00a19a"/>
          <path id="Path_972" data-name="Path 972" d="M414,326.93l98.613,15.122-.115.75L414,327.7Z" transform="translate(-414.002 -231.599)" fill="#00a19a"/>
          <path id="Path_973" data-name="Path 973" d="M414,326.451,512.73,341.59l-.115.75L414,327.219Z" transform="translate(-414.002 -231.889)" fill="#00a19a"/>
          <path id="Path_974" data-name="Path 974" d="M414,325.973l98.843,15.157-.115.75L414,326.74Z" transform="translate(-414.002 -232.178)" fill="#00a19a"/>
          <path id="Path_975" data-name="Path 975" d="M414,325.495l98.958,15.175-.115.75L414,326.262Z" transform="translate(-414.002 -232.467)" fill="#00a19a"/>
          <path id="Path_976" data-name="Path 976" d="M414,325.016l99.073,15.192-.115.75L414,325.784Z" transform="translate(-414.002 -232.756)" fill="#00a19a"/>
          <path id="Path_977" data-name="Path 977" d="M414,324.538l99.188,15.21-.115.75L414,325.305Z" transform="translate(-414.002 -233.045)" fill="#00a19a"/>
          <path id="Path_978" data-name="Path 978" d="M414,324.06l99.3,15.227-.115.75L414,324.827Z" transform="translate(-414.002 -233.335)" fill="#00a19a"/>
          <path id="Path_979" data-name="Path 979" d="M414,323.581l99.418,15.245-.115.75L414,324.349Z" transform="translate(-414.002 -233.624)" fill="#00a19a"/>
          <path id="Path_980" data-name="Path 980" d="M414,323.1l99.533,15.263-.115.75L414,323.871Z" transform="translate(-414.002 -233.913)" fill="#00a19a"/>
          <path id="Path_981" data-name="Path 981" d="M414,322.625l99.648,15.28-.115.75L414,323.392Z" transform="translate(-414.002 -234.202)" fill="#00a19a"/>
          <path id="Path_982" data-name="Path 982" d="M414,322.147l99.763,15.3-.115.75L414,322.914Z" transform="translate(-414.002 -234.491)" fill="#00a19a"/>
          <path id="Path_983" data-name="Path 983" d="M414,321.668l99.878,15.316-.115.75L414,322.436Z" transform="translate(-414.002 -234.78)" fill="#00a19a"/>
          <path id="Path_984" data-name="Path 984" d="M414,321.19l99.993,15.333-.115.75L414,321.957Z" transform="translate(-414.002 -235.07)" fill="#00a19a"/>
          <path id="Path_985" data-name="Path 985" d="M414,320.712l100.108,15.35-.115.75L414,321.479Z" transform="translate(-414.002 -235.359)" fill="#00a19a"/>
          <path id="Path_986" data-name="Path 986" d="M414,320.233,514.225,335.6l-.115.75L414,321Z" transform="translate(-414.002 -235.648)" fill="#00a19a"/>
          <path id="Path_987" data-name="Path 987" d="M414,319.755l100.338,15.386-.115.75L414,320.522Z" transform="translate(-414.002 -235.937)" fill="#00a19a"/>
          <path id="Path_988" data-name="Path 988" d="M414,319.277l100.453,15.4-.115.75L414,320.044Z" transform="translate(-414.002 -236.226)" fill="#00a19a"/>
          <path id="Path_989" data-name="Path 989" d="M414,318.8,514.569,334.22l-.115.75L414,319.566Z" transform="translate(-414.002 -236.516)" fill="#00a19a"/>
          <path id="Path_990" data-name="Path 990" d="M414,318.32l100.683,15.439-.115.75L414,319.088Z" transform="translate(-414.002 -236.805)" fill="#00a19a"/>
          <path id="Path_991" data-name="Path 991" d="M414,317.842,514.8,333.3l-.115.75L414,318.61Z" transform="translate(-414.002 -237.094)" fill="#00a19a"/>
          <path id="Path_992" data-name="Path 992" d="M414,317.364l100.912,15.474-.115.75L414,318.131Z" transform="translate(-414.002 -237.383)" fill="#00a19a"/>
          <path id="Path_993" data-name="Path 993" d="M414,316.885l101.028,15.492-.115.75L414,317.653Z" transform="translate(-414.002 -237.672)" fill="#00a19a"/>
          <path id="Path_994" data-name="Path 994" d="M414,316.407l101.143,15.509-.115.75L414,317.175Z" transform="translate(-414.002 -237.962)" fill="#00a19a"/>
          <path id="Path_995" data-name="Path 995" d="M414,315.929l101.258,15.527-.115.75L414,316.7Z" transform="translate(-414.002 -238.251)" fill="#00a19a"/>
          <path id="Path_996" data-name="Path 996" d="M414,315.45,515.374,331l-.115.75L414,316.218Z" transform="translate(-414.002 -238.54)" fill="#00a19a"/>
          <path id="Path_997" data-name="Path 997" d="M414,314.972l101.488,15.562-.115.75L414,315.74Z" transform="translate(-414.002 -238.829)" fill="#00a19a"/>
          <path id="Path_998" data-name="Path 998" d="M414,314.494l101.6,15.58-.115.75L414,315.261Z" transform="translate(-414.002 -239.118)" fill="#00a19a"/>
          <path id="Path_999" data-name="Path 999" d="M414,314.016l101.717,15.6-.115.75L414,314.783Z" transform="translate(-414.002 -239.408)" fill="#00a19a"/>
          <path id="Path_1000" data-name="Path 1000" d="M414,313.537l101.781,15.607v.345l-.064.413L414,314.3Z" transform="translate(-414.002 -239.697)" fill="#00a19a"/>
          <path id="Path_1001" data-name="Path 1001" d="M414,313.059l101.781,15.607v.768L414,313.827Z" transform="translate(-414.002 -239.986)" fill="#00a19a"/>
          <path id="Path_1002" data-name="Path 1002" d="M414,312.581l101.781,15.608v.767L414,313.348Z" transform="translate(-414.002 -240.275)" fill="#00a19a"/>
          <path id="Path_1003" data-name="Path 1003" d="M414,312.1,515.783,327.71v.768L414,312.87Z" transform="translate(-414.002 -240.564)" fill="#00a19a"/>
          <path id="Path_1004" data-name="Path 1004" d="M414,311.624l101.781,15.608V328L414,312.392Z" transform="translate(-414.002 -240.854)" fill="#00a19a"/>
          <path id="Path_1005" data-name="Path 1005" d="M414,311.146l101.781,15.608v.767L414,311.913Z" transform="translate(-414.002 -241.143)" fill="#00a19a"/>
          <path id="Path_1006" data-name="Path 1006" d="M414,310.668l101.781,15.607v.768L414,311.435Z" transform="translate(-414.002 -241.432)" fill="#00a19a"/>
          <path id="Path_1007" data-name="Path 1007" d="M414,310.189,515.783,325.8v.767L414,310.957Z" transform="translate(-414.002 -241.721)" fill="#00a19a"/>
          <path id="Path_1008" data-name="Path 1008" d="M414,309.711l101.781,15.607v.768L414,310.478Z" transform="translate(-414.002 -242.01)" fill="#00a19a"/>
          <path id="Path_1009" data-name="Path 1009" d="M414,309.233,515.783,324.84v.767L414,310Z" transform="translate(-414.002 -242.299)" fill="#00a19a"/>
          <path id="Path_1010" data-name="Path 1010" d="M414,308.754l101.781,15.608v.767L414,309.522Z" transform="translate(-414.002 -242.589)" fill="#00a19a"/>
          <path id="Path_1011" data-name="Path 1011" d="M414,308.276l101.781,15.607v.768L414,309.043Z" transform="translate(-414.002 -242.878)" fill="#00a19a"/>
          <path id="Path_1012" data-name="Path 1012" d="M414,307.8l101.781,15.608v.767L414,308.565Z" transform="translate(-414.002 -243.167)" fill="#00a19a"/>
          <path id="Path_1013" data-name="Path 1013" d="M414,307.319l101.781,15.608v.768L414,308.087Z" transform="translate(-414.002 -243.456)" fill="#00a19a"/>
          <path id="Path_1014" data-name="Path 1014" d="M414,306.841l101.781,15.607v.768L414,307.608Z" transform="translate(-414.002 -243.745)" fill="#00a19a"/>
          <path id="Path_1015" data-name="Path 1015" d="M414,306.363l101.781,15.608v.767L414,307.131Z" transform="translate(-414.002 -244.034)" fill="#00a19a"/>
          <path id="Path_1016" data-name="Path 1016" d="M414,305.884l101.781,15.608v.768L414,306.652Z" transform="translate(-414.002 -244.324)" fill="#00a19a"/>
          <path id="Path_1017" data-name="Path 1017" d="M414,305.406l101.781,15.608v.767L414,306.174Z" transform="translate(-414.002 -244.613)" fill="#00a19a"/>
          <path id="Path_1018" data-name="Path 1018" d="M414,304.928l101.781,15.608v.768L414,305.7Z" transform="translate(-414.002 -244.902)" fill="#00a19a"/>
          <path id="Path_1019" data-name="Path 1019" d="M414,304.45l101.781,15.608v.767L414,305.217Z" transform="translate(-414.002 -245.191)" fill="#00a19a"/>
          <path id="Path_1020" data-name="Path 1020" d="M414,303.971l101.781,15.608v.767L414,304.739Z" transform="translate(-414.002 -245.48)" fill="#00a19a"/>
          <path id="Path_1021" data-name="Path 1021" d="M414,303.493,515.783,319.1v.768L414,304.261Z" transform="translate(-414.002 -245.77)" fill="#00a19a"/>
          <path id="Path_1022" data-name="Path 1022" d="M414,303.015l101.781,15.607v.767L414,303.782Z" transform="translate(-414.002 -246.059)" fill="#00a19a"/>
          <path id="Path_1023" data-name="Path 1023" d="M414,302.537l101.781,15.607v.768L414,303.3Z" transform="translate(-414.002 -246.348)" fill="#00a19a"/>
          <path id="Path_1024" data-name="Path 1024" d="M414,302.058l101.781,15.608v.767L414,302.826Z" transform="translate(-414.002 -246.637)" fill="#00a19a"/>
          <path id="Path_1025" data-name="Path 1025" d="M414,301.58l101.781,15.608v.767L414,302.347Z" transform="translate(-414.002 -246.926)" fill="#00a19a"/>
          <path id="Path_1026" data-name="Path 1026" d="M414,301.1l101.781,15.607v.768L414,301.869Z" transform="translate(-414.002 -247.216)" fill="#00a19a"/>
          <path id="Path_1027" data-name="Path 1027" d="M414,300.623l101.781,15.607V317L414,301.391Z" transform="translate(-414.002 -247.505)" fill="#00a19a"/>
          <path id="Path_1028" data-name="Path 1028" d="M414,300.145l101.781,15.608v.767L414,300.913Z" transform="translate(-414.002 -247.794)" fill="#00a19a"/>
          <path id="Path_1029" data-name="Path 1029" d="M414,299.667l101.781,15.607v.768L414,300.434Z" transform="translate(-414.002 -248.083)" fill="#00a19a"/>
          <path id="Path_1030" data-name="Path 1030" d="M414,299.188,515.783,314.8v.767L414,299.956Z" transform="translate(-414.002 -248.372)" fill="#00a19a"/>
          <path id="Path_1031" data-name="Path 1031" d="M414,298.71l101.781,15.608v.767L414,299.478Z" transform="translate(-414.002 -248.662)" fill="#00a19a"/>
          <path id="Path_1032" data-name="Path 1032" d="M414,298.232,515.783,313.84v.768L414,299Z" transform="translate(-414.002 -248.951)" fill="#00a19a"/>
          <path id="Path_1033" data-name="Path 1033" d="M414,297.753l101.781,15.608v.768L414,298.521Z" transform="translate(-414.002 -249.24)" fill="#00a19a"/>
          <path id="Path_1034" data-name="Path 1034" d="M414,297.275l101.781,15.608v.767L414,298.043Z" transform="translate(-414.002 -249.529)" fill="#00a19a"/>
          <path id="Path_1035" data-name="Path 1035" d="M414,296.8,515.783,312.4v.768L414,297.564Z" transform="translate(-414.002 -249.818)" fill="#00a19a"/>
          <path id="Path_1036" data-name="Path 1036" d="M414,296.319l101.781,15.608v.767L414,297.086Z" transform="translate(-414.002 -250.108)" fill="#00a19a"/>
          <path id="Path_1037" data-name="Path 1037" d="M414,295.84l101.781,15.608v.767L414,296.608Z" transform="translate(-414.002 -250.397)" fill="#00a19a"/>
          <path id="Path_1038" data-name="Path 1038" d="M414,295.362,515.783,310.97v.768L414,296.13Z" transform="translate(-414.002 -250.686)" fill="#00a19a"/>
          <path id="Path_1039" data-name="Path 1039" d="M414,294.884l101.781,15.607v.767L414,295.651Z" transform="translate(-414.002 -250.975)" fill="#00a19a"/>
          <path id="Path_1040" data-name="Path 1040" d="M414,294.405l101.781,15.608v.767L414,295.173Z" transform="translate(-414.002 -251.264)" fill="#00a19a"/>
          <path id="Path_1041" data-name="Path 1041" d="M414,293.927l101.781,15.608v.768L414,294.695Z" transform="translate(-414.002 -251.553)" fill="#00a19a"/>
          <path id="Path_1042" data-name="Path 1042" d="M414,293.449l101.781,15.607v.768L414,294.216Z" transform="translate(-414.002 -251.843)" fill="#00a19a"/>
          <path id="Path_1043" data-name="Path 1043" d="M414,292.971l101.781,15.608v.767L414,293.738Z" transform="translate(-414.002 -252.132)" fill="#00a19a"/>
          <path id="Path_1044" data-name="Path 1044" d="M414,292.492,515.783,308.1v.768L414,293.26Z" transform="translate(-414.002 -252.421)" fill="#00a19a"/>
          <path id="Path_1045" data-name="Path 1045" d="M414,292.014l101.781,15.607v.768L414,292.782Z" transform="translate(-414.002 -252.71)" fill="#00a19a"/>
          <path id="Path_1046" data-name="Path 1046" d="M414,291.536l101.781,15.608v.767L414,292.3Z" transform="translate(-414.002 -252.999)" fill="#00a19a"/>
          <path id="Path_1047" data-name="Path 1047" d="M414,291.057l101.781,15.608v.768L414,291.825Z" transform="translate(-414.002 -253.289)" fill="#00a19a"/>
          <path id="Path_1048" data-name="Path 1048" d="M414,290.579l101.781,15.607v.767L414,291.346Z" transform="translate(-414.002 -253.578)" fill="#00a19a"/>
          <path id="Path_1049" data-name="Path 1049" d="M414,290.1l101.781,15.608v.767L414,290.869Z" transform="translate(-414.002 -253.867)" fill="#00a19a"/>
          <path id="Path_1050" data-name="Path 1050" d="M414,289.623,515.783,305.23V306L414,290.39Z" transform="translate(-414.002 -254.156)" fill="#00a19a"/>
          <path id="Path_1051" data-name="Path 1051" d="M414,289.144l101.781,15.608v.767L414,289.912Z" transform="translate(-414.002 -254.445)" fill="#00a19a"/>
          <path id="Path_1052" data-name="Path 1052" d="M414,288.666l101.781,15.608v.767L414,289.434Z" transform="translate(-414.002 -254.734)" fill="#00a19a"/>
          <path id="Path_1053" data-name="Path 1053" d="M414,288.188,515.783,303.8v.768L414,288.955Z" transform="translate(-414.002 -255.024)" fill="#00a19a"/>
          <path id="Path_1054" data-name="Path 1054" d="M414,287.71l101.781,15.607v.767L414,288.477Z" transform="translate(-414.002 -255.313)" fill="#00a19a"/>
          <path id="Path_1055" data-name="Path 1055" d="M414,287.231l101.781,15.608v.767L414,288Z" transform="translate(-414.002 -255.602)" fill="#00a19a"/>
          <path id="Path_1056" data-name="Path 1056" d="M414,286.753,515.783,302.36v.768L414,287.52Z" transform="translate(-414.002 -255.891)" fill="#00a19a"/>
          <path id="Path_1057" data-name="Path 1057" d="M414,286.275l101.781,15.608v.767L414,287.042Z" transform="translate(-414.002 -256.181)" fill="#00a19a"/>
          <path id="Path_1058" data-name="Path 1058" d="M414,285.8,515.783,301.4v.767L414,286.564Z" transform="translate(-414.002 -256.47)" fill="#00a19a"/>
          <path id="Path_1059" data-name="Path 1059" d="M414,285.318l101.781,15.608v.767L414,286.086Z" transform="translate(-414.002 -256.759)" fill="#00a19a"/>
          <path id="Path_1060" data-name="Path 1060" d="M414,284.84l101.781,15.608v.767L414,285.607Z" transform="translate(-414.002 -257.048)" fill="#00a19a"/>
          <path id="Path_1061" data-name="Path 1061" d="M414,284.362l101.781,15.607v.768L414,285.129Z" transform="translate(-414.002 -257.337)" fill="#00a19a"/>
          <path id="Path_1062" data-name="Path 1062" d="M414,283.883,515.783,299.49v.768L414,284.651Z" transform="translate(-414.002 -257.626)" fill="#00a19a"/>
          <path id="Path_1063" data-name="Path 1063" d="M414,283.4l101.781,15.608v.767L414,284.172Z" transform="translate(-414.002 -257.916)" fill="#00a19a"/>
          <path id="Path_1064" data-name="Path 1064" d="M414,282.927l101.781,15.607v.767L414,283.694Z" transform="translate(-414.002 -258.205)" fill="#00a19a"/>
          <path id="Path_1065" data-name="Path 1065" d="M414,282.448l101.781,15.608v.768L414,283.216Z" transform="translate(-414.002 -258.494)" fill="#00a19a"/>
          <path id="Path_1066" data-name="Path 1066" d="M414,281.97l101.781,15.608v.767L414,282.737Z" transform="translate(-414.002 -258.783)" fill="#00a19a"/>
          <path id="Path_1067" data-name="Path 1067" d="M414,281.492,515.783,297.1v.767L414,282.259Z" transform="translate(-414.002 -259.072)" fill="#00a19a"/>
          <path id="Path_1068" data-name="Path 1068" d="M414,281.013l101.781,15.608v.767L414,281.781Z" transform="translate(-414.002 -259.361)" fill="#00a19a"/>
          <path id="Path_1069" data-name="Path 1069" d="M414,280.535l101.781,15.607v.768L414,281.3Z" transform="translate(-414.002 -259.651)" fill="#00a19a"/>
          <path id="Path_1070" data-name="Path 1070" d="M414,280.057l101.781,15.607v.767L414,280.824Z" transform="translate(-414.002 -259.94)" fill="#00a19a"/>
          <path id="Path_1071" data-name="Path 1071" d="M414,279.579l101.781,15.607v.768L414,280.346Z" transform="translate(-414.002 -260.229)" fill="#00a19a"/>
          <path id="Path_1072" data-name="Path 1072" d="M414,279.1l101.781,15.607v.768L414,279.868Z" transform="translate(-414.002 -260.518)" fill="#00a19a"/>
          <path id="Path_1073" data-name="Path 1073" d="M414,278.622l101.781,15.608V295L414,279.389Z" transform="translate(-414.002 -260.807)" fill="#00a19a"/>
          <path id="Path_1074" data-name="Path 1074" d="M414,278.143l101.781,15.608v.768L414,278.911Z" transform="translate(-414.002 -261.097)" fill="#00a19a"/>
          <path id="Path_1075" data-name="Path 1075" d="M414,277.665l101.781,15.608v.767L414,278.433Z" transform="translate(-414.002 -261.386)" fill="#00a19a"/>
          <path id="Path_1076" data-name="Path 1076" d="M414,277.187l101.781,15.608v.767L414,277.954Z" transform="translate(-414.002 -261.675)" fill="#00a19a"/>
          <path id="Path_1077" data-name="Path 1077" d="M414,276.709l101.781,15.608v.768L414,277.476Z" transform="translate(-414.002 -261.964)" fill="#00a19a"/>
          <path id="Path_1078" data-name="Path 1078" d="M414,276.23l101.781,15.608v.767L414,277Z" transform="translate(-414.002 -262.253)" fill="#00a19a"/>
          <path id="Path_1079" data-name="Path 1079" d="M414,275.752l101.781,15.607v.768L414,276.519Z" transform="translate(-414.002 -262.543)" fill="#00a19a"/>
          <path id="Path_1080" data-name="Path 1080" d="M414,275.274l101.781,15.608v.767L414,276.041Z" transform="translate(-414.002 -262.832)" fill="#00a19a"/>
          <path id="Path_1081" data-name="Path 1081" d="M414,274.8,515.783,290.4v.767L414,275.563Z" transform="translate(-414.002 -263.121)" fill="#00a19a"/>
          <path id="Path_1082" data-name="Path 1082" d="M414,274.317l101.781,15.607v.768L414,275.085Z" transform="translate(-414.002 -263.41)" fill="#00a19a"/>
          <path id="Path_1083" data-name="Path 1083" d="M414,273.839l101.781,15.608v.767L414,274.606Z" transform="translate(-414.002 -263.699)" fill="#00a19a"/>
          <path id="Path_1084" data-name="Path 1084" d="M414,274.01l.1-.64,101.683,15.593v.767L414,274.123Z" transform="translate(-414.002 -263.983)" fill="#00a19a"/>
          <path id="Path_1085" data-name="Path 1085" d="M414.063,273.652l.115-.75,101.568,15.575v.767Z" transform="translate(-413.965 -264.265)" fill="#00a19a"/>
          <path id="Path_1086" data-name="Path 1086" d="M414.135,273.185l.115-.75L515.7,287.993v.767Z" transform="translate(-413.922 -264.548)" fill="#00a19a"/>
          <path id="Path_1087" data-name="Path 1087" d="M414.206,272.718l.115-.75,101.338,15.54v.768Z" transform="translate(-413.878 -264.831)" fill="#00a19a"/>
          <path id="Path_1088" data-name="Path 1088" d="M414.278,272.251l.115-.75,101.223,15.522v.767Z" transform="translate(-413.835 -265.113)" fill="#00a19a"/>
          <path id="Path_1089" data-name="Path 1089" d="M414.35,271.783l.115-.749,101.108,15.5v.768Z" transform="translate(-413.792 -265.396)" fill="#00a19a"/>
          <path id="Path_1090" data-name="Path 1090" d="M414.421,271.316l.115-.75,100.993,15.487v.767Z" transform="translate(-413.748 -265.678)" fill="#00a19a"/>
          <path id="Path_1091" data-name="Path 1091" d="M414.493,270.849l.115-.75,100.878,15.469v.767Z" transform="translate(-413.705 -265.961)" fill="#00a19a"/>
          <path id="Path_1092" data-name="Path 1092" d="M414.565,270.381l.115-.75,100.763,15.451v.768Z" transform="translate(-413.662 -266.243)" fill="#00a19a"/>
          <path id="Path_1093" data-name="Path 1093" d="M414.636,269.914l.115-.75L515.4,284.6v.767Z" transform="translate(-413.618 -266.526)" fill="#00a19a"/>
          <path id="Path_1094" data-name="Path 1094" d="M414.708,269.447l.115-.75,100.533,15.416v.768Z" transform="translate(-413.575 -266.808)" fill="#00a19a"/>
          <path id="Path_1095" data-name="Path 1095" d="M414.78,268.979l.115-.75,100.418,15.4v.768Z" transform="translate(-413.532 -267.091)" fill="#00a19a"/>
          <path id="Path_1096" data-name="Path 1096" d="M414.851,268.512l.115-.75,100.3,15.381v.767Z" transform="translate(-413.489 -267.373)" fill="#00a19a"/>
          <path id="Path_1097" data-name="Path 1097" d="M414.923,267.909l.059-.39h2.4l97.839,15v.767Z" transform="translate(-413.445 -267.52)" fill="#00a19a"/>
          <path id="Path_1098" data-name="Path 1098" d="M421.463,267.52,514.3,281.755v.767l-97.839-15Z" transform="translate(-412.517 -267.52)" fill="#00a19a"/>
          <path id="Path_1099" data-name="Path 1099" d="M424.583,267.52l87.829,13.468v.767L419.578,267.52Z" transform="translate(-410.631 -267.52)" fill="#00a19a"/>
          <path id="Path_1100" data-name="Path 1100" d="M427.7,267.52l82.824,12.7v.767L422.7,267.52Z" transform="translate(-408.745 -267.52)" fill="#00a19a"/>
          <path id="Path_1101" data-name="Path 1101" d="M430.821,267.52l77.819,11.933v.768l-82.824-12.7Z" transform="translate(-406.859 -267.52)" fill="#00a19a"/>
          <path id="Path_1102" data-name="Path 1102" d="M506.754,279.452,428.935,267.52h77.819Z" transform="translate(-404.973 -267.52)" fill="#00a19a"/>
        </g>
      </g>
      <path id="Path_1104" data-name="Path 1104" d="M507.67,348.9a41.7,41.7,0,0,1-9.5,19.451c-13.03,15.082-35.382,26.128-35.382,26.128s-19.763-8.9-35.558-26.054A37.27,37.27,0,0,1,417.9,348.9V286.4a6.268,6.268,0,0,1,5.087-6.155l39.8-7.643L502.33,280.2a6.578,6.578,0,0,1,5.34,6.462Z" transform="translate(-249.067 -1.992)" fill="#fff"/>
      <path id="Path_1105" data-name="Path 1105" d="M470.758,345.986H439.879a10.041,10.041,0,0,1-10.042-10.04V305.27a6.961,6.961,0,0,1,6.961-6.961h37.039a6.961,6.961,0,0,1,6.961,6.961v30.676A10.039,10.039,0,0,1,470.758,345.986Z" transform="translate(-241.85 13.552)" fill="#333a64"/>
      <path id="Path_1106" data-name="Path 1106" d="M469.972,308.407h-6.9V297.048a10.393,10.393,0,0,0-10.57-8.546c-8.28,0-10.457,6.364-10.875,7.975v11.93h-6.9V295.75l.063-.326a17.529,17.529,0,0,1,17.707-13.816c11.964,0,16.627,9.541,17.421,14.588Z" transform="translate(-238.887 3.454)" fill="#333a64"/>
      <path id="Path_1107" data-name="Path 1107" d="M447.267,330.479c-.034,0-.069,0-.1,0a1.213,1.213,0,0,1-.91-.544l-10.565-16.086,2.03-1.335,9.718,14.8,22.177-23.639,1.77,1.661-23.23,24.763A1.212,1.212,0,0,1,447.267,330.479Z" transform="translate(-238.312 16.794)" fill="#fff"/>
      <path id="Path_1108" data-name="Path 1108" d="M379.432,168.019H536.474a6.551,6.551,0,0,1,6.4,6.687v82.6a6.551,6.551,0,0,1-6.4,6.686H379.432a6.55,6.55,0,0,1-6.4-6.686v-82.6A6.55,6.55,0,0,1,379.432,168.019Z" transform="translate(-276.198 -65.225)" fill="#fff"/>
      <path id="Path_1109" data-name="Path 1109" d="M536.732,264.934H379.687a7.239,7.239,0,0,1-7.084-7.37v-82.6a7.239,7.239,0,0,1,7.084-7.37H536.732a7.241,7.241,0,0,1,7.086,7.37v82.6A7.241,7.241,0,0,1,536.732,264.934ZM379.687,168.96a5.87,5.87,0,0,0-5.717,6v82.6a5.87,5.87,0,0,0,5.717,6H536.732a5.873,5.873,0,0,0,5.719-6v-82.6a5.873,5.873,0,0,0-5.719-6Z" transform="translate(-276.455 -65.483)" fill="#bbc6ed"/>
      <rect id="Rectangle_98" data-name="Rectangle 98" width="58.201" height="58.201" rx="2.211" transform="translate(195.436 121.68)" fill="#e2e8f4"/>
      <g id="Group_105" data-name="Group 105" transform="translate(202.328 127.176)">
        <path id="Path_1110" data-name="Path 1110" d="M445.172,197.614c-.026-.255-.6-6.309,3.02-10.526a11.6,11.6,0,0,1,8.588-3.85,10.7,10.7,0,0,1,8.479,2.872c3.978,3.931,3.768,10.387,3.756,10.658l-2.734-.106c0-.055.165-5.546-2.952-8.617a8.133,8.133,0,0,0-6.4-2.075,8.986,8.986,0,0,0-6.646,2.884c-2.851,3.314-2.389,8.435-2.388,8.487Z" transform="translate(-434.934 -183.214)" fill="#333a64"/>
        <path id="Path_1111" data-name="Path 1111" d="M442.988,222.162a4.2,4.2,0,0,1-4.214-4.2l3.627-22.288a4.131,4.131,0,0,1,4.178-3.978h30.353a4.2,4.2,0,0,1,4.2,4.2l3.4,21.446a4.231,4.231,0,0,1-4.183,4.411Zm3.591-27.73a1.466,1.466,0,0,0-1.463,1.463l-3.627,22.29a1.477,1.477,0,0,0,1.483,1.242l37.362-.409a1.47,1.47,0,0,0,1.481-1.463l-3.4-21.446a1.546,1.546,0,0,0-1.479-1.677Z" transform="translate(-438.774 -178.085)" fill="#333a64"/>
        <path id="Path_1112" data-name="Path 1112" d="M452.445,215.467l-5.386-12.6,2.515-1.073,3.613,8.457,12.441-15.146,2.115,1.736Z" transform="translate(-433.764 -176.024)" fill="#333a64"/>
      </g>
      <path id="Path_1113" data-name="Path 1113" d="M438.885,214.751H397.253a13.517,13.517,0,1,1,0-27.035h41.632a13.517,13.517,0,0,1,0,27.035Z" transform="translate(-269.724 -53.316)" fill="rgba(51,58,100,0.6)"/>
      <path id="Path_1114" data-name="Path 1114" d="M435.248,216.747l11.338-14.636s1.645-7.765,3.174-9.653.376,7.8.376,7.8,10.088-9.031,11.12-9.785,3-2.6,2.614-.485-7.088,7.543-6.553,7.823,5.745-4.824,8.689-6.706,1.4,1.443,1.4,1.443-8.294,6.934-7.94,7.283,6.5-3.875,6.5-3.875,3.615-1.9,2.739-.231-7.035,5.408-7.186,6.419,3.886-1.767,5.17-1.746-.892,1.911-.892,1.911l-5.128,2.882a30.091,30.091,0,0,1-5.377,4.267c-2.487,1.369-3.861,1.1-3.861,1.1L441.9,221.848Z" transform="translate(-238.578 -52.536)" fill="#ff8961"/>
      <path id="Path_1115" data-name="Path 1115" d="M366.839,234.395l12.532,14.215s1.109,5.942-2.323,10.307-2.088,12.365-2.088,12.365l-2.6,2.571-2.287-7.243-.526-11.752-12.312-13.649Z" transform="translate(-285.749 -25.092)" fill="#ff8961"/>
      <path id="Path_1116" data-name="Path 1116" d="M382.894,192.523l-1.63,9.073a19.368,19.368,0,0,0,14.761,2.354c.2-.316-2.336-9.891-2.336-9.891l-8.289-5.613Z" transform="translate(-271.218 -52.874)" fill="#ff8961"/>
      <path id="Path_1117" data-name="Path 1117" d="M390.494,308.79s5.854,46.561,7.118,53.187,1.945,16.582,1.945,16.582l13.53-1.016,3.078-7.29-8.683-1.669,1.4-61.683Z" transform="translate(-265.638 18.747)" fill="#ff8961"/>
      <path id="Path_1118" data-name="Path 1118" d="M394.34,355.99l37.539-1.093s-8.869-8.615-14.668-9.586-6.006,8.131-6.006,8.131l-14.586-.165Z" transform="translate(-263.312 41.927)" fill="#f9a14c"/>
      <path id="Path_1119" data-name="Path 1119" d="M366.045,305.66s-2.036,46.886-1.9,53.63-.865,16.672-.865,16.672l13.508,1.268,4.259-6.669-8.281-3.1,11.723-60.576Z" transform="translate(-282.092 17.996)" fill="#ff8961"/>
      <path id="Path_1120" data-name="Path 1120" d="M361.44,352.171l37.189,5.218s-7.3-9.981-12.851-11.911-7.285,7.009-7.285,7.009l-14.352-2.609Z" transform="translate(-283.204 41.906)" fill="#f9a14c"/>
      <path id="Path_1121" data-name="Path 1121" d="M421.855,237.419s-19.689-2.062-27.831-1.6c-11-3.219-17.957,2.271-17.957,2.271L360.16,350.729s16.2,5.932,38.922,3.508,38.923-3.508,38.923-3.508Z" transform="translate(-283.978 -24.844)" fill="#333a64"/>
      <path id="Path_1122" data-name="Path 1122" d="M442.673,212.947a.516.516,0,0,1-.287-.416c-.558-1.049-5.709-5.632-6.619-5.64a.51.51,0,1,1-.01-1.021c1.616-.011,6.789,5.021,7.479,6.1a.763.763,0,0,1,.119.737.512.512,0,0,1-.461.287A.523.523,0,0,1,442.673,212.947Z" transform="translate(-238.578 -42.339)" fill="#120610"/>
      <path id="Path_1123" data-name="Path 1123" d="M500.865,212.821l-8.41-6.64-5.38,5.531s-12.494,9.475-21.542,10.183c-11.958-.093-14.593-7.367-23.5-12.7S418.751,198.6,418.751,198.6s-17.465-2.861-23.3-1.359c-12.365,3.182-43.171,24.19-43.171,24.19s-5.643,2.118-6.808,11.752,11.789,25.3,11.789,25.3l7.479,6.1,10.236-7.03-4.093-5.494s2.452-2.521-1.617-6.292-3.726-6.264-3.726-6.264l15.3-4.824s.647,2.1,2.141,13.174,2.94,18.32,2.94,18.32,4.5,2.559,15.626,3.935,28.928-4.13,28.928-4.13l1.85-33.973,28.532,11.436s8.936,6.282,17.457-.152,19.293-16.348,19.293-16.348l-.494-8.03Z" transform="translate(-292.905 -47.82)" fill="#333a64"/>
      <path id="Path_1124" data-name="Path 1124" d="M387.891,195.244s-4.7-5.213-6.985-1.486c-3.025,4.921,14.156,14.83,20.159,9.554,1.226-1.077,2.362-6.062.719-11.513-.21-.7,2.144-3.832,1.438-3.984-2.694-.584-4.679-2.6-4.739-3.922a12.465,12.465,0,0,0-2.423-7.03,9.884,9.884,0,0,0-6.263,4.472c-1.986,3.647.61,9.886-.648,11.9S387.891,195.244,387.891,195.244Z" transform="translate(-271.649 -59.878)" fill="#ff8961"/>
      <path id="Path_1125" data-name="Path 1125" d="M398,227.433c7.871-13.6.82-24.328.82-24.328s-7.76-3.848-5.085-7.643c2.415-2.754,6.572,2.161,6.572,2.161s5.082-7.932,7.256-13.482a15.224,15.224,0,0,0,1.224-5.989s-2.351-3.074-10.788-4.193c-11.9-2.845-18.492,3.216-20.22,15.268-3.866,26.962-27,20.741-13.365,45.077C372.4,243.062,392.412,237.077,398,227.433Z" transform="translate(-283.984 -62.052)" fill="#010101"/>
      <path id="Path_1126" data-name="Path 1126" d="M374.811,238.9c-4.867,0-8.874-1.5-11.459-4.336-7.831-13.955-3.763-18.1,1.868-23.838,4.289-4.371,9.628-9.811,11.436-21.439.868-6.606,3.219-11.274,6.99-13.869,3.458-2.38,8.01-2.917,13.524-1.6,8.416,1.114,10.828,4.153,10.928,4.281a14,14,0,0,1-1.192,6.226c-2.158,5.507-7.227,13.444-7.279,13.524l-.177.276-.213-.25c-.024-.029-2.474-2.895-4.592-2.912a2.04,2.04,0,0,0-1.613.754,2.511,2.511,0,0,0-.416,2.155c.692,2.731,5.38,5.087,5.428,5.111.165.193,7.136,11.091-.72,24.665-3.208,5.544-11.515,10.212-19.75,11.1A26.1,26.1,0,0,1,374.811,238.9Zm16.849-65.3a13.331,13.331,0,0,0-7.737,2.214c-3.652,2.514-5.935,7.068-6.784,13.538-1.834,11.789-7.234,17.29-11.571,21.711-5.687,5.794-9.443,9.623-1.824,23.216,2.922,3.195,7.831,4.623,13.779,3.983,8.094-.873,16.247-5.44,19.384-10.858,7.421-12.823,1.374-23.187.862-24.018-.6-.3-4.912-2.593-5.621-5.395a3.016,3.016,0,0,1,.505-2.575,2.534,2.534,0,0,1,1.972-.94c2,.018,4.093,2.107,4.767,2.839a97.58,97.58,0,0,0,7.064-13.168,15.6,15.6,0,0,0,1.21-5.807c-.369-.412-2.988-3.039-10.581-4.045A23.438,23.438,0,0,0,391.659,173.6Z" transform="translate(-284.677 -62.145)" fill="#1d2f6d"/>
      <path id="Path_1127" data-name="Path 1127" d="M391.661,195.108a11.034,11.034,0,0,1-4.536-.94.428.428,0,0,1,.406-.754,10.54,10.54,0,0,0,4.162.839.428.428,0,0,1,.006.855Z" transform="translate(-267.811 -49.902)" fill="#120610"/>
      <path id="Path_1128" data-name="Path 1128" d="M411.358,226.1c-.424-.109-10.377-2.726-14.3-8.675-1.629-2.468-2.967-4.4-2.981-4.414l.6-.416c.013.019,1.358,1.953,2.991,4.429,3.771,5.717,13.773,8.344,13.872,8.37Z" transform="translate(-263.472 -38.27)" fill="#fff"/>
      <path id="Path_1129" data-name="Path 1129" d="M367.679,225.024c-.029-.348-.725-8.543,0-13.034l.719.117c-.716,4.4,0,12.77,0,12.853Z" transform="translate(-279.63 -38.639)" fill="#fff"/>
      <path id="Path_1130" data-name="Path 1130" d="M355.839,238.042l-.413-.6,8.469-5.823.413.6Z" transform="translate(-286.841 -26.77)" fill="#fff"/>
      <path id="Path_1131" data-name="Path 1131" d="M368.981,237.895a.429.429,0,0,1-.011-.857l49.344-1.266a.423.423,0,0,1,.44.416.431.431,0,0,1-.419.441Z" transform="translate(-278.904 -24.26)" fill="#fff"/>
    </g>
  </g>
</svg>
