<svg xmlns="http://www.w3.org/2000/svg" xmlns:xlink="http://www.w3.org/1999/xlink" width="414" height="780" viewBox="0 0 414 780">
  <defs>
    <clipPath id="clip-iPhone_XR_XS_Max_11_2">
      <rect width="414" height="780"/>
    </clipPath>
  </defs>
  <g id="iPhone_XR_XS_Max_11_2" data-name="iPhone XR, XS Max, 11 – 2" clip-path="url(#clip-iPhone_XR_XS_Max_11_2)">
    <rect width="414" height="780" fill="#fff"/>
    <rect id="Rectangle_130" data-name="Rectangle 130" width="420" height="653" transform="translate(-1 80)" fill="#fff"/>
    <g id="Group_249" data-name="Group 249" transform="translate(-0.98 79.957)">
      <g id="Group_242" data-name="Group 242" transform="translate(0 0)">
        <path id="Intersection_2" data-name="Intersection 2" d="M329.281,595.322c-1.352-3.1-2.626-2.06-3.919-1.025-.829.663-1.666,1.327-2.537.9-3.384-4.463-6.238-1.785-9.883-3.507-3.539,3.275-8.88-.366-12.136-1.843-1.025-1.741-1.694-1.643-2.462-1.544a2.524,2.524,0,0,1-2.448-.87c-2.967-1.246-6-.257-8.66-2.26-5.347-2.96-11.189-3.955-16.926-4.386-4.02,3.454-8.195.918-12.228.057a6.26,6.26,0,0,1-8.145-.225c-1.977-2.485-3.624-3.628-5.707-2.812a5.553,5.553,0,0,0-2.28-.033c-1.327.163-2.66.325-3.936-1.148-1.137,1.538-2.2.189-3.29-1.16-.944-1.173-1.9-2.346-2.933-1.62-4.556-2.948-10.1-2.325-14.87-2.126-2.911-1.252-6.555-.494-9.3-.347-1.959-2.538-2.647-2.522-4.407-2.505-.359,0-.763.007-1.231-.011-5.792-.88-11.33-1.432-17.123-2.152A20.315,20.315,0,0,0,175.92,562c-3.612-1.551-8.217-.721-12.846.109-4.416.792-8.855,1.584-12.472.308-3.341-3.223-6.951-.809-10.32-.077a4.962,4.962,0,0,1-3.479-.4c-1.253-.472-2.474-.944-3.867-.148-2.776-3.7-4.45-3.377-7.643-3.172a79.2,79.2,0,0,0-14.771,1.207c-4.931.315-9.855,3.526-14.743,2.556-6.7,2.754-13.415.2-20.112-.033-2.336-1.4-4.676-.74-6.979-.083a11.681,11.681,0,0,1-4.648.693c-4.359-.957-8.745,3.885-13.181,4.386-4.437.648-8.93-.083-13.507,2.967-3.857,1.1-7.778,3.936-11.641-.039-3.21,1.119-6.157-.236-9.083-1.59-3.237-1.5-6.449-3-9.962-1.145A6.041,6.041,0,0,1,0,568.673V10.043a13.319,13.319,0,0,0,1.873-1.07c1.633-1.052,3.24-2.1,4.678-.739,2.232-1.477,2.755-.893,4.8-1.42,1.67,3.554,4.143,2.319,6.5,1.086,1.6-.837,3.14-1.674,4.34-1.015,5.833,3.759,11.234,3.341,16.746,2.923a52.823,52.823,0,0,1,7.1-.214c2.789-.941,5.646-.244,8.513.454,3.553.864,7.12,1.728,10.588-.524,1.222-.85,2.287-.032,3.3.786,1.468,1.179,2.838,2.357,4.444-1.448a29.822,29.822,0,0,1,11.359-.655c2.606-2.164,5.439-1.41,8.2-.657a14.413,14.413,0,0,0,4.539.754c2.967-3.294,5.913-1.586,8.8,2.555,3.391-4.546,6.062-.1,9.473,1.266,4.232-3.8,7.53-5.208,11.508,3.352,3.846,5.272,6.849,4.719,10.192,4.167a11.728,11.728,0,0,1,7.171.475c2.793,2.863,5.354,1.874,7.9.885,2.351-.912,4.693-1.824,7.2.283,1.865-.578,3.575-1.323,5.432.327,1.544,4.3,2.812,3.606,4.114,2.909.835-.447,1.685-.893,2.632-.02,4.168,4.135,8.442,3.833,12.814.886,4.421,1.979,8.85,1.145,13.278.312,3.934-.74,7.867-1.481,11.792-.248,5-1.823,8.71-4.058,13.529-2.645,3.369,3.211,6.951,6.312,10.369-.064,3.166,2.691,6.332,1.79,9.5.889a14.974,14.974,0,0,1,5.548-.863c1.369,1.553,2.808.481,4.244-.591,1.675-1.249,3.351-2.5,4.918.411,3.137-.411,5.877-7.018,8.838-3.59,5.3-2.9,9.706-8.084,15.442-2.864,4.778,1.6,9.613,1.069,14.431.54a55.051,55.051,0,0,1,8.57-.495c7.615-5.663,10.151-9.356,17.285-7.789A34.564,34.564,0,0,1,330.6,9c5.391.824,10.894,1.649,16.2-2.117,5.884,1.426,12.249,5.316,18.091.064,1.493-3.2,2.555-2.636,3.591-2.076.787.426,1.558.852,2.491-.37,3.85,4.218,8.915,5.721,12.949-.264,5.905,3.467,12.92,2.145,18.671-.2,3.525-1.085,6.442-4.912,9.974-3.859a55.375,55.375,0,0,1,6.783-.1V591.214a22.538,22.538,0,0,1-3.789-.81c-2.836-.777-5.64-1.555-8.186.262-4.741-5.233-9.084,2.472-14.235,4.79-9.233-.264-18.182-4.687-27.352-1.413-4.274.5-8.66,1.51-12.878.328-3.963.026-7.192,3.506-11.176,2.376a11.929,11.929,0,0,1-4.164.766C334.8,597.513,332.213,596.517,329.281,595.322Z" transform="translate(0 0)" fill="#ff826b"/>
      </g>
    </g>
    <g id="Group_321" data-name="Group 321" transform="translate(-48.72 526.727)">
      <path id="Path_713" data-name="Path 713" d="M1353.556,1344.489c-6.843,2.6-13.676,5.247-20.36,8.241-3.251,1.453-6.448,3.009-9.662,4.538a49.474,49.474,0,0,1-4.6,1.976c-1.53.548-3.151.788-4.624,1.482a.723.723,0,0,0,.174,1.315c3.593.782,19.911-5.542,23.8-7.122a139.486,139.486,0,0,0,16.339-7.815C1355.982,1346.331,1355.1,1343.9,1353.556,1344.489Z" transform="translate(-1206.513 -1323.225)" fill="#8cb579" fill-rule="evenodd"/>
      <path id="Path_714" data-name="Path 714" d="M1267.754,1343.744c-3,3.756-6.383,7.254-9.508,10.915q-4.8,5.629-9.488,11.357c-3.1,3.8-6.193,7.605-9.214,11.47-1.556,1.99-2.9,4.633-4.526,6.578-2.207,3.323-8.581,9.289-6.4,4.047,1.1-1.559,2.147-3.154,3.191-4.749,4.227-6.968,8.025-14.176,12.65-20.921a92.663,92.663,0,0,1,8.06-10.261c3.994-4.358,8.282-7.162,12.64-11.1C1271.749,1336.861,1269.216,1341.914,1267.754,1343.744Z" transform="translate(-1206.913 -1323.248)" fill="#6d915c" fill-rule="evenodd"/>
      <path id="Path_715" data-name="Path 715" d="M1248.883,1342.518a82.607,82.607,0,0,0-7.131,11.056q-3.545,6.233-7.066,12.482c-2.315,4.088-4.637,8.17-6.93,12.27-2.385,4.267-5.11,8.49-7.04,12.985-.487,1.134,1.1,2.421,1.907,1.291.423-.589.808-1.2,1.2-1.815,1.729-1.112,2.811-3.177,3.924-4.851q1.881-2.827,3.753-5.663,4.039-6.087,8.076-12.176c4.993-7.529,10.514-15.141,11.884-24.3C1251.673,1342.418,1249.861,1341.3,1248.883,1342.518Z" transform="translate(-1206.948 -1323.236)" fill="#587849" fill-rule="evenodd"/>
      <path id="Path_716" data-name="Path 716" d="M1267.733,1346.587c-5.714,6.072-11.278,12.276-16.392,18.869q-3.692,4.762-7.014,9.787c-1.156,1.757-2.263,3.551-3.35,5.353-.289.48-.589.959-.885,1.444a21.133,21.133,0,0,0-1.9,2.693c-.685,1.18.779,2.917,2,2a54.22,54.22,0,0,0,4.557-4.269c1.584-1.495,3.132-3.019,4.682-4.55,3.008-2.97,6.027-5.932,8.857-9.074,5.253-5.833,10.531-12.765,12.423-20.538A1.8,1.8,0,0,0,1267.733,1346.587Z" transform="translate(-1206.867 -1323.217)" fill="#8cb579" fill-rule="evenodd"/>
      <path id="Path_717" data-name="Path 717" d="M1278.391,1339.255c.412-2.013-2.329-3.313-3.428-1.42-4.821,8.3-9.516,16.674-14.426,24.918a113.853,113.853,0,0,1-7.9,11.536c-2.87,3.7-6.109,7.262-8.516,11.291-.446.748.522,1.338,1.123.869.66-.515,1.283-1.084,1.91-1.644a.677.677,0,0,0,.679-.084c1.924-1.387,3.675-3,5.515-4.493s3.681-2.958,5.387-4.593a66.9,66.9,0,0,0,8.917-10.693A71.181,71.181,0,0,0,1278.391,1339.255Z" transform="translate(-1206.839 -1323.26)" fill="#6d915c" fill-rule="evenodd"/>
      <path id="Path_718" data-name="Path 718" d="M1326.515,1393.232a142.418,142.418,0,0,1-27.915-2.631c-2.314-.613-4.63-1.216-6.944-1.823-2.727-.717-27.146-8.028-27.6-7.957,1.184-.795-1.255-.68-.125-1.581,1.706-1.363,3.513-2.612,5.292-3.881a77.851,77.851,0,0,0,9.76-8c.835-.827,1.593-1.724,2.385-2.59-.248.367-.489.743-.731,1.122a15.548,15.548,0,0,0-3.221,8.241c-.052.857,1.043.93,1.457.385a21.149,21.149,0,0,0,1.747-2.842,110.769,110.769,0,0,1,8.273-9.652,127.247,127.247,0,0,0,9.478-10.014,71.619,71.619,0,0,0,13.375-24.646c2.323-7.221-2.109-2.881-3.085-1.28-5.326,8.73-10.453,17.627-16.985,25.526q-1.41,1.7-2.829,3.4a73.716,73.716,0,0,0,4.879-8.778c.657-1.427-.855-3.636-2.449-2.452-6.63,4.928-11.824,11.265-16.94,17.683-2.547,3.2-5.059,6.412-7.731,9.508a45.161,45.161,0,0,1-9.019,8.738c-4.122,3.079-2.04,2.28,7.358,5.62,7.911,2.81,21.6,5.9,24.962,6.628,1.89.407,3.785.789,5.682,1.157,5.837,1.534,11.67,3.245,17.578,4.465,4.755.982,9.9,1.3,14.135-1.469A1.557,1.557,0,0,0,1326.515,1393.232Z" transform="translate(-1206.785 -1323.323)" fill="#6d915c" fill-rule="evenodd"/>
      <path id="Path_719" data-name="Path 719" d="M1322.676,1331.008a278.693,278.693,0,0,0-20.21,19.764c-3.18,3.414-6.325,6.863-9.377,10.392-2.961,3.422-6.542,6.91-8.657,10.944-.354.675.408,1.626,1.128,1.127.51-.354.977-.782,1.462-1.179a1.1,1.1,0,0,0,1.345-.021c14.362-10.7,26.624-24.392,37.242-38.764C1330.341,1326.858,1324.531,1328.746,1322.676,1331.008Z" transform="translate(-1206.651 -1323.297)" fill="#587849" fill-rule="evenodd"/>
      <path id="Path_720" data-name="Path 720" d="M1329.084,1335.211c-5.973,4.6-11.013,10.186-16.013,15.789-2.47,2.767-4.94,5.543-7.528,8.2a89.856,89.856,0,0,1-8.1,7.93c-.808.64.248,2.01,1.1,1.433,1-.673,1.973-1.336,2.94-2a.9.9,0,0,0,.76.063c1.581-.569,1.246-2.346,2.631-3.271,1.473-.986,2.992-1.9,4.476-2.861a61.164,61.164,0,0,0,9.083-7.558,93.882,93.882,0,0,0,13.161-16.2C1336.284,1329.07,1330.571,1334.067,1329.084,1335.211Z" transform="translate(-1206.591 -1323.28)" fill="#8cb579" fill-rule="evenodd"/>
      <path id="Path_721" data-name="Path 721" d="M1339.872,1332.366c-5.4,4.943-10.777,9.925-15.885,15.173-2.483,2.55-4.88,5.177-7.3,7.783a49.4,49.4,0,0,1-3.544,3.533c-1.218,1.073-2.636,1.895-3.748,3.083a.723.723,0,0,0,.647,1.158c3.627-.6,16.46-12.5,19.487-15.4a139.22,139.22,0,0,0,12.3-13.295C1342.8,1333.183,1341.091,1331.248,1339.872,1332.366Z" transform="translate(-1206.535 -1323.282)" fill="#8cb579" fill-rule="evenodd"/>
      <path id="Path_722" data-name="Path 722" d="M1359.564,1335.272c-3.61,1.66-7.173,3.415-10.712,5.22-4.234,1.669-8.557,3.148-12.68,5.078a43.89,43.89,0,0,0-10.243,6.5c-3.21,2.766-6.234,5.993-10.229,7.609a1.042,1.042,0,0,0,.7,1.963c1.228-.429,16.2-8.3,18-9.38q4.265-2.551,8.622-4.947c2.306-1.269,4.643-2.475,6.982-3.674a64.546,64.546,0,0,0,11.06-5.408C1362.631,1337.229,1361.311,1334.467,1359.564,1335.272Z" transform="translate(-1206.508 -1323.268)" fill="#6d915c" fill-rule="evenodd"/>
      <path id="Path_723" data-name="Path 723" d="M1360.313,1349.222c-4.611,1.371-9.122,3.186-13.692,4.7-4.681,1.555-9.374,3.072-14.09,4.52-4.687,1.441-9.377,2.877-14.093,4.224-2.428.692-5.384.945-7.8,1.719-3.909.795-11.834,4.456-6.16,4.412,1.86-.432,3.73-.8,5.6-1.169,8.045-1.3,16.151-2.1,24.142-3.852a92.7,92.7,0,0,0,12.538-3.611c5.54-2.062,9.751-4.979,15.042-7.535C1368.193,1348.109,1362.556,1348.554,1360.313,1349.222Z" transform="translate(-1206.566 -1323.204)" fill="#6d915c" fill-rule="evenodd"/>
      <path id="Path_724" data-name="Path 724" d="M1344.7,1365.816a79.969,79.969,0,0,1-28.843,5.649c-9.474.04-19.336-2.6-28.587.328-1.134.36-.5,2.1.6,1.932,3.257-.5,19.274,1.3,22.306,1.689a121.756,121.756,0,0,0,14.3,1.444c8.248.071,16.821-1.912,22.409-8.391C1348.13,1367.023,1346.211,1365.223,1344.7,1365.816Z" transform="translate(-1206.64 -1323.125)" fill="#587849" fill-rule="evenodd"/>
      <path id="Path_725" data-name="Path 725" d="M1339.578,1379.57c-10.041-.516-20.109-1.015-30.071-2.441-4.834-.692-9.634-1.618-14.391-2.735-3.873-.907-7.869-1.725-11.8-.909-.432.049-.866.1-1.3.189-1.764.37-1.339,3.163.441,3.11,4.99-.146,9.643,1.543,14.367,2.911,5.026,1.451,10.1,2.757,15.242,3.705,9.04,1.665,19.714,3.243,28.395-.636C1342.147,1382.01,1341.119,1379.648,1339.578,1379.57Z" transform="translate(-1206.667 -1323.091)" fill="#8cb579" fill-rule="evenodd"/>
      <path id="Path_726" data-name="Path 726" d="M1333.408,1385.718c-11.1.834-21.906-.348-32.8-2.437-7.838-1.508-16.01-3.477-24.109-3.616-4.052-1.144-11.81-3.036-10.673,2.053a1.38,1.38,0,0,0,2.328.5,1.282,1.282,0,0,0,.5.131q2.915.134,5.825.352c.543.126,1.087.238,1.629.37,2.851.689,5.687,1.45,8.519,2.22,5.833,1.589,11.657,3.234,17.592,4.409,10.492,2.083,21.517,2.666,31.8-.741A1.672,1.672,0,0,0,1333.408,1385.718Z" transform="translate(-1206.738 -1323.067)" fill="#8cb579" fill-rule="evenodd"/>
      <path id="Path_727" data-name="Path 727" d="M1299,1404.383c-9.617-4.464-20.252-5.4-30.613-6.891a97.732,97.732,0,0,1-15.561-3.313c-5.3-1.669-10.151-4.292-15.329-6.228a.971.971,0,0,0-1.329.685,1.2,1.2,0,0,0-.769,1.678c1.329,2.2,3.482,3.568,5.639,4.909a52.538,52.538,0,0,0,7.026,3.631,74.861,74.861,0,0,0,15.789,4.569c11.39,2.119,23.031,2.31,34.457,4.184C1300.286,1407.931,1300.586,1405.12,1299,1404.383Z" transform="translate(-1206.88 -1323.022)" fill="#587849" fill-rule="evenodd"/>
      <path id="Path_728" data-name="Path 728" d="M1295.847,1416.065c-12.779-3.548-25.611-6.98-38.326-10.759a89.01,89.01,0,0,1-17.749-7.072c-4.928-2.715-10.479-6.938-16.427-6.06-.694.1-.49,1.02.008,1.215a70.455,70.455,0,0,1,8.98,4.055c6.3,3.545,9.986,6.93,18.495,10.957a153.89,153.89,0,0,0,14.3,5.992c9.729,3.452,19.984,5.511,30.338,4.727A1.56,1.56,0,0,0,1295.847,1416.065Z" transform="translate(-1206.937 -1323.003)" fill="#6d915c" fill-rule="evenodd"/>
      <g id="Group_320" data-name="Group 320" transform="translate(14.466 70.014)">
        <path id="Path_729" data-name="Path 729" d="M1265.881,1422.341c-3.993-2.629-7.507-5.434-11.83-7-3.377-1.874-6.768-3.725-10.093-5.694a95.891,95.891,0,0,1-10.319-6.846c-2.864-2.241-6.452-5.857-9.392-8.466-.939-1.432-3.957-2.239-2.4.475,2.317,4.751,2.728,3.645,6.689,8.58,1.363,1.7,2.765,3.383,4.222,5.009a65.959,65.959,0,0,0,9.164,8.54c6.672,5.07,14.75,8.4,23.218,8.194A1.509,1.509,0,0,0,1265.881,1422.341Z" transform="translate(-1221.411 -1393.012)" fill="#587849" fill-rule="evenodd"/>
        <path id="Path_730" data-name="Path 730" d="M1225.426,1399.508" transform="translate(-1221.392 -1392.982)" fill="#aa130e" fill-rule="evenodd"/>
      </g>
      <path id="Path_731" data-name="Path 731" d="M1309.706,1394.635a80.014,80.014,0,0,1-29.313-2.136c-9.152-2.452-17.97-7.6-27.666-7.2-1.187.049-1.036,1.895.074,2.023,3.272.377,18.256,6.324,21.077,7.5a121.644,121.644,0,0,0,13.412,5.153c7.938,2.238,16.733,2.579,23.827-2.2C1312.695,1396.7,1311.316,1394.46,1309.706,1394.635Z" transform="translate(-1206.802 -1323.034)" fill="#6d915c" fill-rule="evenodd"/>
      <path id="Path_732" data-name="Path 732" d="M1322.414,1355.006c-4.187,2.246-8.382,4.356-12.736,6.271-4.491,1.975-9.094,3.686-13.647,5.512-9.748,3.909-19.3,7.405-29.042,11.336-4.426,1.785-9.1,3.852-13.817,4.68-4.82.847-9.725,1.074-14.488,2.264-4.716,1.179-9.256,2.951-13.872,4.457q-6.81,2.218-13.813,3.772c-.911.2-2.571.084-3.485.269-1.823,3.4,1.765,4.864,3.676,4.031,3.662-1.6,7.381-1.942,11.149-3.013,4.646-1.351,9.177-3.053,13.81-4.446a97.929,97.929,0,0,1,15.086-2.8,60.816,60.816,0,0,0,13.792-3.632c9.911-3.829,20.383-7.523,30.207-11.571,10.211-3.337,20.656-7.369,28.519-15.385C1324.752,1355.918,1323.48,1354.434,1322.414,1355.006Z" transform="translate(-1207.011 -1323.176)" fill="#756628" fill-rule="evenodd"/>
    </g>
    <g id="Group_272" data-name="Group 272" transform="translate(24.923 595.663)">
      <path id="Path_402" data-name="Path 402" d="M1437.312,1488.386a29.5,29.5,0,0,1,.486,2.928c2.762,24.738,13.153,113.962,15.612,113.93,7.25-.8,24.84-3.28,37.878-5.123q23.474-3.32,46.951-6.646c15.073-2.121,44.55-7.164,59.622-9.284,6.091-1.379-10-92.3-14.838-116.252-13.732,1.947-28.454,4.6-42.395,6.306C1505.732,1478.524,1470.977,1482.077,1437.312,1488.386Z" transform="translate(-1437.312 -1467.939)" fill="#f2a335" fill-rule="evenodd"/>
      <path id="Path_403" data-name="Path 403" d="M1570.127,1492.713c-2.865,3.1-1.856,7.3,2.527,8.378,2.819.723,5.809-.651,6.28-3.358a5.026,5.026,0,0,0-2.516-5.547c-1.968-1.156-4.533-1.332-6.291.526Zm18.769,21.72c-2.864,3.1-1.857,7.3,2.526,8.378a6.1,6.1,0,0,0,1.31.186c-.522-3.3-1.057-6.594-1.6-9.852a4.34,4.34,0,0,0-2.239,1.288Zm-42.675,71.354c-1.962,2.126-2.106,4.769-.59,6.567,2.915-.445,6.077-.94,9.383-1.465l.015-.083a5.024,5.024,0,0,0-2.518-5.546c-1.966-1.156-4.531-1.333-6.29.527Zm-52.481-105.924c.222,1.853,1.624,3.468,4.109,4.078,2.819.722,5.809-.651,6.281-3.359a5.99,5.99,0,0,0,.036-2q-5.22.631-10.426,1.281Zm47.387-5.706c-2.585,3.073-1.516,7.08,2.749,8.125,2.819.722,5.809-.652,6.28-3.359a5.025,5.025,0,0,0-2.517-5.547l-.115-.066q-3.218.451-6.4.847Zm-79.835,124.769a5.09,5.09,0,0,0-1.265,5.48c3-.388,6.484-.858,10.171-1.363a4.968,4.968,0,0,0-2.616-4.645c-1.967-1.155-4.532-1.331-6.29.527Zm-15.249-49.566a6.511,6.511,0,0,0-1.176,1.764l.614,4.838a5.805,5.805,0,0,0,3.089,1.776c2.818.723,5.808-.651,6.28-3.359a5.024,5.024,0,0,0-2.517-5.546c-1.967-1.156-4.532-1.332-6.291.526Zm4.289-56.088c-2.864,3.1-1.856,7.3,2.528,8.377,2.818.723,5.808-.651,6.28-3.358a5.029,5.029,0,0,0-2.518-5.547c-1.967-1.156-4.532-1.332-6.29.527Zm74.855,9.049c-2.864,3.1-1.856,7.3,2.527,8.378,2.819.722,5.808-.652,6.281-3.359a5.026,5.026,0,0,0-2.518-5.547c-1.967-1.156-4.532-1.331-6.29.527Zm-17.752,76.043c-2.864,3.1-1.857,7.3,2.528,8.378,2.818.723,5.808-.651,6.28-3.359a5.027,5.027,0,0,0-2.519-5.546c-1.966-1.156-4.532-1.332-6.289.526Zm-30.565-9.316c-2.864,3.1-1.855,7.3,2.527,8.378,2.819.723,5.809-.652,6.28-3.358a5.027,5.027,0,0,0-2.517-5.547c-1.967-1.156-4.533-1.331-6.29.526Zm35.407-31.43c-2.864,3.1-1.856,7.3,2.527,8.378,2.818.723,5.808-.652,6.281-3.359a5.027,5.027,0,0,0-2.518-5.547c-1.968-1.155-4.533-1.332-6.29.527Zm-38.666-9.366c-2.864,3.1-1.857,7.3,2.527,8.377,2.818.723,5.807-.651,6.28-3.359a5.028,5.028,0,0,0-2.518-5.547c-1.967-1.154-4.533-1.33-6.289.528Zm12.1-27.092c-2.863,3.1-1.855,7.3,2.528,8.377,2.817.722,5.808-.652,6.28-3.359a5.03,5.03,0,0,0-2.518-5.547c-1.967-1.155-4.532-1.331-6.29.529Zm94.234,71.928c-2.865,3.1-1.856,7.3,2.527,8.377,2.818.723,5.808-.651,6.28-3.358a5.026,5.026,0,0,0-2.517-5.547c-1.967-1.156-4.533-1.332-6.29.528Zm-37.514-12.222c-2.864,3.1-1.855,7.3,2.527,8.377,2.819.723,5.808-.651,6.281-3.358a5.027,5.027,0,0,0-2.518-5.547c-1.967-1.156-4.532-1.331-6.29.527Zm30.267-21.093c-2.865,3.1-1.856,7.3,2.527,8.377,2.818.723,5.808-.65,6.28-3.358a5.026,5.026,0,0,0-2.517-5.547c-1.967-1.155-4.533-1.332-6.29.527Zm-26.578-16.8c-2.863,3.1-1.854,7.3,2.528,8.378,2.818.723,5.809-.651,6.28-3.359a5.027,5.027,0,0,0-2.518-5.547C1550.446,1521.289,1547.88,1521.113,1546.122,1522.972Z" transform="translate(-1437.277 -1467.914)" fill="#f7cc7b" fill-rule="evenodd"/>
      <g id="Group_271" data-name="Group 271" transform="translate(6.745 12.288)">
        <path id="Path_404" data-name="Path 404" d="M1478.11,1481.841l14.24,118.047,14.568-2.065L1490.9,1480.17Q1484.494,1480.979,1478.11,1481.841Z" transform="translate(-1443.867 -1480.17)" fill="#eb5a32" fill-rule="evenodd"/>
        <path id="Path_405" data-name="Path 405" d="M1593.068,1524.857l-149.042,19.248c.585,4.72,1.179,9.445,1.772,14.061l149.237-20.348C1594.417,1533.569,1593.755,1529.221,1593.068,1524.857Z" transform="translate(-1444.026 -1479.962)" fill="#eb5a32" fill-rule="evenodd"/>
        <path id="Path_406" data-name="Path 406" d="M1481.062,1481.44l13.964,118.063,3.483-.494-14.392-117.974Z" transform="translate(-1443.853 -1480.166)" fill="#e8dbba" fill-rule="evenodd"/>
        <path id="Path_407" data-name="Path 407" d="M1593.592,1528.21l-149.17,19.076.42,3.359,149.223-19.346Z" transform="translate(-1444.024 -1479.946)" fill="#e8dbba" fill-rule="evenodd"/>
      </g>
      <path id="Path_408" data-name="Path 408" d="M1537.384,1515.591a89.728,89.728,0,0,0-16.51,5.308c2.9-2.829,5.607-6.165,5.239-9.473a2.1,2.1,0,0,0-1.265-1.64c-5.661-2.438-14.359,5.872-17.918,9.364-.786.773-1.5,1.6-2.228,2.414.969-2.9,1.881-5.768,2.7-8.49,1.209-4.014,4.629-12.14.889-15.509a2.034,2.034,0,0,0-2.066-.255c-5.738,2.582-8.381,11.936-9.753,17.338a73.291,73.291,0,0,0-2.038,13.262c-1.446-12.333-5.012-27.468-13.1-22.264-5.3,3.409-3.064,12.449-1.827,17.158a51.8,51.8,0,0,0,2,6,48.283,48.283,0,0,0-7.144-3.858c-4.791-2.049-17.13-6.837-21.361-1.3-3.557,4.658,6.47,10.218,17.546,14.444-1.7.245-3.414.526-5.143.861-4.967.958-18.924,2.81-19.969,9.389-.84,5.278,7.329,6.769,10.833,6.911,6.943.281,13.935-2.6,20.638-5.678a55.084,55.084,0,0,0-6.411,4.938c-3.248,2.96-9.712,8.811-5.158,13.32,4.72,4.677,11.493-1.219,15.052-4.408a52.438,52.438,0,0,0,10.518-12.33,49.677,49.677,0,0,0,1.377,18.971c1,3.615,4.143,16.346,9.95,15.82,8.411-.764,2.079-19.584-2.982-32.262a140.439,140.439,0,0,0,10.636,16.011c2.8,3.7,8.914,12.418,14.421,11.455a2.21,2.21,0,0,0,1.805-1.81c1.619-6.237-4.338-13.3-7.81-17.87a153.568,153.568,0,0,0-11.131-13.332,60.572,60.572,0,0,0,11.409,2.867c4.844.745,19.352,2.455,21.124-4.718,1.3-5.279-7.915-8.1-11.339-8.944a51.8,51.8,0,0,0-11.766-1.331c2.746-1.394,5.407-2.878,7.911-4.355,4.781-2.822,14.768-7.274,15.3-13.583a2.175,2.175,0,0,0-2.426-2.418Zm-25.445,4.583h0c1.037-.9,8.655-5.949,8.694-5.807.242.889-5.852,6.665-5.973,6.782a87.967,87.967,0,0,1-7.173,6.2c-1.647,1.3-3.37,2.5-5.076,3.717.727-1.009,1.383-2.076,2.156-3.047a57.789,57.789,0,0,1,7.371-7.849Zm-12.551.533h0a59.676,59.676,0,0,1,2.527-9.845,43.571,43.571,0,0,1,2.152-4.911c.619-.71,1.073-1.262,1.467-1.755.415,5.442-4.2,13.858-6.146,18.567-.131.313-.282.633-.415.948.132-1,.237-2.008.415-3Zm-47.419,29.031h0q-5.3-2.116,2.79-3.927l2.816-1.057a75.911,75.911,0,0,1,11.66-2.707,49.19,49.19,0,0,1,10.339-.851c1.392.432,2.744.834,4.03,1.195-9.2,3.3-25.776,13.448-31.635,7.347Zm30.512,5.277h0c-1.918,2.27-8.368,10.316-11.583,10.007-6.249-.6,2.769-8.526,3.243-8.938a45.8,45.8,0,0,1,4.534-3.468,48.675,48.675,0,0,1,8.421-4.306,57.408,57.408,0,0,1-4.615,6.705Zm-.6-17.218h0c-11.169-3.66-25.318-8.915-23.51-12.6,1.419-2.89,16.061,3.532,18.687,4.92a50.4,50.4,0,0,1,7.645,5.076,41.482,41.482,0,0,0,2.7,3.952,25.888,25.888,0,0,0-5.523-1.35Zm5.843-4.178h0a48.342,48.342,0,0,1-2.766-5.688c-1.542-3.844-5.5-13.773-1.73-17.038,3.294-2.849,3.76,1.411,5.032,4.346a40.713,40.713,0,0,1,2.582,9.088,82.132,82.132,0,0,1,.882,13.3,48.566,48.566,0,0,0-4-4Zm13.2,43.9h0c-1.764,1.608-2.778-3.351-3.492-5.245a49.488,49.488,0,0,1-2.625-9.951,58.43,58.43,0,0,1-.682-10.56c3.669,9.528,9.915,22.916,6.8,25.756Zm10.546-18.267h0c1.839,2.3,3.686,4.639,5.37,7.052a40.206,40.206,0,0,1,4.139,6.814q1.73,4.046-.434,1.831c-3.36.063-9.917-11.3-11.839-14.1q-5.528-8.076-10.289-16.611c4.153,5.163,8.9,9.829,13.053,15.014Zm20.337-16.484h0c9.369,9.222-18.811,2.65-21.343,1.779a47.381,47.381,0,0,1-7.018-3.233,73.423,73.423,0,0,1,10.617-1.234,53.782,53.782,0,0,1,11.391.789,24.26,24.26,0,0,1,6.352,1.9Zm-17.339-11.08h0a118.528,118.528,0,0,1-11.755,4.358,87.786,87.786,0,0,1,30.674-15.081C1528.749,1525.508,1517.9,1530.108,1514.474,1531.682Z" transform="translate(-1437.274 -1467.803)" fill="#e8dbba" fill-rule="evenodd"/>
    </g>
    <g id="Group_323" data-name="Group 323" transform="translate(30.033 49.751) rotate(60)">
      <path id="Path_713-2" data-name="Path 713" d="M39.595.09c-6.843,2.6-13.676,5.247-20.36,8.241-3.251,1.453-6.448,3.009-9.662,4.538a49.485,49.485,0,0,1-4.6,1.976c-1.53.548-3.151.788-4.624,1.482a.723.723,0,0,0,.174,1.315c3.593.782,19.911-5.542,23.8-7.122A139.525,139.525,0,0,0,40.663,2.706C42.021,1.933,41.142-.5,39.595.09Z" transform="translate(107.448 21.173)" fill="#8cb579" fill-rule="evenodd"/>
      <path id="Path_714-2" data-name="Path 714" d="M39.587,4.3c-3,3.756-6.383,7.254-9.508,10.915q-4.8,5.628-9.488,11.357c-3.1,3.8-6.193,7.605-9.214,11.47-1.556,1.99-2.9,4.633-4.526,6.578C4.644,47.945-1.73,53.91.446,48.668c1.1-1.559,2.147-3.154,3.191-4.749C7.864,36.951,11.662,29.743,16.287,23a92.665,92.665,0,0,1,8.06-10.26c3.993-4.358,8.282-7.162,12.64-11.1C43.582-2.581,41.05,2.473,39.587,4.3Z" transform="translate(21.254 16.194)" fill="#6d915c" fill-rule="evenodd"/>
      <path id="Path_715-2" data-name="Path 715" d="M28.258.522a82.631,82.631,0,0,0-7.131,11.056q-3.544,6.233-7.066,12.482c-2.315,4.088-4.637,8.17-6.93,12.27C4.746,40.6,2.021,44.82.091,49.315-.4,50.449,1.19,51.736,2,50.606c.423-.589.808-1.2,1.2-1.815,1.729-1.112,2.811-3.177,3.924-4.85q1.881-2.827,3.753-5.663Q14.919,32.19,18.956,26.1C23.949,18.571,29.469,10.959,30.84,1.8,31.048.422,29.235-.7,28.258.522Z" transform="translate(13.677 18.76)" fill="#587849" fill-rule="evenodd"/>
      <path id="Path_716-2" data-name="Path 716" d="M29.716.53C24,6.6,18.438,12.806,13.324,19.4Q9.632,24.161,6.31,29.186c-1.156,1.757-2.263,3.551-3.349,5.353-.289.48-.589.959-.885,1.444a21.125,21.125,0,0,0-1.9,2.693c-.685,1.18.779,2.917,2,2A54.223,54.223,0,0,0,6.734,36.41c1.584-1.495,3.131-3.019,4.682-4.55,3.008-2.97,6.027-5.933,8.857-9.074C25.527,16.953,30.8,10.021,32.7,2.248A1.8,1.8,0,0,0,29.716.53Z" transform="translate(31.15 22.841)" fill="#8cb579" fill-rule="evenodd"/>
      <path id="Path_717-2" data-name="Path 717" d="M34.381,2.341C34.792.328,32.052-.972,30.953.922c-4.821,8.3-9.516,16.674-14.426,24.918a113.813,113.813,0,0,1-7.9,11.536c-2.87,3.7-6.109,7.262-8.515,11.291-.446.749.522,1.338,1.123.869.66-.515,1.283-1.084,1.91-1.644a.677.677,0,0,0,.679-.084c1.924-1.387,3.675-3,5.515-4.493s3.681-2.958,5.387-4.593a66.906,66.906,0,0,0,8.917-10.693A71.18,71.18,0,0,0,34.381,2.341Z" transform="translate(37.172 13.654)" fill="#6d915c" fill-rule="evenodd"/>
      <path id="Path_718-2" data-name="Path 718" d="M70.939,69.909a142.426,142.426,0,0,1-27.914-2.631c-2.314-.613-4.63-1.216-6.944-1.823-2.727-.717-27.146-8.028-27.6-7.957,1.184-.795-1.255-.68-.125-1.581,1.706-1.363,3.513-2.612,5.292-3.881a77.84,77.84,0,0,0,9.76-8c.835-.827,1.593-1.724,2.385-2.59-.248.367-.489.743-.731,1.122a15.548,15.548,0,0,0-3.221,8.241c-.052.857,1.043.93,1.457.385a21.153,21.153,0,0,0,1.747-2.842A110.733,110.733,0,0,1,33.321,38.7,127.293,127.293,0,0,0,42.8,28.686,71.617,71.617,0,0,0,56.174,4.04c2.323-7.221-2.109-2.881-3.085-1.28C47.763,11.49,42.635,20.387,36.1,28.286q-1.41,1.7-2.829,3.4a73.706,73.706,0,0,0,4.879-8.778c.657-1.427-.855-3.636-2.449-2.451-6.63,4.928-11.824,11.265-16.94,17.683-2.547,3.2-5.059,6.412-7.731,9.508A45.168,45.168,0,0,1,2.015,56.39c-4.122,3.079-2.039,2.281,7.358,5.62,7.911,2.81,21.6,5.9,24.962,6.628,1.89.407,3.785.789,5.682,1.157,5.837,1.534,11.67,3.245,17.578,4.465,4.755.982,9.9,1.3,14.135-1.469A1.557,1.557,0,0,0,70.939,69.909Z" transform="translate(48.791 0)" fill="#6d915c" fill-rule="evenodd"/>
      <path id="Path_719-2" data-name="Path 719" d="M38.334,2.123a278.693,278.693,0,0,0-20.21,19.764C14.944,25.3,11.8,28.75,8.746,32.279,5.786,35.7,2.2,39.189.089,43.223-.264,43.9.5,44.849,1.218,44.35c.51-.354.977-.782,1.462-1.18a1.1,1.1,0,0,0,1.345-.021c14.362-10.7,26.623-24.392,37.242-38.764C46-2.027,40.189-.138,38.334,2.123Z" transform="translate(77.691 5.588)" fill="#587849" fill-rule="evenodd"/>
      <path id="Path_720-2" data-name="Path 720" d="M31.925,2.659c-5.973,4.6-11.013,10.186-16.013,15.789-2.47,2.767-4.94,5.543-7.528,8.2a89.823,89.823,0,0,1-8.1,7.93c-.808.64.248,2.01,1.1,1.433,1-.673,1.973-1.336,2.94-2a.9.9,0,0,0,.76.063C6.67,33.5,6.335,31.723,7.72,30.8c1.473-.986,2.992-1.9,4.476-2.861a61.164,61.164,0,0,0,9.083-7.558A93.893,93.893,0,0,0,34.44,4.177C39.126-3.483,33.412,1.514,31.925,2.659Z" transform="translate(90.567 9.273)" fill="#8cb579" fill-rule="evenodd"/>
      <path id="Path_721-2" data-name="Path 721" d="M30.643.335c-5.4,4.943-10.777,9.925-15.885,15.173-2.484,2.55-4.88,5.177-7.3,7.783a49.419,49.419,0,0,1-3.543,3.533C2.693,27.9,1.275,28.719.163,29.908A.723.723,0,0,0,.81,31.066c3.627-.6,16.46-12.5,19.487-15.4A139.218,139.218,0,0,0,32.6,2.37C33.576,1.153,31.862-.782,30.643.335Z" transform="translate(102.694 8.748)" fill="#8cb579" fill-rule="evenodd"/>
      <path id="Path_722-2" data-name="Path 722" d="M44.523.145C40.914,1.8,37.35,3.56,33.812,5.365c-4.234,1.669-8.557,3.147-12.68,5.078a43.888,43.888,0,0,0-10.243,6.5C7.678,19.706,4.654,22.933.66,24.549a1.042,1.042,0,0,0,.7,1.963c1.228-.429,16.2-8.3,18-9.38q4.265-2.551,8.622-4.947c2.306-1.269,4.642-2.475,6.982-3.674A64.541,64.541,0,0,0,46.022,3.1C47.591,2.1,46.27-.66,44.523.145Z" transform="translate(108.532 11.859)" fill="#6d915c" fill-rule="evenodd"/>
      <path id="Path_723-2" data-name="Path 723" d="M57.812.418C53.2,1.789,48.69,3.6,44.121,5.122c-4.681,1.555-9.375,3.072-14.09,4.52-4.687,1.441-9.376,2.877-14.093,4.224-2.428.692-5.384.945-7.8,1.719C4.232,16.379-3.693,20.04,1.981,20c1.861-.432,3.73-.8,5.6-1.17,8.045-1.3,16.151-2.1,24.142-3.852a92.686,92.686,0,0,0,12.538-3.611C49.8,9.3,54.015,6.386,59.305,3.83,65.692-.7,60.056-.25,57.812.418Z" transform="translate(95.935 25.6)" fill="#6d915c" fill-rule="evenodd"/>
      <path id="Path_724-2" data-name="Path 724" d="M58.028.116A79.969,79.969,0,0,1,29.185,5.765c-9.474.04-19.336-2.6-28.587.328-1.134.36-.5,2.1.6,1.932,3.257-.5,19.274,1.3,22.305,1.689a121.761,121.761,0,0,0,14.3,1.444c8.248.071,16.821-1.912,22.409-8.391C61.455,1.324,59.536-.477,58.028.116Z" transform="translate(80.035 42.574)" fill="#587849" fill-rule="evenodd"/>
      <path id="Path_725-2" data-name="Path 725" d="M58.692,6.421C48.652,5.905,38.583,5.406,28.621,3.979c-4.834-.692-9.634-1.619-14.391-2.735C10.357.337,6.362-.48,2.43.335c-.432.049-.866.1-1.3.189-1.764.37-1.339,3.163.441,3.11,4.99-.146,9.643,1.543,14.367,2.911C20.962,8,26.032,9.3,31.178,10.25c9.04,1.665,19.714,3.243,28.395-.636C61.261,8.861,60.233,6.5,58.692,6.421Z" transform="translate(74.219 50.059)" fill="#8cb579" fill-rule="evenodd"/>
      <path id="Path_726-2" data-name="Path 726" d="M67.691,7.364c-11.1.834-21.906-.348-32.8-2.437C27.056,3.419,18.885,1.45,10.786,1.311,6.734.167-1.024-1.725.112,3.365a1.38,1.38,0,0,0,2.328.5,1.278,1.278,0,0,0,.5.131q2.915.134,5.825.352c.543.126,1.087.238,1.629.37,2.851.689,5.687,1.45,8.519,2.22,5.833,1.588,11.657,3.234,17.592,4.408,10.492,2.083,21.517,2.666,31.8-.741A1.672,1.672,0,0,0,67.691,7.364Z" transform="translate(58.979 55.287)" fill="#8cb579" fill-rule="evenodd"/>
      <path id="Path_727-2" data-name="Path 727" d="M63.744,16.51c-9.617-4.464-20.252-5.4-30.613-6.891A97.718,97.718,0,0,1,17.57,6.305C12.274,4.636,7.419,2.013,2.241.077A.971.971,0,0,0,.912.762,1.2,1.2,0,0,0,.143,2.44c1.329,2.2,3.482,3.568,5.639,4.909a52.567,52.567,0,0,0,7.026,3.631A74.861,74.861,0,0,0,28.6,15.549c11.39,2.119,23.031,2.31,34.457,4.184C65.027,20.058,65.328,17.247,63.744,16.51Z" transform="translate(28.378 64.851)" fill="#587849" fill-rule="evenodd"/>
      <path id="Path_728-2" data-name="Path 728" d="M72.949,24.009C60.17,20.46,47.338,17.028,34.623,13.25A89.018,89.018,0,0,1,16.874,6.178C11.946,3.464,6.4-.76.447.118c-.694.1-.49,1.02.008,1.215a70.446,70.446,0,0,1,8.98,4.055c6.3,3.545,9.986,6.93,18.495,10.957a153.924,153.924,0,0,0,14.3,5.992c9.729,3.452,19.984,5.511,30.338,4.727A1.56,1.56,0,0,0,72.949,24.009Z" transform="translate(15.961 69.054)" fill="#6d915c" fill-rule="evenodd"/>
      <g id="Group_320-2" data-name="Group 320" transform="translate(14.466 70.014)">
        <path id="Path_729-2" data-name="Path 729" d="M44.471,29.328c-3.992-2.629-7.507-5.434-11.83-7-3.377-1.874-6.768-3.725-10.093-5.694A95.916,95.916,0,0,1,12.229,9.786C9.365,7.544,5.777,3.929,2.838,1.32,1.9-.112-1.12-.92.439,1.795c2.317,4.751,2.728,3.645,6.689,8.58,1.363,1.7,2.765,3.383,4.222,5.009a65.96,65.96,0,0,0,9.164,8.54c6.672,5.069,14.75,8.4,23.218,8.194A1.509,1.509,0,0,0,44.471,29.328Z" fill="#587849" fill-rule="evenodd"/>
        <path id="Path_730-2" data-name="Path 730" d="M0,0" transform="translate(4.034 6.526)" fill="#aa130e" fill-rule="evenodd"/>
      </g>
      <path id="Path_731-2" data-name="Path 731" d="M57.805,9.361A80.011,80.011,0,0,1,28.492,7.225C19.34,4.772,10.522-.371.826.021-.36.071-.21,1.916.9,2.045c3.272.377,18.256,6.324,21.077,7.5a121.7,121.7,0,0,0,13.412,5.153c7.938,2.238,16.733,2.579,23.827-2.2C60.794,11.427,59.415,9.185,57.805,9.361Z" transform="translate(45.099 62.241)" fill="#6d915c" fill-rule="evenodd"/>
      <path id="Path_732-2" data-name="Path 732" d="M115.4.128c-4.187,2.246-8.382,4.356-12.736,6.271-4.491,1.975-9.094,3.686-13.647,5.512-9.748,3.909-19.3,7.405-29.042,11.336-4.426,1.785-9.1,3.852-13.817,4.68-4.82.847-9.725,1.074-14.488,2.264-4.716,1.179-9.256,2.951-13.872,4.457q-6.81,2.218-13.813,3.773c-.911.2-2.571.084-3.485.269-1.823,3.4,1.765,4.864,3.676,4.031,3.662-1.6,7.381-1.942,11.149-3.013,4.647-1.351,9.178-3.053,13.81-4.446a97.93,97.93,0,0,1,15.086-2.8,60.813,60.813,0,0,0,13.792-3.632C67.926,25,78.4,21.3,88.222,17.254c10.211-3.336,20.656-7.369,28.519-15.385C117.741,1.04,116.469-.444,115.4.128Z" transform="translate(0 31.702)" fill="#756628" fill-rule="evenodd"/>
    </g>
    <g id="Group_270" data-name="Group 270" transform="translate(318.592 527.822)">
      <g id="Group_269" data-name="Group 269" transform="translate(0 26.063)">
        <path id="Path_398" data-name="Path 398" d="M1601.287,1141.167c.141-.614.323-1.329.583-2.122,5.775-17.542,26.335-80.937,24.765-81.62-4.842-1.533-16.758-4.884-25.591-7.367q-15.9-4.465-31.811-8.927c-10.208-2.875-30.443-7.892-40.651-10.769-4.284-.808-21.746,65.366-25.962,82.972,9.3,2.609,19.451,5.025,28.816,7.855C1554.875,1128.274,1578.009,1135.809,1601.287,1141.167Z" transform="translate(-1502.619 -1030.355)" fill="#f2a335" fill-rule="evenodd"/>
        <path id="Path_399" data-name="Path 399" d="M1622.55,1056.188c-1.338-.4-2.832-.83-4.425-1.288q-1.872,5.767-3.8,11.526c-8.05,23.936-16.995,47.793-25.1,71.78q2.077.536,4.154,1.057c7.472-21.932,15.816-43.8,23.32-65.567q3.025-8.769,5.855-17.508Zm-13.708-3.933c-8.984,27.862-19.028,55.852-26.4,84.144q-2.5-.683-5-1.388.87-3.169,1.752-6.357c7.274-26.232,16.251-51.914,24.433-77.869,1.689.475,3.449.97,5.216,1.47Zm-20.674-5.806-4.89-1.371c-6.975,21.645-13.945,43.288-20.527,65.057-1.914,6.329-3.681,12.656-5.374,18.979q2.266.687,4.531,1.367c1.729-6.319,3.522-12.643,5.452-18.97,6.644-21.767,13.733-43.417,20.807-65.062Zm-18.587-5.22c-6.415,21.375-12.913,42.707-19.341,63.932-2.021,6.677-3.664,13.411-5.372,20.128l-4.809-1.474c2.85-9.867,5.668-19.784,8.67-29.807,5.385-17.988,10.5-36.107,15.641-54.21,1.78.477,3.419.926,4.857,1.331l.355.1Zm-15.331-4.1c-2.047-.532-4.139-1.075-6.224-1.613-4.674,16.411-9.69,32.716-14.823,49.169-3.532,11.326-6.662,22.764-9.7,34.231q2.352.642,4.673,1.309c2.571-9.655,5.223-19.262,8.219-28.7,5.421-17.07,13.147-36.456,17.855-54.4ZM1536.1,1032.4c-8.095,24.345-16.219,48.685-24.131,73.113q-1.543,4.773-2.923,9.565-2.575-.684-5.094-1.377c2.13-7.026,4.378-13.99,6.692-20.813,6.935-20.454,12.715-41.515,19.364-62.13C1531.817,1031.262,1533.879,1031.815,1536.1,1032.4Z" transform="translate(-1502.613 -1030.353)" fill="#f7cc7b" fill-rule="evenodd"/>
      </g>
      <path id="Path_400" data-name="Path 400" d="M1629.154,1056.944c-11.474-2.839-91.875-27.567-105.308-28.6-2.034-.158-2.1,2.532-2.59,4.188-2.2,7.466-5.186,14.844-1.881,15.712,44.1,13.922,99.145,30.336,105.21,29.913,1.951-3.372,3.425-9.865,5.5-16.659C1630.616,1059.769,1630.347,1057.234,1629.154,1056.944Z" transform="translate(-1502.548 -1004.302)" fill="#f7cc7b" fill-rule="evenodd"/>
      <path id="Path_401" data-name="Path 401" d="M1625.927,1042.654c-1.763-6.224-11.676-3.986-16.205-3.419-.2.024-.4.059-.6.084,7.385-4.289,12.439-9.293,8.724-14.128-3.66-4.765-12.057-1.409-15.88.932-.115.072-.233.157-.351.228,2.954-3.671,5.692-7.445,6.389-12.228.209-1.436-1.4-2.19-2.558-2.064-5.973.655-10.032,7.588-12.9,12.162a120.578,120.578,0,0,0-7.865,15.1c-.029.035-.06.071-.089.108,4.248-10.751,14.171-37.267-.925-34.86-6.288,1-8.6,7.458-9.041,15-2.746-7.663-6.733-13.3-12.219-10.316-5.94,3.238-2.961,11.18-.885,15.833.754,1.691,1.619,3.317,2.52,4.922-5.223-3.906-10.683-5.758-14.312-1.458-4.776,5.657,1.209,10.3,8.861,13.651a53.5,53.5,0,0,0-9.425,1.247,1.87,1.87,0,0,0-1.221,2.688c1.736,3.923,7.592,3.83,11.264,3.844,5.965.024,12-.954,17.953-1.5a1.942,1.942,0,0,0,.5.771c4.448,4.244,33.349,27.052,38.647,18.229,2.588-4.31-4.948-9.613-7.865-11.47a49.513,49.513,0,0,0-6.007-3.236c12.627.076,25.845-1.8,23.489-10.12Zm-12.6-14.1h0c1.1,4.264-23.682,15.048-28.278,16.893,1.871-1.927,6.443-6.248,8.136-8.39,1.109-1.054,2.248-2.086,3.448-3.054,2.252-1.823,15.209-11.212,16.694-5.449Zm-43.665,1.782h0a67.528,67.528,0,0,1-3.753-6.471c-.511-1.01-5.795-12.934,1.166-10.046,2.216.917,3.869,7.047,4.475,8.96.783,2.462,1.359,5,2.02,7.5.67,2.529,1.262,5.109,1.974,7.65a63.942,63.942,0,0,1-5.881-7.59Zm8.364,2.351h0c-.068-1.17-.158-2.34-.193-3.508-.219-7-.059-13.251,1.692-17.144,2.829-6.288,7.87-7.021,7.6.7-.174,5.033-3.837,14.1-7.948,27.508-.252-2.131-.636-4.746-1.155-7.558Zm30.763,30.173h0c-.92,1.774-10.293-4.2-18.033-9.588,8.666,2.816,19.551,6.666,18.033,9.588Zm-7.1-14.931h0c-3.35.034-9.464.306-12.784.031,2.7-.918,8.193-2.245,10.984-2.911a79.335,79.335,0,0,1,8.4-1.528c1.259-.158,9.141-1.755,10.422-.6C1623.051,1046.858,1602.378,1047.923,1601.684,1047.93Z" transform="translate(-1502.409 -1004.413)" fill="#eb5a32" fill-rule="evenodd"/>
    </g>
    <g id="Group_316" data-name="Group 316" transform="translate(318.43 426.722)">
      <path id="Path_670" data-name="Path 670" d="M1588.187,1575.157c6.226-3.853,12.483-7.668,18.922-11.157,3.13-1.7,6.309-3.287,9.478-4.911a49.738,49.738,0,0,0,4.362-2.448c1.364-.881,2.541-2.022,3.986-2.769a.722.722,0,0,1,.939.936c-1.563,3.328-16.506,12.441-20.121,14.565a139.322,139.322,0,0,1-16.14,8.22C1588.175,1578.2,1586.78,1576.027,1588.187,1575.157Z" transform="translate(-1576.406 -1490.488)" fill="#8cb579" fill-rule="evenodd"/>
      <path id="Path_671" data-name="Path 671" d="M1639.761,1506.5c4.809-.1,9.64-.657,14.446-.913,4.926-.26,9.854-.479,14.785-.629l3.057-.09v-5.28q-1.637-.133-3.279-.22a92.868,92.868,0,0,0-13.047.161c-5.887.522-10.721,2.222-16.5,3.287C1631.867,1505.49,1637.42,1506.552,1639.761,1506.5Z" transform="translate(-1576.183 -1490.742)" fill="#6d915c" fill-rule="evenodd"/>
      <path id="Path_672" data-name="Path 672" d="M1650.228,1490.793a82.671,82.671,0,0,1,13.114,1.059q4.322.6,8.645,1.2v5.629c-7.687-.514-15.463-1.275-22.31-5.06C1648.454,1492.947,1648.666,1490.828,1650.228,1490.793Z" transform="translate(-1576.12 -1490.781)" fill="#587849" fill-rule="evenodd"/>
      <path id="Path_673" data-name="Path 673" d="M1642,1508.235c8.3-.845,16.6-1.492,24.947-1.543q2.539-.017,5.076.048v6.824c-2.2.28-4.4.527-6.61.7-7.825.624-16.538.6-23.86-2.622A1.8,1.8,0,0,1,1642,1508.235Z" transform="translate(-1576.159 -1490.707)" fill="#8cb579" fill-rule="evenodd"/>
      <path id="Path_674" data-name="Path 674" d="M1629.708,1512.227c-1.849-.9-1.215-3.862.956-3.584,9.518,1.215,19.024,2.582,28.554,3.694a113.258,113.258,0,0,0,12.863.745v5.39c-.512.1-1.025.188-1.541.268a66.9,66.9,0,0,1-13.91.58A71.186,71.186,0,0,1,1629.708,1512.227Z" transform="translate(-1576.215 -1490.698)" fill="#6d915c" fill-rule="evenodd"/>
      <path id="Path_675" data-name="Path 675" d="M1643.373,1583.2a142.43,142.43,0,0,0,14.882-23.763q1.38-3.314,2.774-6.623c1.088-2.6,10.129-26.434,10.461-26.748-1.351.457.223-1.41-1.179-1.06-2.121.526-4.211,1.2-6.3,1.843a77.8,77.8,0,0,1-12.285,2.886c-1.164.16-2.338.217-3.507.318.442.027.887.065,1.336.1a15.543,15.543,0,0,1,8.5,2.45c.712.48.1,1.394-.581,1.391a21.137,21.137,0,0,1-3.318-.341,110.854,110.854,0,0,0-12.693.7,127.4,127.4,0,0,1-13.715,1.437,71.605,71.605,0,0,1-27.7-4.365c-7.145-2.545-1.006-3.426.86-3.227,10.169,1.078,20.35,2.415,30.594,2.033q2.209-.084,4.422-.177a73.737,73.737,0,0,1-9.935-1.464c-1.531-.345-2.366-2.889-.457-3.435,7.944-2.267,16.133-2.539,24.339-2.7,4.086-.078,8.167-.119,12.248-.358a43.826,43.826,0,0,0,10.111-1.25v14.99c-2.824,7.189-6.492,15.148-7.614,17.52q-1.239,2.619-2.536,5.213c-2.331,5.568-4.518,11.239-7.14,16.672-2.112,4.372-4.986,8.645-9.761,10.329A1.558,1.558,0,0,1,1643.373,1583.2Z" transform="translate(-1576.364 -1490.641)" fill="#6d915c" fill-rule="evenodd"/>
      <path id="Path_676" data-name="Path 676" d="M1596.263,1542.37a278.6,278.6,0,0,1,27.979-4.031c4.643-.449,9.3-.85,13.954-1.127,4.516-.27,9.463-.994,13.951-.22.752.13,1.043,1.313.21,1.581-.592.189-1.216.3-1.826.443a1.1,1.1,0,0,1-.834,1.056c-17.226,4.9-35.552,6.309-53.418,6C1588.308,1545.933,1593.339,1542.467,1596.263,1542.37Z" transform="translate(-1576.385 -1490.567)" fill="#587849" fill-rule="evenodd"/>
      <path id="Path_677" data-name="Path 677" d="M1595.685,1550.036c7.282-1.949,14.784-2.552,22.272-3.115,3.7-.279,7.4-.553,11.087-.992a89.677,89.677,0,0,0,11.218-1.606c1-.253,1.446,1.419.468,1.746-1.14.381-2.26.753-3.379,1.115a.9.9,0,0,1-.411.64c-1.413.91-2.621-.436-4.2.1-1.677.57-3.325,1.221-4.992,1.814a61.249,61.249,0,0,1-11.522,2.616,93.917,93.917,0,0,1-20.866.6C1586.433,1552.02,1593.874,1550.52,1595.685,1550.036Z" transform="translate(-1576.39 -1490.532)" fill="#8cb579" fill-rule="evenodd"/>
      <path id="Path_678" data-name="Path 678" d="M1586.857,1556.883c7.208-1.283,14.432-2.521,21.7-3.387,3.535-.421,7.078-.727,10.62-1.066a49.911,49.911,0,0,0,4.96-.665c1.592-.315,3.107-.942,4.726-1.1a.723.723,0,0,1,.527,1.218c-2.681,2.516-19.931,5.47-24.077,6.109a138.938,138.938,0,0,1-18.034,1.685C1585.722,1559.71,1585.228,1557.173,1586.857,1556.883Z" transform="translate(-1576.414 -1490.502)" fill="#8cb579" fill-rule="evenodd"/>
      <path id="Path_679" data-name="Path 679" d="M1577.231,1574.3c3.512-1.858,7.073-3.62,10.657-5.332,3.9-2.345,7.7-4.88,11.74-6.979a43.909,43.909,0,0,1,11.387-4.184c4.146-.865,8.548-1.306,12.258-3.494a1.043,1.043,0,0,1,1.137,1.746c-1.087.713-16.437,7.812-18.392,8.59q-4.617,1.834-9.17,3.839c-2.409,1.057-4.788,2.18-7.162,3.309a64.6,64.6,0,0,1-11.019,5.494C1576.921,1577.924,1575.53,1575.2,1577.231,1574.3Z" transform="translate(-1576.458 -1490.486)" fill="#6d915c" fill-rule="evenodd"/>
      <path id="Path_680" data-name="Path 680" d="M1587.9,1583.391c3.893-2.827,8.075-5.3,12.058-8.009q6.121-4.156,12.155-8.44c3.995-2.845,7.986-5.694,11.922-8.622,2.026-1.507,4.024-3.7,6.1-5.145,3.008-2.619,10.733-6.686,7.248-2.207-1.473,1.215-2.9,2.474-4.334,3.736-5.92,5.6-11.49,11.544-17.735,16.826a92.659,92.659,0,0,1-10.49,7.76c-5,3.146-9.881,4.715-15.126,7.362C1582.223,1588.971,1586,1584.767,1587.9,1583.391Z" transform="translate(-1576.417 -1490.51)" fill="#6d915c" fill-rule="evenodd"/>
      <path id="Path_681" data-name="Path 681" d="M1610.556,1581.122a79.992,79.992,0,0,0,22.02-19.466c5.792-7.5,9.689-16.933,17.639-22.5.974-.682,1.971.878,1.166,1.654-2.374,2.285-10.684,16.095-12.221,18.736a121.379,121.379,0,0,1-7.542,12.228c-4.959,6.593-11.746,12.194-20.287,12.692C1609.431,1584.578,1609.168,1581.958,1610.556,1581.122Z" transform="translate(-1576.303 -1490.557)" fill="#587849" fill-rule="evenodd"/>
      <path id="Path_682" data-name="Path 682" d="M1624.567,1585.429c5.7-8.284,11.421-16.583,16.344-25.36,2.39-4.26,4.571-8.634,6.578-13.089,1.634-3.627,3.415-7.295,6.452-9.921.3-.313.6-.628.941-.919,1.366-1.177,3.326.86,2.2,2.241-3.15,3.874-4.636,8.594-6.425,13.176-1.9,4.873-3.946,9.692-6.323,14.354-4.174,8.19-9.411,17.623-17.767,22.158C1624.943,1588.953,1623.693,1586.7,1624.567,1585.429Z" transform="translate(-1576.235 -1490.572)" fill="#8cb579" fill-rule="evenodd"/>
      <path id="Path_683" data-name="Path 683" d="M1633.222,1584.269c7.409-8.3,13.043-17.6,18-27.522,3.57-7.139,6.973-14.827,11.787-21.34,1.555-3.912,4.769-11.222,8.12-7.225a1.379,1.379,0,0,1-1.016,2.154,1.266,1.266,0,0,1-.2.478q-1.667,2.4-3.263,4.839c-.229.507-.471,1.009-.7,1.518-1.187,2.682-2.307,5.4-3.417,8.114-2.285,5.6-4.52,11.221-7.193,16.646-4.726,9.6-10.966,18.7-19.921,24.8A1.672,1.672,0,0,1,1633.222,1584.269Z" transform="translate(-1576.195 -1490.612)" fill="#8cb579" fill-rule="evenodd"/>
      <path id="Path_684" data-name="Path 684" d="M1668.912,1568.065a54.967,54.967,0,0,1,2.982-9.221v10.629l0,0C1670.949,1571.241,1668.534,1569.77,1668.912,1568.065Z" transform="translate(-1576.027 -1490.464)" fill="#587849" fill-rule="evenodd"/>
      <path id="Path_685" data-name="Path 685" d="M1654.677,1570.763a80.03,80.03,0,0,0,16.126-24.57c.413-1,.8-2.021,1.159-3.052v14.454c-3.1,7.131-8.04,13.632-15.657,16.193C1654.5,1574.394,1653.559,1571.935,1654.677,1570.763Z" transform="translate(-1576.096 -1490.537)" fill="#6d915c" fill-rule="evenodd"/>
      <path id="Path_686" data-name="Path 686" d="M1615.684,1556.6c4.329-1.959,8.555-4.007,12.722-6.3,4.3-2.364,8.456-4.978,12.673-7.484,9.03-5.364,17.614-10.822,26.656-16.167,1.443-.852,2.932-1.709,4.411-2.6v5.177c-8.683,5.337-17.561,11.1-26.339,16.206-8.857,6.079-18.406,11.919-29.553,13.29C1614.987,1559.008,1614.582,1557.1,1615.684,1556.6Z" transform="translate(-1576.278 -1490.626)" fill="#756628" fill-rule="evenodd"/>
    </g>
  </g>
</svg>
