<svg xmlns="http://www.w3.org/2000/svg" xmlns:xlink="http://www.w3.org/1999/xlink" width="414" height="835" viewBox="0 0 414 835">
  <defs>
    <clipPath id="clip-iPhone_XR_XS_Max_11_2">
      <rect width="414" height="835"/>
    </clipPath>
  </defs>
  <g id="iPhone_XR_XS_Max_11_2" data-name="iPhone XR, XS Max, 11 – 2" clip-path="url(#clip-iPhone_XR_XS_Max_11_2)">
    <rect width="414" height="835" fill="#fff"/>
    <g id="Group_249" data-name="Group 249" transform="translate(-9972.405 -889.122)">
      <g id="Group_242" data-name="Group 242" transform="translate(9972.5 991.939)">
        <path id="Intersection_2" data-name="Intersection 2" d="M327.754,592.561c-1.345-3.082-2.614-2.051-3.9-1.02-.825.66-1.659,1.321-2.525.9-3.369-4.442-6.209-1.777-9.837-3.49-3.523,3.26-8.839-.364-12.08-1.834-1.021-1.733-1.686-1.635-2.451-1.537a2.513,2.513,0,0,1-2.436-.866c-2.953-1.24-5.977-.256-8.62-2.25-5.323-2.946-11.137-3.937-16.847-4.365-4,3.438-8.157.914-12.172.057a6.231,6.231,0,0,1-8.107-.224c-1.968-2.474-3.607-3.611-5.681-2.8a5.528,5.528,0,0,0-2.27-.033c-1.321.162-2.648.324-3.918-1.143-1.132,1.531-2.194.188-3.275-1.155-.94-1.167-1.894-2.335-2.92-1.613-4.535-2.934-10.049-2.314-14.8-2.116-2.9-1.246-6.525-.492-9.26-.345-1.95-2.526-2.635-2.51-4.387-2.494-.357,0-.76.007-1.225-.011-5.765-.876-11.278-1.425-17.043-2.142a20.221,20.221,0,0,0-8.895-4.691c-3.6-1.544-8.179-.717-12.786.108-4.4.789-8.814,1.577-12.415.307-3.326-3.208-6.918-.805-10.273-.077a4.939,4.939,0,0,1-3.463-.4c-1.247-.47-2.462-.94-3.849-.147-2.763-3.681-4.43-3.362-7.608-3.158a78.83,78.83,0,0,0-14.7,1.2c-4.908.313-9.809,3.509-14.674,2.544-6.666,2.742-13.352.2-20.019-.033-2.325-1.391-4.654-.737-6.947-.082a11.628,11.628,0,0,1-4.626.69c-4.339-.952-8.7,3.867-13.12,4.365-4.416.645-8.888-.083-13.444,2.953-3.839,1.1-7.742,3.918-11.587-.038-3.195,1.113-6.128-.235-9.041-1.583-3.222-1.492-6.419-2.983-9.916-1.14A6.013,6.013,0,0,1,0,566.035V10A13.257,13.257,0,0,0,1.864,8.931C3.489,7.884,5.089,6.836,6.521,8.2c2.222-1.47,2.742-.889,4.781-1.413,1.662,3.537,4.124,2.309,6.467,1.081,1.59-.833,3.126-1.667,4.32-1.01,5.806,3.741,11.182,3.325,16.668,2.909a52.578,52.578,0,0,1,7.063-.213c2.776-.937,5.62-.242,8.473.452,3.536.86,7.087,1.72,10.539-.522,1.216-.846,2.276-.032,3.289.783,1.461,1.173,2.825,2.346,4.424-1.441A29.684,29.684,0,0,1,83.851,8.17c2.594-2.154,5.413-1.4,8.167-.654a14.347,14.347,0,0,0,4.518.75c2.953-3.279,5.885-1.579,8.761,2.543,3.375-4.525,6.034-.1,9.429,1.26,4.212-3.784,7.5-5.184,11.454,3.336,3.829,5.247,6.817,4.7,10.145,4.147a11.674,11.674,0,0,1,7.138.473c2.78,2.849,5.329,1.865,7.866.881,2.34-.908,4.671-1.815,7.167.282,1.857-.575,3.559-1.317,5.407.326,1.537,4.282,2.8,3.589,4.1,2.9.832-.445,1.678-.889,2.62-.02,4.149,4.116,8.4,3.815,12.755.882,4.4,1.969,8.809,1.14,13.217.311,3.916-.737,7.831-1.474,11.738-.247,4.979-1.815,8.67-4.039,13.466-2.633,3.353,3.2,6.918,6.283,10.321-.064,3.151,2.679,6.3,1.782,9.454.885a14.9,14.9,0,0,1,5.522-.859c1.363,1.546,2.795.479,4.225-.588,1.668-1.243,3.335-2.487,4.9.409,3.122-.409,5.85-6.986,8.8-3.573,5.28-2.883,9.661-8.047,15.37-2.851,4.756,1.59,9.569,1.064,14.364.538a54.8,54.8,0,0,1,8.53-.493c7.58-5.637,10.1-9.312,17.205-7.753a34.4,34.4,0,0,1,8.591.606c5.366.82,10.843,1.641,16.125-2.107,5.856,1.419,12.192,5.291,18.007.064,1.486-3.182,2.543-2.624,3.574-2.066.783.424,1.551.848,2.479-.369,3.832,4.2,8.874,5.694,12.889-.263,5.878,3.451,12.86,2.135,18.584-.2,3.508-1.08,6.412-4.889,9.928-3.841a55.118,55.118,0,0,1,6.752-.1v588.4a22.432,22.432,0,0,1-3.772-.806c-2.823-.773-5.614-1.548-8.148.261-4.719-5.209-9.042,2.461-14.169,4.768-9.19-.263-18.1-4.666-27.225-1.406-4.254.493-8.62,1.5-12.818.326-3.945.026-7.159,3.49-11.124,2.365a11.874,11.874,0,0,1-4.144.762C333.243,594.742,330.672,593.751,327.754,592.561Z" transform="translate(0 0)" fill="#ff826b"/>
      </g>
    </g>
    <g id="Group_270" data-name="Group 270" transform="translate(-1189.435 -504.808)">
      <g id="Group_269" data-name="Group 269">
        <path id="Path_398" data-name="Path 398" d="M1600.829,1140.653c.14-.611.321-1.323.58-2.112,5.748-17.461,26.213-80.562,24.65-81.241-4.82-1.526-16.68-4.861-25.472-7.333q-15.831-4.445-31.663-8.886c-10.161-2.862-30.3-7.855-40.463-10.719-4.264-.8-21.645,65.063-25.842,82.587,9.26,2.6,19.361,5,28.682,7.819C1554.633,1127.82,1577.659,1135.32,1600.829,1140.653Z" fill="#f2a335" fill-rule="evenodd"/>
        <path id="Path_399" data-name="Path 399" d="M1622,1056.07c-1.332-.394-2.819-.826-4.4-1.282q-1.863,5.741-3.787,11.473c-8.013,23.825-16.916,47.571-24.984,71.447q2.067.534,4.135,1.052c7.437-21.83,15.743-43.592,23.212-65.263q3.01-8.728,5.828-17.427Zm-13.644-3.915c-8.942,27.733-18.94,55.593-26.28,83.754q-2.487-.68-4.976-1.381.866-3.154,1.744-6.328c7.24-26.11,16.176-51.673,24.32-77.508,1.681.473,3.433.966,5.192,1.463Zm-20.578-5.779-4.867-1.365c-6.943,21.545-13.88,43.087-20.432,64.755-1.905,6.3-3.664,12.6-5.349,18.891q2.256.684,4.51,1.361c1.721-6.29,3.506-12.584,5.427-18.882,6.613-21.666,13.669-43.216,20.711-64.76Zm-18.5-5.2c-6.385,21.276-12.853,42.509-19.251,63.636-2.012,6.646-3.647,13.349-5.347,20.035l-4.787-1.467c2.837-9.821,5.642-19.692,8.63-29.669,5.36-17.9,10.45-35.94,15.568-53.959,1.772.475,3.4.922,4.834,1.325l.353.1Zm-15.26-4.076c-2.037-.53-4.12-1.07-6.195-1.606-4.652,16.335-9.645,32.564-14.754,48.941-3.516,11.273-6.631,22.658-9.655,34.072q2.342.639,4.651,1.3c2.559-9.61,5.2-19.173,8.181-28.564,5.4-16.991,13.086-36.287,17.772-54.146Zm-18.071-4.709c-8.057,24.232-16.144,48.459-24.019,72.774q-1.536,4.751-2.909,9.521-2.563-.681-5.07-1.371c2.12-6.993,4.358-13.925,6.661-20.717,6.9-20.359,12.656-41.322,19.274-61.842C1531.688,1031.26,1533.74,1031.81,1535.946,1032.4Z" fill="#f7cc7b" fill-rule="evenodd"/>
      </g>
      <path id="Path_400" data-name="Path 400" d="M1628.638,1056.811c-11.421-2.826-91.449-27.439-104.82-28.471-2.025-.157-2.092,2.52-2.578,4.168-2.193,7.432-5.162,14.775-1.872,15.639,43.893,13.857,98.685,30.2,104.722,29.774,1.942-3.356,3.409-9.819,5.477-16.582C1630.093,1059.623,1629.825,1057.1,1628.638,1056.811Z" fill="#f7cc7b" fill-rule="evenodd"/>
      <path id="Path_401" data-name="Path 401" d="M1625.564,1042.477c-1.755-6.2-11.622-3.968-16.13-3.4-.2.024-.4.059-.6.084,7.351-4.269,12.381-9.25,8.684-14.062-3.643-4.743-12-1.4-15.806.928-.115.072-.232.156-.349.227,2.94-3.654,5.666-7.41,6.359-12.171.208-1.429-1.393-2.18-2.546-2.054-5.945.652-9.985,7.553-12.837,12.106a120.025,120.025,0,0,0-7.828,15.025c-.029.035-.06.071-.089.107,4.228-10.7,14.1-37.094-.921-34.7-6.259,1-8.562,7.423-9,14.932-2.733-7.627-6.7-13.24-12.162-10.268-5.913,3.223-2.947,11.128-.881,15.76.751,1.683,1.612,3.3,2.508,4.9-5.2-3.888-10.634-5.731-14.246-1.451-4.754,5.631,1.2,10.257,8.82,13.588a53.243,53.243,0,0,0-9.381,1.241,1.862,1.862,0,0,0-1.215,2.675c1.728,3.905,7.557,3.812,11.212,3.826,5.937.024,11.947-.95,17.87-1.491a1.932,1.932,0,0,0,.5.767c4.427,4.224,33.194,26.926,38.468,18.144,2.576-4.29-4.925-9.568-7.829-11.417a49.3,49.3,0,0,0-5.979-3.221c12.568.076,25.725-1.793,23.38-10.073Zm-12.543-14.034h0c1.092,4.244-23.572,14.978-28.147,16.815,1.862-1.918,6.413-6.219,8.1-8.351,1.1-1.049,2.238-2.076,3.432-3.04,2.242-1.815,15.139-11.16,16.617-5.424Zm-43.462,1.774h0a67.223,67.223,0,0,1-3.736-6.441c-.509-1.005-5.768-12.874,1.16-10,2.206.913,3.851,7.014,4.454,8.918.779,2.451,1.353,4.979,2.011,7.463.667,2.517,1.256,5.085,1.965,7.614a63.647,63.647,0,0,1-5.854-7.555Zm8.325,2.34h0c-.068-1.164-.157-2.329-.192-3.492-.218-6.967-.059-13.19,1.684-17.065,2.816-6.259,7.833-6.988,7.569.7-.173,5.01-3.819,14.037-7.911,27.38-.251-2.121-.633-4.724-1.15-7.523Zm30.62,30.033h0c-.916,1.766-10.245-4.181-17.949-9.544,8.626,2.8,19.46,6.635,17.949,9.544Zm-7.07-14.862h0c-3.335.034-9.42.3-12.725.031,2.687-.914,8.155-2.235,10.933-2.9a78.947,78.947,0,0,1,8.357-1.521c1.253-.157,9.1-1.747,10.374-.594C1622.7,1046.661,1602.125,1047.721,1601.434,1047.728Z" fill="#eb5a32" fill-rule="evenodd"/>
    </g>
    <g id="Group_316" data-name="Group 316" transform="translate(-1257.435 -1142.808)">
      <path id="Path_670" data-name="Path 670" d="M1588.184,1575.058c6.2-3.835,12.425-7.633,18.834-11.1,3.115-1.689,6.28-3.272,9.434-4.888a49.487,49.487,0,0,0,4.342-2.437c1.358-.877,2.529-2.013,3.968-2.756a.719.719,0,0,1,.935.932c-1.556,3.312-16.429,12.383-20.028,14.5a138.658,138.658,0,0,1-16.065,8.182C1588.172,1578.09,1586.784,1575.924,1588.184,1575.058Z" fill="#8cb579" fill-rule="evenodd"/>
      <path id="Path_671" data-name="Path 671" d="M1639.742,1506.468c4.787-.1,9.6-.654,14.379-.909,4.9-.259,9.808-.477,14.716-.626l3.043-.09v-5.256q-1.629-.132-3.264-.219a92.434,92.434,0,0,0-12.987.16c-5.86.52-10.671,2.212-16.422,3.272C1631.884,1505.461,1637.411,1506.518,1639.742,1506.468Z" fill="#6d915c" fill-rule="evenodd"/>
      <path id="Path_672" data-name="Path 672" d="M1650.222,1490.793a82.293,82.293,0,0,1,13.053,1.054q4.3.592,8.6,1.2v5.6c-7.651-.512-15.391-1.269-22.206-5.036C1648.456,1492.937,1648.667,1490.828,1650.222,1490.793Z" fill="#587849" fill-rule="evenodd"/>
      <path id="Path_673" data-name="Path 673" d="M1642,1508.228c8.257-.841,16.527-1.485,24.831-1.536q2.527-.016,5.052.048v6.792c-2.188.279-4.38.525-6.579.7-7.789.621-16.461.6-23.749-2.61A1.787,1.787,0,0,1,1642,1508.228Z" fill="#8cb579" fill-rule="evenodd"/>
      <path id="Path_674" data-name="Path 674" d="M1629.7,1512.21c-1.841-.893-1.209-3.844.952-3.567,9.474,1.209,18.936,2.57,28.422,3.677a112.715,112.715,0,0,0,12.8.742v5.365c-.51.1-1.02.187-1.534.267a66.588,66.588,0,0,1-13.846.577A70.857,70.857,0,0,1,1629.7,1512.21Z" fill="#6d915c" fill-rule="evenodd"/>
      <path id="Path_675" data-name="Path 675" d="M1643.156,1582.91a141.766,141.766,0,0,0,14.813-23.653q1.374-3.3,2.761-6.592c1.083-2.588,10.082-26.311,10.412-26.624-1.345.455.222-1.4-1.174-1.055-2.111.524-4.191,1.2-6.27,1.834a77.436,77.436,0,0,1-12.228,2.873c-1.159.159-2.327.216-3.491.316.44.027.883.065,1.33.1a15.472,15.472,0,0,1,8.462,2.439c.709.478.1,1.388-.578,1.385a21.043,21.043,0,0,1-3.3-.339,110.326,110.326,0,0,0-12.634.7,126.811,126.811,0,0,1-13.651,1.43,71.274,71.274,0,0,1-27.571-4.345c-7.112-2.533-1-3.41.856-3.212,10.122,1.073,20.256,2.4,30.452,2.024q2.2-.084,4.4-.176a73.392,73.392,0,0,1-9.889-1.457c-1.524-.343-2.355-2.876-.455-3.419,7.907-2.257,16.058-2.527,24.226-2.686,4.067-.078,8.129-.119,12.191-.356a43.628,43.628,0,0,0,10.064-1.244v14.92c-2.811,7.156-6.462,15.078-7.579,17.439q-1.233,2.607-2.524,5.189c-2.32,5.542-4.5,11.187-7.107,16.6-2.1,4.352-4.963,8.6-9.716,10.281A1.55,1.55,0,0,1,1643.156,1582.91Z" fill="#6d915c" fill-rule="evenodd"/>
      <path id="Path_676" data-name="Path 676" d="M1596.243,1542.343a277.314,277.314,0,0,1,27.849-4.012c4.622-.447,9.252-.846,13.889-1.122,4.495-.269,9.419-.989,13.886-.219.748.129,1.038,1.307.209,1.574-.589.188-1.21.3-1.818.441a1.1,1.1,0,0,1-.83,1.051c-17.146,4.874-35.387,6.28-53.17,5.974C1588.325,1545.89,1593.333,1542.44,1596.243,1542.343Z" fill="#587849" fill-rule="evenodd"/>
      <path id="Path_677" data-name="Path 677" d="M1595.664,1550.009c7.248-1.94,14.715-2.54,22.169-3.1,3.682-.278,7.37-.551,11.036-.987a89.289,89.289,0,0,0,11.166-1.6c.995-.252,1.439,1.412.466,1.738-1.135.379-2.25.75-3.363,1.11a.9.9,0,0,1-.409.637c-1.407.906-2.609-.434-4.179.1-1.669.567-3.309,1.215-4.969,1.806a60.974,60.974,0,0,1-11.469,2.6,93.489,93.489,0,0,1-20.769.6C1586.455,1551.984,1593.861,1550.491,1595.664,1550.009Z" fill="#8cb579" fill-rule="evenodd"/>
      <path id="Path_678" data-name="Path 678" d="M1586.852,1556.854c7.175-1.277,14.365-2.509,21.6-3.371,3.519-.419,7.045-.724,10.571-1.061a49.668,49.668,0,0,0,4.937-.662c1.585-.314,3.093-.938,4.7-1.1a.72.72,0,0,1,.525,1.212c-2.669,2.5-19.839,5.445-23.965,6.081a138.275,138.275,0,0,1-17.95,1.677C1585.723,1559.668,1585.231,1557.143,1586.852,1556.854Z" fill="#8cb579" fill-rule="evenodd"/>
      <path id="Path_679" data-name="Path 679" d="M1577.227,1574.206c3.5-1.849,7.04-3.6,10.608-5.307,3.881-2.334,7.665-4.857,11.686-6.947a43.705,43.705,0,0,1,11.334-4.165c4.127-.861,8.508-1.3,12.2-3.478a1.038,1.038,0,0,1,1.132,1.738c-1.082.71-16.361,7.776-18.307,8.55q-4.6,1.825-9.127,3.821c-2.4,1.052-4.766,2.17-7.129,3.294a64.311,64.311,0,0,1-10.968,5.469C1576.919,1577.814,1575.534,1575.1,1577.227,1574.206Z" fill="#6d915c" fill-rule="evenodd"/>
      <path id="Path_680" data-name="Path 680" d="M1587.884,1583.231c3.875-2.814,8.038-5.28,12-7.972q6.093-4.137,12.1-8.4c3.976-2.832,7.949-5.668,11.867-8.582,2.017-1.5,4.005-3.682,6.076-5.121,2.994-2.607,10.683-6.655,7.214-2.2-1.466,1.209-2.891,2.462-4.314,3.719-5.893,5.574-11.437,11.49-17.653,16.748a92.221,92.221,0,0,1-10.441,7.724c-4.981,3.131-9.835,4.693-15.056,7.328C1582.237,1588.785,1586,1584.6,1587.884,1583.231Z" fill="#6d915c" fill-rule="evenodd"/>
      <path id="Path_681" data-name="Path 681" d="M1610.552,1580.927a79.62,79.62,0,0,0,21.918-19.376c5.765-7.463,9.644-16.854,17.557-22.393.97-.679,1.962.874,1.161,1.646-2.363,2.274-10.634,16.02-12.164,18.649a120.841,120.841,0,0,1-7.507,12.171c-4.936,6.562-11.692,12.137-20.193,12.633C1609.432,1584.366,1609.17,1581.759,1610.552,1580.927Z" fill="#587849" fill-rule="evenodd"/>
      <path id="Path_682" data-name="Path 682" d="M1624.566,1585.2c5.669-8.246,11.368-16.506,16.268-25.242,2.379-4.24,4.55-8.594,6.547-13.028,1.626-3.61,3.4-7.261,6.422-9.875.3-.312.6-.625.937-.915,1.36-1.171,3.311.856,2.192,2.231-3.135,3.856-4.615,8.554-6.4,13.115-1.893,4.85-3.928,9.647-6.294,14.288-4.155,8.152-9.367,17.541-17.685,22.055C1624.94,1588.706,1623.7,1586.465,1624.566,1585.2Z" fill="#8cb579" fill-rule="evenodd"/>
      <path id="Path_683" data-name="Path 683" d="M1633.22,1584c7.375-8.265,12.982-17.522,17.92-27.394,3.553-7.106,6.941-14.758,11.732-21.241,1.548-3.894,4.747-11.17,8.082-7.192a1.373,1.373,0,0,1-1.011,2.144,1.262,1.262,0,0,1-.2.476q-1.659,2.385-3.248,4.817c-.228.505-.469,1-.692,1.511-1.181,2.67-2.3,5.371-3.4,8.076-2.274,5.57-4.5,11.169-7.16,16.569-4.7,9.553-10.915,18.618-19.829,24.682A1.664,1.664,0,0,1,1633.22,1584Z" fill="#8cb579" fill-rule="evenodd"/>
      <path id="Path_684" data-name="Path 684" d="M1668.912,1568.022a54.711,54.711,0,0,1,2.968-9.178v10.58l0,0C1670.94,1571.183,1668.536,1569.719,1668.912,1568.022Z" fill="#587849" fill-rule="evenodd"/>
      <path id="Path_685" data-name="Path 685" d="M1654.675,1570.635a79.659,79.659,0,0,0,16.051-24.456c.411-1,.792-2.012,1.154-3.038v14.387c-3.085,7.1-8,13.569-15.584,16.118C1654.5,1574.249,1653.562,1571.8,1654.675,1570.635Z" fill="#6d915c" fill-rule="evenodd"/>
      <path id="Path_686" data-name="Path 686" d="M1615.681,1556.447c4.309-1.95,8.515-3.988,12.663-6.271,4.278-2.353,8.417-4.955,12.614-7.449,8.988-5.339,17.532-10.772,26.532-16.092,1.436-.848,2.918-1.7,4.39-2.589v5.153c-8.643,5.312-17.48,11.052-26.217,16.131-8.816,6.051-18.321,11.864-29.416,13.228C1614.987,1558.846,1614.584,1556.944,1615.681,1556.447Z" fill="#756628" fill-rule="evenodd"/>
    </g>
    <g id="Group_321" data-name="Group 321" transform="translate(-1254.435 -788.808)">
      <path id="Path_713" data-name="Path 713" d="M1353.372,1344.488c-6.811,2.59-13.613,5.223-20.266,8.2-3.236,1.446-6.418,2.995-9.617,4.517a49.253,49.253,0,0,1-4.574,1.967c-1.523.546-3.136.784-4.6,1.475a.719.719,0,0,0,.173,1.309c3.576.778,19.819-5.516,23.686-7.089a138.862,138.862,0,0,0,16.263-7.779C1355.787,1346.322,1354.912,1343.9,1353.372,1344.488Z" fill="#8cb579" fill-rule="evenodd"/>
      <path id="Path_714" data-name="Path 714" d="M1267.57,1343.724c-2.991,3.739-6.353,7.22-9.464,10.864q-4.781,5.6-9.444,11.3c-3.082,3.784-6.164,7.57-9.171,11.417-1.549,1.981-2.888,4.611-4.505,6.547-2.2,3.308-8.541,9.246-6.375,4.028,1.093-1.552,2.137-3.139,3.176-4.727,4.207-6.936,7.988-14.11,12.591-20.824a92.238,92.238,0,0,1,8.023-10.213c3.975-4.338,8.244-7.129,12.581-11.05C1271.547,1336.873,1269.026,1341.9,1267.57,1343.724Z" fill="#6d915c" fill-rule="evenodd"/>
      <path id="Path_715" data-name="Path 715" d="M1248.752,1342.515a82.237,82.237,0,0,0-7.1,11.005q-3.528,6.2-7.033,12.424c-2.3,4.069-4.616,8.132-6.9,12.213-2.374,4.247-5.086,8.451-7.007,12.925-.485,1.129,1.094,2.41,1.9,1.285.421-.586.8-1.2,1.2-1.807,1.721-1.107,2.8-3.162,3.906-4.828q1.872-2.814,3.736-5.637,4.02-6.058,8.038-12.12c4.97-7.494,10.465-15.071,11.829-24.183C1251.529,1342.416,1249.725,1341.3,1248.752,1342.515Z" fill="#587849" fill-rule="evenodd"/>
      <path id="Path_716" data-name="Path 716" d="M1267.595,1346.585c-5.687,6.044-11.226,12.219-16.316,18.781q-3.675,4.74-6.981,9.742c-1.151,1.749-2.253,3.535-3.334,5.328-.288.478-.586.955-.881,1.437a21.027,21.027,0,0,0-1.892,2.681c-.682,1.174.775,2.9,1.993,1.994a53.973,53.973,0,0,0,4.536-4.249c1.577-1.488,3.117-3.005,4.66-4.529,2.994-2.956,6-5.905,8.816-9.032,5.229-5.806,10.482-12.706,12.365-20.443A1.787,1.787,0,0,0,1267.595,1346.585Z" fill="#8cb579" fill-rule="evenodd"/>
      <path id="Path_717" data-name="Path 717" d="M1278.232,1339.244c.41-2-2.318-3.3-3.412-1.413-4.8,8.257-9.472,16.6-14.359,24.8a113.3,113.3,0,0,1-7.861,11.483c-2.857,3.683-6.081,7.228-8.476,11.239-.444.745.52,1.332,1.118.865.657-.513,1.277-1.079,1.9-1.636a.674.674,0,0,0,.676-.084c1.915-1.381,3.658-2.982,5.489-4.472s3.664-2.944,5.362-4.572a66.6,66.6,0,0,0,8.876-10.643A70.849,70.849,0,0,0,1278.232,1339.244Z" fill="#6d915c" fill-rule="evenodd"/>
      <path id="Path_718" data-name="Path 718" d="M1326.186,1392.908a141.759,141.759,0,0,1-27.785-2.619c-2.3-.61-4.608-1.21-6.912-1.815-2.714-.714-27.02-7.991-27.469-7.92,1.179-.791-1.249-.677-.124-1.574,1.7-1.357,3.5-2.6,5.268-3.863a77.485,77.485,0,0,0,9.715-7.962c.831-.823,1.586-1.716,2.374-2.578-.247.365-.487.74-.728,1.117a15.476,15.476,0,0,0-3.206,8.2c-.052.853,1.038.926,1.45.383a21.054,21.054,0,0,0,1.739-2.829,110.239,110.239,0,0,1,8.235-9.607,126.685,126.685,0,0,0,9.434-9.968,71.286,71.286,0,0,0,13.313-24.532c2.312-7.187-2.1-2.868-3.071-1.274-5.3,8.689-10.4,17.545-16.906,25.408q-1.4,1.7-2.816,3.388a73.368,73.368,0,0,0,4.856-8.737c.654-1.42-.851-3.619-2.438-2.44-6.6,4.905-11.769,11.213-16.861,17.6-2.535,3.182-5.036,6.382-7.7,9.464a44.954,44.954,0,0,1-8.977,8.7c-4.1,3.065-2.03,2.27,7.324,5.594,7.874,2.8,21.495,5.877,24.846,6.6,1.881.405,3.767.785,5.656,1.152,5.81,1.527,11.616,3.23,17.5,4.444,4.733.978,9.85,1.293,14.07-1.462A1.55,1.55,0,0,0,1326.186,1392.908Z" fill="#6d915c" fill-rule="evenodd"/>
      <path id="Path_719" data-name="Path 719" d="M1322.5,1331a277.415,277.415,0,0,0-20.116,19.672c-3.165,3.4-6.3,6.831-9.334,10.344-2.947,3.406-6.512,6.878-8.617,10.893-.352.672.406,1.619,1.123,1.122.508-.352.972-.778,1.455-1.174a1.1,1.1,0,0,0,1.339-.021c14.295-10.648,26.5-24.279,37.069-38.584C1330.128,1326.867,1324.345,1328.747,1322.5,1331Z" fill="#587849" fill-rule="evenodd"/>
      <path id="Path_720" data-name="Path 720" d="M1328.936,1335.2c-5.945,4.574-10.962,10.139-15.939,15.716-2.459,2.754-4.917,5.517-7.493,8.162a89.429,89.429,0,0,1-8.058,7.893c-.8.637.247,2,1.1,1.426.991-.67,1.964-1.33,2.926-1.995a.9.9,0,0,0,.756.063c1.574-.566,1.24-2.335,2.619-3.256,1.466-.981,2.978-1.888,4.455-2.848a60.875,60.875,0,0,0,9.041-7.523,93.454,93.454,0,0,0,13.1-16.127C1336.1,1329.086,1330.416,1334.06,1328.936,1335.2Z" fill="#8cb579" fill-rule="evenodd"/>
      <path id="Path_721" data-name="Path 721" d="M1339.73,1332.364c-5.377,4.92-10.727,9.879-15.811,15.1-2.472,2.538-4.857,5.153-7.27,7.747a49.164,49.164,0,0,1-3.527,3.517c-1.212,1.068-2.624,1.886-3.731,3.069a.72.72,0,0,0,.644,1.153c3.61-.6,16.384-12.441,19.4-15.33a138.569,138.569,0,0,0,12.244-13.233C1342.649,1333.178,1340.943,1331.252,1339.73,1332.364Z" fill="#8cb579" fill-rule="evenodd"/>
      <path id="Path_722" data-name="Path 722" d="M1359.357,1335.271c-3.593,1.652-7.14,3.4-10.662,5.2-4.214,1.661-8.517,3.133-12.621,5.054a43.687,43.687,0,0,0-10.2,6.467c-3.2,2.753-6.205,5.965-10.181,7.574a1.037,1.037,0,0,0,.693,1.954c1.222-.427,16.12-8.262,17.918-9.337q4.245-2.539,8.582-4.924c2.3-1.263,4.621-2.464,6.95-3.657a64.243,64.243,0,0,0,11.009-5.383C1362.41,1337.219,1361.1,1334.47,1359.357,1335.271Z" fill="#6d915c" fill-rule="evenodd"/>
      <path id="Path_723" data-name="Path 723" d="M1360.045,1349.22c-4.59,1.365-9.08,3.171-13.628,4.682-4.659,1.548-9.331,3.058-14.025,4.5-4.665,1.434-9.333,2.864-14.028,4.2-2.417.689-5.359.941-7.76,1.711-3.891.791-11.779,4.435-6.131,4.392,1.852-.43,3.713-.8,5.576-1.164,8.008-1.29,16.076-2.095,24.03-3.834a92.247,92.247,0,0,0,12.48-3.594c5.514-2.052,9.706-4.956,14.972-7.5C1367.888,1348.112,1362.278,1348.555,1360.045,1349.22Z" fill="#6d915c" fill-rule="evenodd"/>
      <path id="Path_724" data-name="Path 724" d="M1344.434,1365.815a79.6,79.6,0,0,1-28.709,5.623c-9.43.04-19.246-2.589-28.454.326-1.129.358-.5,2.089.6,1.923,3.242-.493,19.185,1.3,22.2,1.681a121.183,121.183,0,0,0,14.229,1.437c8.21.071,16.743-1.9,22.305-8.352C1347.845,1367.017,1345.935,1365.225,1344.434,1365.815Z" fill="#587849" fill-rule="evenodd"/>
      <path id="Path_725" data-name="Path 725" d="M1339.306,1379.54c-9.994-.513-20.016-1.01-29.932-2.43-4.812-.689-9.589-1.611-14.324-2.722-3.855-.9-7.832-1.717-11.745-.9-.43.049-.862.1-1.3.188-1.756.368-1.333,3.148.439,3.1,4.967-.145,9.6,1.536,14.3,2.9,5,1.444,10.049,2.744,15.171,3.688,9,1.657,19.623,3.228,28.263-.633C1341.863,1381.969,1340.84,1379.618,1339.306,1379.54Z" fill="#8cb579" fill-rule="evenodd"/>
      <path id="Path_726" data-name="Path 726" d="M1333.094,1385.684c-11.045.83-21.8-.346-32.644-2.426-7.8-1.5-15.936-3.461-24-3.6-4.033-1.139-11.755-3.022-10.624,2.044a1.373,1.373,0,0,0,2.317.5,1.274,1.274,0,0,0,.5.13q2.9.133,5.8.35c.54.125,1.082.237,1.621.368,2.838.686,5.661,1.443,8.479,2.21,5.806,1.581,11.6,3.219,17.51,4.388,10.443,2.073,21.417,2.654,31.652-.738A1.664,1.664,0,0,0,1333.094,1385.684Z" fill="#8cb579" fill-rule="evenodd"/>
      <path id="Path_727" data-name="Path 727" d="M1298.707,1404.306c-9.572-4.443-20.158-5.375-30.471-6.859a97.264,97.264,0,0,1-15.489-3.3c-5.272-1.661-10.1-4.272-15.258-6.2a.967.967,0,0,0-1.323.682,1.194,1.194,0,0,0-.765,1.67c1.323,2.186,3.466,3.551,5.613,4.886a52.3,52.3,0,0,0,6.993,3.614,74.514,74.514,0,0,0,15.716,4.548c11.337,2.109,22.924,2.3,34.3,4.165C1299.984,1407.838,1300.283,1405.04,1298.707,1404.306Z" fill="#587849" fill-rule="evenodd"/>
      <path id="Path_728" data-name="Path 728" d="M1295.509,1415.954c-12.72-3.532-25.492-6.948-38.148-10.709a88.6,88.6,0,0,1-17.667-7.039c-4.905-2.7-10.43-6.906-16.351-6.032-.691.1-.488,1.015.008,1.209a70.111,70.111,0,0,1,8.938,4.036c6.271,3.528,9.94,6.9,18.409,10.906a153.207,153.207,0,0,0,14.236,5.964c9.684,3.436,19.891,5.485,30.2,4.705A1.553,1.553,0,0,0,1295.509,1415.954Z" fill="#6d915c" fill-rule="evenodd"/>
      <g id="Group_320" data-name="Group 320">
        <path id="Path_729" data-name="Path 729" d="M1265.675,1422.2c-3.974-2.617-7.472-5.409-11.775-6.97-3.361-1.865-6.737-3.708-10.046-5.668a95.458,95.458,0,0,1-10.271-6.814c-2.851-2.231-6.422-5.83-9.348-8.427-.935-1.425-3.939-2.229-2.387.473,2.306,4.729,2.715,3.628,6.658,8.54,1.357,1.7,2.752,3.367,4.2,4.986a65.649,65.649,0,0,0,9.122,8.5c6.641,5.046,14.681,8.356,23.11,8.156A1.5,1.5,0,0,0,1265.675,1422.2Z" fill="#587849" fill-rule="evenodd"/>
        <path id="Path_730" data-name="Path 730" d="M1225.426,1399.508" fill="#aa130e" fill-rule="evenodd"/>
      </g>
      <path id="Path_731" data-name="Path 731" d="M1309.438,1394.592a79.641,79.641,0,0,1-29.177-2.126c-9.11-2.441-17.887-7.561-27.538-7.17-1.181.049-1.031,1.886.074,2.014,3.257.375,18.171,6.295,20.979,7.461a121.1,121.1,0,0,0,13.35,5.129c7.9,2.228,16.655,2.567,23.716-2.192C1312.413,1396.649,1311.04,1394.417,1309.438,1394.592Z" fill="#6d915c" fill-rule="evenodd"/>
      <path id="Path_732" data-name="Path 732" d="M1321.879,1355.005c-4.168,2.236-8.343,4.336-12.677,6.242-4.47,1.966-9.052,3.669-13.584,5.486-9.7,3.891-19.21,7.371-28.907,11.283-4.405,1.777-9.058,3.834-13.753,4.658-4.8.843-9.68,1.069-14.421,2.253-4.694,1.174-9.213,2.937-13.808,4.436q-6.779,2.208-13.749,3.755c-.907.2-2.559.084-3.469.268-1.815,3.38,1.757,4.841,3.659,4.012,3.645-1.588,7.347-1.933,11.1-3,4.625-1.345,9.135-3.039,13.746-4.425a97.475,97.475,0,0,1,15.016-2.79,60.532,60.532,0,0,0,13.728-3.615c9.865-3.811,20.288-7.488,30.067-11.517,10.164-3.321,20.56-7.335,28.387-15.314C1324.206,1355.913,1322.94,1354.436,1321.879,1355.005Z" fill="#756628" fill-rule="evenodd"/>
    </g>
    <g id="Group_272" data-name="Group 272" transform="translate(-1418.435 -870.808)">
      <path id="Path_402" data-name="Path 402" d="M1437.312,1488.291a29.32,29.32,0,0,1,.484,2.914c2.749,24.623,13.092,113.433,15.54,113.4,7.216-.794,24.725-3.265,37.7-5.1q23.366-3.3,46.733-6.615c15-2.111,44.343-7.131,59.346-9.241,6.063-1.373-9.949-91.871-14.769-115.713-13.668,1.938-28.322,4.577-42.2,6.277C1505.415,1478.475,1470.821,1482.011,1437.312,1488.291Z" fill="#f2a335" fill-rule="evenodd"/>
      <path id="Path_403" data-name="Path 403" d="M1569.546,1492.623c-2.852,3.089-1.847,7.27,2.515,8.339,2.806.72,5.782-.648,6.251-3.342a5,5,0,0,0-2.5-5.521c-1.959-1.151-4.512-1.326-6.262.524Zm18.682,21.619c-2.851,3.088-1.848,7.27,2.514,8.339a6.079,6.079,0,0,0,1.3.185c-.52-3.282-1.052-6.564-1.589-9.806a4.32,4.32,0,0,0-2.229,1.282Zm-42.477,71.023c-1.953,2.116-2.1,4.747-.587,6.536,2.9-.443,6.049-.936,9.339-1.458l.015-.083a5,5,0,0,0-2.506-5.52c-1.957-1.151-4.51-1.327-6.261.525Zm-52.238-105.433c.221,1.844,1.616,3.452,4.09,4.059,2.806.719,5.782-.648,6.252-3.343a5.964,5.964,0,0,0,.036-1.991q-5.2.628-10.378,1.275Zm47.167-5.68c-2.573,3.059-1.509,7.047,2.736,8.087,2.806.719,5.782-.649,6.251-3.343a5,5,0,0,0-2.505-5.521l-.115-.066q-3.2.449-6.367.843Zm-79.465,124.19a5.066,5.066,0,0,0-1.259,5.455c2.987-.386,6.454-.854,10.124-1.357a4.945,4.945,0,0,0-2.6-4.623c-1.958-1.15-4.511-1.325-6.261.525Zm-15.178-49.336a6.482,6.482,0,0,0-1.17,1.756l.611,4.815a5.779,5.779,0,0,0,3.075,1.768c2.805.72,5.781-.648,6.251-3.343a5,5,0,0,0-2.505-5.52c-1.958-1.151-4.511-1.326-6.262.524Zm4.269-55.828c-2.851,3.088-1.847,7.269,2.516,8.338,2.8.72,5.781-.648,6.251-3.342a5.006,5.006,0,0,0-2.506-5.521c-1.958-1.151-4.511-1.326-6.261.525Zm74.508,9.007c-2.851,3.088-1.847,7.27,2.515,8.339,2.806.719,5.781-.649,6.252-3.343a5,5,0,0,0-2.506-5.521c-1.958-1.151-4.511-1.325-6.261.525Zm-17.67,75.69c-2.851,3.089-1.848,7.27,2.516,8.339,2.8.72,5.781-.648,6.251-3.343a5,5,0,0,0-2.507-5.52c-1.957-1.151-4.511-1.326-6.26.524Zm-30.423-9.273c-2.851,3.089-1.847,7.27,2.515,8.339,2.806.72,5.782-.649,6.251-3.342a5,5,0,0,0-2.505-5.521c-1.958-1.151-4.512-1.325-6.261.524Zm35.243-31.284c-2.851,3.088-1.847,7.27,2.515,8.339,2.805.72,5.781-.649,6.252-3.343a5,5,0,0,0-2.506-5.521c-1.959-1.15-4.512-1.326-6.261.525Zm-38.487-9.323c-2.851,3.088-1.848,7.269,2.515,8.338,2.805.72,5.78-.648,6.251-3.343a5,5,0,0,0-2.506-5.521c-1.958-1.149-4.512-1.324-6.26.526Zm12.046-26.966c-2.85,3.088-1.847,7.269,2.516,8.338,2.8.719,5.781-.649,6.251-3.343a5.006,5.006,0,0,0-2.506-5.521c-1.958-1.15-4.511-1.325-6.261.526Zm93.8,71.594c-2.852,3.088-1.847,7.27,2.515,8.338,2.805.72,5.781-.648,6.251-3.342a5,5,0,0,0-2.505-5.521c-1.958-1.151-4.512-1.326-6.261.525Zm-37.34-12.165c-2.851,3.088-1.847,7.269,2.515,8.338,2.806.72,5.781-.648,6.252-3.342a5,5,0,0,0-2.506-5.521c-1.958-1.151-4.511-1.325-6.261.525Zm30.127-20.995c-2.852,3.089-1.847,7.27,2.515,8.338,2.805.72,5.781-.647,6.251-3.342a5,5,0,0,0-2.505-5.521c-1.958-1.15-4.512-1.326-6.261.525Zm-26.455-16.721c-2.85,3.089-1.846,7.269,2.516,8.339,2.805.72,5.782-.648,6.251-3.343a5,5,0,0,0-2.506-5.521C1549.956,1521.066,1547.4,1520.891,1545.652,1522.742Z" fill="#f7cc7b" fill-rule="evenodd"/>
      <g id="Group_271" data-name="Group 271">
        <path id="Path_404" data-name="Path 404" d="M1478.11,1481.833l14.174,117.5,14.5-2.055-15.94-117.107Q1484.464,1480.976,1478.11,1481.833Z" fill="#eb5a32" fill-rule="evenodd"/>
        <path id="Path_405" data-name="Path 405" d="M1592.377,1524.857l-148.351,19.159c.582,4.7,1.174,9.4,1.764,14l148.545-20.254C1593.719,1533.529,1593.06,1529.2,1592.377,1524.857Z" fill="#eb5a32" fill-rule="evenodd"/>
        <path id="Path_406" data-name="Path 406" d="M1481.062,1481.438l13.9,117.516,3.467-.492L1484.1,1481.036Z" fill="#e8dbba" fill-rule="evenodd"/>
        <path id="Path_407" data-name="Path 407" d="M1592.9,1528.21,1444.422,1547.2l.418,3.344,148.531-19.256Z" fill="#e8dbba" fill-rule="evenodd"/>
      </g>
      <path id="Path_408" data-name="Path 408" d="M1536.957,1515.505a89.312,89.312,0,0,0-16.433,5.283c2.886-2.816,5.581-6.136,5.215-9.429a2.086,2.086,0,0,0-1.259-1.632c-5.635-2.427-14.293,5.845-17.835,9.321-.782.769-1.491,1.593-2.218,2.4.964-2.884,1.872-5.741,2.688-8.451,1.2-3.995,4.607-12.084.885-15.437a2.024,2.024,0,0,0-2.056-.254c-5.711,2.57-8.342,11.881-9.708,17.258a72.948,72.948,0,0,0-2.029,13.2c-1.439-12.276-4.989-27.341-13.044-22.161-5.278,3.393-3.05,12.391-1.818,17.078a51.54,51.54,0,0,0,1.99,5.97,48.062,48.062,0,0,0-7.111-3.84c-4.769-2.04-17.05-6.8-21.262-1.295-3.54,4.636,6.44,10.171,17.465,14.377-1.694.244-3.4.524-5.119.857-4.944.954-18.836,2.8-19.876,9.346-.836,5.253,7.3,6.737,10.783,6.879,6.911.28,13.87-2.59,20.542-5.652a54.823,54.823,0,0,0-6.381,4.915c-3.233,2.946-9.667,8.77-5.134,13.258,4.7,4.655,11.44-1.213,14.982-4.388a52.2,52.2,0,0,0,10.469-12.273,49.445,49.445,0,0,0,1.371,18.883c.995,3.6,4.124,16.27,9.9,15.747,8.372-.76,2.069-19.493-2.968-32.112a139.8,139.8,0,0,0,10.587,15.937c2.785,3.684,8.873,12.36,14.354,11.4a2.2,2.2,0,0,0,1.8-1.8c1.611-6.208-4.318-13.236-7.774-17.787a152.847,152.847,0,0,0-11.08-13.27,60.3,60.3,0,0,0,11.356,2.854c4.821.741,19.262,2.444,21.026-4.7,1.3-5.254-7.878-8.061-11.286-8.9a51.564,51.564,0,0,0-11.711-1.325c2.733-1.388,5.382-2.865,7.874-4.335,4.759-2.809,14.7-7.24,15.229-13.52a2.165,2.165,0,0,0-2.415-2.407Zm-25.327,4.562h0c1.032-.893,8.615-5.921,8.654-5.78.241.885-5.825,6.634-5.945,6.751a87.555,87.555,0,0,1-7.14,6.175c-1.639,1.292-3.354,2.486-5.052,3.7.724-1,1.377-2.066,2.146-3.033a57.528,57.528,0,0,1,7.337-7.813Zm-12.493.53h0a59.393,59.393,0,0,1,2.515-9.8,43.4,43.4,0,0,1,2.142-4.888c.616-.707,1.068-1.256,1.46-1.747.413,5.417-4.183,13.794-6.117,18.481-.13.312-.281.63-.413.944.131-1,.236-2,.413-2.991Zm-47.2,28.9h0q-5.274-2.106,2.777-3.909l2.8-1.052a75.545,75.545,0,0,1,11.606-2.694,48.958,48.958,0,0,1,10.291-.847c1.386.43,2.731.83,4.011,1.189-9.157,3.286-25.656,13.386-31.488,7.313Zm30.371,5.253h0c-1.909,2.259-8.329,10.268-11.529,9.961-6.22-.595,2.756-8.486,3.228-8.9a45.613,45.613,0,0,1,4.513-3.452,48.448,48.448,0,0,1,8.382-4.286,57.147,57.147,0,0,1-4.594,6.674Zm-.595-17.138h0c-11.117-3.643-25.2-8.874-23.4-12.539,1.412-2.877,15.986,3.516,18.6,4.9a50.169,50.169,0,0,1,7.609,5.052,41.3,41.3,0,0,0,2.689,3.934,25.769,25.769,0,0,0-5.5-1.344Zm5.816-4.159h0a48.114,48.114,0,0,1-2.753-5.662c-1.535-3.826-5.478-13.709-1.722-16.959,3.279-2.836,3.743,1.4,5.009,4.326a40.527,40.527,0,0,1,2.57,9.046,81.747,81.747,0,0,1,.878,13.235,48.325,48.325,0,0,0-3.982-3.986Zm13.143,43.692h0c-1.756,1.6-2.765-3.336-3.476-5.221a49.262,49.262,0,0,1-2.613-9.905,58.153,58.153,0,0,1-.679-10.511c3.652,9.484,9.869,22.81,6.768,25.637Zm10.5-18.182h0c1.831,2.286,3.669,4.617,5.345,7.019a40.029,40.029,0,0,1,4.12,6.782q1.722,4.027-.432,1.823c-3.344.063-9.871-11.244-11.784-14.034q-5.5-8.039-10.241-16.534c4.134,5.139,8.861,9.783,12.992,14.944Zm20.243-16.408h0c9.325,9.179-18.724,2.638-21.244,1.771a47.175,47.175,0,0,1-6.985-3.218,73.072,73.072,0,0,1,10.568-1.228,53.526,53.526,0,0,1,11.338.785,24.143,24.143,0,0,1,6.323,1.89Zm-17.259-11.029h0a117.987,117.987,0,0,1-11.7,4.338,87.376,87.376,0,0,1,30.532-15.011C1528.362,1525.376,1517.563,1529.955,1514.154,1531.522Z" fill="#e8dbba" fill-rule="evenodd"/>
    </g>
    <g id="Group_295" data-name="Group 295" transform="translate(-674.435 -972.808)">
      <path id="Path_555" data-name="Path 555" d="M1100.426,1419.847a72.633,72.633,0,0,1-7.705,7.8q-3.888,3.585-8.005,6.91a167.151,167.151,0,0,1-57.171,30.066,122.019,122.019,0,0,1-24.086,4.723.8.8,0,0,1-.259-1.584c13.989-2.806,27.792-6.491,40.917-12.158a166.152,166.152,0,0,0,36.639-21.743q4.577-3.59,8.893-7.5c3-2.719,5.747-5.726,8.781-8.4C1099.591,1416.936,1101.405,1418.619,1100.426,1419.847Z" fill="#75502d" fill-rule="evenodd"/>
      <path id="Path_556" data-name="Path 556" d="M1004.809,1468.667c-.492.492-4.02.859-4.675,1.033-.694.185-1.7.232-2.406.349a36.639,36.639,0,0,1-4.162.494c-1.454.084-2.9.224-4.356.314-.863.055-6.046-.377-6.747-1.3-.481-1.108,9.931-1.934,10.884-2.03a26.162,26.162,0,0,1,4.468-.132,18.354,18.354,0,0,1,2.033.245c.835.16,6.044.213,4.961,1.029Zm6.088.221c.3-.9-.415-1.045-1.256-.642a13.9,13.9,0,0,0-3.549,2.93c-1.014,1.018-2.065,2-3.116,2.987-1.119,1.047-2.263,2.054-3.334,3.148s-1.9,2.291-3,3.334c-.318.3-.135.8.311.574,1.393-.7,2.823-1.185,4.173-2.01a30.173,30.173,0,0,0,3.8-2.83,26.753,26.753,0,0,0,5.967-7.491Zm67.624-30.309c0,.042.029.434,0,.283-.017-.084.073.327.07.388-.01.247-.063.5-.084.744-.046.537.038,1.074.042,1.612.008,1.213-.015,1.955.077,3.09.015.158.024.316.031.475,0,.11.006.161,0,.187s0,.047.008.114c.018.291.035.583.057.871.044.551.1,1.1.168,1.652.033.259.076.519.1.78.013.14.026.553.026.564,0-.12.013.272.016.313a4.487,4.487,0,0,1-.3,2.013,1.128,1.128,0,0,1-1.906.312,6.382,6.382,0,0,1-1.291-3.61,22.352,22.352,0,0,1-.289-3.813,8.873,8.873,0,0,1,1.359-5.159,3.669,3.669,0,0,1,.482-.819,1.476,1.476,0,0,1,.249-.182c.1-.094.187-.2.28-.294.369-.369.887.063.89.479Zm-5.606,4.527a2.873,2.873,0,0,1,.249,1.71c-.063,2.2-.533,4.4-.8,6.586-.147,1.2-.243,2.4-.473,3.591-.122.64-.28,1.269-.436,1.9a15.206,15.206,0,0,0-.475,1.861.571.571,0,0,1-1.127.038c-.237-1.059-.729-2.05-.938-3.128a13.905,13.905,0,0,1-.187-3.433,26.117,26.117,0,0,1,1.145-6.758c.313-.937.795-2.5,1.828-2.835a1.022,1.022,0,0,1,1.218.466Zm-7.491,6.979a4.651,4.651,0,0,1,.238,1.964,15.178,15.178,0,0,1-.073,1.885c-.125,1.343-.228,2.683-.39,4.022s-.386,2.679-.652,4a5.828,5.828,0,0,1-1.484,3.442,4.73,4.73,0,0,1-.517.561.549.549,0,0,1-.771-.083,5.451,5.451,0,0,1-.8-1.71,7.563,7.563,0,0,1-.026-2.278,33.992,33.992,0,0,1,.665-4.135q.48-2.123,1.095-4.2a15.211,15.211,0,0,1,.714-2.013,4.39,4.39,0,0,1,.995-1.7.658.658,0,0,1,1,.241Zm-47.769,20.023c1.829-2.618,2.216-5.432.88-4.791-1.365.654-4.793,4.033-5.816,5.2a43.7,43.7,0,0,0-2.887,3.595,22.81,22.81,0,0,0-1.921,3.954c-.7,1.546-1.54,3.17-2.23,4.721-1.732,3.888,4.223-2.573,4.283-2.636.985-1.072,1.742-1.782,2.666-2.924a36.6,36.6,0,0,0,5.025-7.122Zm42.6-18.751a23.049,23.049,0,0,1-.995,4.47c-.366,1.443-.7,2.89-1.037,4.337s-.579,2.892-1,4.308a37.155,37.155,0,0,0-1.3,4.254.7.7,0,0,1-1.395-.131c0-1.617-.323-3.188-.318-4.808a25.617,25.617,0,0,1,.534-4.412c.27-1.518.65-3.021,1.055-4.507a15.333,15.333,0,0,1,1.75-4.52,1.506,1.506,0,0,1,2.7,1.009Zm-8.226,4.466a4.081,4.081,0,0,1,.383,2.382,16.954,16.954,0,0,1-.439,2.3,45.42,45.42,0,0,1-1.38,4.331,35.755,35.755,0,0,1-1.8,4.187c-.358.687-.716,1.358-1.13,2.012a15.632,15.632,0,0,1-1.6,1.97c-.157.176-.555.173-.566-.133a17.617,17.617,0,0,1,.339-4.523c.321-1.519.748-3.006,1.212-4.489.455-1.445.9-2.9,1.349-4.343.216-.695.454-1.388.729-2.06a4.707,4.707,0,0,1,1.418-1.994.976.976,0,0,1,1.487.359Zm-6.482,3.369a1.391,1.391,0,0,0-2.22-.847c-1.161.955-1.629,2.592-2.153,3.956-.5,1.31-1.025,2.625-1.5,3.946a22.965,22.965,0,0,0-1.161,4.09,16.481,16.481,0,0,1-1.093,4.208c-.16.354.4.653.6.32a23.791,23.791,0,0,1,2.669-3.4,16.836,16.836,0,0,0,2.372-3.8,39.043,39.043,0,0,0,1.67-4.049c.479-1.344,1.167-2.993.809-4.425Zm-7.607,2.271a22.171,22.171,0,0,1-3.14,9.212,23.909,23.909,0,0,1-2.883,3.764,45.509,45.509,0,0,1-3.661,2.942c-.386.326-.812-.181-.6-.567.733-1.332,1.108-2.8,1.776-4.162s1.473-2.683,2.224-4.023c.7-1.256,1.411-2.521,2.058-3.807a11.024,11.024,0,0,1,2.562-3.827c.737-.59,1.582-.563,1.664.468Zm-8.889,2.8c-.227,3.029-2.821,6.657-4.286,8.332a37.839,37.839,0,0,1-3.263,3.4c-1.187,1.056-2.548,1.852-3.721,2.909-4.2,2.851-1.826-.423-1.2-1.134a37.566,37.566,0,0,0,2.654-3.917c.83-1.218,1.72-2.389,2.565-3.6s1.708-2.409,2.531-3.633c.869-1.292,1.861-2.992,3.466-3.377.784-.188,1.1.3,1.254,1.017Zm52.285-30.7a1.214,1.214,0,0,0-.237-.432,9.56,9.56,0,0,0-3.281-1.828c-.957-.441-1.876-.933-2.788-1.455-1.01-.577-2-1.19-3.018-1.753-.493-.274-.972-.569-1.461-.847a4.252,4.252,0,0,0-.729-.381,2.385,2.385,0,0,0-.952-.018.91.91,0,0,0-.745,1.037,1.808,1.808,0,0,0,.285.949,5.047,5.047,0,0,0,.63.694c.435.427.88.849,1.339,1.249a17.35,17.35,0,0,0,2.86,1.974c1.076.6,2.175,1.165,3.3,1.665a7.819,7.819,0,0,0,3.419.962c-.031.18-.051.363-.077.523a8.4,8.4,0,0,0-.1,1.407,14.315,14.315,0,0,0,.28,3.134,17.646,17.646,0,0,0,1.016,3.062c.416.948,1.152,2.384,2.278,2.637a1.277,1.277,0,0,0,1.725-1.1,3.067,3.067,0,0,0-.291-1.708c-.15-.408-.312-.8-.477-1.2s-.307-.806-.443-1.217l-.01-.025,0-.011c-.026-.1-.054-.2-.08-.3-.052-.2-.1-.4-.144-.6a22.791,22.791,0,0,1-.48-2.6c-.041-.407-.077-.814-.1-1.22-.015-.222-.035-.444-.046-.666a1.857,1.857,0,0,0-.087-.44.1.1,0,0,0,.012.027c-.006-.024-.016-.042-.02-.065-.014-.043-.024-.089-.039-.129a2.046,2.046,0,0,0-.106-.318c0-.021-.006-.041-.008-.061a1.126,1.126,0,0,0-1.418-.943Zm-5.667,2.975c-1.185-1.581-3.061-2.632-4.645-3.778a29.8,29.8,0,0,0-5.076-3.225,1.4,1.4,0,0,0-1.409.231,1.872,1.872,0,0,0-.266.283,1.481,1.481,0,0,0,.048,1.754,23.774,23.774,0,0,0,4.632,3.84c1.595,1.109,3.285,2.522,5.192,3.023a1.37,1.37,0,0,0,1.524-2.128Zm-10.883-.87a19.733,19.733,0,0,0-2.835-2.183c-.934-.584-2.073-1.575-3.255-1.369a1.043,1.043,0,0,0-.838,1.167c.067,1.092,1.276,2.049,1.961,2.811.735.819,1.515,1.626,2.307,2.389s1.59,1.569,2.388,2.351a8.468,8.468,0,0,0,3.012,2.4,1.548,1.548,0,0,0,2.044-1.687,7.137,7.137,0,0,0-2.106-3.249c-.847-.922-1.757-1.778-2.678-2.628Zm-6.727,3.538c1.164.923,7.6,8.263,4.813,8.429-1.044.155-3.009-2.058-4.015-2.955-.958-.857-1.926-1.706-2.917-2.522s-2-1.625-2.972-2.475c-.888-.778-3.672-2.489-4.061-3.658-.839-2.516,5.223.653,5.8.958a22.009,22.009,0,0,1,3.352,2.223Zm-.644,10.585c3.03-.416-2.421-4.155-3.333-4.848a27.666,27.666,0,0,0-3.559-2.349,18.093,18.093,0,0,0-4.969-2.181,6.243,6.243,0,0,0-1.94-.417c-.432.007-.824.5-.479.891a7.332,7.332,0,0,0,1.548,1.166,15.528,15.528,0,0,1,1.66,1.3,37.724,37.724,0,0,0,3.453,2.459c1.173.8,2.368,1.575,3.536,2.383a8.71,8.71,0,0,0,4.083,1.6Zm-6.942,1.2a28.449,28.449,0,0,0-3.42-2.456,26.9,26.9,0,0,0-3.695-1.87,23.678,23.678,0,0,0-3.873-1.162,10.351,10.351,0,0,0-4-.262.588.588,0,0,0-.245,1.041,16.1,16.1,0,0,0,3.238,1.9c1.126.606,2.285,1.148,3.415,1.748,2.254,1.193,4.59,2.261,6.8,3.536,1.681.973,4.495.541,1.777-2.472Zm-8.085,4.6a1.184,1.184,0,0,1-1.177,1.64c-1.568-.03-2.806-.871-4.165-1.554-1.331-.668-2.671-1.312-3.984-2.017-1.261-.676-2.562-1.286-3.87-1.872s-2.842-.846-3.942-1.765c-.24-.2-.284-.691.083-.806,1.431-.451,2.951-.013,4.4.209a35.57,35.57,0,0,1,4.6,1.042,22.03,22.03,0,0,1,4.449,1.941c1.46.806,2.885,1.611,3.607,3.182Zm-9.534,4.687c.138-1.738-2.236-3.125-3.593-3.763-3.115-1.467-11.95-4.386-14.724-4.262-.354.015-.356.475-.153.657,1.078.973,3.589,1.675,4.859,2.345,1.292.684,2.582,1.39,3.834,2.143a35.222,35.222,0,0,0,4.069,2.008c.667.292,1.331.567,2,.841a6.281,6.281,0,0,0,1.794.664c.634.062,1.857.005,1.91-.633Zm-7.934,2.819c.226-.627-1.024-1.314-1.473-1.576-.648-.38-1.314-.735-1.979-1.082a43.705,43.705,0,0,0-4.542-1.931c-1.531-.589-3.072-1.175-4.642-1.655-.839-.256-1.86-.18-2.7-.427-1.5-.434-6.089-.093-5.678.729.452.9,3.77,1.8,4.682,2.125.826.292,1.656.575,2.481.864,1.551.545,3.136,1,4.713,1.464,1.594.469,3.17.954,4.8,1.288.73.149,1.469.288,2.206.392.512.073,1.906.445,2.135-.191Zm-11.176,2.921a.408.408,0,0,1-.251.655c-1.521.1-3.04-.835-4.51-1.133-1.6-.324-3.18-.6-4.772-.96-1.562-.356-3.094-.843-4.663-1.164-1-.206-5.7-1.455-5.347-2.6.781-1.69,4.664-1.126,6.121-.857a25.31,25.31,0,0,1,4.944,1.332,30,30,0,0,1,4.3,2.284c.756.457,1.52.834,2.317,1.215A5.636,5.636,0,0,1,1013.744,1466.013Z" fill="#30736a" fill-rule="evenodd"/>
    </g>
    <g id="Group_323" data-name="Group 323" transform="translate(573.49 -1634.213) rotate(60)">
      <path id="Path_713-2" data-name="Path 713" d="M1353.372,1344.488c-6.811,2.59-13.613,5.223-20.266,8.2-3.236,1.446-6.418,2.995-9.617,4.517a49.253,49.253,0,0,1-4.574,1.967c-1.523.546-3.136.784-4.6,1.475a.719.719,0,0,0,.173,1.309c3.576.778,19.819-5.516,23.686-7.089a138.862,138.862,0,0,0,16.263-7.779C1355.787,1346.322,1354.912,1343.9,1353.372,1344.488Z" fill="#8cb579" fill-rule="evenodd"/>
      <path id="Path_714-2" data-name="Path 714" d="M1267.57,1343.724c-2.991,3.739-6.353,7.22-9.464,10.864q-4.781,5.6-9.444,11.3c-3.082,3.784-6.164,7.57-9.171,11.417-1.549,1.981-2.888,4.611-4.505,6.547-2.2,3.308-8.541,9.246-6.375,4.028,1.093-1.552,2.137-3.139,3.176-4.727,4.207-6.936,7.988-14.11,12.591-20.824a92.238,92.238,0,0,1,8.023-10.213c3.975-4.338,8.244-7.129,12.581-11.05C1271.547,1336.873,1269.026,1341.9,1267.57,1343.724Z" fill="#6d915c" fill-rule="evenodd"/>
      <path id="Path_715-2" data-name="Path 715" d="M1248.752,1342.515a82.237,82.237,0,0,0-7.1,11.005q-3.528,6.2-7.033,12.424c-2.3,4.069-4.616,8.132-6.9,12.213-2.374,4.247-5.086,8.451-7.007,12.925-.485,1.129,1.094,2.41,1.9,1.285.421-.586.8-1.2,1.2-1.807,1.721-1.107,2.8-3.162,3.906-4.828q1.872-2.814,3.736-5.637,4.02-6.058,8.038-12.12c4.97-7.494,10.465-15.071,11.829-24.183C1251.529,1342.416,1249.725,1341.3,1248.752,1342.515Z" fill="#587849" fill-rule="evenodd"/>
      <path id="Path_716-2" data-name="Path 716" d="M1267.595,1346.585c-5.687,6.044-11.226,12.219-16.316,18.781q-3.675,4.74-6.981,9.742c-1.151,1.749-2.253,3.535-3.334,5.328-.288.478-.586.955-.881,1.437a21.027,21.027,0,0,0-1.892,2.681c-.682,1.174.775,2.9,1.993,1.994a53.973,53.973,0,0,0,4.536-4.249c1.577-1.488,3.117-3.005,4.66-4.529,2.994-2.956,6-5.905,8.816-9.032,5.229-5.806,10.482-12.706,12.365-20.443A1.787,1.787,0,0,0,1267.595,1346.585Z" fill="#8cb579" fill-rule="evenodd"/>
      <path id="Path_717-2" data-name="Path 717" d="M1278.232,1339.244c.41-2-2.318-3.3-3.412-1.413-4.8,8.257-9.472,16.6-14.359,24.8a113.3,113.3,0,0,1-7.861,11.483c-2.857,3.683-6.081,7.228-8.476,11.239-.444.745.52,1.332,1.118.865.657-.513,1.277-1.079,1.9-1.636a.674.674,0,0,0,.676-.084c1.915-1.381,3.658-2.982,5.489-4.472s3.664-2.944,5.362-4.572a66.6,66.6,0,0,0,8.876-10.643A70.849,70.849,0,0,0,1278.232,1339.244Z" fill="#6d915c" fill-rule="evenodd"/>
      <path id="Path_718-2" data-name="Path 718" d="M1326.186,1392.908a141.759,141.759,0,0,1-27.785-2.619c-2.3-.61-4.608-1.21-6.912-1.815-2.714-.714-27.02-7.991-27.469-7.92,1.179-.791-1.249-.677-.124-1.574,1.7-1.357,3.5-2.6,5.268-3.863a77.485,77.485,0,0,0,9.715-7.962c.831-.823,1.586-1.716,2.374-2.578-.247.365-.487.74-.728,1.117a15.476,15.476,0,0,0-3.206,8.2c-.052.853,1.038.926,1.45.383a21.054,21.054,0,0,0,1.739-2.829,110.239,110.239,0,0,1,8.235-9.607,126.685,126.685,0,0,0,9.434-9.968,71.286,71.286,0,0,0,13.313-24.532c2.312-7.187-2.1-2.868-3.071-1.274-5.3,8.689-10.4,17.545-16.906,25.408q-1.4,1.7-2.816,3.388a73.368,73.368,0,0,0,4.856-8.737c.654-1.42-.851-3.619-2.438-2.44-6.6,4.905-11.769,11.213-16.861,17.6-2.535,3.182-5.036,6.382-7.7,9.464a44.954,44.954,0,0,1-8.977,8.7c-4.1,3.065-2.03,2.27,7.324,5.594,7.874,2.8,21.495,5.877,24.846,6.6,1.881.405,3.767.785,5.656,1.152,5.81,1.527,11.616,3.23,17.5,4.444,4.733.978,9.85,1.293,14.07-1.462A1.55,1.55,0,0,0,1326.186,1392.908Z" fill="#6d915c" fill-rule="evenodd"/>
      <path id="Path_719-2" data-name="Path 719" d="M1322.5,1331a277.415,277.415,0,0,0-20.116,19.672c-3.165,3.4-6.3,6.831-9.334,10.344-2.947,3.406-6.512,6.878-8.617,10.893-.352.672.406,1.619,1.123,1.122.508-.352.972-.778,1.455-1.174a1.1,1.1,0,0,0,1.339-.021c14.295-10.648,26.5-24.279,37.069-38.584C1330.128,1326.867,1324.345,1328.747,1322.5,1331Z" fill="#587849" fill-rule="evenodd"/>
      <path id="Path_720-2" data-name="Path 720" d="M1328.936,1335.2c-5.945,4.574-10.962,10.139-15.939,15.716-2.459,2.754-4.917,5.517-7.493,8.162a89.429,89.429,0,0,1-8.058,7.893c-.8.637.247,2,1.1,1.426.991-.67,1.964-1.33,2.926-1.995a.9.9,0,0,0,.756.063c1.574-.566,1.24-2.335,2.619-3.256,1.466-.981,2.978-1.888,4.455-2.848a60.875,60.875,0,0,0,9.041-7.523,93.454,93.454,0,0,0,13.1-16.127C1336.1,1329.086,1330.416,1334.06,1328.936,1335.2Z" fill="#8cb579" fill-rule="evenodd"/>
      <path id="Path_721-2" data-name="Path 721" d="M1339.73,1332.364c-5.377,4.92-10.727,9.879-15.811,15.1-2.472,2.538-4.857,5.153-7.27,7.747a49.164,49.164,0,0,1-3.527,3.517c-1.212,1.068-2.624,1.886-3.731,3.069a.72.72,0,0,0,.644,1.153c3.61-.6,16.384-12.441,19.4-15.33a138.569,138.569,0,0,0,12.244-13.233C1342.649,1333.178,1340.943,1331.252,1339.73,1332.364Z" fill="#8cb579" fill-rule="evenodd"/>
      <path id="Path_722-2" data-name="Path 722" d="M1359.357,1335.271c-3.593,1.652-7.14,3.4-10.662,5.2-4.214,1.661-8.517,3.133-12.621,5.054a43.687,43.687,0,0,0-10.2,6.467c-3.2,2.753-6.205,5.965-10.181,7.574a1.037,1.037,0,0,0,.693,1.954c1.222-.427,16.12-8.262,17.918-9.337q4.245-2.539,8.582-4.924c2.3-1.263,4.621-2.464,6.95-3.657a64.243,64.243,0,0,0,11.009-5.383C1362.41,1337.219,1361.1,1334.47,1359.357,1335.271Z" fill="#6d915c" fill-rule="evenodd"/>
      <path id="Path_723-2" data-name="Path 723" d="M1360.045,1349.22c-4.59,1.365-9.08,3.171-13.628,4.682-4.659,1.548-9.331,3.058-14.025,4.5-4.665,1.434-9.333,2.864-14.028,4.2-2.417.689-5.359.941-7.76,1.711-3.891.791-11.779,4.435-6.131,4.392,1.852-.43,3.713-.8,5.576-1.164,8.008-1.29,16.076-2.095,24.03-3.834a92.247,92.247,0,0,0,12.48-3.594c5.514-2.052,9.706-4.956,14.972-7.5C1367.888,1348.112,1362.278,1348.555,1360.045,1349.22Z" fill="#6d915c" fill-rule="evenodd"/>
      <path id="Path_724-2" data-name="Path 724" d="M1344.434,1365.815a79.6,79.6,0,0,1-28.709,5.623c-9.43.04-19.246-2.589-28.454.326-1.129.358-.5,2.089.6,1.923,3.242-.493,19.185,1.3,22.2,1.681a121.183,121.183,0,0,0,14.229,1.437c8.21.071,16.743-1.9,22.305-8.352C1347.845,1367.017,1345.935,1365.225,1344.434,1365.815Z" fill="#587849" fill-rule="evenodd"/>
      <path id="Path_725-2" data-name="Path 725" d="M1339.306,1379.54c-9.994-.513-20.016-1.01-29.932-2.43-4.812-.689-9.589-1.611-14.324-2.722-3.855-.9-7.832-1.717-11.745-.9-.43.049-.862.1-1.3.188-1.756.368-1.333,3.148.439,3.1,4.967-.145,9.6,1.536,14.3,2.9,5,1.444,10.049,2.744,15.171,3.688,9,1.657,19.623,3.228,28.263-.633C1341.863,1381.969,1340.84,1379.618,1339.306,1379.54Z" fill="#8cb579" fill-rule="evenodd"/>
      <path id="Path_726-2" data-name="Path 726" d="M1333.094,1385.684c-11.045.83-21.8-.346-32.644-2.426-7.8-1.5-15.936-3.461-24-3.6-4.033-1.139-11.755-3.022-10.624,2.044a1.373,1.373,0,0,0,2.317.5,1.274,1.274,0,0,0,.5.13q2.9.133,5.8.35c.54.125,1.082.237,1.621.368,2.838.686,5.661,1.443,8.479,2.21,5.806,1.581,11.6,3.219,17.51,4.388,10.443,2.073,21.417,2.654,31.652-.738A1.664,1.664,0,0,0,1333.094,1385.684Z" fill="#8cb579" fill-rule="evenodd"/>
      <path id="Path_727-2" data-name="Path 727" d="M1298.707,1404.306c-9.572-4.443-20.158-5.375-30.471-6.859a97.264,97.264,0,0,1-15.489-3.3c-5.272-1.661-10.1-4.272-15.258-6.2a.967.967,0,0,0-1.323.682,1.194,1.194,0,0,0-.765,1.67c1.323,2.186,3.466,3.551,5.613,4.886a52.3,52.3,0,0,0,6.993,3.614,74.514,74.514,0,0,0,15.716,4.548c11.337,2.109,22.924,2.3,34.3,4.165C1299.984,1407.838,1300.283,1405.04,1298.707,1404.306Z" fill="#587849" fill-rule="evenodd"/>
      <path id="Path_728-2" data-name="Path 728" d="M1295.509,1415.954c-12.72-3.532-25.492-6.948-38.148-10.709a88.6,88.6,0,0,1-17.667-7.039c-4.905-2.7-10.43-6.906-16.351-6.032-.691.1-.488,1.015.008,1.209a70.111,70.111,0,0,1,8.938,4.036c6.271,3.528,9.94,6.9,18.409,10.906a153.207,153.207,0,0,0,14.236,5.964c9.684,3.436,19.891,5.485,30.2,4.705A1.553,1.553,0,0,0,1295.509,1415.954Z" fill="#6d915c" fill-rule="evenodd"/>
      <g id="Group_320-2" data-name="Group 320">
        <path id="Path_729-2" data-name="Path 729" d="M1265.675,1422.2c-3.974-2.617-7.472-5.409-11.775-6.97-3.361-1.865-6.737-3.708-10.046-5.668a95.458,95.458,0,0,1-10.271-6.814c-2.851-2.231-6.422-5.83-9.348-8.427-.935-1.425-3.939-2.229-2.387.473,2.306,4.729,2.715,3.628,6.658,8.54,1.357,1.7,2.752,3.367,4.2,4.986a65.649,65.649,0,0,0,9.122,8.5c6.641,5.046,14.681,8.356,23.11,8.156A1.5,1.5,0,0,0,1265.675,1422.2Z" fill="#587849" fill-rule="evenodd"/>
        <path id="Path_730-2" data-name="Path 730" d="M1225.426,1399.508" fill="#aa130e" fill-rule="evenodd"/>
      </g>
      <path id="Path_731-2" data-name="Path 731" d="M1309.438,1394.592a79.641,79.641,0,0,1-29.177-2.126c-9.11-2.441-17.887-7.561-27.538-7.17-1.181.049-1.031,1.886.074,2.014,3.257.375,18.171,6.295,20.979,7.461a121.1,121.1,0,0,0,13.35,5.129c7.9,2.228,16.655,2.567,23.716-2.192C1312.413,1396.649,1311.04,1394.417,1309.438,1394.592Z" fill="#6d915c" fill-rule="evenodd"/>
      <path id="Path_732-2" data-name="Path 732" d="M1321.879,1355.005c-4.168,2.236-8.343,4.336-12.677,6.242-4.47,1.966-9.052,3.669-13.584,5.486-9.7,3.891-19.21,7.371-28.907,11.283-4.405,1.777-9.058,3.834-13.753,4.658-4.8.843-9.68,1.069-14.421,2.253-4.694,1.174-9.213,2.937-13.808,4.436q-6.779,2.208-13.749,3.755c-.907.2-2.559.084-3.469.268-1.815,3.38,1.757,4.841,3.659,4.012,3.645-1.588,7.347-1.933,11.1-3,4.625-1.345,9.135-3.039,13.746-4.425a97.475,97.475,0,0,1,15.016-2.79,60.532,60.532,0,0,0,13.728-3.615c9.865-3.811,20.288-7.488,30.067-11.517,10.164-3.321,20.56-7.335,28.387-15.314C1324.206,1355.913,1322.94,1354.436,1321.879,1355.005Z" fill="#756628" fill-rule="evenodd"/>
    </g>
  </g>
</svg>
