<svg xmlns="http://www.w3.org/2000/svg" width="194.172" height="94.577" viewBox="0 0 194.172 94.577">
  <g id="Group_248" data-name="Group 248" transform="translate(-1290.754 -358.96)">
    <g id="Group_247" data-name="Group 247">
      <g id="Group_233" data-name="Group 233" transform="translate(-1 25)">
        <path id="Path_200" data-name="Path 200" d="M34.237,21.157c-.76-.743-1.523-1.481-2.227-2.166-.014-.295.053-.554-.045-.664-.45-.506-.96-.957-1.419-1.455a1.818,1.818,0,0,0-1.2-.639c-.313-.036-.141-.533-.274-.726a12.256,12.256,0,0,0-1.141-1.275c.081-.6-.144-.892-.786-.858-.119.008-.366-.237-.357-.352a1.121,1.121,0,0,0-.484-.974.237.237,0,0,1-.025-.194c.581-.295.355-1.045.813-1.416a10.8,10.8,0,0,0,.828-.816l-.549-.616c.563-.554.563-.558.558-1.222a.816.816,0,0,1,.259-.768c.155-.112.262-.29.417-.4A1.232,1.232,0,0,0,29.1,5.364c-.02-.191.016-.388-.008-.58a.835.835,0,0,1,.332-.738c.282-.265.549-.544.837-.833V1.2c0-.412-.034-.557-.44-.578a1.514,1.514,0,0,1-.952-.533.724.724,0,0,0-.78.065c-.414.408-.823.82-1.233,1.231-.016.873-.766,1.245-1.22,1.824-.093.119-.012.374-.012.572-.971.951-1.937,1.9-2.875,2.818-.062.507,0,1-.729,1-.428,0-.428.093-.487.537-.054.412-.18.611-.433.6-.374-.016-.858.174-1.1-.116-.344-.409-.844-.36-1.213-.608-.315-.211-.533-.563-.836-.8a1.251,1.251,0,0,1-.493-1.251.6.6,0,0,0-.338-.7,2.232,2.232,0,0,0-.654-.045C15.353,4.1,14.193,2.94,13,1.744H11.342c-.3-.25-.481-.611-.954-.578-.578.042-1.161.009-1.743.012-.312,0-.476.138-.481.546,0,.343-.14.561-.44.6-.285.04-.555.045-.727.315a6.2,6.2,0,0,0,.619.609,1.746,1.746,0,0,1,.623,1.2c.039.214.259.264.481.219a.437.437,0,0,1,.575.444c-.014.459.4.639.506.958s-.526.443-.5.885c.014.212.014.386.191.506a.94.94,0,0,1,.408,1,3.912,3.912,0,0,0,0,.572,5.73,5.73,0,0,0,.836.813c.467.3.172.921.6,1.219a.715.715,0,0,1,.3.448c.039.481-.011.969.028,1.45a.775.775,0,0,0,.3.445.9.9,0,0,1,.27.768,1.239,1.239,0,0,1-.336,1.031,1.455,1.455,0,0,1-1.247.529,6.923,6.923,0,0,0-1.126.074c-.456.732-1.188.448-1.828.492a8.067,8.067,0,0,0-.868.017.849.849,0,0,0-.442.316c-.211.268-.487.243-.772.254s-.611-.118-.8.155a1.211,1.211,0,0,1-1.282.417.613.613,0,0,0-.51.185c-.481.411-.492.4-.992.4a3.722,3.722,0,0,0-.574.022c-.077.012-.2.127-.2.2-.009.887-.764,1.255-1.25,1.825.276.265.555.533.9.865H3.121c1.549,0,3.1.031,4.647-.014A1.447,1.447,0,0,1,9,21.5c.11.126.616.012.78-.141.14-.13.265-.276.4-.414.622.589.622.586,1.227.592.771.008,1.541.017,2.311.042a.287.287,0,0,1,.2.2,1.428,1.428,0,0,0,.625,1.2v1.135c.211.229.406.439.6.656v4.624c.226.3.614.461.586.937-.039.671-.009,1.344-.009,1.974l.861.862a1.713,1.713,0,0,0,1.8-.566c.033-.045.186-.012.282-.006.354.02.51-.174.546-.495.011-.1-.033-.212.006-.287.206-.4.721-.637.6-1.22-.017-.076.242-.26.4-.318.735-.267.74-.259.74-.887V28.233l1.2-1.2v-4c.323-.363.58-.65.808-.906H25.27c.36.211.5.609.986.588.864-.043,1.731-.014,2.545-.014.323.3.527.6.989.6.637,0,1.372-.264,1.838.468a.219.219,0,0,0,.194-.02,1.224,1.224,0,0,1,1.264-.468c.476.043.688-.188.668-.664-.014-.333.3-.457.465-.679A.73.73,0,0,0,34.237,21.157ZM13.306,5.03a.413.413,0,0,1-.448.225c-.453-.016-.619-.164-.634-.625,0-.091,0-.181,0-.273a4.825,4.825,0,0,1-.448-.434c-.04-.05-.091-.14-.073-.178.109-.216.225-.234.364-.115a.37.37,0,0,1,.146.453c-.011.028-.169.025-.245,0,.256.188.229.031.261.019a.377.377,0,0,1,.47.163c.172.208.383.383.568.582A.212.212,0,0,1,13.306,5.03Zm1.529,7.192c-.022.011-.122-.119-.189-.186-.064-.127,0-.265.2-.377.023-.012.138.112.186.186C15.108,11.968,15.04,12.109,14.835,12.222Z" transform="matrix(0.875, 0.485, -0.485, 0.875, 1379.642, 352.886)" fill="#ffbb59" fill-rule="evenodd"/>
        <path id="Path_150" data-name="Path 150" d="M24.292,35.467c.239-.207.4-.524.807-.475a3.19,3.19,0,0,0,.749,0c.622-.072,1.347.3,1.834-.407a.292.292,0,0,1,.209-.085c.5-.008,1-.009,1.5,0s.99.068,1.33-.437c.06-.085.3-.063.463-.063,1.834,0,3.667,0,5.5-.014.111,0,.263-.18.32-.309.1-.216-.054-.654-.213-.642a1.213,1.213,0,0,1-1.034-.537c-.494.141-.724-.268-1.042-.5-.5.112-.753-.268-1.008-.57A1.1,1.1,0,0,0,32.63,31a.692.692,0,0,1-.641-.268c-.225-.246-.464-.481-.709-.7A.33.33,0,0,0,31.044,30c-.413.063-.515-.373-.8-.492-.208-.086-.5.076-.668-.2-.2-.322-.532-.323-.852-.354-.245-.369-.652-.405-1.021-.554-.285-.114-.493-.437-.714-.686-.123-.141-.244-.255-.41-.216-.493.122-.586-.578-1.043-.5a.417.417,0,0,1-.438-.161,6.5,6.5,0,0,0-.527-.531c-.118-.111-.247-.208-.37-.311-.477-.03-1.017.163-1.341-.395-.018-.033-.153-.048-.166-.026-.4.626-1.03.412-1.579.408-.4,0-.577.255-.854.514-1.868,0-3.778-.014-5.69.01-.413,0-.539-.326-.813-.485-.1.1-.217.208-.337.315a.8.8,0,0,1-.675.137c-.186-.133-.365-.411-.531-.4-.2.016-.356.331-.571.4a1.582,1.582,0,0,1-.743.005,1.02,1.02,0,0,1-.394-.246c-.265-.2-.267-.211-.532.044-.06.057-.118.116-.194.192L9.249,26H7.737l-.852-.881a.566.566,0,0,0-.45-.129c-.412,0-.405-.03-1.085-.392a4.959,4.959,0,0,0-.671-.188c-.191-.069-.229-.452-.528-.29a1.869,1.869,0,0,0-.374.363c-.35-.331-.7-.66-1.045-.984-.486-.03-1.018.158-1.358-.38-.088-.137-.227-.08-.349.115-.114.179-.239.241-.353.174a.348.348,0,0,1-.162-.431.384.384,0,0,0-.188-.425A.687.687,0,0,1,0,21.93c.031-.407.008-.82.008-1.174L.755,20H2.774a1.016,1.016,0,0,0,1.034.5,2.888,2.888,0,0,1,.5-.007c.3,0,.3,0,.841.387.286.207.467.179.852-.128.065-.051.109-.132.179-.171.111-.063.23.014.353.182.05.068.114.167.177.171.492.03.986.064,1.477.046.128-.005.251-.187.375-.286a.594.594,0,0,1,.852-.044c.122.112.225.244.319.349h3.044a1.021,1.021,0,0,0,1.039.5c.154-.027.412-.042.469.042.481.71,1.2.366,1.821.462a.731.731,0,0,1,.394.241.888.888,0,0,0,.65.264c.128.013.354.19.344.269-.071.616.459.829.765,1.217.566,0,1.149-.025,1.728.008a.494.494,0,0,0,.527-.629c-.041-.25-.205-.383-.519-.379-.166,0-.333,0-.5,0-.082,0-.163-.008-.244-.01L16.067,19.8a5.692,5.692,0,0,0-.715-.7c-.18-.124-.5-.064-.656-.2-.361-.31-.8-.6-.728-1.2.007-.05-.1-.159-.169-.167a1.429,1.429,0,0,1-.864-.348c-.52-.485-.877-1.216-1.726-1.251Q10.5,15.238,9.8,14.529c-.459.044-.728-.244-1.043-.516-.29-.254-.143-.624-.346-.864a9.708,9.708,0,0,0-.7-.709c-.241-.23-.488-.45-.682-.628-.03-.322.043-.56-.195-.766-.377-.324-.718-.693-1.063-1.056A.788.788,0,0,1,5.521,9.6C5.437,8.788,4.893,8.533,4.2,8.426c-.065-.009-.177-.123-.169-.167.1-.486-.247-.744-.52-1.041a.857.857,0,0,0-.367-.851c-.314-.273-.569-.616-.9-.869-.356-.275-.11-.8-.518-1.049a3.057,3.057,0,0,1-.536-.522.6.6,0,0,1-.012-.852c.108-.123.22-.243.341-.377V1.266L2.787,0h1.48l1.42,1.421c.835.051,1.209.756,1.734,1.241.55.509,1.068,1.051,1.6,1.574,0,.18-.071.408.012.5a11.473,11.473,0,0,0,1.237,1.233c.157.132.546-.094.652.2A1.959,1.959,0,0,0,11.452,7.2c.312.244.677.509.558,1.012l.51.556c0,.486-.007.986.007,1.484a.245.245,0,0,0,.17.169,1.475,1.475,0,0,1,1.195.724c.129.173.075.482.2.658.188.261.431.446.445.832.005.192.35.354.409.567.085.309.021.654.078.973.024.123.216.312.314.3.618-.054.812.484,1.173.786a.817.817,0,0,0,.365.851c.222.171.038.513.191.662a1.159,1.159,0,0,1,.447,1.073.619.619,0,0,0,.247.645c.119-.119.234-.239.356-.352.051-.047.139-.125.173-.109a.4.4,0,0,1,.225.4c-.008.416,0,.833,0,1.254.345.309.5.88,1.13.812a.3.3,0,0,1,.209.089,4.6,4.6,0,0,1,.7.711c.226.333.639.051.871.341.205.259.472.468.7.715.133.148.243.14.352-.076a.629.629,0,0,0,.041-.234c.007-.084.034-.192-.005-.244a3.982,3.982,0,0,1-.473-.557c-.1-.2.065-.481-.186-.677a.667.667,0,0,1-.344-.608c.035-.411.008-.826.008-1.235A1.065,1.065,0,0,1,21,17.67a6.141,6.141,0,0,0-.043-.977c-.5-.247-.34-.879-.7-1.212a.651.651,0,0,1-.234-.4q-.029-1.624,0-3.249c0-.128.18-.255.278-.38a1.348,1.348,0,0,0,.063-1.352,4.531,4.531,0,0,0-.353-.357V7.233c.111-.107.235-.217.349-.34.132-.141.231-.591.116-.667a1.265,1.265,0,0,1-.468-1.313.515.515,0,0,1,.235-.405.684.684,0,0,0,.272-.637.973.973,0,0,1,.254-.9c.494-.446.949-.936,1.451-1.438.208-.012.448-.042.689-.034a1.018,1.018,0,0,1,.452.1c.648.363.645.371,1.09.39.324.013.557.154.557.339,0,.416-.022.835.008,1.249.038.549-.229,1.185.411,1.579a7.108,7.108,0,0,1,.081,1.715,2.082,2.082,0,0,1-.016.744c-.069.214-.382.374-.4.574-.013.165.282.335.38.532a.808.808,0,0,1,.029.484c-.1.485.195.766.51,1.037v1.5c.651.639.647.65.106,1.387a.55.55,0,0,0-.031.668c.192.258.486.439.426.83a3.175,3.175,0,0,0,0,.5c0,.333.009.667,0,1-.02.558.18,1.181-.45,1.564.139.18.277.362.442.58v1.445c.292.29.587.548.524,1.042a11.692,11.692,0,0,0-.014,1.483c-.129.129-.248.246-.363.366a.721.721,0,0,0-.094.675q.706.71,1.413,1.416c-.047.792.673,1.064,1.059,1.562.174.226.416.195.652.245.255.054.316.28.348.552.055.469.146.506.384.285.12-.114.227-.241.34-.361a17.051,17.051,0,0,1,1.241,1.262c.285.354.8.119,1.046.519.213.349.587.2.9.23a1.424,1.424,0,0,1,.248.005.321.321,0,0,1,.195.123c.205.458.732.268,1.037.526.408.346.413.34.855.348.084,0,.167,0,.25,0a.654.654,0,0,1,.244.014.374.374,0,0,1,.175.173c.209.448.773.178,1.039.524.15.2.362.345.522.539.137.166.241.231.357.15a.414.414,0,0,0,.157-.438,6.864,6.864,0,0,1-.005-.713,7.1,7.1,0,0,0-.561-.552,1.069,1.069,0,0,1-.442-1.071.648.648,0,0,0-.26-.643c-.065-.05-.152-.107-.171-.176a1.931,1.931,0,0,1-.064-.475,13.634,13.634,0,0,1,.008-1.5,1.114,1.114,0,0,0-.481-1.056,5.922,5.922,0,0,1-.018-.986,1.06,1.06,0,0,0-.511-1.033V17.747c.118-.119.243-.23.353-.354.224-.256.2-.522-.06-.852-.1-.126-.275-.25-.28-.379-.029-.667.013-1.336-.022-2a.973.973,0,0,1,.424-.829,1.706,1.706,0,0,1,.7-1.211.6.6,0,0,1,.45-.132c.387.014.388,0,1.084.408.065.039.142.1.208.094.584-.055.7.281.645.761.493.877.494.877.5,1.294a5.52,5.52,0,0,1-.007.749c-.05.377.182.583.379.851.224.3.182.74.529,1.039.242.208.073.624.1.947a2.392,2.392,0,0,0,.013.5.892.892,0,0,0,.267.386.53.53,0,0,1,.224.411c0,1,.005,2-.007,3,0,.184-.012.367.135.442.5.256.218.957.7,1.215.171.09.187.238.175.43-.024.414-.008.83-.008,1.229.2.265.524.4.51.815-.03.909-.009,1.823-.009,2.691.254.276.524.452.51.852-.033.831,0,1.666-.021,2.5,0,.136-.145.272-.238.4-.216.294-.195.272.02.535a1.981,1.981,0,0,0,1.028.554c.282.093.49.434.713.682.123.137.242.252.405.228.4-.058.54.322.814.458a1.825,1.825,0,0,0,.728.046c.25.005.5,0,.763,0,.293.255.535.625,1.03.5a.765.765,0,0,1,.855.348,1.047,1.047,0,0,0,.208.163h2.447c.258.225.424.546.825.486a1,1,0,0,1,1.079.413,4.921,4.921,0,0,0,.714.077.708.708,0,0,1,.638.279.481.481,0,0,0,.405.23c.333,0,.668.012,1-.007.186-.01.354-.009.446.131a1.013,1.013,0,0,0,1.1.369.411.411,0,0,1,.437.158.886.886,0,0,0,.855.367c.171-.007.318.383.234.633-.046.132-.19.332-.292.333-1.662.021-3.323.014-4.946.014-.276-.247-.447-.562-.849-.5a2.186,2.186,0,0,1-.5,0c-.549-.051-1.182.217-1.582-.414-.033-.051-.137-.072-.213-.081-.622-.078-1.348.262-1.813-.454-.575-.016-1.153-.054-1.73-.042-.507.01-.995.021-1.3-.488-.473.084-.752-.222-1.035-.519a.807.807,0,0,1-.851-.362A.31.31,0,0,0,45.208,37c-.5,0-.99.021-1.484.034-.309.518-.812.5-1.31.455a1.143,1.143,0,0,0-1.087.42c-.074.092-.306.1-.455.078a1.056,1.056,0,0,0-1.063.462.97.97,0,0,0-.981.537H36.777a3.248,3.248,0,0,0-.541-.479.554.554,0,0,0-.479.014,1.445,1.445,0,0,0-.527.523c-.293.592-1.124.286-1.395.879a5.007,5.007,0,0,1-.72.064.685.685,0,0,0-.63.293.47.47,0,0,1-.414.216c-.332-.008-.667.013-1-.008-.187-.012-.349,0-.441.144-.271.431-.693.391-1.1.356a.427.427,0,0,0-.435.169,2.616,2.616,0,0,1-.348.327H26.753c-.243-.242-.247-.239-.893-.084-.073.018-.14.09-.21.09-1.251.005-2.5.013-3.75,0-.265,0-.37-.361-.577-.408a4.3,4.3,0,0,0-1.216-.076c-.4.023-.573-.262-.83-.492H16.811c-.187-.177-.375-.337-.54-.516a.781.781,0,0,1-.248-.39c-.027-.583-.027-1.169,0-1.749.008-.135.17-.26.261-.387a1.7,1.7,0,0,1,1.022-.56c.273-.081.429-.454.825-.431.256.017.363-.344.573-.407a3.962,3.962,0,0,1,.97-.077c.248-.01.5-.005.749,0,.3,0,.3,0,.822-.485H22.7c.14-.123.264-.23.384-.339a.607.607,0,0,1,.855,0C24.056,35.275,24.175,35.371,24.292,35.467ZM7.29,6.989c.067.024.2.027.212,0a.321.321,0,0,0-.127-.39c-.118-.1-.218-.086-.312.1-.016.034.029.111.063.153s.1.114.831.442A.672.672,0,0,0,7.73,7c-.21-.1-.314,0-.21.21a.66.66,0,0,0,.292.226C7.831,7.451,7.967,7.315,7.29,6.989Zm15,7c.067.022.2.027.213,0a.323.323,0,0,0-.127-.388c-.119-.1-.218-.086-.312.1-.017.034.027.112.061.154a7.434,7.434,0,0,1,.614,1.619c.059-.044.156-.078.17-.135a1.815,1.815,0,0,0,.021-1.168A.3.3,0,0,0,22.76,14c-.244-.1-.242.008-.275.239-.027.192-.3.349-.458.52C22.272,15.006,22.506,15.24,22.291,13.991ZM6.748,23.485c.115-.107.229-.214.345-.319.431-.4.433-.4.25-.587s-.345-.345-.607-.607c-.174.327-.536.458-.681.82.233.233.463.463,5.7,1.7.3-.437.33-.573.166-.832s-.471-.077-.664-.182c-.875-.468-.868-.481-1.28-.481-.822,0-1.645,0-2.467.01a.543.543,0,0,0,.005.234c.178.345.672.123.817.358.333.54,1.134.247,1.386.855.233.041.469.114.671-.086.059-.058.112-.119.175-.174a.585.585,0,0,1,.842-.051C11.527,24.256,11.641,24.377,6.748,23.485ZM22.816,38.5c.065,0,.545-.042,1.025-.077.31-.523.821-.422,1.3-.422.328,0,.656,0,.983,0,.233,0,.39-.209.39-.5s-.15-.5-.38-.5a.755.755,0,0,0-.448.09,1.115,1.115,0,0,1-.82.415c-.818-.031-1.638-.02-2.457,0a.649.649,0,0,0-.386.239.852.852,0,0,1-.637.263c-.127.01-.242.161-.363.248.132.078.256.214.395.227C21.742,38.522,22.071,38.5,22.816,38.5Zm7.745-1.7c-.12-.122-.178-.227-.235-.229q-1.312-.016-2.623,0c-.059,0-.129.1-.17.166-.08.133,0,.6.127.655a.862.862,0,0,0,.439.1.956.956,0,0,0,.39-.218c.486-.362.579-.369,1.008-.034.3.234.3.23.519.018C30.186,37.087,30.38,36.947,30.561,36.8ZM23.012,4.861A1.843,1.843,0,0,0,23,4.38a1.576,1.576,0,0,0-.241-.386,1.255,1.255,0,0,0-.169.175.359.359,0,0,0-.076.207.649.649,0,0,1-.26.621c-.174.123-.214.224-.153.346.046.094.537.238.659.136a1.058,1.058,0,0,0,.243-.378A.64.64,0,0,0,23.012,4.861ZM38.1,21.163c-.056.111,0,.229.17.326.021.01.119-.1.159-.159.065-.106.007-.228-.167-.323C38.24,21,38.154,21.108,38.1,21.163ZM5.177,22.414c.111.055.229,0,.324-.171.012-.02-.093-.119-.158-.16-.1-.067-.227-.007-.323.169C5.008,22.272,5.122,22.358,5.177,22.414Z" transform="translate(1485.926 425.369) rotate(177)" fill="#00a19a" fill-rule="evenodd"/>
        <path id="Path_151" data-name="Path 151" d="M36.593,35.175a.607.607,0,0,1,.855,0c.12.109.244.216.384.339h1.453c.519.486.519.489.822.485.251,0,.5-.009.749,0a3.963,3.963,0,0,1,.97.077c.209.063.316.424.573.407.4-.022.552.35.825.431a1.7,1.7,0,0,1,1.022.56c.092.127.255.252.262.387.029.581.029,1.166,0,1.749-.007.135-.144.276-.248.39-.165.179-.353.34-.54.516H41.255c-.258.23-.428.515-.83.492a4.3,4.3,0,0,0-1.216.076c-.207.047-.311.4-.577.408-1.249.014-2.5.006-3.748,0-.072,0-.139-.072-.212-.09-.646-.156-.65-.158-.893.084H31.786a2.617,2.617,0,0,1-.348-.327A.427.427,0,0,0,31,40.993c-.409.035-.831.076-1.1-.356-.092-.148-.254-.156-.441-.144-.332.021-.667,0-1,.008a.469.469,0,0,1-.414-.216.685.685,0,0,0-.629-.293,5.025,5.025,0,0,1-.722-.064c-.271-.592-1.1-.286-1.4-.879a1.444,1.444,0,0,0-.527-.523.554.554,0,0,0-.478-.014,3.246,3.246,0,0,0-.541.479H21.7a.97.97,0,0,0-.981-.537,1.056,1.056,0,0,0-1.063-.462c-.149.02-.38.013-.455-.078a1.143,1.143,0,0,0-1.086-.42c-.5.044-1,.063-1.31-.455-.494-.013-.988-.031-1.483-.034a.3.3,0,0,0-.191.132.81.81,0,0,1-.852.362c-.284.3-.561.6-1.036.519-.3.509-.792.5-1.3.488-.577-.012-1.154.026-1.73.042-.465.715-1.191.375-1.813.454-.075.009-.18.03-.212.081-.4.631-1.034.363-1.582.414a2.2,2.2,0,0,1-.5,0c-.4-.059-.573.256-.849.5-1.621,0-3.283.007-4.946-.014-.1,0-.246-.2-.292-.333-.084-.25.063-.639.234-.633a.886.886,0,0,0,.855-.367.412.412,0,0,1,.437-.158,1.013,1.013,0,0,0,1.1-.369c.092-.14.26-.141.446-.131.332.018.667,0,1,.007a.481.481,0,0,0,.405-.23.709.709,0,0,1,.638-.279,4.958,4.958,0,0,0,.715-.077A1,1,0,0,1,6.929,37c.4.06.567-.262.825-.486H10.2a1.046,1.046,0,0,0,.208-.163A.765.765,0,0,1,11.264,36c.5.12.739-.25,1.03-.5.263,0,.514,0,.764,0a1.825,1.825,0,0,0,.728-.046c.275-.136.412-.515.815-.458.163.025.282-.09.405-.228.222-.248.43-.59.713-.682a1.976,1.976,0,0,0,1.028-.554c.216-.263.235-.241.02-.535-.093-.127-.234-.263-.237-.4-.024-.833.01-1.667-.022-2.5-.014-.4.256-.577.51-.852,0-.868.021-1.782-.009-2.691-.014-.411.31-.549.51-.815,0-.4.017-.814-.008-1.229-.012-.192,0-.34.175-.43.485-.258.2-.958.7-1.215.146-.075.136-.258.135-.442-.012-1,0-2-.007-3a.533.533,0,0,1,.224-.411.906.906,0,0,0,.268-.386,2.486,2.486,0,0,0,.012-.5c.022-.323-.146-.739.1-.947.346-.3.3-.735.528-1.039.2-.268.429-.475.379-.851a5.718,5.718,0,0,1-.007-.749c0-.417,0-.417.5-1.294-.052-.48.06-.816.645-.761.065.005.142-.055.208-.094.7-.408.7-.393,1.084-.408a.608.608,0,0,1,.451.132,1.709,1.709,0,0,1,.7,1.211.97.97,0,0,1,.424.829c-.034.664.007,1.334-.022,2-.007.129-.18.254-.28.379-.263.331-.284.6-.059.852.11.124.234.235.352.354v5.011a1.062,1.062,0,0,0-.511,1.033,5.93,5.93,0,0,1-.018.986,1.116,1.116,0,0,0-.481,1.056,13.636,13.636,0,0,1,.008,1.5,1.931,1.931,0,0,1-.064.475c-.02.069-.1.127-.171.176a.648.648,0,0,0-.26.643,1.069,1.069,0,0,1-.442,1.071,7.115,7.115,0,0,0-.561.552,6.872,6.872,0,0,1-.005.713.413.413,0,0,0,.157.438c.118.081.22.016.357-.15.16-.194.371-.341.522-.539.267-.346.83-.076,1.039-.524a.374.374,0,0,1,.175-.173A.654.654,0,0,1,24.006,30c.082,0,.166,0,.25,0,.442-.008.447,0,.855-.348.3-.258.831-.068,1.037-.526A.32.32,0,0,1,26.342,29,1.424,1.424,0,0,1,26.591,29c.315-.026.689.119.9-.23.242-.4.761-.165,1.047-.519a16.774,16.774,0,0,1,1.239-1.262c.112.12.22.247.341.361.237.221.328.184.383-.285.031-.272.093-.5.348-.552.237-.05.479-.018.654-.245.386-.5,1.1-.77,1.058-1.562q.708-.708,1.413-1.416a.721.721,0,0,0-.094-.675c-.114-.12-.234-.237-.363-.366a11.7,11.7,0,0,0-.014-1.483c-.063-.494.234-.752.524-1.042V18.278c.165-.218.3-.4.442-.58-.63-.383-.43-1.005-.45-1.564-.01-.332,0-.665,0-1a3.352,3.352,0,0,0,0-.5c-.061-.391.233-.573.425-.83a.548.548,0,0,0-.031-.668c-.541-.737-.545-.748.106-1.387v-1.5c.315-.271.608-.552.51-1.037a.818.818,0,0,1,.029-.484c.1-.2.394-.367.38-.532-.016-.2-.328-.36-.4-.574a2.081,2.081,0,0,1-.016-.744A7.176,7.176,0,0,1,35.1,5.162c.638-.395.371-1.03.411-1.579.029-.413,0-.833.007-1.249,0-.184.233-.326.557-.339.446-.018.442-.026,1.09-.39a1.019,1.019,0,0,1,.452-.1c.241-.008.481.022.689.034.5.5.957.992,1.453,1.438a.975.975,0,0,1,.252.9.685.685,0,0,0,.272.637.515.515,0,0,1,.235.405,1.263,1.263,0,0,1-.468,1.313c-.115.076-.016.526.118.667.112.123.237.233.348.34V9.747a4.553,4.553,0,0,0-.353.357,1.348,1.348,0,0,0,.063,1.352c.1.126.276.252.279.38q.033,1.624,0,3.249a.655.655,0,0,1-.233.4c-.363.333-.2.965-.7,1.212a5.992,5.992,0,0,0-.044.977,1.065,1.065,0,0,1-.509,1.058c0,.409-.027.825.008,1.235a.664.664,0,0,1-.344.608c-.251.2-.085.477-.186.677a3.975,3.975,0,0,1-.473.557c-.039.052-.01.161,0,.244a.6.6,0,0,0,.039.234c.108.216.218.224.352.076.226-.247.493-.456.7-.715.231-.29.645-.008.871-.341a4.663,4.663,0,0,1,.7-.711.3.3,0,0,1,.209-.089c.628.068.784-.5,1.13-.812,0-.421.005-.838,0-1.254a.4.4,0,0,1,.226-.4c.033-.017.12.061.171.109.123.112.237.233.356.352a.619.619,0,0,0,.247-.645,1.159,1.159,0,0,1,.447-1.073c.153-.149-.03-.49.191-.662a.817.817,0,0,0,.365-.851c.361-.3.554-.839,1.173-.786.1.009.292-.18.314-.3.058-.319-.007-.664.078-.973.059-.213.4-.375.411-.567.012-.386.255-.57.443-.832.127-.175.072-.485.2-.658a1.475,1.475,0,0,1,1.195-.724.245.245,0,0,0,.17-.169c.013-.5.008-1,.008-1.484l.509-.556c-.119-.5.246-.767.558-1.012a1.951,1.951,0,0,0,.536-1.036c.106-.29.5-.064.652-.2A11.347,11.347,0,0,0,51.5,4.738c.082-.094.012-.322.012-.5.527-.523,1.046-1.066,1.6-1.574.524-.485.9-1.19,1.735-1.241L56.266,0h1.479l1.264,1.266V2.7c.122.133.233.254.341.377a.6.6,0,0,1-.012.852,3.054,3.054,0,0,1-.536.522c-.408.246-.162.774-.518,1.049-.327.254-.582.6-.9.869a.859.859,0,0,0-.367.851c-.273.3-.616.554-.52,1.041.009.044-.1.158-.169.167-.693.107-1.237.362-1.321,1.169a.791.791,0,0,1-.243.395,14.724,14.724,0,0,1-1.063,1.056c-.238.207-.165.445-.195.766-.195.178-.442.4-.682.628a9.722,9.722,0,0,0-.7.709c-.2.241-.056.611-.346.864-.315.272-.584.561-1.042.516l-1.413,1.415c-.848.035-1.207.766-1.727,1.251a1.429,1.429,0,0,1-.864.348c-.065.008-.175.118-.169.167.076.595-.367.886-.727,1.2-.16.137-.477.077-.656.2a5.7,5.7,0,0,0-.716.7l-3.182,3.182c-.081,0-.163.01-.244.01-.167,0-.335,0-.5,0-.312,0-.478.129-.519.379a.494.494,0,0,0,.527.629c.58-.033,1.162-.008,1.728-.008.306-.388.837-.6.765-1.217-.009-.08.216-.256.345-.269a.885.885,0,0,0,.648-.264.736.736,0,0,1,.394-.241c.621-.1,1.34.248,1.821-.462.058-.084.315-.069.469-.042a1.021,1.021,0,0,0,1.039-.5H50.8c.094-.1.2-.237.319-.349a.594.594,0,0,1,.852.044c.124.1.247.281.377.286.492.018.984-.016,1.476-.046.063,0,.128-.1.177-.171.123-.167.242-.245.353-.182.071.039.115.12.179.171.386.307.566.335.852.128.54-.387.539-.391.841-.387a2.886,2.886,0,0,1,.5.007,1.016,1.016,0,0,0,1.034-.5h2.019l.745.758c0,.354-.024.767.008,1.174a.684.684,0,0,1-.319.62.381.381,0,0,0-.187.425.35.35,0,0,1-.163.431c-.114.067-.239.005-.352-.174-.123-.195-.263-.252-.35-.115-.34.539-.872.35-1.358.38-.343.324-.694.654-1.043.984a1.872,1.872,0,0,0-.375-.363c-.3-.162-.337.221-.527.29a4.922,4.922,0,0,0-.672.188c-.68.362-.673.395-1.085.392a.566.566,0,0,0-.45.129L52.8,26H51.283l-.532.476c-.076-.076-.133-.135-.193-.192-.265-.255-.267-.245-.531-.044a1.035,1.035,0,0,1-.395.246,1.582,1.582,0,0,1-.743-.005c-.216-.072-.374-.387-.571-.4-.166-.012-.345.265-.531.4a.8.8,0,0,1-.673-.137c-.122-.107-.237-.22-.339-.315-.275.16-.4.489-.813.485-1.911-.025-3.822-.01-5.69-.01-.277-.259-.456-.518-.854-.514-.549,0-1.179.218-1.579-.408-.013-.022-.146-.007-.166.026-.324.558-.864.365-1.34.395-.124.1-.254.2-.371.311a6.737,6.737,0,0,0-.527.531A.417.417,0,0,1,35,27c-.458-.077-.549.622-1.043.5-.166-.039-.288.075-.411.216-.221.25-.429.573-.714.686-.369.149-.777.186-1.02.554-.322.031-.655.033-.854.354-.169.273-.46.111-.668.2-.284.119-.386.554-.8.492a.33.33,0,0,0-.237.024c-.244.224-.484.459-.709.7A.692.692,0,0,1,27.9,31a1.1,1.1,0,0,0-1.076.43c-.256.3-.5.682-1.009.57-.318.233-.546.642-1.042.5a1.212,1.212,0,0,1-1.033.537c-.16-.012-.311.426-.214.642.058.128.209.306.32.309,1.833.018,3.666.012,5.5.014.158,0,.4-.022.463.063.34.5.837.443,1.33.437s1-.005,1.5,0a.289.289,0,0,1,.209.085c.488.7,1.212.335,1.834.407a3.19,3.19,0,0,0,.749,0c.4-.05.567.268.807.475C36.357,35.371,36.476,35.275,36.593,35.175ZM52.721,7.44a.661.661,0,0,0,.292-.226c.1-.21,0-.312-.211-.21a.673.673,0,0,0-.226.293c.73-.328.787-.387.832-.442s.08-.119.063-.153c-.094-.186-.195-.2-.312-.1a.321.321,0,0,0-.127.39c.009.025.145.021.212,0C52.566,7.315,52.7,7.451,52.721,7.44Zm-14.215,7.32c-.162-.171-.431-.328-.458-.52-.034-.231-.031-.335-.275-.239a.3.3,0,0,0-.173.171,1.814,1.814,0,0,0,.021,1.168c.014.056.111.09.17.135a7.43,7.43,0,0,1,.614-1.619c.034-.042.078-.12.061-.154-.093-.184-.193-.2-.312-.1a.323.323,0,0,0-.127.388c.01.026.146.021.213,0C38.025,15.24,38.259,15.006,38.505,14.761Zm10.62,9.383a.585.585,0,0,1,.842.051c.064.055.118.116.175.174.2.2.438.127.671.086.252-.608,1.052-.315,1.386-.855.145-.235.639-.013.817-.358a.543.543,0,0,0,.005-.234C52.2,23,51.377,23,50.554,23c-.412,0-.405.013-1.28.481-.194.1-.5-.08-.663.182s-.132.395.165.832c5.237-1.237,5.468-1.467,5.7-1.7-.144-.362-.507-.493-.681-.82-.261.261-.434.433-.605.607s-.183.187.248.587c.116.1.23.212.347.319C48.891,24.377,49.005,24.256,49.125,24.144ZM39.114,38.488c.139-.013.264-.149.395-.227-.122-.088-.237-.238-.363-.248a.852.852,0,0,1-.637-.263.65.65,0,0,0-.384-.239c-.82-.021-1.639-.033-2.458,0a1.115,1.115,0,0,1-.82-.415A.752.752,0,0,0,34.4,37c-.23,0-.379.208-.38.5s.158.493.39.5c.327,0,.655,0,.983,0,.479,0,.99-.1,1.3.422.48.035.96.073,1.025.077C38.461,38.5,38.79,38.522,39.114,38.488Zm-8.6-1.235c.222.212.217.216.519-.018.429-.335.522-.328,1.008.034a.959.959,0,0,0,.391.218.855.855,0,0,0,.438-.1c.124-.054.207-.522.127-.655-.04-.068-.111-.166-.17-.166q-1.31-.016-2.623,0c-.058,0-.114.107-.235.229C30.152,36.947,30.346,37.087,30.516,37.252ZM37.525,5.1a1.043,1.043,0,0,0,.245.378c.12.1.612-.042.659-.136.06-.123.02-.224-.154-.346a.646.646,0,0,1-.259-.621.37.37,0,0,0-.077-.207,1.183,1.183,0,0,0-.169-.175,1.614,1.614,0,0,0-.241.386,1.844,1.844,0,0,0-.009.481A.64.64,0,0,0,37.525,5.1Zm-15.252,15.9c-.175.1-.234.217-.169.323.041.064.14.17.159.159.175-.1.226-.214.171-.326C22.378,21.108,22.292,21,22.272,21.006Zm33.24,1.246c-.1-.175-.218-.235-.323-.169-.064.041-.17.14-.158.16.1.175.213.226.324.171C55.41,22.358,55.524,22.272,55.512,22.252Z" transform="translate(1352.249 428.146) rotate(-178)" fill="#00a19a" fill-rule="evenodd"/>
      </g>
      <path id="Path_233" data-name="Path 233" d="M182.717,451.148c.321.009.641.024.96,0,.26-.015.36.181.524.324l1.582.014c.117.113.214.28.346.318a2.328,2.328,0,0,0,.637.019c.1,0,.22-.314.167-.407-.024-.043-.036-.094-.064-.134-.205-.284-.629-.431-.568-.886-.215-.23-.429-.461-.634-.683,0-.177,0-.338.006-.5a.277.277,0,0,0-.136-.267.49.49,0,0,1-.112-.115.265.265,0,0,1-.066-.13,3.017,3.017,0,0,1,.01-.638c.062-.319-.278-.422-.315-.672a.549.549,0,0,1,.061-.293c.062-.129.125-.093.227.024.21.24.448.455.659.665.02.177-.04.327.113.464.277.248.527.528.788.794.03.534.483.773.784,1.118a.117.117,0,0,0,.108.011c.044-.025.107-.071.108-.11.012-.319.012-.639.014-.957.344-.327.33-.33.33-.666,0-.64.021-1.28.009-1.919a.635.635,0,0,1,.254-.539c.158-.14.016-.409.23-.546.277-.177.152-.474.18-.725a.287.287,0,0,1,.333-.239c.2.006.3.092.309.267.015.321.019.631-.3.838-.077.051-.021.334.062.428s.149.153.225.231q-.015,1.6-.031,3.2l-.311.333c0,.436-.012.86-.008,1.285,0,.039.064.1.108.11.1.028.245.082.3.037.4-.346.787-.7,1.157-1.08.1-.1-.01-.306.123-.427s.313-.023.431-.113a5.654,5.654,0,0,0,.461-.443c.266-.261.532-.522.8-.78,0,0,.094.065.1.109.081.365.138.729-.248.977a.772.772,0,0,1-.346.657c.051.3-.152.473-.343.657-.425.4-.84.819-1.254,1.234-.01.01.022.08.049.109.117.128.328.021.422.125a.752.752,0,0,0,.688.289.736.736,0,0,1,.295.056c.045.014.076.072.113.11a2.294,2.294,0,0,1,.331.346c.136.219.416.042.549.228a.531.531,0,0,0,.544.241c.032,0,.087.061.11.1.037.071-.017.144-.121.225-.124.1-.235.279-.359.288a11.9,11.9,0,0,1-1.265-.036c-.039,0-.079-.067-.112-.109-.2-.255-.614-.137-.769-.459-.26-.017-.52-.035-.781-.051-.053,0-.118-.021-.157,0a1.559,1.559,0,0,0-.207.175c.038.039.073.078.112.115a.435.435,0,0,1,.184.4.688.688,0,0,0,.25.7c.06.047.018.2.065.287.073.132.211.234.267.371.076.181.019.417.229.545a.254.254,0,0,1,.13.267c-.011.106,0,.213-.005.32,0,.264-.093.348-.39.34a2.723,2.723,0,0,1-.459-.052c-.043-.007-.114-.08-.108-.107.075-.322-.154-.479-.337-.665a1.8,1.8,0,0,1-.67-1.324c-.009-.04-.1-.1-.105-.1-.156.144-.308.294-.481.464-.008.776-.026,1.574-.017,2.369,0,.263-.2.349-.331.517a3.636,3.636,0,0,0,0,.626c.053.319-.153.479-.343.668-.007.743-.013,1.487-.027,2.233,0,.038-.067.1-.11.107-.152.023-.31.02-.463.039-.242.034-.38-.125-.376-.364.022-1.223.028-2.446.04-3.644.16-.175.336-.282.332-.54-.011-.746.013-1.492.008-2.239a.338.338,0,0,0-.148-.25.356.356,0,0,0-.3-.011,1.631,1.631,0,0,0-.458.436c-.166.263-.5.1-.675.324a1.308,1.308,0,0,1-.459.435,1.958,1.958,0,0,0-.667.338c-.2.184-.484-.037-.5-.338a.726.726,0,0,1,.27-.692c.284-.211.451-.6.9-.553a4.19,4.19,0,0,0,.451-.453c.148-.2.4-.087.55-.22.24-.211.461-.443.687-.671a.114.114,0,0,0,0-.108c-.026-.043-.069-.1-.112-.105-.1-.017-.23.025-.314-.019-.558-.308-.555-.314-.829-.317s-.535-.023-.8,0c-.242.018-.371-.126-.542-.252-.194-.143-.5-.1-.658-.349-.037-.058-.189-.055-.289-.058-.319-.009-.639-.007-.959-.012-.137,0-.238-.15-.233-.341C182.137,451.164,182.034,451.131,182.717,451.148Z" transform="matrix(0.966, 0.259, -0.259, 0.966, 1320.293, -117.512)" fill="#ffbb59" fill-rule="evenodd"/>
      <path id="Path_234" data-name="Path 234" d="M191.948,335.433c.036.037.077.069.11.1l.957.009c.044-.043.081-.081.12-.118.283-.26.384-.261.66-.046a.893.893,0,0,0,.247.173,1.12,1.12,0,0,0,.318.01c.312,0,.645-.059.844.282a5.5,5.5,0,0,1,.619.06.342.342,0,0,1,.216.186.358.358,0,0,1-.019.3c-.561.57-1.137,1.127-1.708,1.688-.187.182-.374.365-.528.517-.024.364.089.713-.276.911-.015.008-.016.088,0,.106.148.136.251.32.446.4.189-.237.556-.365.461-.77.243-.177.368-.548.767-.471a3.217,3.217,0,0,1,.355-.307.337.337,0,0,1,.483.238c0,.106,0,.213,0,.319a15.149,15.149,0,0,1-.031,1.759,1.514,1.514,0,0,0,.872,1.524.317.317,0,0,0,.291-.043,5.363,5.363,0,0,0,.443-.449.532.532,0,0,1,.249-.538c.083-.067.051-.147-.071-.228a.249.249,0,0,1-.11-.113,1.963,1.963,0,0,1,.01-1.072c.013-.045.069-.082.112-.112.214-.15.131-.376.158-.577a.444.444,0,0,0-.186-.4c-.039-.037-.075-.076-.117-.119.153-.192.377-.341.32-.653a2.733,2.733,0,0,1,0-.639c0-.039.064-.09.109-.11a.143.143,0,0,1,.2.136.636.636,0,0,0,.248.544c.157.141.009.41.219.552a2.352,2.352,0,0,1,.34.337c.411.419.821.838,1.236,1.253.011.011.085-.023.109-.052.151-.183.057-.4.082-.607.012-.106-.056-.181-.144-.262-.157-.143-.372-.278-.433-.46a1.129,1.129,0,0,0-.35-.657.727.727,0,0,0-.333-.663c.069-.457-.344-.611-.559-.89a.382.382,0,0,1-.075-.292.373.373,0,0,1,.471-.262.714.714,0,0,1,.117.1l.225.216,2.869.028.343-.3c.318.306.318.306.578.042.037-.037.074-.076.114-.112a.491.491,0,0,0,.084-.433.281.281,0,0,0-.258-.148c-.854-.006-1.707-.018-2.561-.02-.117,0-.228,0-.283-.087-.213-.355-.56-.214-.861-.251-.043-.006-.088-.057-.116-.1s-.027-.091-.01-.108c.3-.3.607-.6.911-.9.055-.054-.028-.418-.1-.434-.3-.067-.613-.163-.866.115a.322.322,0,0,1-.263.142.861.861,0,0,0-.847.289c-.118.148-.483-.033-.483-.213,0-.213,0-.427.006-.641.017-1.866.037-3.734.046-5.6,0-.084-.1-.17-.151-.26l-.8.8c0,.411-.008.836-.012,1.257-.077.081-.151.156-.222.234a.387.387,0,0,0,.008.547c.172.206.171.205.059.341-.065.078-.174.16-.176.242-.021.8-.023,1.6-.032,2.4,0,.16-.123.254-.316.257-.234,0-.284-.012-.316-.252s-.052-.415-.345-.4c-.051,0-.123.01-.151-.018-.3-.3-.594-.614-.906-.9a.444.444,0,0,0-.3-.048.347.347,0,0,0-.2.5c.18.2.372.382.559.574.01.476.407.7.662,1.011a.359.359,0,0,1,.009.3.316.316,0,0,1-.226.172,2.822,2.822,0,0,1-.939-.051c-.3-.453-.77-.218-1.166-.282a.73.73,0,0,0-.689.284c-.052.055-.211,0-.3.037a.351.351,0,0,0-.194.209C191.512,334.975,191.535,335.019,191.948,335.433Zm4.029,2.6c-.037.035-.093.107-.105.1-.112-.063-.149-.142-.107-.209.027-.041.091-.108.1-.1C195.98,337.884,196.013,337.959,195.977,338.03Z" transform="matrix(0.966, 0.259, -0.259, 0.966, 1245.293, 18.488)" fill="#ffbb59" fill-rule="evenodd"/>
      <g id="Group_215" data-name="Group 215" transform="matrix(0.966, 0.259, -0.259, 0.966, 1300.293, -42.512)">
        <path id="Path_235" data-name="Path 235" d="M223.774,386.138c0-.2.1-.3.278-.3l4.165.039a2.384,2.384,0,0,0,.478,0,.337.337,0,0,0,.2-.2.373.373,0,0,0-.028-.3,2.183,2.183,0,0,0-.447-.458c-.2-.148-.074-.4-.218-.553-.445-.462-.887-.926-1.353-1.366-.093-.089-.373.051-.412-.128a1.376,1.376,0,0,0-.456-.778c-.2-.178-.376-.378-.564-.569l.009-.8c0-.2.094-.323.256-.314.253.011.507-.059.731.177.771.815,1.565,1.606,2.351,2.407.076-.071.153-.142.228-.214.254-.245.254-.245-.048-.574,0-.525.01-1.057.015-1.6a.8.8,0,0,0,.331-.65c-.035-.532,0-1.067,0-1.6a.661.661,0,0,0,.331-.666.4.4,0,0,1,.137-.423.436.436,0,0,0,.192-.4,2.051,2.051,0,0,1,.049-.46.159.159,0,0,1,.11-.1c.034,0,.1.058.107.1a1.051,1.051,0,0,1,.049.3c0,.321-.01.641,0,.962,0,.357-.124.755.277,1,.01.155.027.312.025.468q-.021,2.643-.048,5.287c0,.117.23.235.368.213a.387.387,0,0,0,.261-.149c.2-.251.613-.129.781-.445.016-.03.092-.038.14-.038a7.363,7.363,0,0,1,.8.014.324.324,0,0,1,.206.194c.03.09.029.255-.027.3-.364.273-.537.821-1.114.79l-.466.458c.377.372.752.745,1.146,1.134l.6.006c.124.112.241.217.357.323a.539.539,0,0,1,.538.251c.064.079.146.044.226-.076a.275.275,0,0,1,.115-.11c.1-.029.218-.08.294-.045.135.065.23.231.366.27.2.056.418.02.622.06a.336.336,0,0,1,.2.2.317.317,0,0,1-.3.431c-.8-.009-1.6-.017-2.4-.019-.04,0-.088.053-.117.094s-.03.092-.012.108a.651.651,0,0,1,.267.536c-.027.373-.018.747-.014,1.121,0,.1.009.238.071.284a.739.739,0,0,1,.242.708.328.328,0,0,1-.1.283c-.078.063-.147.032-.227-.088a.491.491,0,0,0-.409-.178c-.083-.009-.224-.12-.22-.174a.625.625,0,0,0-.245-.547c-.293-.272-.279-.283-.4-.956-.016-.091-.106-.168-.158-.254a1.982,1.982,0,0,1-.149-.26.283.283,0,0,1,0-.158c.094-.46-.248-.645-.539-.864-.247.045-.376-.128-.529-.273-.056-.051-.217.034-.194.129.1.414-.513.555-.35.992a1.143,1.143,0,0,1,0,.477.671.671,0,0,0,.26.695c.027.183-.2.216-.221.338a3.489,3.489,0,0,0-.048.784c.014.259-.18.36-.331.535-.007.722-.035,1.469-.012,2.213a.745.745,0,0,1-.337.658c-.007.755-.014,1.5-.022,2.25-.152.15-.3.3-.459.447-.125.112-.449-.014-.5-.193-.027-.1.008-.228-.045-.3-.125-.164-.313-.282-.27-.533.075-.446-.168-.963.3-1.321.014-.209.013-.419.045-.625a.658.658,0,0,0-.312-.678l.63-.661c-.144-.166-.33-.277-.309-.535a4.157,4.157,0,0,0,0-.959c-.055-.365.219-.555.329-.83a1.019,1.019,0,0,0,.011-.477.717.717,0,0,1,.294-.684c.089-.074.047-.339-.039-.429s-.152-.151-.225-.229c-.142-.151-.158-.167-.335-.005a.683.683,0,0,1-.422.154c-.08.011-.217.129-.21.183.043.327-.221.451-.379.651-.128.162-.288.09-.443.11-.3.3-.6.6-.915.888a.5.5,0,0,1-.293.058c-.418.011-.437-.005-.795-.4-.08-.089-.066-.144.059-.231a.545.545,0,0,0,.2-.4c.042-.255.071-.25.473-.251.648-.636,1.293-1.275,1.947-1.9a.472.472,0,0,0,.156-.417c-.014-.142-.15-.225-.349-.226l-2.649-.025a1.747,1.747,0,0,0-.407-.269c-.049-.014-.14.147-.226.208a.382.382,0,0,1-.432-.01.258.258,0,0,1-.1-.282A2.129,2.129,0,0,0,223.774,386.138Z" fill="#ffbb59" fill-rule="evenodd"/>
        <path id="Path_236" data-name="Path 236" d="M230.175,375.91c-.071.034-.146,0-.206-.112-.008-.012.061-.075.1-.1.068-.041.146,0,.207.11C230.284,375.82,230.211,375.874,230.175,375.91Z" fill="#ffbb59" fill-rule="evenodd"/>
      </g>
    </g>
  </g>
</svg>
