<svg xmlns="http://www.w3.org/2000/svg" width="215.591" height="104.55" viewBox="0 0 215.591 104.55">
  <g id="Group_246" data-name="Group 246" transform="translate(-422.968 -361.782)">
    <path id="Path_147" data-name="Path 147" d="M335.559,336.463c-1.667-4.2-1.766-3.954-2.056-3.984-.233-.024-.471.006-.705-.008a1.022,1.022,0,0,0-.781.266c-.272.228-.671.061-1.015.086-.173.013-.283-.135-.281-.35,0-.176,0-.352,0-.531.124-.124.258-.241.371-.375a.334.334,0,0,1,.291-.154c.3.024.38-.135.406-.412s.059-.29.554-.294c.3-.314.623-.658.961-.983.068-.064.21-.055.318-.074.324-.059.286-.3.275-.53.586-.585,1.173-1.163,1.742-1.758.057-.06.008-.224.008-.4l.873-.82c.474.072.565-.235.608-.6,0-.045.071-.1.121-.12a.613.613,0,0,1,.173-.008c.271-.022.316-.027.347-.277s.072-.449.39-.429c.21.013.309-.105.325-.306,0-.058-.021-.131,0-.173a1.462,1.462,0,0,1,.214-.265c.747-.75,1.5-1.49,2.241-2.251.309-.32.77-.549.753-1.1l.5-.494c.5.068.682-.376.97-.634.351-.312.67-.66,1-.993a4.3,4.3,0,0,1,.5-.492c.227-.161.086-.442.246-.608a7.815,7.815,0,0,0,.616-.63c.168-.219.431-.109.609-.247.043-.033.1-.091.1-.13-.039-.373.11-.548.492-.5.378-.363.739-.749,1.143-1.083.215-.178.036-.453.238-.615a5.188,5.188,0,0,0,.5-.5c.157-.167.3-.345.455-.517-.063-.6.374-.45.7-.462.26-.01.279.01.36.27.032.105.01.249.074.319.32.345.669.662.99,1.006.3.327.742.568.751,1.1.251.223.426.57.853.5.034,0,.118.077.118.119a.875.875,0,0,0,.38.727c-.067.338.162.528.364.732-.15.407.394.538.359.912-.029.3.427.386.358.738-.015.078.1.187.168.276.2.268.606.4.527.841l.705.766c-.049.363.086.552.476.515.045,0,.1.047.139.084a.273.273,0,0,1,.089.137c.1.76.1.76.412,1.066.336.329.678.654,1,1,.3.329.766.552.752,1.1.409.292.6.886,1.226.873l.5.5q-.169.184-.336.369c.091.092.177.173.258.258.159.169.018.448.245.609a5.094,5.094,0,0,1,.506.491,2.627,2.627,0,0,0,.242.186c.132-.088.2-.318.377-.256.21.075.11.3.124.468.01.117-.008.236.01.351a.186.186,0,0,0,.12.121.956.956,0,0,1,.726.379.9.9,0,0,1,.731.37c.488.51,1,1,1.491,1.5a.627.627,0,0,0,.6.27c.128.118.263.228.382.353a.623.623,0,0,1,.172.279.466.466,0,0,1-.067.318c-.12.176-.727.151-.947-.037a.58.58,0,0,0-.446-.21c-.233.02-.47,0-.7,0-.118,0-.19-.084-.289-.16-.389-.3-.4-.293-.866.134-.54-.414-.952-.974-1.487-1.4l-.7.06a.747.747,0,0,1-.755.315.459.459,0,0,0-.32.065,7.361,7.361,0,0,0-.748.747c-.16.189-.061.446-.072.673a.694.694,0,0,0,.173.637c.171.154.155.18-.026.368-.04.043-.083.084-.136.137.111.121.219.245.335.361.262.263.407.26.726-.012.153-.129.155-.127.375.056a.416.416,0,0,0,.6.026c.086-.079.183-.24.251-.228.451.079.587-.319.85-.521a1.416,1.416,0,0,0,.126-.124c.083-.065.146-.011.253.1.617.63,1.244,1.251,1.868,1.875a2.209,2.209,0,0,0,.38.366c.136.082.329.063.469.141.176.1.035.354.136.464q.723.772,1.5,1.5c.106.1.316.078.468.137.126.049.118.17.129.3a.981.981,0,0,0,.664.7c.392.117.389.117.387.423,0,.222,0,.219-.295.761-.05.093-.021.226-.065.325s-.126.241-.2.244c-.349.019-.7,0-1.05-.013-.043,0-.093-.072-.123-.12-.143-.229-.4-.173-.6-.257-.151-.063-.261-.217-.407-.3-.091-.052-.245-.012-.319-.075-.223-.189-.408-.424-.633-.612s-.188-.4-.2-.628c-.015-.435-.051-.46-.527-.457-.588,0-1.176,0-1.765,0-.3.2-.092.7-.493.866-.048.02-.058.224-.026.325a.547.547,0,0,0,.214.26c.149.1.172.2.011.248a1.642,1.642,0,0,0-.736.369c-.265.26-.076.361.078.513a.217.217,0,0,1,.068.146c-.039.414.2.485.538.46.038,0,.081.079.125.118.085.077.188.226.257.212.355-.07.487.339.74.348.429.016.593.329.8.582.086.105-.044.376.157.451s.43.054.605.253c.311.352.66.671.992,1,.018.29.012.588.447.557a.663.663,0,0,1,.637.166c.231.266.509.49.739.757.144.167.313.116.536.136l.821.858c-.039.644.6.806.878,1.24h.715c.241.241.476.5.739.73.217.189.129.423.16.643.029.2-.133.3-.207.446-.21.415-.8.2-.985.62a.986.986,0,0,1-.823-.042c-.188-.143-.334-.3-.6-.269a4.059,4.059,0,0,1-.529,0c-.291,0-.291,0-.914-.35a.564.564,0,0,1-.6-.249c-.072-.107-.176-.116-.309-.111-.409.013-.818,0-1.224,0a.752.752,0,0,0-.748-.361,4.166,4.166,0,0,1-.689-.032c-.331-.5-.841-.27-1.282-.309-.234-.022-.47,0-.706,0-.15,0-.254-.123-.26-.366,0-.13-.013-.26-.143-.285-.07-.013-.166.095-.247.154a1.625,1.625,0,0,0-.146.144c-2.388,0-4.8,0-7.205.006-.291,0-.38-.23-.566-.36a.84.84,0,0,1-.729.364c-2.115-.021-4.229-.01-6.318-.01-.194.168-.309.378-.595.36a7.971,7.971,0,0,0-.864.036c-.333.5-.843.292-1.284.3-.941.024-1.882,0-2.823.016-.092,0-.2.1-.271.184a.383.383,0,0,1-.289.161c-1.176,0-2.352.009-3.528-.007-.285,0-.4.2-.58.351H334.1c-.214.194-.387.434-.738.37a4,4,0,0,0-.709-.008.751.751,0,0,1-.733.361,4.079,4.079,0,0,0-.7.017c-.217.363-.569.357-.922.325a.744.744,0,0,0-.761.3,3.816,3.816,0,0,1-1.034.058c-.169.013-.393-.072-.493.073-.3.438-.741.242-1.126.274-.292.024-.595-.036-.88.015-.438.077-.623-.24-.867-.474a.4.4,0,0,1-.007-.474c.068-.095.219-.159.236-.253a1.256,1.256,0,0,1,.38-.731c.721-.692,1.419-1.408,2.126-2.115.012-.3.016-.585.449-.559.089.006.192-.1.278-.17a.817.817,0,0,0,.381-.726c0-.038.078-.12.119-.119a1.065,1.065,0,0,0,.735-.37c.295-.258.45-.679.931-.733.371-.043.514-.442.787-.648.655-.056.916-.645,1.35-1,.217-.178.556-.068.74-.366.113-.184.276-.425.513-.432.274-.008.39-.219.584-.307a3.153,3.153,0,0,1,.679-.07.343.343,0,0,0,.228-.211,3.016,3.016,0,0,0,.012-.527c.008-.214.052-.315.319-.295.352.026.4-.442.738-.37a.484.484,0,0,0,0-.174.211.211,0,0,0-.121-.122,11.837,11.837,0,0,0-1.742-.056c-.132.107-.253.285-.4.309a5.217,5.217,0,0,1-1.043.033c-.091,0-.175-.135-.263-.207a.923.923,0,0,0-.955-.019c-.128.109-.213.268-.432.242a.7.7,0,0,0-.776.256c-.065.1-.182.1-.313.1-.294-.013-.59.016-.882-.01a.714.714,0,0,0-.593.285c-.134.132-.328.073-.5.071a.481.481,0,0,0-.453.183c-.088.131-.179.176-.249.095a.6.6,0,0,0-.593-.275c-.128-.116-.26-.228-.385-.348-.187-.178-.175-.171.007-.375a.759.759,0,0,1,.746-.337,1.057,1.057,0,0,0,.176,0,.367.367,0,0,0,.289-.158.509.509,0,0,1,.272-.185c.176-.018.422-.033.414-.192s-.261-.153-.434-.178c-.205-.031-.235-.178-.088-.323.418-.414.841-.823,1.245-1.251.24-.253.644-.167.866-.488a5.934,5.934,0,0,1,.738-.756l.624-.624.749-.748c.249-.25.49-.508.75-.747.33-.3.568-.742,1.1-.75l.481-.507c-.093-.444.317-.58.518-.844.035-.046.091-.078.12-.127a.14.14,0,0,0,0-.121c-.029-.047-.081-.112-.125-.113-.469-.008-.939,0,.084,4.336,1.436,4.264,1.389,4.169,1.318,4.135-.148-.072-.221,0-.148.148a.468.468,0,0,0,.206.159C336.948,340.913,337.044,340.817,335.559,336.463Zm25.515,6.952c0,.164-.006.329,0,.494,0,.045.054.086.088.127.077.093.146.065.235-.061a.994.994,0,0,1,.233-.232c.125-.089.154-.159.061-.235-.04-.033-.083-.085-.127-.088-.164-.011-.329,0-1.2,0h.526c.059,0,.16.018.169,0,.055-.128,0-.22-.114-.3a2.1,2.1,0,0,1-.251-.245c-.195-.2-.428-.236-.6-.062a.733.733,0,0,1-.6.27.153.153,0,0,0-.138.219c.026.049.08.115.123.117C359.785,343.42,360.078,343.415,361.074,343.415Zm-10.387-15.174c.063-.07.138-.159.218-.244.123-.127.248-.25.373-.373.143-.141.312-.1.476-.057.2.048.21.061-.089.367-.094.1-.168.173-.112.3.008.022.11,0,.169,0,.294,0,.3,0,.6-.251a.358.358,0,0,1,.311-.1c.315.041.385-.437.733-.354.114.027.2-.054.287-.155a4.9,4.9,0,0,0,.365-.379c.153-.231.444-.088.6-.249a.67.67,0,0,1,.593-.277c.173.022.352-.007.527.008.132.012.245,0,.311-.1.242-.37.616-.236.949-.259.085-.079.171-.155.254-.236.287-.281.286-.281-.034-.621.066-.082.13-.167.2-.248a.421.421,0,0,0,.01-.6c-.125-.123-.249-.248-.411-.41-.542,0-1.123,0-1.7,0a.2.2,0,0,0-.139.079.713.713,0,0,1-.769.266.393.393,0,0,0-.313.1.83.83,0,0,1-.772.252.3.3,0,0,0-.3.123.58.58,0,0,1-.605.239c-.2-.02-.2-.01-.593.26a.417.417,0,0,1-.316.092.717.717,0,0,0-.767.274.2.2,0,0,1-.142.072,1.941,1.941,0,0,0-.523.015c-.2.071-.367.3-.563.322-.27.026-.384.235-.577.319a2.333,2.333,0,0,1-.681.056.212.212,0,0,0-.138.084.713.713,0,0,1-.77.262.3.3,0,0,0-.309.107.55.55,0,0,1-.6.25l-.382.352a.577.577,0,0,0-.594.265.315.315,0,0,1-.315.09.787.787,0,0,0-.77.275c-.137.162-.458.014-.592.256s-.425.108-.6.249c-.037.029-.086.091-.076.12a.2.2,0,0,0,.118.122c.382.061.827-.065,1.076.382h1.059l.731-.687c.054.054.094.1.137.137.314.282.413.284.724.036.046-.036.078-.093.126-.122.078-.046.143.027.252.122a.857.857,0,0,0,.941.079c.183-.154.337-.317.6-.262a.7.7,0,0,0,.728-.352,13.393,13.393,0,0,1,1.947.154c.016-.047.019-.143,0-.15a.224.224,0,0,0-.274.09c-.072.084-.061.154.07.22.024.012.078-.019.108-.044S351.526,328.44,350.687,328.241Zm-.01,16.6a1.062,1.062,0,0,1-.721.35c-3.763-.02-7.526-.013-11.3-.013-.074-.077-.151-.166-.236-.246s-.419-.164-.471-.085c-.23.351-.569.334-.926.337a.8.8,0,0,1-.766-.293.127.127,0,0,0-.117,0,.8.8,0,0,1-.765.295c-.822-.015-1.646,0-2.47-.01a.507.507,0,0,0-.442.213.321.321,0,0,1-.295.148,4.185,4.185,0,0,0-.529,0c-.047,0-.1.055-.133.1-.141.175-.022.445-.247.607a2.417,2.417,0,0,0-.5.5c-.162.213-.4.187-.607.25-.049.015-.125.086-.119.119.057.339-.173.525-.366.736-.029.031-.006.114,0,.173a.427.427,0,0,0,.013.17c.075.143.164.168.247.085l.616-.621.371.338c.178-.155.294-.364.579-.346a7.657,7.657,0,0,0,.864-.036c.332-.5.842-.263,1.283-.307.174-.017.354.012.529-.006.441-.044.951.189,1.281-.311a8,8,0,0,1,.865-.033c.286.018.4-.2.58-.35h4.577l.247.219a.426.426,0,0,0,.6,0c.086-.077.172-.152.268-.236h14.434c.182-.152.293-.378.58-.349a6.1,6.1,0,0,0,.7,0c.2,0,.294-.1.3-.334,0-.246-.019-.291-.263-.369a2.014,2.014,0,0,1-.325-.067c-.517-.283-.515-.288-.763-.288-.176,0-.353-.006-.529,0a.207.207,0,0,0-.141.079c-.189.292-.475.279-.772.276a.348.348,0,0,1-.312-.107.875.875,0,0,0-.124-.125.424.424,0,0,0-.6,0c-.322.281-.461.3-.727.085-.089-.07-.177-.2-.267-.2a13.1,13.1,0,0,0-1.394.041c-.132.012-.173.27-.375.24a.708.708,0,0,0-.761-.289C350.968,345.224,350.853,344.993,350.677,344.842Zm-14.837-1.075a3.886,3.886,0,0,0,.7-.008c.343-.065.511.175.721.345.176-.15.29-.346.574-.344,1.82.013,3.641.007,5.461,0,.113,0,.288.021.329-.04.239-.352.585-.319.935-.313.412.008.823,0,1.233,0h.352c.343,0,.71-.074.933.3.189,0,.239-.229.376-.259a.892.892,0,0,1,1.08.306.938.938,0,0,1,.726-.359c1.761.025,3.523.012,5.271.012l.375-.338c.178.157.3.359.58.344.639-.033,1.28-.032,1.92-.054.042,0,.1-.071.122-.12a.382.382,0,0,0-.254-.538c-.226-.023-.506.1-.668-.072a.912.912,0,0,0-.772-.285c-.469.018-.94-.013-1.409.01-.284.015-.4-.189-.6-.359h-1.373c-2.642,0-5.285,0-7.927.007-.287,0-.392-.208-.565-.345l-.377.335a.73.73,0,0,0-.734-.354,6.165,6.165,0,0,1-.692.032c-.217.364-.57.334-.923.328-.587-.009-1.174,0-1.761-.01-.1,0-.192-.1-.281-.164-.368-.263-.367-.265-.727.009-.314.24-.414.238-.726-.049-.044-.039-.084-.082-.143-.141-.274,0-.565,0-.856,0-.235,0-.316.048-.377.253-.031.107,0,.26-.063.323a4.231,4.231,0,0,1-.859.8c-.322-.311-.3-.284-.509-.134a.946.946,0,0,0-.3,1.084.187.187,0,0,0,.121.121C335.172,344.16,335.573,344.177,335.841,343.768Zm17.305-23.281c-.246.232-.493.462-.74.694-.5-.062-.653.413-.972.631a.845.845,0,0,1-.32.074c-.187.033-.261.22-.406.3s-.375.04-.461.142a.821.821,0,0,1-.778.268c-.058,0-.135-.024-.172,0a3.157,3.157,0,0,1-.394.331c-.141.072-.343-.045-.475.13-.069.091-.17.233-.25.228a.64.64,0,0,0-.6.27.277.277,0,0,1-.136.093.735.735,0,0,1-.176,0l-.868.029a.92.92,0,0,1-.726.373.746.746,0,0,1-.755.309.46.46,0,0,0-.318.07c-.222.19-.423.405-.627.616s-.38.451-.726.373a.836.836,0,0,1-.912.347.282.282,0,0,0-.291.15c-.139.232-.416.148-.595.259s-.311.3-.582.313-.387.435-.735.339a.968.968,0,0,1-.91.352.266.266,0,0,0-.309.105c-.148.213-.357.232-.6.269-.193.029-.271.376-.561.334a.227.227,0,0,0-.164.021c-.337.327-.66.669-1.006.985-.068.063-.222.019-.327.054a.327.327,0,0,0-.241.389.316.316,0,0,1-.148.293c-.07.06-.158.172-.143.242.026.131.153.138.288.135.586-.012,1.174,0,1.761,0,.25,0,.343-.022.347-.27.006-.357.276-.487.456-.7.132-.154.322-.084.488-.091a.612.612,0,0,0,.469-.153c.2-.2.343-.519.648-.54a.881.881,0,0,0,.57-.338.833.833,0,0,0,.726-.373c.339.065.528-.159.727-.371.118-.125.251-.236.367-.345.311,0,.6,0,.9,0a.33.33,0,0,0,.29-.152.488.488,0,0,1,.444-.208,3.379,3.379,0,0,0,.508-.042c.221-.372.586-.305.93-.308a.214.214,0,0,0,.146-.067.921.921,0,0,1,.586-.3c.252-.04.389-.43.737-.333l.382-.352a.556.556,0,0,0,.6-.252.31.31,0,0,1,.311-.105c.233.015.469,0,.7.007a.335.335,0,0,0,.3-.146.941.941,0,0,1,.265-.205c.045-.024.115,0,.173,0,.234,0,.469,0,.7,0,.255-.006.329-.37.556-.34.353.046.448-.359.736-.361.42,0,.545-.389.815-.585a1.205,1.205,0,0,0,.127-.126h.349c.3,0,.311.006.6-.249a.321.321,0,0,1,.311-.1.229.229,0,0,0,.288-.141.5.5,0,0,0,.032-.332c-.111-.247-.428-.386-.357-.741.013-.067-.14-.17-.221-.252C353.576,320.916,353.368,320.709,353.146,320.487Zm-1.777-2.835h-.83c-.059,0-.129-.021-.175,0-.242.127-.388.444-.739.354-.033-.008-.086.068-.13.1-.293.238-.293.238-.6.244-.258,0-.267-.007-.6.26-.153.126-.344.038-.477.127-.184.124-.294.334-.575.329s-.386.424-.738.354c-.075-.015-.191.107-.269.185q-2.622,2.617-5.237,5.241c-.013.013.022.089.051.119a.239.239,0,0,0,.137.086.664.664,0,0,0,.334-.038c.332-.2.452-.713.962-.664.3-.275.595-.551.891-.828a2,2,0,0,0,.248-.25.9.9,0,0,1,.729-.373.756.756,0,0,1,.753-.319c.233.025.471,0,.706.008a.616.616,0,0,0,.458-.182c.249-.218.4-.615.838-.526.377-.231.542-.788,1.111-.727a3.781,3.781,0,0,1,.77-.684c.475,0,.946-.018,1.415.006.279.015.415-.159.577-.32l.375-.374a.826.826,0,0,0,.732-.367c.028-.03.114,0,.172-.006.368-.051.394-.087.141-.368-.136-.153-.087-.333-.159-.467a2.637,2.637,0,0,0-.458-.517C351.657,317.935,351.53,317.813,351.369,317.652ZM346.8,334.94a.722.722,0,0,1,.741-.352.438.438,0,0,0,.462-.154.516.516,0,0,1,.444-.2c.093,0,.185-.109.276-.168-.1-.348.185-.511.35-.735.027-.038,0-.114,0-.173.017-.293.03-.579-.263-.77a.272.272,0,0,1-.089-.313c.1-.4-.134-.653-.406-.886a1.4,1.4,0,0,1-.119-.122,3.913,3.913,0,0,0-.707.008c-.343.063-.514-.17-.728-.355a.72.72,0,0,1-.738.351.474.474,0,0,0-.465.15c-.189.215-.458.376-.368.728-.352.628-.352.628-.352.907v.853l.881.886h.178a1.589,1.589,0,0,1,.522.013C346.566,334.658,346.67,334.82,346.8,334.94Zm-10.267.373c-.208.209-.455.454-.7.7a.885.885,0,0,0-.075.947c.155.184.306.338.265.6a2.124,2.124,0,0,0,0,.352c0,.391,0,.388.424.562a.681.681,0,0,1,.276.177c.176.223.413.156.637.176a.46.46,0,0,0,.445-.2c.1-.135.168-.162.253-.062.038.045.094.077.123.127.088.156.192.173.246.019.089-.265.1-.561.379-.725a.946.946,0,0,1,.37-.732c.08-.063.01-.366-.079-.473-.249-.295-.249-.295-.249-.6,0-.118,0-.236,0-.353l-.515-.515Zm15.71,2.642a1.492,1.492,0,0,0-.128.13c-.063.079-.18.174-.166.244.022.126.152.171.279.144.211-.047.306.117.432.229a.422.422,0,0,0,.6,0c.127-.11.22-.277.432-.229a.281.281,0,0,0,.3-.139.445.445,0,0,1,.435-.217c.118.019.2-.054.288-.154.113-.133.247-.249.368-.367V335.8a2.2,2.2,0,0,1-.361-.348c-.155-.232-.423-.1-.609-.238-.493-.362-.511-.363-.84-.043a.336.336,0,0,1-.3.127,2.882,2.882,0,0,0-.526,0,.172.172,0,0,0-.121.113c-.024.522-.447.767-.749,1.1a.474.474,0,0,0,.084.122.54.54,0,0,1,.246.6C351.814,337.574,352.056,337.75,352.241,337.955ZM341.848,340.6c.091.091.171.178.259.256a.246.246,0,0,0,.118.048c.224-.364.582-.315.93-.314,1.41,0,2.819.006,4.228-.006.093,0,.19-.105.279-.17.191-.141.2-.157.369.026.11.122.175.164.253.058a.589.589,0,0,1,.6-.265c.037.006.1-.063.126-.109a.151.151,0,0,0-.126-.228c-.7-.021-1.407-.01-2.091-.01l-.381-.338c-.177.165-.3.364-.583.344-.35-.025-.7.006-1.056-.014-.1-.006-.192-.1-.281-.165-.357-.26-.364-.272-.723.017-.1.079-.17.157-.29.157-1.174,0-2.349,0-3.523,0-.129,0-.254-.008-.314.089-.238.385-.616.236-.949.272a.235.235,0,0,0-.132.1.45.45,0,0,0-.024.475.559.559,0,0,0,.474.123c.133-.111.253-.237.364-.343Zm15.89-13.419a.675.675,0,0,0-.126.113.537.537,0,0,1-.6.237c-.348-.083-.516.174-.723.361h-1.043l-.251.251a.754.754,0,0,0-.121.124c-.218.357-.563.346-.914.326a.243.243,0,0,0-.268.165c-.01.041.142.173.226.179a7.83,7.83,0,0,0,1.046,0c.27-.021.409.141.583.292a.332.332,0,0,0,.458,0c.192-.26.5-.224.723-.371.189-.127.325-.307.591-.272.171.022.35-.01.522.008a.463.463,0,0,0,.436-.211.325.325,0,0,1,.291-.148,1.1,1.1,0,0,0,.517-.01,1.273,1.273,0,0,0,.579-.6c.053-.118-.075-.446-.18-.447Zm-3.557,13.058c.2.165.316.384.6.359s.586.014.875-.011a.677.677,0,0,1,.587.286c.066.071.163.022.245-.107s.177-.176.246-.1a.614.614,0,0,0,.588.279c.278-.047.577.095.838-.092a.135.135,0,0,0,.05-.118.238.238,0,0,0-.12-.123c-.154-.052-.341.036-.476-.124-.185-.223-.382-.436-.531-.6h-3.237c-.13-.116-.252-.228-.373-.336-.179.154-.293.35-.575.345-.994-.017-1.987-.007-2.981-.006-.17,0-.355-.032-.462.15-.052.09.159.2.386.2ZM348.043,317.1c.07.067.13.171.212.193a.428.428,0,0,0,.325-.037c.178-.129.294-.32.569-.317s.38-.363.722-.365c.276,0,.447-.319.607-.547a.335.335,0,0,0-.018-.324.968.968,0,0,1-.362-.726c0-.091-.385-.208-.453-.144-.237.226-.568.37-.578.784-.008.273-.387.375-.362.724.017.222-.27.343-.417.512C348.211,316.936,348.125,317.014,348.043,317.1Zm-17.6,31.964a6.418,6.418,0,0,1,.882.008c.347.062.451-.311.72-.354.168-.027.345,0,.518-.008.219-.013.343-.233.266-.518-.037-.137-.176-.188-.228-.119a.762.762,0,0,1-.75.291c-.1-.008-.258,0-.309.069a.838.838,0,0,1-.755.286,2.539,2.539,0,0,0-1.011.058c-.045.019-.107.084-.1.118a.174.174,0,0,0,.114.118C330.074,349.039,330.356,349.06,330.448,349.061Zm28.863-19.235a.444.444,0,0,0,.433.178c.212-.018.452.068.609-.162-.171-.183-.3-.414-.562-.5Zm5.133,16.4a5.223,5.223,0,0,1-.382.377c-.116.094-.152.159-.091.242a.279.279,0,0,0,.3.107,1.052,1.052,0,0,1,.337,0,.246.246,0,0,0,.29-.118c.046-.079,0-.147-.111-.242A4.357,4.357,0,0,1,364.443,346.222Zm-4.417-.18c-.078-.068-.162-.139-.244-.213-.041-.038-.079-.08-.119-.119-.177-.174-.173-.171-.36,0-.12.112-.252.211-.392.327a.938.938,0,0,0,.664.2A.473.473,0,0,0,360.026,346.041Zm-23.652,1.608a2.535,2.535,0,0,0-.515.009.162.162,0,0,0-.138.221.262.262,0,0,0,.12.119.477.477,0,0,0,.171,0h.344c.217,0,.377-.122.312-.232A.231.231,0,0,0,336.374,347.649Zm8.119-16.234a.424.424,0,0,0-.169,0c-.126.061-.175.15-.132.228a.28.28,0,0,0,.12.118.465.465,0,0,0,.168,0c.219,0,.363-.111.3-.231A.22.22,0,0,0,344.493,331.415Zm-5.594,16c-.04.079,0,.161.12.229.014.007.084-.067.112-.113.047-.074,0-.16-.118-.228C339,347.3,338.938,347.376,338.9,347.415Zm19.587-4.058c.039-.04.118-.1.111-.115-.068-.123-.154-.165-.228-.119-.045.029-.12.1-.112.112C358.325,343.359,358.408,343.4,358.486,343.357Zm.411-1.942c-.038-.039-.1-.119-.114-.111-.124.068-.166.154-.119.228.029.046.1.12.112.113C358.9,341.577,358.937,341.494,358.9,341.415Zm-16.587-6c-.039-.039-.1-.118-.114-.111-.124.068-.165.154-.119.228.029.046.1.12.112.113C342.313,335.576,342.349,335.494,342.31,335.415Zm12.235-4a.717.717,0,0,0-.116.12c-.047.074,0,.159.119.228.013.007.083-.067.112-.113C354.707,331.575,354.662,331.494,354.545,331.415Z" transform="translate(182.739 70.277)" fill="#00a19a" fill-rule="evenodd"/>
    <path id="Path_250" data-name="Path 250" d="M20.606,12.733c-.457-.447-.916-.891-1.34-1.3-.008-.177.032-.333-.027-.4-.271-.3-.578-.576-.854-.875a1.094,1.094,0,0,0-.721-.385c-.188-.021-.085-.321-.165-.437a7.376,7.376,0,0,0-.687-.767c.049-.361-.087-.537-.473-.516-.072,0-.22-.143-.215-.212a.675.675,0,0,0-.291-.586.143.143,0,0,1-.015-.117c.35-.177.214-.629.489-.852a6.5,6.5,0,0,0,.5-.491l-.33-.371c.339-.333.339-.336.336-.735a.491.491,0,0,1,.156-.462c.093-.067.158-.175.251-.242a.742.742,0,0,0,.3-.755c-.012-.115.009-.233,0-.349a.5.5,0,0,1,.2-.444c.17-.16.33-.328.5-.5V.721c0-.248-.021-.335-.265-.348a.911.911,0,0,1-.573-.321A.436.436,0,0,0,16.9.091c-.249.245-.5.494-.742.741-.009.525-.461.749-.735,1.1-.056.072-.007.225-.007.344l-1.73,1.7c-.037.305,0,.6-.439.6-.258,0-.258.056-.293.323-.033.248-.108.368-.26.363-.225-.009-.516.1-.661-.07-.207-.246-.508-.217-.73-.366-.189-.127-.321-.339-.5-.483a.753.753,0,0,1-.3-.753.361.361,0,0,0-.2-.42,1.343,1.343,0,0,0-.394-.027L7.823,1.05h-1C6.645.9,6.537.682,6.252.7,5.9.727,5.553.707,5.2.709c-.188,0-.287.083-.289.328,0,.206-.084.338-.265.362s-.334.027-.438.189a3.732,3.732,0,0,0,.372.367,1.051,1.051,0,0,1,.375.723c.023.129.156.159.289.132a.263.263,0,0,1,.346.267c-.008.276.241.385.3.577s-.316.267-.3.533c.008.128.008.232.115.3a.566.566,0,0,1,.245.6,2.354,2.354,0,0,0,0,.344,3.449,3.449,0,0,0,.5.489c.281.18.1.554.361.734A.431.431,0,0,1,7,6.929c.023.289-.007.583.017.873a.466.466,0,0,0,.182.268.54.54,0,0,1,.162.462.746.746,0,0,1-.2.621.876.876,0,0,1-.75.318,4.166,4.166,0,0,0-.678.045c-.274.44-.715.27-1.1.3a4.855,4.855,0,0,0-.523.01.511.511,0,0,0-.266.19c-.127.161-.293.147-.465.153s-.368-.071-.482.093a.729.729,0,0,1-.772.251.369.369,0,0,0-.307.111c-.289.247-.3.239-.6.244a2.24,2.24,0,0,0-.345.013c-.047.007-.119.077-.119.118-.006.534-.46.755-.752,1.1l.543.521H1.879c.932,0,1.866.019,2.8-.008a.871.871,0,0,1,.74.338c.066.076.371.007.469-.085s.16-.166.239-.249c.374.355.374.353.738.356.464,0,.928.01,1.391.025a.173.173,0,0,1,.118.119.859.859,0,0,0,.376.721v.683c.127.138.245.264.364.395v2.783c.136.182.37.277.353.564-.023.4-.006.809-.006,1.188l.518.519a1.031,1.031,0,0,0,1.084-.341c.02-.027.112-.007.17,0,.213.012.307-.1.329-.3.007-.058-.02-.128,0-.173.124-.24.434-.384.36-.735-.01-.046.146-.157.242-.191.442-.161.445-.156.445-.534v-.7l.721-.721V13.864l.486-.545h1.392c.217.127.3.367.594.354.52-.026,1.042-.008,1.532-.008.194.178.317.361.6.361.384,0,.826-.159,1.106.282a.132.132,0,0,0,.117-.012.737.737,0,0,1,.761-.282c.286.026.414-.113.4-.4-.008-.2.182-.275.28-.409A.439.439,0,0,0,20.606,12.733ZM8.008,3.027a.249.249,0,0,1-.27.135c-.273-.009-.372-.1-.382-.376,0-.055,0-.109,0-.164a2.9,2.9,0,0,1-.27-.261c-.024-.03-.055-.084-.044-.107.065-.13.135-.141.219-.069a.223.223,0,0,1,.088.273c-.007.017-.1.015-.147,0,.154.113.138.019.157.011a.227.227,0,0,1,.283.1c.1.125.231.23.342.35A.128.128,0,0,1,8.008,3.027Zm.92,4.329c-.013.007-.074-.072-.114-.112-.038-.077,0-.16.12-.227.014-.007.083.067.112.112C9.093,7.2,9.052,7.288,8.929,7.356Z" transform="matrix(0.875, 0.485, -0.485, 0.875, 526.207, 361.782)" fill="#ffbb59" fill-rule="evenodd"/>
    <g id="Group_177" data-name="Group 177" transform="matrix(-0.809, -0.588, 0.588, -0.809, 725.468, 789.091)">
      <path id="Path_171" data-name="Path 171" d="M411.035,167.06c-.228.254-.226.254-.049.551a.513.513,0,0,1,.1.226c0,.223-.031.445-.057.744l.506.4a5.251,5.251,0,0,1-.062.686.552.552,0,0,0,.234.562c-.031.376-.062.73-.091,1.086a.549.549,0,0,1,.216.586.351.351,0,0,0,.09.362.382.382,0,0,1,.122.218,4.375,4.375,0,0,1-.039.535c-.025.262-.092.534.176.725,0,.131-.005.261,0,.391.005.083,0,.2.045.242a.564.564,0,0,1,.15.606c-.034.159.068.242.146.345a.32.32,0,0,1-.035.458c-.138.114-.275.229-.41.347-.03.027-.074.071-.07.1.045.271-.245.339-.317.537a.2.2,0,0,0-.01.132,2.694,2.694,0,0,0,.663.8c.03.023.087.015.131.012s.1,0,.118-.03c.16-.254.494-.125.683-.319.125-.128.272-.233.408-.349.254.072.406-.1.58-.234a.358.358,0,0,0,.148-.342c-.047-.334.212-.459.407-.629a.169.169,0,0,1,.114-.044,2.8,2.8,0,0,1,.783.106.23.23,0,0,1,.087.1c.109.186.3.145.468.175a.445.445,0,0,0,.356-.12c.2-.145.321-.139.458-.012.23.215.23.215.437.235l.268.023L418,176.1l.1-.075,2.135.18c.131.119.194.293.413.306.577.033,1.154.092,1.707.138.161-.126.268-.267.481-.234.264.042.536.038.8.076a.628.628,0,0,0,.6-.177c.044-.045.168-.039.247-.022a.565.565,0,0,0,.59-.2.525.525,0,0,0,.552-.249l.824.069c.271.023.271.023.584-.223l1.6.134c.174-.146.338-.3.519-.43a.356.356,0,0,1,.244-.038.671.671,0,0,0,.6-.173c.116-.1.344.009.466-.159.094-.127.242-.065.358-.1.2-.06.325-.309.584-.213.17-.133.324-.3.58-.231.025.006.091-.049.1-.083a.7.7,0,0,1,.334-.527.607.607,0,0,1,.33-.527.425.425,0,0,1,.227-.442.223.223,0,0,0,.1-.228.545.545,0,0,1,.248-.57.154.154,0,0,0,.072-.1c.022-.178.018-.36.052-.534a.5.5,0,0,0-.185-.465c-.062-.063-.119-.132-.174-.2l-2.667-.224c-.109.08-.207.155-.31.231-.184-.36-.5-.316-.807-.29-.193.269-.466.183-.727.177a.358.358,0,0,0-.216.126.345.345,0,0,1-.364.085.55.55,0,0,0-.583.22l-1.07-.09c-.169.141-.319.289-.581.233a6.448,6.448,0,0,0-.791-.075c-.151.1-.239.265-.459.237-.4-.051-.8-.072-1.174-.1-.057.048-.089.078-.125.105-.259.194-.336.195-.55-.028-.078-.08-.126-.142-.185-.1-.174.14-.342.287-.514.431-.249.029-.533-.132-.74.13a.224.224,0,0,1-.24.073c-.22-.032-.443-.042-.668-.061a.551.551,0,0,1-.582.225,1.072,1.072,0,0,0-.26,0l-.512.434c-.4-.025-.606.3-.887.491a.274.274,0,0,1-.255-.013,2.8,2.8,0,0,1-.354-.4c-.011-.012.013-.078.034-.086.249-.093.179-.383.331-.529s.348-.282.508-.438c.112-.11.237-.079.364-.1a.25.25,0,0,0,.177-.156c.04-.261.051-.526.071-.759l.582-.491c.019-.231.03-.5.07-.756.01-.063.126-.168.172-.158.333.069.475-.205.665-.367.076-.065-.022-.263.132-.345A.443.443,0,0,0,420.8,168c0-.146,0-.152.243-.431.115-.133.035-.346.222-.448a1.3,1.3,0,0,0,.308-.257c.174-.183.49-.263.451-.6.195-.179.39-.356.592-.54.015-.172.03-.348.043-.516.248-.21.48-.423.73-.61.175-.131.136-.309.163-.477.007-.044.008-.09.014-.176l.881-.746c.024-.28.046-.546.068-.8a3.548,3.548,0,0,1,.319-.265.568.568,0,0,0,.281-.555.331.331,0,0,1,.172-.328c.21-.118.1-.412.325-.538.193-.107.336-.3.541-.432.078-.05.237,0,.367,0,.26,0,.535.134.779,0a3.3,3.3,0,0,0,.52-.428l1.337.113a.616.616,0,0,1,.578-.232,6.275,6.275,0,0,0,.79.074c.146-.124.287-.236.419-.357a.374.374,0,0,1,.354-.119.658.658,0,0,0,.133.012l.522,0c.155-.259.5-.118.677-.325a.242.242,0,0,1,.23-.1,2.69,2.69,0,0,0,.268.023c.217.011.217.01.326-.289.068-.185.068-.2.277-.193a.269.269,0,0,0,.241-.073,1.582,1.582,0,0,1,.206-.165l.669.056c.192.015.225.013.266-.205s.116-.319.337-.283a.278.278,0,0,0,.231-.1c.337-.294.681-.58,1.026-.872l.558.048c.222-.195.466-.392.69-.608.2-.187.505-.081.689-.317a3.248,3.248,0,0,1,.505-.439c.206-.173.411-.345.615-.52.069-.059.152-.045.246-.052.224-.018.225-.032.266-.411l1.01-.821c.4.136.4-.195.494-.419.318-.128.206-.567.533-.71a.491.491,0,0,0,.334-.519c.243-.237.6-.385.637-.787l.54-.457c.017-.195.036-.413.053-.634a.692.692,0,0,0-.552-.621.661.661,0,0,1-.471-.175c-.217-.233-.285-.218-.547-.024-.036.026-.07.057-.113.094l-2.4-.2-.625.5-.522-.044a3.011,3.011,0,0,0-.412.357c-.157.193-.434.032-.583.231-.13.175-.322.108-.49.085a.373.373,0,0,0-.348.134.247.247,0,0,1-.233.093c-.134-.018-.267-.024-.414-.037l-.623.5c-.168-.014-.345-.028-.522-.044a.727.727,0,0,1-.575.245c-.1,0-.138.109-.123.209s-.01.2-.105.221c-.205.052-.433.041-.575.241a.844.844,0,0,0-.678.324c-.067.06-.137.116-.207.175-.221-.018-.447-.022-.666-.062-.17-.03-.235.1-.341.166a.369.369,0,0,1-.107.069.474.474,0,0,1-.134-.008c-.042,0-.1-.015-.126.006-.483.4-.96.806-1.439,1.211l-.67-.056a1.518,1.518,0,0,1-.037.36c-.031.092-.107.163-.281.2,0,.022.01.038-.01.068a.331.331,0,0,1-.166.108c-.01,0-.077-.073.055-.153-.089.014-.048-.055.009-.076.013-.006.015,0,.028,0a1.682,1.682,0,0,0,.126-.356.213.213,0,0,1,.276-.152c.019-.224.038-.447.057-.676a.54.54,0,0,0,.316-.53c-.008-.087.025-.18.018-.268-.015-.2.115-.306.239-.44.138-.149.126-.39.329-.532.143-.1.068-.331.1-.5.007-.044,0-.089.012-.133.031-.171-.014-.355.092-.512.32-.125.2-.586.534-.706.078-.028.137-.112.207-.169a.321.321,0,0,0,.033-.458c-.026-.035-.061-.066-.086-.1-.062-.087-.092-.315-.025-.363a.642.642,0,0,0,.3-.549,7.018,7.018,0,0,1,.094-.786c.4-.274.24-.72.325-1.089.011-.044-.006-.1.016-.132a.978.978,0,0,1,.161-.2c.133-.12.273-.232.416-.354.067-.795.134-1.6.2-2.4.165-.145.366-.267.323-.535-.007-.043.013-.091.007-.134a.208.208,0,0,1,.119-.221c.071-.046.183-.126.177-.18-.031-.273.248-.347.317-.54.043-.122.049-.244.166-.337.247-.192.481-.4.731-.612.014-.168.025-.346.048-.522,0-.035.054-.075.091-.089.217-.087.434.007.652,0,.174,0,.389.111.511-.013.175-.177.429-.11.576-.238a.678.678,0,0,1,.611-.147c.044.007.089.008.156.013l.874-.735c.133.011.222.016.312.027a.466.466,0,0,0,.363-.093c.2-.152.337-.439.665-.361.174-.134.352-.265.523-.4.208-.17.408-.349.617-.519.172-.141.351-.274.492-.384.028-.183.016-.306.142-.409.555-.452,1.1-.918,1.638-1.376.023-.281.046-.546.068-.8l.846-.715c.05-.605.1-1.225.161-1.914l.588-.385c.029-.35.051-.617.075-.89a.549.549,0,0,0,.317-.532,1.175,1.175,0,0,1,.035-.259c.137-.115.268-.24.413-.344.254-.185-.015-.265-.065-.39-.009-.022.021-.065.042-.09s.07-.056.1-.089c.174-.183.485-.271.433-.614.3-.449.3-.449.324-.671.026-.31.051-.62.077-.923a.549.549,0,0,0,.318-.55.36.36,0,0,1,.155-.341.348.348,0,0,0,.152-.2c.052-.489.076-.982.135-1.471a.631.631,0,0,0-.2-.593,3.669,3.669,0,0,1-.262-.306.574.574,0,0,0-.238-.574.448.448,0,0,0-.2-.142,3.352,3.352,0,0,0-.669-.055c-.138.005-.207.122-.211.276a.2.2,0,0,1-.259.213c-.159-.033-.245.066-.344.148-.357.294-.358.29-.55.32-.287.045-.29.054-.108.291.028.036.075.066.081.1s-.046.074-.081.085c-.521.169-.593.208-.756.426.05.27-.279.341-.3.537-.04.322-.286.43-.5.564-.089.057-.313-.05-.346.1a.782.782,0,0,1-.343.526c.033.265-.163.384-.328.529-.257.226-.587.39-.649.786-.01.066-.136.11-.2.176-.115.125-.334.174-.335.382s-.2.27-.3.409c-.043.063-.022.173-.03.274l-1.025.856c-.2.167-.157.5-.432.62-.022.009-.024.079-.028.121-.014.133-.023.268-.037.425-.225.19-.464.39-.7.593-.065.056-.166.124-.167.188-.007.393-.395.45-.571.689a.613.613,0,0,0-.055.25c-.024.126.028.288-.1.364a.592.592,0,0,0-.25.573c0,.046.01.106-.015.131-.088.1-.217.167-.281.276s.009.253-.131.354c-.217.156-.414.342-.619.516a.294.294,0,0,1-.046-.45.663.663,0,0,0,.255-.432c.033-.581.1-1.16.136-1.741.013-.218.179-.288.3-.414l-.237-.3a.428.428,0,0,0-.154-.473.17.17,0,0,1-.063-.109c.023-.265.054-.529.084-.793.488-.351.238-.9.362-1.35.023-.082.039-.167.057-.25.172-.144.343-.288.542-.457.025-.283.064-.591.072-.9.005-.221.181-.286.3-.415.068-.794.135-1.6.2-2.4-.05-.064-.1-.134-.159-.2a.314.314,0,0,1,.052-.455.463.463,0,0,0,.2-.319c.061-.846.137-1.691.2-2.485.124-.136.275-.224.287-.329.077-.667.128-1.338.173-2.008a.328.328,0,0,0-.112-.22c-.158-.148-.093-.323-.094-.494a.363.363,0,0,1,.181-.327.255.255,0,0,0,.138-.21c.015-.223.036-.446.056-.686l-.493-.616c.073-.2-.054-.441.158-.615.128-.1.119-.119-.015-.379-.035-.07-.007-.129.1-.184s.145-.124.089-.181a.462.462,0,0,1-.171-.468.689.689,0,0,1-.208-.715.208.208,0,0,0-.069-.24,1.705,1.705,0,0,1-.169-.213c.059-.707.119-1.42.179-2.127-.12-.143-.212-.331-.36-.4s-.337-.065-.435-.24a.6.6,0,0,0-.086-.1c-.05.068-.134.132-.142.2-.049.445-.069.894-.124,1.338-.026.214.115.318.218.454-.057.059-.11.12-.168.177-.192.189-.172.446.07.5.191.044.333.078.3.321-.036.309-.055.621-.081.932a.63.63,0,0,1,.251.576.558.558,0,0,1,.192.592,1.964,1.964,0,0,0-.024.267c-.019.263,0,.534-.289.695-.051.027-.058.159-.057.243a.486.486,0,0,1-.316.526c-.039.462-.057.908-.121,1.348a.608.608,0,0,0,.227.577c-.1.089-.188.176-.282.262.109.118.106.12,0,.483a1.353,1.353,0,0,0-.065.244c-.075.848-.145,1.7-.217,2.544-.016.189-.1.352-.168.313a.225.225,0,0,1-.108-.224.608.608,0,0,0,.008-.134.209.209,0,0,0-.053-.112.443.443,0,0,1-.165-.469l-.244-.314a.421.421,0,0,0-.152-.473.222.222,0,0,1-.059-.242.573.573,0,0,0-.151-.607c-.049-.042-.044-.159-.043-.242,0-.134.024-.267.03-.4,0-.085.026-.218-.017-.249-.246-.171-.118-.508-.32-.684-.181-.156-.023-.429-.232-.584a2.411,2.411,0,0,1-.35-.387c.023-.286.045-.553.068-.819-.147-.173-.3-.338-.43-.518a.358.358,0,0,1-.039-.245.569.569,0,0,0-.181-.6,4.539,4.539,0,0,0-.005-.522c-.008-.073-.084-.2-.13-.2a.5.5,0,0,1-.436-.25c-.05-.074-.114-.138-.181-.218.017-.211.027-.434.058-.654.015-.1.016-.186-.069-.239-.254-.16-.063-.524-.322-.683-.079-.048-.069-.142-.057-.242.038-.356.063-.714.093-1.07.012-.154-.03-.225-.225-.251-.153-.019-.259-.08-.268-.22a.687.687,0,0,0-.105-.361c-.193-.294-.188-.318.06-.543.089-.081.118-.109.061-.191-.179-.256-.188-.261-.157-.468a.466.466,0,0,0-.147-.477c-.032-.028-.082-.08-.074-.1.091-.262-.134-.4-.222-.584-.016-.035,0-.088.008-.133.008-.089.018-.178.022-.268,0-.041.007-.107-.016-.122-.252-.161-.143-.488-.321-.683-.12-.132-.232-.272-.357-.42l.275-.26a.629.629,0,0,1-.225-.573c.062-.35.069-.71.1-1.054.146-.123.145-.125.092-.481-.007-.039-.042-.079-.039-.117q.069-.87.144-1.741a.28.28,0,0,1,.42-.165,2.38,2.38,0,0,1,.273.285c.339-.034.416.286.6.453-.049.254,0,.411.309.446.16.019.21.08.173.291-.023.13-.024.263-.034.382l.272.323a1.753,1.753,0,0,1,.172.206c.083.144-.034.368.159.46.109.053.262-.01.351.136a2.216,2.216,0,0,0,.258.308c.058.062.126.159.192.161.312.01.371.177.313.438.157.162.3.327.222.582a.44.44,0,0,0,.165.469.245.245,0,0,1,.045.246.6.6,0,0,0,.167.6c.278.291.527.61.781.908.007.139-.058.264.063.387.19.19.352.406.543.633.1-.091.191-.183.29-.272.187-.167.2-.276,0-.552a.341.341,0,0,1-.086-.237c.016-.247.008-.248-.207-.714.09-.264-.1-.408-.242-.575l-.693-.82a.677.677,0,0,0-.234-.58c-.022-.02,0-.083,0-.127.005-.248.005-.248-.209-.716.088-.263-.106-.407-.246-.572-.115-.138-.23-.275-.344-.409-.126-.03-.261.017-.362-.124-.156-.218-.342-.414-.522-.627a3.8,3.8,0,0,1,.037-.391.2.2,0,0,0-.072-.239c-.059-.039-.125-.006-.2.08a1.082,1.082,0,0,1-.116.1c-.3-.248-.49-.6-.767-.849l-.54-.072c-.112-.278-.457-.227-.614-.434a.537.537,0,0,0-.333-.173c-.194-.057-.184-.106.033-.329.022-.023.051-.068.043-.089a.186.186,0,0,0-.212-.127c-.044,0-.106-.027-.131-.007q-.367.29-.723.6a.179.179,0,0,0-.029.123c.015.223-.192.276-.306.408a6.71,6.71,0,0,1-.073.8.57.57,0,0,0,.229.558c-.136.136-.32.207-.307.426a.547.547,0,0,1-.266.563.1.1,0,0,0-.008.088c.213.14.152.39.24.577a1.073,1.073,0,0,0,.173.212c-.144.15-.336.262-.309.527a2.871,2.871,0,0,1-.039.541.586.586,0,0,1,.239.57c.182.149.183.37.253.57a2.015,2.015,0,0,0,.418.519c0,.086.009.172.006.258s-.018.178-.02.268c0,.127-.084.291.037.373.222.15.109.409.233.583.074.1.2.172.165.341-.04.219-.043.445-.062.668-.014.178-.03.357-.045.531a5.293,5.293,0,0,0,.353.412c.2.188.066.521.318.686.042.028-.036.1-.113.179-.166.163-.249.564-.109.709a.623.623,0,0,1,.139.611.288.288,0,0,0,.064.244c.172.24.166.245.149.472-.007.088-.014.177-.021.26.149.177.3.341.433.522a.36.36,0,0,1,.037.246.572.572,0,0,0,.183.6,2.505,2.505,0,0,1,0,.387.372.372,0,0,0,.126.352c.119.1.064.242.1.361s.165.206.217.322a.461.461,0,0,1-.008.262.441.441,0,0,0,.144.476c.13.105.022.258.07.368.07.152.262.235.221.453-.036.2.239.272.221.445-.022.208.139.313.187.466.066.2.064.424.251.571a3.084,3.084,0,0,1-.027.528.568.568,0,0,0,.224.58c-.024.271-.046.538-.071.832.166.188.331.4.523.587s.229.336-.031.482a.112.112,0,0,0,.014.09c.228.134.118.406.238.577.1.145.23.275.344.413a1.068,1.068,0,0,1,.074.106c-.007.089-.016.178-.022.268-.013.185-.015.187.166.468a.331.331,0,0,1,0,.364c-.042.073-.163.105-.194.178a1.592,1.592,0,0,0-.085.9c.275.194.18.472.162.729-.024.313-.038.628-.084.938-.03.215.119.316.225.462l-.28.261c-.022.26-.045.528-.067.8a.629.629,0,0,0-.323.53c-.037.713-.112,1.424-.17,2.118-.138.136-.307.209-.312.426a5.829,5.829,0,0,1-.081.655c-.295.144-.275.422-.3.686-.042.535-.083,1.072-.139,1.606-.008.07-.092.144-.157.2a.289.289,0,0,0-.141.208,6.9,6.9,0,0,0-.07.937c.018.335-.218.459-.414.628a.094.094,0,0,1-.092.005c-.036-.024-.085-.068-.084-.1.024-.357.056-.714.087-1.076a.581.581,0,0,1-.227-.577c.051-.263.037-.537.078-.8a.633.633,0,0,0-.165-.474c-.109-.171-.031-.433-.246-.57a.749.749,0,0,0-.237-.576.666.666,0,0,0-.238-.576.616.616,0,0,0-.236-.577,3.653,3.653,0,0,1-.346-.411c-.142-.209-.433-.338-.371-.662a3.325,3.325,0,0,0-.474-.632.171.171,0,0,1,0-.128c.084-.256-.288-.324-.23-.584.028-.126-.187-.411-.334-.54a.636.636,0,0,1-.532-.328c-.018-.024-.084-.011-.129-.015.021-.02.026-.061,0-.118s-.091-.1-.147-.134c-.009-.006-.088.06-.083.071a.357.357,0,0,0,.108.166c.053.033.094.035.117.017-.026.31-.053.621-.079.932.192.279.525.472.5.883-.006.092.108.138.207.123s.193.011.222.1a2.617,2.617,0,0,0,.074.365,1.709,1.709,0,0,0,.253.31l.438.519a2.075,2.075,0,0,1-.023.257.422.422,0,0,0,.145.473c.167.125-.026.342.144.479a2.782,2.782,0,0,1,.35.4,1.606,1.606,0,0,1,.252.311c.053.107.016.266.078.36a.633.633,0,0,1,.176.469c-.052.4-.059.8-.111,1.2-.027.215.123.314.228.461-.021.256-.044.52-.063.753.053.2.279.258.243.48-.016.1-.019.179-.118.218a.1.1,0,0,1-.091-.019c-.348-.407-.693-.816-1.039-1.225.069-.426-.3-.608-.5-.879-.186-.251-.4-.482-.6-.715-.129-.031-.258.01-.364-.124-.3-.386-.654-.737-.936-1.137-.146-.208-.4-.165-.532-.326s-.011-.339-.021-.511a.212.212,0,0,0-.027-.12c-.429-.513-.861-1.026-1.3-1.534a.167.167,0,0,0-.121-.033c-.285.017-.348-.416-.668-.328a.39.39,0,0,1-.123-.345.214.214,0,0,0-.253-.227c-.042,0-.106.006-.127-.019-.207-.234-.408-.474-.609-.714.091-.425-.347-.574-.468-.889.079-.266-.155-.385-.258-.568s-.374-.015-.443-.224c-.038-.119-.032-.251-.07-.368-.029-.09-.122-.113-.225-.1a.215.215,0,0,1-.124-.027c-.035-.023-.086-.068-.083-.1a.675.675,0,0,0-.239-.576c-.1-.091-.184-.194-.26-.276.018-.21.032-.387.047-.558-.092-.148-.267-.236-.233-.454.041-.265.049-.534.072-.8.015-.171.088-.235.257-.223s.356.039.534.042c.1,0,.182.016.23.1a.44.44,0,0,0,.437.235.421.421,0,0,1,.444.217c.081.148.25.065.35.13.14.09.186.295.407.3s.279.205.378.338a.63.63,0,0,0,.557.28.341.341,0,0,1,.238.07,4.244,4.244,0,0,1,.517.614c.149.231.363.217.58.233.01-.134.022-.267.035-.417l-1.14-1.3c-.294.012-.392-.134-.34-.412.007-.03-.038-.076-.068-.105a.249.249,0,0,0-.105-.064c-.33-.072-.732.083-.959-.311-.017-.028-.073-.04-.113-.049-.257-.052-.55.04-.768-.129a3.326,3.326,0,0,1-.443-.51l-1.068-.09-.319.248c-.168-.014-.346-.033-.523-.039a.133.133,0,0,0-.1.083.7.7,0,0,1-.334.527,5.978,5.978,0,0,0-.071.8c0,.1.15.2.232.305-.092.262.106.4.235.578.093.128.223.114.345.152a.263.263,0,0,1,.145.187c.018.172-.029.355.006.522.025.114.183.184.2.326a1.369,1.369,0,0,0,.032.25c.032.1.125.093.219.113a.749.749,0,0,1,.48.553c.01.041-.027.1-.006.131.162.211.336.414.5.624.081.1.151.211.226.318-.1.257.241.38.209.579-.047.294.339.423.221.716a.951.951,0,0,0,.559.493c.2.083.2.088.185.289-.005.045-.007.09-.011.134-.007.09-.015.178-.023.265a3.982,3.982,0,0,0,.355.406c.054.05.186.008.249.053a.833.833,0,0,1,.369.909c-.013.057.083.2.125.2.333-.013.425.279.62.464-.011.122-.023.254-.032.386-.013.185.014.239.172.3.078.03.179.021.241.069.234.18.3.567.7.55.177.2.356.4.529.6.2.237.4.477.6.712-.019.338-.019.339.186.42.079.03.183.031.234.085a2.789,2.789,0,0,1,.51.619c.089.181.076.406.245.575.079.079-.013.243.067.366a.828.828,0,0,0,.775.4c.062,0,.19.116.181.149-.071.269.1.425.257.574a.816.816,0,0,1,.238.578c0,.036.057.1.082.1.333-.03.436.258.638.46-.035.422-.071.865-.113,1.308a.153.153,0,0,1-.075.1c-.242.125-.247.35-.245.572,0,.1-.015.185-.108.224-.276.115-.148.506-.432.619-.084.035-.1.127-.1.229s-.016.179-.019.268a.234.234,0,0,1-.136.21c-.185.1-.177.284-.193.459a.379.379,0,0,0,.105.359.266.266,0,0,1,.084.1c.023.06-.025.126-.122.178a.245.245,0,0,0-.137.209c-.02.268-.056.535-.063.8a.362.362,0,0,1-.2.316c-.145.089-.082.244-.14.349a1.293,1.293,0,0,1-.284.272.431.431,0,0,1-.234.439c-.079.049-.091.13-.1.231-.009.2-.019.2.168.6.034.071.01.126-.1.184a.353.353,0,0,0-.164.334c-.006.175,0,.358-.188.46a.242.242,0,0,0-.138.21c-.024.312-.052.624-.081.971l-.871.736c-.014.167-.032.3-.035.435a.607.607,0,0,1-.259.569c-.119.076-.079.241-.089.368a.383.383,0,0,1-.165.336.326.326,0,0,0-.1.087c-.124.188.01.451-.154.616a.641.641,0,0,0-.255.434c-.008.138-.15.144-.255.019-.056-.068-.116-.136-.172-.2-.026-.032-.047-.068-.071-.1.147-.125.144-.126.086-.469a1.139,1.139,0,0,1-.031-.25c.036-.491.068-.983.127-1.472.024-.207-.1-.319-.192-.464a.3.3,0,0,1,.042-.357c.03-.033.071-.055.1-.087.167-.18.2-.321.083-.452-.143-.166-.3-.325-.434-.474.112-.121.195-.212.278-.3a.785.785,0,0,1-.167-.207c-.044-.116-.015-.267-.078-.364a5.4,5.4,0,0,0-.446-.54c.025-.289.051-.6.077-.908.017-.212.016-.212-.29-.325-.213-.078-.214-.078-.2-.277a1.954,1.954,0,0,1,.038-.4c.074-.255-.085-.408-.215-.569.091-.09.179-.175.267-.26l-.725-.857c.018-.2.029-.419.058-.639a.24.24,0,0,0-.058-.243.431.431,0,0,1-.155-.471c-.081-.105-.162-.21-.243-.313a.485.485,0,0,0-.255-.563c-.29-.2-.1-.619-.4-.79,0-.13-.006-.26,0-.39.005-.258,0-.274-.27-.34-.151-.037-.228-.107-.219-.263,0-.045.027-.1.008-.131-.173-.251-.314-.545-.7-.5a.318.318,0,0,1-.237-.071c-.184-.194-.351-.406-.524-.611-.387-.456-.387-.456-1.229-.865-.144-.3-.426-.271-.687-.291a.889.889,0,0,0-.135-.011c-.212.015-.305-.144-.409-.281a.364.364,0,0,0-.1.037q-.463.387-.925.779c.046.067.091.135.139.2a.323.323,0,0,1-.036.457c-.269.248-.267.249-.026.649a.189.189,0,0,1,.025.093c-.351.183-.27.526-.3.823-.01.082-.018.209.028.246.315.252.144.574.143.87,0,.164-.011.164.224.461a1.609,1.609,0,0,0-.274.259.288.288,0,0,0-.022.257,6.29,6.29,0,0,0,.434.523c.107.388-.082.778-.014,1.169a3.923,3.923,0,0,0,.35.407c.18.159.026.429.23.585a2.584,2.584,0,0,1,.351.4c-.1.432.359.571.464.894-.014.179-.033.357-.043.536-.006.085-.028.22.014.249.246.171.117.512.322.682.163.136.035.34.148.477s.232.273.345.41.22.277.33.416c-.13.3.284.432.212.715a.581.581,0,0,0,.166.6c.15.149.349.295.274.562.1.14.207.283.316.419.139.172.285.339.416.494-.028.338-.051.65-.083.962a.213.213,0,0,0,.1.23c.219.136.052.42.233.581a3.589,3.589,0,0,1,.35.406c-.052.3.155.482.324.678.144.168.285.338.416.492-.01.117-.019.206-.024.295a2.279,2.279,0,0,0-.016.527c.022.116.139.215.214.322-.068.324.217.451.365.655.436-.033.373.259.345.528a1.627,1.627,0,0,0-.021.268.35.35,0,0,1-.192.32c-.193.128-.083.423-.326.537a1.908,1.908,0,0,0-.392.328c-.04.274.033.56-.268.726-.125.069-.081.239-.092.366a.417.417,0,0,1-.159.34.359.359,0,0,0-.152.2c-.036.22-.042.445-.063.668-.011.11-.1.158-.3.172s-.249.053-.27.208a1.587,1.587,0,0,0-.022.267.264.264,0,0,1-.088.235c-.172.144-.34.289-.51.434.02.387-.347.476-.535.7a.566.566,0,0,0-.081.237c-.028.126-.047.255-.07.383-.279.109-.212.46-.432.617-.144.1-.272.231-.412.343-.173.138-.364.262-.33.529a.642.642,0,0,0-.32.672.256.256,0,0,1-.133.212c-.172.134-.313.329-.576.238-.171.186-.485.262-.459.6l-.282.273c.022.259-.148.4-.331.526a.67.67,0,0,0-.334.529c0,.031-.069.054-.1.087-.167.191-.449.267-.484.593-.022.2-.345.265-.313.538.005.043-.115.139-.183.145-.13.011-.253-.007-.362.1-.126.125-.27.233-.411.351a1.61,1.61,0,0,1-.174-.145c-.127-.139-.123-.141.022-.474a.126.126,0,0,0-.009-.1c-.142-.27-.147-.274.1-.476.029-.349.055-.706.091-1.061.013-.125-.028-.269.115-.36a1.6,1.6,0,0,0,.188-.172c-.093-.141-.253-.233-.227-.451.056-.486.086-.975.125-1.438a2.645,2.645,0,0,0,.23-.2.288.288,0,0,0,.041-.356c-.1-.145-.213-.257-.19-.464.067-.623.115-1.249.156-1.873,0-.07-.07-.156-.128-.216a.276.276,0,0,1-.1-.231c.04-.446.068-.893.118-1.338a.35.35,0,0,0-.144-.343c-.177-.129.013-.347-.144-.482-.093-.081-.213-.176-.158-.337a.209.209,0,0,0-.08-.237c-.062-.057-.159-.159-.143-.207.105-.3-.3-.43-.226-.719.015-.062-.07-.147-.108-.222l-.67-.057c-.008.09-.015.178-.023.268-.018.2-.011.21.188.285a.986.986,0,0,1,.237.079c.131.1.055.244.052.371-.006.193-.01.192.164.467a.161.161,0,0,1,.028.1c-.073.437-.1.465.047.568.211.154.123.4.232.581.067.107.212.171.167.336-.059.217.179.288.226.448.023.077.015.225-.031.252a.714.714,0,0,0-.315.681c-.021.4-.063.795-.094,1.159.081.136.209.194.2.336a.6.6,0,0,0-.284.553c-.025.49-.064.981-.124,1.469a.607.607,0,0,0,.195.59.638.638,0,0,0,.25.575c-.1.092-.193.178-.289.267-.03.35-.06.706-.089,1.058-.1.091-.231.165-.284.276a.973.973,0,0,0-.04.4.239.239,0,0,1-.126.217.365.365,0,0,0-.2.318c0,.222-.049.445-.048.667,0,.2-.139.3-.247.434-.125.161-.111.418-.338.521-.012.144.123.2.2.33-.122.1-.247.215-.378.318a.315.315,0,0,1-.36-.027c-.166-.2-.392-.366-.324-.676-.255-.156-.14-.492-.325-.675-.153-.149-.1-.32-.1-.491a.358.358,0,0,1,.178-.327c.107-.063.134-.116.071-.186s-.115-.136-.178-.211c.036-.437.074-.88.111-1.324l-.487-.61c.043-.036.078-.064.11-.094.233-.223.241-.288.081-.547-.045-.073-.12-.147-.12-.22a4.258,4.258,0,0,1,.056-.667.363.363,0,0,1,.152-.2c.1-.069.147-.136.082-.184-.275-.2-.179-.485-.139-.734a.593.593,0,0,0-.225-.578c.022-.271.045-.537.067-.8-.085-.107-.166-.211-.247-.315.039-.251-.04-.544.256-.7.082-.045.1-.129.1-.23a3.625,3.625,0,0,1,.028-.37c-.135-.16-.249-.3-.366-.433s-.111-.129.034-.283c.2-.209.2-.3.006-.553-.028-.036-.058-.069-.092-.109.1-1.15.194-2.306.294-3.487a3.932,3.932,0,0,1,.386-.325.273.273,0,0,1,.244-.021c.209.148.438.3.42.6-.01.154.136.217.183.332a2.545,2.545,0,0,1,.073.366c.008.039.051.1.085.1.22.027.444.042.667.06.018-.222.037-.445.055-.67a.681.681,0,0,1-.213-.714c.026-.176,0-.192-.21-.264s-.2-.063-.4-.3c-.1.077-.2.152-.3.227-.124-.114-.185-.294-.406-.3-.309-.008-.618-.047-.857-.067l-.769.649c-.073.874-.148,1.764-.221,2.644.1.148.251.248.228.463-.067.623-.11,1.249-.163,1.873-.008.09.051.149.1.23.188.288.181.291-.04.549a.517.517,0,0,0-.139.205,2.73,2.73,0,0,0-.051.667c.01.112.183.205.2.322a1.373,1.373,0,0,1-.021.526.567.567,0,0,0,.225.577l-.282.262c.034.04.064.073.092.109C411.245,166.762,411.24,166.832,411.035,167.06Zm24.694-29.077a1.8,1.8,0,0,1,.055-.528c.039-.111.213-.167.27-.277s.01-.258.148-.342a.364.364,0,0,0,.19-.321c0-.219.034-.436.049-.624.169-.143.3-.267.445-.371a.359.359,0,0,0,.152-.34.632.632,0,0,1,.292-.551c.086-.073,0-.263.131-.345a.432.432,0,0,0,.231-.439c.171-.137.349-.271.324-.529a.646.646,0,0,0,.317-.672.227.227,0,0,1,.136-.209c.183-.1.183-.283.189-.459a.457.457,0,0,1,.157-.339c.182-.173.488-.259.461-.595a1.717,1.717,0,0,1,.388-.35c.249-.113.14-.4.323-.538.105-.075.211-.152.2-.314a2.9,2.9,0,0,1,.029-.374c.3-.276.7-.459.628-.961-.008-.057.086-.146.152-.192.125-.087.125-.213.161-.339s.156-.166.307-.165c.209,0,.236-.041.257-.214a1.109,1.109,0,0,1,.043-.4c.1-.18.356-.268.31-.54,0-.024.058-.08.094-.085.256-.036.542-.028.493-.42.238-.2.473-.41.718-.6a.574.574,0,0,0,.169-.334c.06-.2.357-.266.306-.536.094-.091.187-.184.284-.271a2.554,2.554,0,0,0,.3-.263c.131-.167.336-.044.475-.149.071-.053.137-.114.215-.18.084.092.166.187.254.276.184.189.067.52.319.68.023.015.02.079.021.12a.284.284,0,0,1-.013.132c-.106.178-.362.265-.317.537,0,.025-.049.067-.084.092-.176.134-.355.264-.5.368-.029.337-.05.6-.073.86-.182.164-.181.164-.085.476.009.029.013.083,0,.092a.545.545,0,0,0-.269.558c.015.217-.16.3-.294.42l.225.3c-.168.132-.333.262-.312.525a3.49,3.49,0,0,1-.038.523c-.179.151-.358.287-.516.444a.355.355,0,0,0-.077.234.636.636,0,0,1-.273.562.242.242,0,0,0-.02.349c.258.226.1.346-.085.475a.579.579,0,0,1-.222.448c-.159.132-.377.212-.417.479-.043.289-.367.358-.529.561-.1.129-.048.335-.226.442a2.9,2.9,0,0,0-.409.344.175.175,0,0,0-.028.122c.012.284-.421.347-.327.668-.233.246-.614.371-.634.787q-.36.294-.722.586c-.3-.129-.426.268-.714.218-.213-.037-.321.307-.578.213-.107.071-.221.132-.321.212-.243.2-.489.391-.714.608-.142.137-.307.119-.471.159s-.24.25-.455.208c-.149-.028-.222.118-.329.186a.106.106,0,0,1-.092,0C435.775,138.06,435.728,138.017,435.729,137.983Zm-.807-2.715c-.031-.06.007-.122.1-.166.011,0,.052.06.079.092.026.062-.007.122-.106.166C434.988,135.365,434.94,135.3,434.922,135.268Zm-7.956,23.456c.028-.267.059-.535.065-.8a.371.371,0,0,1,.2-.313.215.215,0,0,0,.117-.222.658.658,0,0,1,.325-.67.466.466,0,0,1,.237-.438c.177-.135.336-.294.481-.423.164,0,.291.057.409-.068a1.563,1.563,0,0,1,.411-.343c.183-.091.414-.052.577-.24a4.286,4.286,0,0,1,.508-.438c.034-.029.066-.08.1-.082a1.4,1.4,0,0,1,.244.016l1.461-1.235c.132.012.265.014.394.037a.234.234,0,0,0,.243-.056.478.478,0,0,1,.474-.167c.042.006.123-.11.154-.183.142-.318.137-.32.447-.3l.523.044c.078-.067.149-.12.214-.183a.885.885,0,0,1,.679-.323c.173-.3.591-.111.789-.4a.481.481,0,0,1,.566-.249l.31-.243c.226.019.449.039.672.056.186.014.222.006.264-.208.028-.143.075-.289.2-.28a.651.651,0,0,0,.468-.186c.133-.1.352.019.47-.156s.341-.039.47-.153a.539.539,0,0,1,.47-.173c.266.042.535.053.8.069.035,0,.071-.045.109-.062.358-.158.36-.175.605-.139.168.026.238-.089.34-.164a.319.319,0,0,1,.456.063c.086.1.173.206.265.314-.015.172-.029.349-.05.586-.208.165-.46.35-.694.557-.162.142-.4.231-.458.458a1.865,1.865,0,0,0-.047.534c0,.214-.155.3-.284.414.009.313-.225.462-.438.608-.093.064-.255.023-.362.076-.231.117-.351.422-.645.429-.357.01-.482.36-.76.481-.134-.012-.267-.026-.4-.034-.179-.01-.224,0-.257.215-.024.148-.092.3-.208.272-.3-.078-.431.319-.72.225-.031-.01-.081.016-.116.037-.224.131-.347.428-.643.431-.314,0-.429.286-.651.413-.037.021-.073.044-.1.062l-.539-.021a.684.684,0,0,1-.576.237.549.549,0,0,1-.592.186.34.34,0,0,0-.353.117.251.251,0,0,1-.228.1c-.216-.032-.329.057-.335.279a2.688,2.688,0,0,1-.022.268c-.021.154-.063.211-.268.2a.38.38,0,0,0-.339.161c-.133.171-.358-.038-.481.144a.7.7,0,0,1-.2.138c-.246-.272-.246-.283-.412-.283-.295,0-.617-.167-.869.146-.037.046-.163.03-.247.026a2.849,2.849,0,0,0-.534-.033c-.115.017-.208.173-.325.2a3.074,3.074,0,0,1-.525,0,.161.161,0,0,0-.11.057.542.542,0,0,1-.605.146.219.219,0,0,0-.24.068c-.125.155-.289.152-.472.163-.136.008-.141.191-.167.322-.013.06-.122.154-.158.142C426.973,158.914,426.956,158.819,426.966,158.724Zm-2.147-3.6a4.849,4.849,0,0,0-.348-.407c-.156-.149-.1-.322-.094-.493a.461.461,0,0,0-.036-.246,1.835,1.835,0,0,0-.345-.408c-.17-.136.011-.346-.143-.482a.348.348,0,0,1-.165-.337c.04-.219.043-.443.062-.66-.235-.279-.473-.547-.692-.83a.305.305,0,0,1-.022-.247c.108-.3-.18-.47-.208-.716-.011-.092.006-.176-.053-.245-.2-.238-.407-.475-.6-.718-.109-.135-.208-.28-.312-.421.057-.2-.063-.331-.185-.46a.9.9,0,0,0-.323-.678c-.063-.064-.117-.136-.174-.2,0-.044,0-.087,0-.13,0-.088.014-.178.021-.267.016-.182-.018-.285-.167-.295-.311-.022-.366-.182-.31-.44a4.854,4.854,0,0,1-.426-.517c-.063-.1-.02-.26-.078-.361a2.093,2.093,0,0,0-.342-.412.418.418,0,0,1-.1-.361c.009-.127.072-.27-.03-.379a.477.477,0,0,1-.168-.469c.021-.086,0-.182.027-.267a.543.543,0,0,0-.223-.577c.026-.315.045-.628.083-.938.013-.1.013-.18-.076-.237-.247-.161-.063-.522-.322-.682-.074-.045-.064-.143-.051-.242.028-.217.04-.437.055-.631.235-.2.438-.371.645-.542a.568.568,0,0,1,.1-.052c.22.263.221.263.544.3.084.01.224.012.242.057.132.326.569.209.719.526a.52.52,0,0,0,.51.359c.042,0,.115.12.136.195.119.435.21.571.511.653.088.025.206.041.2.134a.7.7,0,0,0,.244.575c-.069.252.086.411.236.576.088.1.163.205.248.313-.014.177-.029.352-.043.516a2.454,2.454,0,0,1,.429.53c.082.189.059.424.25.569a.619.619,0,0,0,.244.572l-.283.265a3.576,3.576,0,0,1,.426.517c.133.243-.005.517,0,.778,0,.13-.007.26-.011.374l.473.559c-.024.279-.036.589-.08.9-.032.215.124.313.228.461-.021.256-.043.522-.064.777a.526.526,0,0,0,.077.117.406.406,0,0,1,.147.472c-.086.253.1.4.207.56-.1.1-.232.181-.264.292a2.091,2.091,0,0,0-.026.521c.2.144.169.379.249.57.064.154.2.262.179.467-.058.488-.077.98-.135,1.469-.024.213.112.318.235.478-.035.419-.065.863-.115,1.3a.134.134,0,0,1-.171.117c-.036-.014-.086-.067-.084-.1.024-.307.088-.62-.209-.846C425.153,155.43,424.959,155.287,424.819,155.121ZM416.488,174.4c.137-.115.274-.23.391-.33.264-.073.556.142.759-.144a.213.213,0,0,1,.238-.078c.221.033.445.042.667.06a2.519,2.519,0,0,0,.406-.351c.156-.2.431-.045.585-.23a.334.334,0,0,1,.218-.119c.178-.006.356.028.535.036a1.137,1.137,0,0,0,.252-.027c.344-.066.346-.069.47.076.087.011.174.025.26.035.307.037.623.111.849-.2.263.091.4-.1.576-.238.206-.162.367-.423.629-.458a3.529,3.529,0,0,1,.8.056c.265.025.534.086.725-.179.309.015.62.014.926.053.216.026.314-.125.462-.23l1.057.089c.105-.085.2-.218.314-.239a1.081,1.081,0,0,1,.529.045c.11.039.167.23.276.27a1.965,1.965,0,0,0,.509.054c.188-.16.358-.306.532-.446a.1.1,0,0,1,.09.009c.186.361.539.247.831.285.4.052.8.07,1.2.108a.193.193,0,0,1,.1.072.21.21,0,0,1,.038.093.767.767,0,0,0-.331.53.138.138,0,0,1-.1.083c-.179-.006-.356-.026-.535-.041a2.5,2.5,0,0,0-.4.352c-.157.205-.431.045-.585.23a.336.336,0,0,1-.218.12c-.223,0-.445-.033-.669-.05-.115-.007-.183.076-.224.263s-.106.248-.245.237c-.268-.022-.536-.04-.8-.071a.273.273,0,0,0-.245.047.445.445,0,0,1-.468.166c-.105.081-.209.163-.314.243a.422.422,0,0,0-.473.151c-.061.075-.141.074-.242.062-.308-.035-.62-.055-.914-.08-.188.159-.357.3-.532.446-.018.014-.081.008-.09-.009-.158-.289-.317-.192-.476,0l-1.6-.134c-.177.128-.322.312-.584.232a1.959,1.959,0,0,0-.4-.038.17.17,0,0,1-.108.213c-.1.04-.151-.041-.16-.236a1.954,1.954,0,0,0-.4-.029c-.264.036-.376-.164-.527-.307-.039.033-.072.062-.107.09-.16.128-.182.139-.281,0-.126-.171-.3-.155-.47-.18a.434.434,0,0,0-.358.112c-.13.108-.14.1-.278-.052-.029-.035-.057-.069-.087-.1-.067.047-.136.094-.2.142a.325.325,0,0,1-.457-.039c-.058-.059-.117-.115-.176-.172-.068.057-.134.119-.206.172a.3.3,0,0,1-.361,0c-.1-.07-.149-.23-.288-.251S416.55,174.53,416.488,174.4Z" fill="#00a19a" fill-rule="evenodd"/>
      <path id="Path_172" data-name="Path 172" d="M428.834,154.35a.586.586,0,0,0,.037-.076c.06-.012.085.008.084.053A1.01,1.01,0,0,1,428.834,154.35Z" fill="#00a19a" fill-rule="evenodd"/>
      <path id="Path_173" data-name="Path 173" d="M428.038,128.277l-.539-.556c-.27.027-.35-.213-.5-.354-.075-.069-.113-.139-.065-.231.008-.015.083,0,.126.008l.539.045c.19.226.4.454.579.7a.3.3,0,0,1,.009.245C428.163,128.194,428.082,128.237,428.038,128.277Z" fill="#00a19a" fill-rule="evenodd"/>
      <path id="Path_174" data-name="Path 174" d="M437.161,109.646c-.011,0-.059-.056-.077-.092-.031-.059.007-.122.1-.165.011-.006.053.059.081.091C437.293,109.542,437.26,109.6,437.161,109.646Z" fill="#00a19a" fill-rule="evenodd"/>
      <path id="Path_175" data-name="Path 175" d="M421.1,174.976c.1-.04.153.041.162.236l-.268-.023A.169.169,0,0,1,421.1,174.976Z" fill="#00a19a" fill-rule="evenodd"/>
    </g>
    <g id="Group_228" data-name="Group 228" transform="matrix(0.809, -0.588, 0.588, 0.809, 563.968, 403.842)">
      <path id="Path_171-2" data-name="Path 171" d="M.21,10.652C-.018,10.4-.016,10.4.161,10.1a.513.513,0,0,0,.1-.226c0-.223-.031-.445-.057-.744l.506-.4a5.251,5.251,0,0,0-.062-.686.552.552,0,0,1,.234-.562C.855,7.108.824,6.754.795,6.4a.549.549,0,0,0,.216-.586A.351.351,0,0,1,1.1,5.45a.382.382,0,0,0,.122-.218A4.375,4.375,0,0,0,1.184,4.7c-.025-.262-.092-.534.176-.725,0-.131-.005-.261,0-.391.005-.083,0-.2.045-.242a.564.564,0,0,0,.15-.606c-.034-.159.068-.242.146-.345a.32.32,0,0,0-.035-.458c-.138-.114-.275-.229-.41-.347-.03-.027-.074-.071-.07-.1C1.232,1.211.942,1.143.87.945A.2.2,0,0,1,.86.813a2.694,2.694,0,0,1,.663-.8C1.553-.007,1.61,0,1.654,0s.1,0,.118.03c.16.254.494.125.683.319.125.128.272.233.408.349.254-.072.406.1.58.234a.358.358,0,0,1,.148.342c-.047.334.212.459.407.629a.169.169,0,0,0,.114.044,2.8,2.8,0,0,0,.783-.106.23.23,0,0,0,.087-.1c.109-.186.3-.145.468-.175a.445.445,0,0,1,.356.12c.2.145.321.139.458.012.23-.215.23-.215.437-.235l.268-.023.208.166.1.075L9.412,1.5c.131-.119.194-.293.413-.306.577-.033,1.154-.092,1.707-.138.161.126.268.267.481.234.264-.042.536-.038.8-.076a.628.628,0,0,1,.6.177c.044.045.168.039.247.022a.565.565,0,0,1,.59.2.525.525,0,0,1,.552.249l.824-.069c.271-.023.271-.023.584.223l1.6-.134c.174.146.338.3.519.43a.356.356,0,0,0,.244.038.671.671,0,0,1,.6.173c.116.1.344-.009.466.159.094.127.242.065.358.1.2.06.325.309.584.213.17.133.324.3.58.231.025-.006.091.049.1.083a.7.7,0,0,0,.334.527.607.607,0,0,0,.33.527.425.425,0,0,0,.227.442.224.224,0,0,1,.1.228.545.545,0,0,0,.248.57.154.154,0,0,1,.072.1c.022.178.018.36.052.534a.5.5,0,0,1-.185.465c-.062.063-.119.132-.174.2L19.6,7.122c-.109-.08-.207-.155-.31-.231-.184.36-.5.316-.807.29C18.292,6.912,18.019,7,17.758,7a.358.358,0,0,1-.216-.126.345.345,0,0,0-.364-.085.55.55,0,0,1-.583-.22l-1.07.09c-.169-.141-.319-.289-.581-.233a6.448,6.448,0,0,1-.791.075c-.151-.1-.239-.265-.459-.237-.4.051-.8.072-1.174.1-.057-.048-.089-.078-.125-.105-.259-.194-.336-.195-.55.028-.078.08-.126.142-.185.1-.174-.14-.342-.287-.514-.431-.249-.029-.533.132-.74-.13a.224.224,0,0,0-.24-.073c-.22.032-.443.042-.668.061a.551.551,0,0,0-.582-.225,1.072,1.072,0,0,1-.26,0l-.512-.434c-.4.025-.606-.3-.887-.491A.274.274,0,0,0,7,4.685a2.793,2.793,0,0,0-.354.4c-.011.012.013.078.034.086.249.093.179.383.331.529s.348.282.508.438c.112.11.237.079.364.1a.25.25,0,0,1,.177.156c.04.261.051.526.071.759l.582.491c.019.231.03.5.07.756.01.063.126.168.172.158.333-.069.475.205.665.367.076.065-.022.263.132.345a.443.443,0,0,1,.216.448c0,.146,0,.152.243.431.115.133.035.346.222.448a1.3,1.3,0,0,1,.308.257c.174.183.49.263.451.6.195.179.39.356.592.54.015.172.03.348.043.516.248.21.48.423.73.61.175.131.136.309.163.477.007.044.008.09.014.176l.881.746c.024.28.046.546.068.8a3.548,3.548,0,0,0,.319.265.568.568,0,0,1,.281.555.331.331,0,0,0,.172.328c.21.118.1.412.325.538.193.107.336.3.541.432.078.05.237,0,.367,0,.26,0,.535-.134.779,0a3.3,3.3,0,0,1,.52.428l1.337-.113a.616.616,0,0,0,.578.232,6.275,6.275,0,0,1,.79-.074c.146.124.287.236.419.357a.374.374,0,0,0,.354.119.658.658,0,0,1,.133-.012l.522,0c.155.259.5.118.677.325a.242.242,0,0,0,.23.1,2.69,2.69,0,0,1,.268-.023c.217-.011.217-.01.326.289.068.185.068.2.277.193a.269.269,0,0,1,.241.073,1.582,1.582,0,0,0,.206.165l.669-.056c.192-.015.225-.013.266.205s.116.319.337.283a.278.278,0,0,1,.231.1c.337.294.681.58,1.026.872l.558-.048c.222.195.466.392.69.608.2.187.505.081.689.317a3.248,3.248,0,0,0,.505.439c.206.173.411.345.615.52.069.059.152.045.246.052.224.018.225.032.266.411l1.01.821c.4-.136.4.195.494.419.318.128.206.567.533.71a.491.491,0,0,1,.334.519c.243.237.6.385.637.787l.54.457c.017.195.036.413.053.634a.692.692,0,0,1-.552.621.661.661,0,0,0-.471.175c-.217.233-.285.218-.547.024-.036-.026-.07-.057-.113-.094l-2.4.2-.625-.5-.522.044a3.011,3.011,0,0,1-.412-.357c-.157-.193-.434-.032-.583-.231-.13-.175-.322-.108-.49-.085a.373.373,0,0,1-.348-.134.247.247,0,0,0-.233-.093c-.134.018-.267.024-.414.037l-.623-.5c-.168.014-.345.028-.522.044a.727.727,0,0,0-.575-.245c-.1,0-.138-.109-.123-.209s-.01-.2-.105-.221c-.205-.052-.433-.041-.575-.241a.844.844,0,0,1-.678-.324c-.067-.06-.137-.116-.207-.175-.221.018-.447.022-.666.062-.17.03-.235-.1-.341-.166a.369.369,0,0,0-.107-.069.474.474,0,0,0-.134.008c-.042,0-.1.015-.126-.006-.483-.4-.96-.806-1.439-1.211l-.67.056a1.518,1.518,0,0,0-.037-.36c-.031-.092-.107-.163-.281-.2,0-.022.01-.038-.01-.068a.331.331,0,0,0-.166-.108c-.01,0-.077.073.055.153-.089-.014-.048.055.009.076.013.006.015,0,.028,0a1.682,1.682,0,0,1,.126.356.213.213,0,0,0,.276.152c.019.224.038.447.057.676a.54.54,0,0,1,.316.53c-.008.087.025.18.018.268-.015.2.115.306.239.44.138.149.126.39.329.532.143.1.068.331.1.5.007.044,0,.089.012.133.031.171-.014.355.092.512.32.125.2.586.534.706.078.028.137.112.207.169a.321.321,0,0,1,.033.458c-.026.035-.061.066-.086.1-.062.087-.092.315-.025.363a.642.642,0,0,1,.3.549,7.018,7.018,0,0,0,.094.786c.4.274.24.72.325,1.089.011.044-.006.1.016.132a.978.978,0,0,0,.161.2c.133.12.273.232.416.354.067.795.134,1.6.2,2.4.165.145.366.267.323.535-.007.043.013.091.007.134a.208.208,0,0,0,.119.221c.071.046.183.126.177.18-.031.273.248.347.317.54.043.122.049.244.166.337.247.192.481.4.731.612.014.168.025.346.048.522,0,.035.054.075.091.089.217.087.434-.007.652,0,.174,0,.389-.111.511.013.175.177.429.11.576.238a.678.678,0,0,0,.611.147c.044-.007.089-.008.156-.013l.874.735c.133-.011.222-.016.312-.027a.466.466,0,0,1,.363.093c.2.152.337.439.665.361.174.134.352.265.523.4.208.17.408.349.617.519.172.141.351.274.492.384.028.183.016.306.142.409.555.452,1.1.918,1.638,1.376.023.281.046.546.068.8l.846.715c.05.605.1,1.225.161,1.914l.588.385c.029.35.051.617.075.89a.549.549,0,0,1,.317.532,1.175,1.175,0,0,0,.035.259c.137.115.268.24.413.344.254.185-.015.265-.065.39-.009.022.021.065.042.09s.07.056.1.089c.174.183.485.271.433.614.3.449.3.449.324.671.026.31.051.62.077.923a.549.549,0,0,1,.318.55.36.36,0,0,0,.155.341.348.348,0,0,1,.152.2c.052.489.076.982.135,1.471a.631.631,0,0,1-.2.593,3.669,3.669,0,0,0-.262.306.574.574,0,0,1-.238.574.448.448,0,0,1-.2.142,3.352,3.352,0,0,1-.669.055c-.138-.005-.207-.122-.211-.276a.2.2,0,0,0-.259-.213c-.159.033-.245-.066-.344-.148-.357-.294-.358-.29-.55-.32-.287-.045-.29-.054-.108-.291.028-.036.075-.066.081-.1s-.046-.074-.081-.085c-.521-.169-.593-.208-.756-.426.05-.27-.279-.341-.3-.537-.04-.322-.286-.43-.5-.564-.089-.057-.313.05-.346-.1a.782.782,0,0,0-.343-.526c.033-.265-.163-.384-.328-.529-.257-.226-.587-.39-.649-.786-.01-.066-.136-.11-.2-.176-.115-.125-.334-.174-.335-.382s-.2-.27-.3-.409c-.043-.063-.022-.173-.03-.274L27.925,48.5c-.2-.167-.157-.5-.432-.62-.022-.009-.024-.079-.028-.121-.014-.133-.023-.268-.037-.425-.225-.19-.464-.39-.7-.593-.065-.056-.166-.124-.167-.188-.007-.393-.395-.45-.571-.689a.613.613,0,0,1-.055-.25c-.024-.126.028-.288-.1-.364a.592.592,0,0,1-.25-.573c0-.046.01-.106-.015-.131-.088-.1-.217-.167-.281-.276s.009-.253-.131-.354c-.217-.156-.414-.342-.619-.516a.294.294,0,0,0-.046.45.663.663,0,0,1,.255.432c.033.581.1,1.16.136,1.741.013.218.179.288.3.414l-.237.3a.428.428,0,0,1-.154.473.17.17,0,0,0-.063.109c.023.265.054.529.084.793.488.351.238.9.362,1.35.023.082.039.167.057.25.172.144.343.288.542.457.025.283.064.591.072.9.005.221.181.286.3.415.068.794.135,1.6.2,2.4-.05.064-.1.134-.159.2a.314.314,0,0,0,.052.455.463.463,0,0,1,.2.319c.061.846.137,1.691.2,2.485.124.136.275.224.287.329.077.667.128,1.338.173,2.008a.328.328,0,0,1-.112.22c-.158.148-.093.323-.094.494a.363.363,0,0,0,.181.327.255.255,0,0,1,.138.21c.015.223.036.446.056.686l-.493.616c.073.2-.054.441.158.615.128.1.119.119-.015.379-.035.07-.007.129.1.184s.145.124.089.181a.462.462,0,0,0-.171.468.689.689,0,0,0-.208.715.208.208,0,0,1-.069.24,1.705,1.705,0,0,0-.169.213c.059.707.119,1.42.179,2.127-.12.143-.212.331-.36.4s-.337.065-.435.24a.6.6,0,0,1-.086.1c-.05-.068-.134-.132-.142-.2-.049-.445-.069-.894-.124-1.338-.026-.214.115-.318.218-.454-.057-.059-.11-.12-.168-.177-.192-.189-.172-.446.07-.5.191-.044.333-.078.3-.321-.036-.309-.055-.621-.081-.932a.63.63,0,0,0,.251-.576.558.558,0,0,0,.192-.592,1.964,1.964,0,0,1-.024-.267c-.019-.263,0-.534-.289-.695-.051-.027-.058-.159-.057-.243a.486.486,0,0,0-.316-.526c-.039-.462-.057-.908-.121-1.348a.608.608,0,0,1,.227-.577c-.1-.089-.188-.176-.282-.262.109-.118.106-.12,0-.483a1.353,1.353,0,0,1-.065-.244c-.075-.848-.145-1.7-.217-2.544-.016-.189-.1-.352-.168-.313a.225.225,0,0,0-.108.224.608.608,0,0,1,.008.134.209.209,0,0,1-.053.112.443.443,0,0,0-.165.469l-.244.314a.421.421,0,0,1-.152.473.222.222,0,0,0-.059.242.573.573,0,0,1-.151.607c-.049.042-.044.159-.043.242,0,.134.024.267.03.4,0,.085.026.218-.017.249-.246.171-.118.508-.32.684-.181.156-.023.429-.232.584a2.411,2.411,0,0,0-.35.387c.023.286.045.553.068.819-.147.173-.3.338-.43.518a.358.358,0,0,0-.039.245.569.569,0,0,1-.181.6,4.539,4.539,0,0,1-.005.522c-.008.073-.084.2-.13.2a.5.5,0,0,0-.436.25c-.05.074-.114.138-.181.218.017.211.027.434.058.654.015.1.016.186-.069.239-.254.16-.063.524-.322.683-.079.048-.069.142-.057.242.038.356.063.714.093,1.07.012.154-.03.225-.225.251-.153.019-.259.08-.268.22a.687.687,0,0,1-.105.361c-.193.294-.188.318.06.543.089.081.118.109.061.191-.179.256-.188.261-.157.468a.466.466,0,0,1-.147.477c-.032.028-.082.08-.074.1.091.262-.134.4-.222.584-.016.035,0,.088.008.133.008.089.018.178.022.268,0,.041.007.107-.016.122-.252.161-.143.488-.321.683-.12.132-.232.272-.357.42l.275.26a.629.629,0,0,0-.225.573c.062.35.069.71.1,1.054.146.123.145.125.092.481-.007.039-.042.079-.039.117q.069.87.144,1.741a.28.28,0,0,0,.42.165,2.38,2.38,0,0,0,.273-.285c.339.034.416-.286.6-.453-.049-.254,0-.411.309-.446.16-.019.21-.08.173-.291-.023-.13-.024-.263-.034-.382l.272-.323a1.753,1.753,0,0,0,.172-.206c.083-.144-.034-.368.159-.46.109-.053.262.01.351-.136a2.216,2.216,0,0,1,.258-.308c.058-.062.126-.159.192-.161.312-.01.371-.177.313-.438.157-.162.3-.327.222-.582a.44.44,0,0,1,.165-.469.245.245,0,0,0,.045-.246.6.6,0,0,1,.167-.6c.278-.291.527-.61.781-.908.007-.139-.058-.264.063-.387.19-.19.352-.406.543-.633.1.091.191.183.29.272.187.167.2.276,0,.552a.341.341,0,0,0-.086.237c.016.247.008.248-.207.714.09.264-.1.408-.242.575l-.693.82a.677.677,0,0,1-.234.58c-.022.02,0,.083,0,.127.005.248.005.248-.209.716.088.263-.106.407-.246.572-.115.138-.23.275-.344.409-.126.03-.261-.017-.362.124-.156.218-.342.414-.522.627a3.8,3.8,0,0,0,.037.391.2.2,0,0,1-.072.239c-.059.039-.125.006-.2-.08a1.082,1.082,0,0,0-.116-.1c-.3.248-.49.6-.767.849l-.54.072c-.112.278-.457.227-.614.434a.537.537,0,0,1-.333.173c-.194.057-.184.106.033.329.022.023.051.068.043.089a.186.186,0,0,1-.212.127c-.044,0-.106.027-.131.007q-.367-.29-.723-.6a.179.179,0,0,1-.029-.123c.015-.223-.192-.276-.306-.408a6.71,6.71,0,0,0-.073-.8.57.57,0,0,1,.229-.558c-.136-.136-.32-.207-.307-.426a.547.547,0,0,0-.266-.563.1.1,0,0,1-.008-.088c.213-.14.152-.39.24-.577a1.073,1.073,0,0,1,.173-.212c-.144-.15-.336-.262-.309-.527a2.871,2.871,0,0,0-.039-.541.586.586,0,0,0,.239-.57c.182-.149.183-.37.253-.57a2.015,2.015,0,0,1,.418-.519c0-.086.009-.172.006-.258s-.018-.178-.02-.268c0-.127-.084-.291.037-.373.222-.15.109-.409.233-.583.074-.1.2-.172.165-.341-.04-.219-.043-.445-.062-.668-.014-.178-.03-.357-.045-.531A5.293,5.293,0,0,1,20,66.728c.2-.188.066-.521.318-.686.042-.028-.036-.1-.113-.179-.166-.163-.249-.564-.109-.709a.623.623,0,0,0,.139-.611A.288.288,0,0,1,20.3,64.3c.172-.24.166-.245.149-.472-.007-.088-.014-.177-.021-.26.149-.177.3-.341.433-.522A.36.36,0,0,0,20.9,62.8a.572.572,0,0,1,.183-.6,2.505,2.505,0,0,0,0-.387.372.372,0,0,1,.126-.352c.119-.1.064-.242.1-.361s.165-.206.217-.322a.461.461,0,0,0-.008-.262.441.441,0,0,1,.144-.476c.13-.105.022-.258.07-.368.07-.152.262-.235.221-.453-.036-.2.239-.272.221-.445-.022-.208.139-.313.187-.466.066-.2.064-.424.251-.571a3.084,3.084,0,0,0-.027-.528.568.568,0,0,1,.224-.58c-.024-.271-.046-.538-.071-.832.166-.188.331-.4.523-.587s.229-.336-.031-.482a.112.112,0,0,1,.014-.09c.228-.134.118-.406.238-.577.1-.145.23-.275.344-.413a1.068,1.068,0,0,0,.074-.106c-.007-.089-.016-.178-.022-.268-.013-.185-.015-.187.166-.468a.331.331,0,0,0,0-.364c-.042-.073-.163-.105-.194-.178a1.592,1.592,0,0,1-.085-.9c.275-.194.18-.472.162-.729-.024-.313-.038-.628-.084-.938-.03-.215.119-.316.225-.462l-.28-.261c-.022-.26-.045-.528-.067-.8a.629.629,0,0,1-.323-.53c-.037-.713-.112-1.424-.17-2.118-.138-.136-.307-.209-.312-.426a5.829,5.829,0,0,0-.081-.655c-.295-.144-.275-.422-.3-.686-.042-.535-.083-1.072-.139-1.606-.008-.07-.092-.144-.157-.2a.289.289,0,0,1-.141-.208,6.9,6.9,0,0,1-.07-.937c.018-.335-.218-.459-.414-.628a.094.094,0,0,0-.092-.005c-.036.024-.085.068-.084.1.024.357.056.714.087,1.076a.581.581,0,0,0-.227.577c.051.263.037.537.078.8a.633.633,0,0,1-.165.474c-.109.171-.031.433-.246.57a.749.749,0,0,1-.237.576.666.666,0,0,1-.238.576.616.616,0,0,1-.236.577,3.653,3.653,0,0,0-.346.411c-.142.209-.433.338-.371.662a3.325,3.325,0,0,1-.474.632.171.171,0,0,0,0,.128c.084.256-.288.324-.23.584.028.126-.187.411-.334.54a.636.636,0,0,0-.532.328c-.018.024-.084.011-.129.015.021.02.026.061,0,.118s-.091.1-.147.134c-.009.006-.088-.06-.083-.071a.357.357,0,0,1,.108-.166c.053-.033.094-.035.117-.017-.026-.31-.053-.621-.079-.932.192-.279.525-.472.5-.883-.006-.092.108-.138.207-.123s.193-.011.222-.1a2.617,2.617,0,0,1,.074-.365,1.709,1.709,0,0,1,.253-.31l.438-.519a2.075,2.075,0,0,0-.023-.257.422.422,0,0,1,.145-.473c.167-.125-.026-.342.144-.479a2.782,2.782,0,0,0,.35-.4,1.607,1.607,0,0,0,.252-.311c.053-.107.016-.266.078-.36a.633.633,0,0,0,.176-.469c-.052-.4-.059-.8-.111-1.2-.027-.215.123-.314.228-.461-.021-.256-.044-.52-.063-.753.053-.2.279-.258.243-.48-.016-.1-.019-.179-.118-.218a.1.1,0,0,0-.091.019c-.348.407-.693.816-1.039,1.225.069.426-.3.608-.5.879-.186.251-.4.482-.6.715-.129.031-.258-.01-.364.124-.3.386-.654.737-.936,1.137-.146.208-.4.165-.532.326s-.011.339-.021.511a.212.212,0,0,1-.027.12c-.429.513-.861,1.026-1.3,1.534a.167.167,0,0,1-.121.033c-.285-.017-.348.416-.668.328a.39.39,0,0,0-.123.345.214.214,0,0,1-.253.227c-.042,0-.106-.006-.127.019-.207.234-.408.474-.609.714.091.425-.347.574-.468.889.079.266-.155.385-.258.568s-.374.015-.443.224c-.038.119-.032.251-.07.368-.029.09-.122.113-.225.1a.215.215,0,0,0-.124.027c-.035.023-.086.068-.083.1a.675.675,0,0,1-.239.576c-.1.091-.184.194-.26.276.018.21.032.387.047.558-.092.148-.267.236-.233.454.041.265.049.534.072.8.015.171.088.235.257.223s.356-.039.534-.042c.1,0,.182-.016.23-.1a.44.44,0,0,1,.437-.235.421.421,0,0,0,.444-.217c.081-.148.25-.065.35-.13.14-.09.186-.295.407-.3s.279-.205.378-.338a.63.63,0,0,1,.557-.28.341.341,0,0,0,.238-.07,4.244,4.244,0,0,0,.517-.614c.149-.231.363-.217.58-.233.01.134.022.267.035.417L15,52.291c-.294-.012-.392.134-.34.412.007.03-.038.076-.068.105a.249.249,0,0,1-.105.064c-.33.072-.732-.083-.959.311-.017.028-.073.04-.113.049-.257.052-.55-.04-.768.129a3.326,3.326,0,0,0-.443.51l-1.068.09-.319-.248c-.168.014-.346.033-.523.039a.133.133,0,0,1-.1-.083.7.7,0,0,0-.334-.527,5.978,5.978,0,0,1-.071-.8c0-.1.15-.2.232-.305-.092-.262.106-.4.235-.578.093-.128.223-.114.345-.152a.263.263,0,0,0,.145-.187c.018-.172-.029-.355.006-.522.025-.114.183-.184.2-.326a1.369,1.369,0,0,1,.032-.25c.032-.1.125-.093.219-.113a.749.749,0,0,0,.48-.553c.01-.041-.027-.1-.006-.131.162-.211.336-.414.5-.624.081-.1.151-.211.226-.318-.1-.257.241-.38.209-.579-.047-.294.339-.423.221-.716a.951.951,0,0,1,.559-.493c.2-.083.2-.088.185-.289-.005-.045-.007-.09-.011-.134-.007-.09-.015-.178-.023-.265A3.982,3.982,0,0,1,13.9,45.4c.054-.05.186-.008.249-.053a.833.833,0,0,0,.369-.909c-.013-.057.083-.2.125-.2.333.013.425-.279.62-.464-.011-.122-.023-.254-.032-.386-.013-.185.014-.239.172-.3.078-.03.179-.021.241-.069.234-.18.3-.567.7-.55.177-.2.356-.4.529-.6.2-.237.4-.477.6-.712-.019-.338-.019-.339.186-.42.079-.03.183-.031.234-.085a2.788,2.788,0,0,0,.51-.619c.089-.181.076-.406.245-.575.079-.079-.013-.243.067-.366a.828.828,0,0,1,.775-.4c.062,0,.19-.116.181-.149-.071-.269.1-.425.257-.574a.816.816,0,0,0,.238-.578c0-.036.057-.1.082-.1.333.03.436-.258.638-.46-.035-.422-.071-.865-.113-1.308a.153.153,0,0,0-.075-.1c-.242-.125-.247-.35-.245-.572,0-.1-.015-.185-.108-.224-.276-.115-.148-.506-.432-.619-.084-.035-.1-.127-.1-.229s-.016-.179-.019-.268a.234.234,0,0,0-.136-.21c-.185-.1-.177-.284-.193-.459a.379.379,0,0,1,.105-.359.266.266,0,0,0,.084-.1c.023-.06-.025-.126-.122-.178a.245.245,0,0,1-.137-.209c-.02-.268-.056-.535-.063-.8a.362.362,0,0,0-.2-.316c-.145-.089-.082-.244-.14-.349a1.293,1.293,0,0,0-.284-.272.431.431,0,0,0-.234-.439c-.079-.049-.091-.13-.1-.231-.009-.2-.019-.2.168-.6.034-.071.01-.126-.1-.184a.353.353,0,0,1-.164-.334c-.006-.175,0-.358-.188-.46a.243.243,0,0,1-.138-.21c-.024-.312-.052-.624-.081-.971l-.871-.736c-.014-.167-.032-.3-.035-.435a.607.607,0,0,0-.259-.569c-.119-.076-.079-.241-.089-.368a.383.383,0,0,0-.165-.336.326.326,0,0,1-.1-.087c-.124-.188.01-.451-.154-.616a.641.641,0,0,1-.255-.434c-.008-.138-.15-.144-.255-.019-.056.068-.116.136-.172.2-.026.032-.047.068-.071.1.147.125.144.126.086.469a1.139,1.139,0,0,0-.031.25c.036.491.068.983.127,1.472.024.207-.1.319-.192.464a.3.3,0,0,0,.042.357c.03.033.071.055.1.087.167.18.2.321.083.452-.143.166-.3.325-.434.474.112.121.195.212.278.3a.785.785,0,0,0-.167.207c-.044.116-.015.267-.078.364a5.4,5.4,0,0,1-.446.54c.025.289.051.6.077.908.017.212.016.212-.29.325-.213.078-.214.078-.2.277a1.954,1.954,0,0,0,.038.4c.074.255-.085.408-.215.569.091.09.179.175.267.26l-.725.857c.018.2.029.419.058.639a.24.24,0,0,1-.058.243.431.431,0,0,0-.155.471c-.081.105-.162.21-.243.313a.485.485,0,0,1-.255.563c-.29.2-.1.619-.4.79,0,.13-.006.26,0,.39.005.258,0,.274-.27.34-.151.037-.228.107-.219.263,0,.045.027.1.008.131-.173.251-.314.545-.7.5a.318.318,0,0,0-.237.071c-.184.194-.351.406-.524.611-.387.456-.387.456-1.229.865-.144.3-.426.271-.687.291a.889.889,0,0,1-.135.011c-.212-.015-.305.144-.409.281a.364.364,0,0,1-.1-.037q-.463-.387-.925-.779c.046-.067.091-.135.139-.2a.323.323,0,0,0-.036-.457c-.269-.248-.267-.249-.026-.649a.189.189,0,0,0,.025-.093c-.351-.183-.27-.526-.3-.823-.01-.082-.018-.209.028-.246.315-.252.144-.574.143-.87,0-.164-.011-.164.224-.461a1.609,1.609,0,0,1-.274-.259.288.288,0,0,1-.022-.257,6.29,6.29,0,0,1,.434-.523c.107-.388-.082-.778-.014-1.169a3.923,3.923,0,0,1,.35-.407c.18-.159.026-.429.23-.585a2.584,2.584,0,0,0,.351-.4c-.1-.432.359-.571.464-.894-.014-.179-.033-.357-.043-.536-.006-.085-.028-.22.014-.249.246-.171.117-.512.322-.682.163-.136.035-.34.148-.477s.232-.273.345-.41.22-.277.33-.416c-.13-.3.284-.432.212-.715a.581.581,0,0,1,.166-.6c.15-.149.349-.295.274-.562.1-.14.207-.283.316-.419.139-.172.285-.339.416-.494-.028-.338-.051-.65-.083-.962a.213.213,0,0,1,.1-.23c.219-.136.052-.42.233-.581a3.589,3.589,0,0,0,.35-.406c-.052-.3.155-.482.324-.678.144-.168.285-.338.416-.492-.01-.117-.019-.206-.024-.295a2.279,2.279,0,0,1-.016-.527c.022-.116.139-.215.214-.322-.068-.324.217-.451.365-.655.436.033.373-.259.345-.528a1.627,1.627,0,0,1-.021-.268.35.35,0,0,0-.192-.32c-.193-.128-.083-.423-.326-.537a1.908,1.908,0,0,1-.392-.328c-.04-.274.033-.56-.268-.726-.125-.069-.081-.239-.092-.366a.417.417,0,0,0-.159-.34.359.359,0,0,1-.152-.2c-.036-.22-.042-.445-.063-.668-.011-.11-.1-.158-.3-.172s-.249-.053-.27-.208a1.587,1.587,0,0,1-.022-.267.264.264,0,0,0-.088-.235c-.172-.144-.34-.289-.51-.434.02-.387-.347-.476-.535-.7a.566.566,0,0,1-.081-.237c-.028-.126-.047-.255-.07-.383-.279-.109-.212-.46-.432-.617-.144-.1-.272-.231-.412-.343-.173-.138-.364-.262-.33-.529a.642.642,0,0,1-.32-.672.256.256,0,0,0-.133-.212c-.172-.134-.313-.329-.576-.238-.171-.186-.485-.262-.459-.6l-.282-.273c.022-.259-.148-.4-.331-.526a.67.67,0,0,1-.334-.529c0-.031-.069-.054-.1-.087-.167-.191-.449-.267-.484-.593-.022-.2-.345-.265-.313-.538.005-.043-.115-.139-.183-.145-.13-.011-.253.007-.362-.1-.126-.125-.27-.233-.411-.351a1.61,1.61,0,0,0-.174.145c-.127.139-.123.141.022.474a.126.126,0,0,1-.009.1c-.142.27-.147.274.1.476.029.349.055.706.091,1.061.013.125-.028.269.115.36a1.6,1.6,0,0,1,.188.172c-.093.141-.253.233-.227.451.056.486.086.975.125,1.438a2.645,2.645,0,0,1,.23.2.288.288,0,0,1,.041.356c-.1.145-.213.257-.19.464.067.623.115,1.249.156,1.873,0,.07-.07.156-.128.216a.276.276,0,0,0-.1.231c.04.446.068.893.118,1.338a.35.35,0,0,1-.144.343c-.177.129.013.347-.144.482-.093.081-.213.176-.158.337a.209.209,0,0,1-.08.237c-.062.057-.159.159-.143.207.105.3-.3.43-.226.719.015.062-.07.147-.108.222L3.4,18.2c-.008-.09-.015-.178-.023-.268-.018-.2-.011-.21.188-.285a.986.986,0,0,0,.237-.079c.131-.1.055-.244.052-.371-.006-.193-.01-.192.164-.467a.161.161,0,0,0,.028-.1c-.073-.437-.1-.465.047-.568.211-.154.123-.4.232-.581.067-.107.212-.171.167-.336-.059-.217.179-.288.226-.448.023-.077.015-.225-.031-.252a.714.714,0,0,1-.315-.681c-.021-.4-.063-.795-.094-1.159.081-.136.209-.194.2-.336a.6.6,0,0,1-.284-.553c-.025-.49-.064-.981-.124-1.469a.607.607,0,0,1,.195-.59.638.638,0,0,1,.25-.575c-.1-.092-.193-.178-.289-.267-.03-.35-.06-.706-.089-1.058-.1-.091-.231-.165-.284-.276a.973.973,0,0,1-.04-.4A.239.239,0,0,0,3.69,6.87a.365.365,0,0,1-.2-.318c0-.222-.049-.445-.048-.667,0-.2-.139-.3-.247-.434-.125-.161-.111-.418-.338-.521-.012-.144.123-.2.2-.33-.122-.1-.247-.215-.378-.318a.315.315,0,0,0-.36.027c-.166.2-.392.366-.324.676-.255.156-.14.492-.325.675-.153.149-.1.32-.1.491a.358.358,0,0,0,.178.327c.107.063.134.116.071.186s-.115.136-.178.211c.036.437.074.88.111,1.324l-.487.61c.043.036.078.064.11.094.233.223.241.288.081.547-.045.073-.12.147-.12.22a4.258,4.258,0,0,0,.056.667.363.363,0,0,0,.152.2c.1.069.147.136.082.184-.275.2-.179.485-.139.734a.593.593,0,0,1-.225.578c.022.271.045.537.067.8-.085.107-.166.211-.247.315.039.251-.04.544.256.7.082.045.1.129.1.23a3.625,3.625,0,0,0,.028.37c-.135.16-.249.3-.366.433s-.111.129.034.283c.2.209.2.3.006.553-.028.036-.058.069-.092.109.1,1.15.194,2.306.294,3.487a3.932,3.932,0,0,0,.386.325.273.273,0,0,0,.244.021c.209-.148.438-.3.42-.6-.01-.154.136-.217.183-.332a2.545,2.545,0,0,0,.073-.366c.008-.039.051-.1.085-.1.22-.027.444-.042.667-.06.018.222.037.445.055.67a.681.681,0,0,0-.213.714c.026.176,0,.192-.21.264s-.2.063-.4.3c-.1-.077-.2-.152-.3-.227-.124.114-.185.294-.406.3-.309.008-.618.047-.857.067l-.769-.649C.216,18.76.141,17.87.068,16.99c.1-.148.251-.248.228-.463C.229,15.9.186,15.278.133,14.654c-.008-.09.051-.149.1-.23.188-.288.181-.291-.04-.549a.517.517,0,0,1-.139-.205A2.73,2.73,0,0,1,.006,13c.01-.112.183-.205.2-.322a1.373,1.373,0,0,0-.021-.526.567.567,0,0,1,.225-.577l-.282-.262c.034-.04.064-.073.092-.109C.42,10.95.415,10.88.21,10.652ZM24.9,39.729a1.8,1.8,0,0,0,.055.528c.039.111.213.167.27.277s.01.258.148.342a.364.364,0,0,1,.19.321c0,.219.034.436.049.624.169.143.3.267.445.371a.359.359,0,0,1,.152.34.632.632,0,0,0,.292.551c.086.073,0,.263.131.345a.432.432,0,0,1,.231.439c.171.137.349.271.324.529a.646.646,0,0,1,.317.672.227.227,0,0,0,.136.209c.183.1.183.283.189.459a.457.457,0,0,0,.157.339c.182.173.488.259.461.595a1.717,1.717,0,0,0,.388.35c.249.113.14.4.323.538.105.075.211.152.2.314a2.9,2.9,0,0,0,.029.374c.3.276.7.459.628.961-.008.057.086.146.152.192.125.087.125.213.161.339s.156.166.307.165c.209,0,.236.041.257.214a1.109,1.109,0,0,0,.043.4c.1.18.356.268.31.54,0,.024.058.08.094.085.256.036.542.028.493.42.238.2.473.41.718.6a.574.574,0,0,1,.169.334c.06.2.357.266.306.536.094.091.187.184.284.271a2.554,2.554,0,0,1,.3.263c.131.167.336.044.475.149.071.053.137.114.215.18.084-.092.166-.187.254-.276.184-.189.067-.52.319-.68.023-.015.02-.079.021-.12a.284.284,0,0,0-.013-.132c-.106-.178-.362-.265-.317-.537,0-.025-.049-.067-.084-.092-.176-.134-.355-.264-.5-.368-.029-.337-.05-.6-.073-.86-.182-.164-.181-.164-.085-.476.009-.029.013-.083,0-.092a.545.545,0,0,1-.269-.558c.015-.217-.16-.3-.294-.42l.225-.3c-.168-.132-.333-.262-.312-.525a3.491,3.491,0,0,0-.038-.523c-.179-.151-.358-.287-.516-.444a.355.355,0,0,1-.077-.234.636.636,0,0,0-.273-.562.242.242,0,0,1-.02-.349c.258-.226.1-.346-.085-.475a.579.579,0,0,0-.222-.448c-.159-.132-.377-.212-.417-.479-.043-.289-.367-.358-.529-.561-.1-.129-.048-.335-.226-.442a2.9,2.9,0,0,1-.409-.344.175.175,0,0,1-.028-.122c.012-.284-.421-.347-.327-.668-.233-.246-.614-.371-.634-.787q-.36-.294-.722-.586c-.3.129-.426-.268-.714-.218-.213.037-.321-.307-.578-.213-.107-.071-.221-.132-.321-.212-.243-.2-.489-.391-.714-.608-.142-.137-.307-.119-.471-.159s-.24-.25-.455-.208c-.149.028-.222-.118-.329-.186a.106.106,0,0,0-.092,0C24.95,39.652,24.9,39.695,24.9,39.729ZM24.1,42.444c-.031.06.007.122.1.166.011,0,.052-.06.079-.092.026-.062-.007-.122-.106-.166C24.163,42.347,24.115,42.408,24.1,42.444ZM16.141,18.988c.028.267.059.535.065.8a.371.371,0,0,0,.2.313.215.215,0,0,1,.117.222.658.658,0,0,0,.325.67.466.466,0,0,0,.237.438c.177.135.336.294.481.423.164,0,.291-.057.409.068a1.563,1.563,0,0,0,.411.343c.183.091.414.052.577.24a4.286,4.286,0,0,0,.508.438c.034.029.066.08.1.082a1.4,1.4,0,0,0,.244-.016l1.461,1.235c.132-.012.265-.014.394-.037a.234.234,0,0,1,.243.056.478.478,0,0,0,.474.167c.042-.006.123.11.154.183.142.318.137.32.447.3l.523-.044c.078.067.149.12.214.183a.885.885,0,0,0,.679.323c.173.3.591.111.789.4a.481.481,0,0,0,.566.249l.31.243c.226-.019.449-.039.672-.056.186-.014.222-.006.264.208.028.143.075.289.2.28a.651.651,0,0,1,.468.186c.133.1.352-.019.47.156s.341.039.47.153a.539.539,0,0,0,.47.173c.266-.042.535-.053.8-.069.035,0,.071.045.109.062.358.158.36.175.605.139.168-.026.238.089.34.164a.319.319,0,0,0,.456-.063c.086-.1.173-.206.265-.314-.015-.172-.029-.349-.05-.586-.208-.165-.46-.35-.694-.557-.162-.142-.4-.231-.458-.458a1.865,1.865,0,0,1-.047-.534c0-.214-.155-.3-.284-.414.009-.313-.225-.462-.438-.608-.093-.064-.255-.023-.362-.076-.231-.117-.351-.422-.645-.429-.357-.01-.482-.36-.76-.481-.134.012-.267.026-.4.034-.179.01-.224,0-.257-.215-.024-.148-.092-.3-.208-.272-.3.078-.431-.319-.72-.225-.031.01-.081-.016-.116-.037-.224-.131-.347-.428-.643-.431-.314,0-.429-.286-.651-.413-.037-.021-.073-.044-.1-.062l-.539.021a.684.684,0,0,0-.576-.237.549.549,0,0,0-.592-.186.34.34,0,0,1-.353-.117.251.251,0,0,0-.228-.1c-.216.032-.329-.057-.335-.279a2.688,2.688,0,0,0-.022-.268c-.021-.154-.063-.211-.268-.2a.38.38,0,0,1-.339-.161c-.133-.171-.358.038-.481-.144a.7.7,0,0,0-.2-.138c-.246.272-.246.283-.412.283-.295,0-.617.167-.869-.146-.037-.046-.163-.03-.247-.026a2.849,2.849,0,0,1-.534.033c-.115-.017-.208-.173-.325-.2a3.074,3.074,0,0,0-.525,0,.161.161,0,0,1-.11-.057.542.542,0,0,0-.605-.146.219.219,0,0,1-.24-.068c-.125-.155-.289-.152-.472-.163-.136-.008-.141-.191-.167-.322-.013-.06-.122-.154-.158-.142C16.148,18.8,16.131,18.893,16.141,18.988Zm-2.147,3.6a4.849,4.849,0,0,1-.348.407c-.156.149-.095.322-.094.493a.461.461,0,0,1-.036.246,1.835,1.835,0,0,1-.345.408c-.17.136.011.346-.143.482a.348.348,0,0,0-.165.337c.04.219.043.443.062.66-.235.279-.473.547-.692.83a.305.305,0,0,0-.022.247c.108.3-.18.47-.208.716-.011.092.006.176-.053.245-.2.238-.407.475-.6.718-.109.135-.208.28-.312.421.057.2-.063.331-.185.46a.9.9,0,0,1-.323.678c-.063.064-.117.136-.174.2,0,.044,0,.087,0,.13,0,.088.014.178.021.267.016.182-.018.285-.167.295-.311.022-.366.182-.31.44a4.854,4.854,0,0,0-.426.517c-.063.1-.02.26-.078.361a2.093,2.093,0,0,1-.342.412.418.418,0,0,0-.1.361c.009.127.072.27-.03.379a.477.477,0,0,0-.168.469c.021.086,0,.182.027.267a.543.543,0,0,1-.223.577c.026.315.045.628.083.938.013.1.013.18-.076.237-.247.161-.063.522-.322.682-.074.045-.064.143-.051.242.028.217.04.437.055.631.235.2.438.371.645.542a.568.568,0,0,0,.1.052c.22-.263.221-.263.544-.3.084-.01.224-.012.242-.057.132-.326.569-.209.719-.526A.52.52,0,0,1,11,36.7c.042,0,.115-.12.136-.195.119-.435.21-.571.511-.653.088-.025.206-.041.2-.134a.7.7,0,0,1,.244-.575c-.069-.252.086-.411.236-.576.088-.1.163-.205.248-.313-.014-.177-.029-.352-.043-.516a2.454,2.454,0,0,0,.429-.53c.082-.189.059-.424.25-.569a.619.619,0,0,1,.244-.572l-.283-.265a3.576,3.576,0,0,0,.426-.517c.133-.243-.005-.517,0-.778,0-.13-.007-.26-.011-.374l.473-.559c-.024-.279-.036-.589-.08-.9-.032-.215.124-.313.228-.461-.021-.256-.043-.522-.064-.777a.526.526,0,0,1,.077-.117.406.406,0,0,0,.147-.472c-.086-.253.1-.4.207-.56-.1-.1-.232-.181-.264-.292a2.091,2.091,0,0,1-.026-.521c.2-.144.169-.379.249-.57.064-.154.2-.262.179-.467-.058-.488-.077-.98-.135-1.469-.024-.213.112-.318.235-.478-.035-.419-.065-.863-.115-1.3a.134.134,0,0,0-.171-.117c-.036.014-.086.067-.084.1.024.307.088.62-.209.846C14.328,22.282,14.134,22.425,13.994,22.591ZM5.663,3.317c.137.115.274.23.391.33.264.073.556-.142.759.144a.213.213,0,0,0,.238.078c.221-.033.445-.042.667-.06a2.519,2.519,0,0,1,.406.351c.156.2.431.045.585.23a.334.334,0,0,0,.218.119c.178.006.356-.028.535-.036a1.137,1.137,0,0,1,.252.027c.344.066.346.069.47-.076.087-.011.174-.025.26-.035.307-.037.623-.111.849.2.263-.091.4.1.576.238.206.162.367.423.629.458a3.529,3.529,0,0,0,.8-.056c.265-.025.534-.086.725.179.309-.015.62-.014.926-.053.216-.026.314.125.462.23l1.057-.089c.105.085.2.218.314.239a1.081,1.081,0,0,0,.529-.045c.11-.039.167-.23.276-.27a1.965,1.965,0,0,1,.509-.054c.188.16.358.306.532.446a.1.1,0,0,0,.09-.009c.186-.361.539-.247.831-.285.4-.052.8-.07,1.2-.108a.193.193,0,0,0,.1-.072.21.21,0,0,0,.038-.093.767.767,0,0,1-.331-.53.138.138,0,0,0-.1-.083c-.179.006-.356.026-.535.041a2.5,2.5,0,0,1-.4-.352c-.157-.205-.431-.045-.585-.23a.336.336,0,0,0-.218-.12c-.223,0-.445.033-.669.05-.115.007-.183-.076-.224-.263s-.106-.248-.245-.237c-.268.022-.536.04-.8.071a.273.273,0,0,1-.245-.047.445.445,0,0,0-.468-.166c-.105-.081-.209-.163-.314-.243a.422.422,0,0,1-.473-.151c-.061-.075-.141-.074-.242-.062-.308.035-.62.055-.914.08-.188-.159-.357-.3-.532-.446-.018-.014-.081-.008-.09.009-.158.289-.317.192-.476,0l-1.6.134c-.177-.128-.322-.312-.584-.232a1.959,1.959,0,0,1-.4.038.17.17,0,0,0-.108-.213c-.1-.04-.151.041-.16.236a1.954,1.954,0,0,1-.4.029c-.264-.036-.376.164-.527.307-.039-.033-.072-.062-.107-.09-.16-.128-.182-.139-.281,0-.126.171-.3.155-.47.18a.434.434,0,0,1-.358-.112c-.13-.108-.14-.1-.278.052-.029.035-.057.069-.087.1-.067-.047-.136-.094-.2-.142A.325.325,0,0,0,7,2.885c-.058.059-.117.115-.176.172-.068-.057-.134-.119-.206-.172a.3.3,0,0,0-.361,0c-.1.07-.149.23-.288.251S5.725,3.182,5.663,3.317Z" transform="translate(0 0)" fill="#00a19a" fill-rule="evenodd"/>
      <path id="Path_172-2" data-name="Path 172" d="M0,0A.586.586,0,0,1,.037.076C.1.088.122.068.121.023A1.01,1.01,0,0,0,0,0Z" transform="translate(18.009 23.362)" fill="#00a19a" fill-rule="evenodd"/>
      <path id="Path_173-2" data-name="Path 173" d="M1.127,0,.588.556C.318.529.238.769.086.91c-.075.069-.113.139-.065.231.008.015.083,0,.126-.008l.539-.045c.19-.226.4-.454.579-.7A.3.3,0,0,0,1.274.146C1.252.083,1.171.04,1.127,0Z" transform="translate(16.085 49.435)" fill="#00a19a" fill-rule="evenodd"/>
      <path id="Path_174-2" data-name="Path 174" d="M.088,0C.077,0,.029.056.011.092c-.031.059.007.122.1.165C.126.263.168.2.2.166.22.1.187.043.088,0Z" transform="translate(26.248 68.066)" fill="#00a19a" fill-rule="evenodd"/>
      <path id="Path_175-2" data-name="Path 175" d="M.112.236C.21.276.265.2.274,0L.006.023A.169.169,0,0,0,.112.236Z" transform="translate(10.167 2.5)" fill="#00a19a" fill-rule="evenodd"/>
    </g>
  </g>
</svg>
