<svg xmlns="http://www.w3.org/2000/svg" xmlns:xlink="http://www.w3.org/1999/xlink" width="176.555" height="161.445" viewBox="0 0 176.555 161.445">
  <defs>
    <clipPath id="clip-path">
      <rect id="Rectangle_3652" data-name="Rectangle 3652" width="176.555" height="161.445" fill="none" stroke="rgba(0,0,0,0)" stroke-width="1"/>
    </clipPath>
  </defs>
  <g id="Group_1768" data-name="Group 1768" transform="translate(-4941.069 -14128)">
    <g id="Group_1623" data-name="Group 1623" transform="translate(4941.069 14128)">
      <g id="Group_1622" data-name="Group 1622" transform="translate(0 0)" clip-path="url(#clip-path)">
        <g id="Group_1621" data-name="Group 1621" transform="translate(31.431 1.839)">
          <g id="Group_1620" data-name="Group 1620">
            <path id="Path_1642" data-name="Path 1642" d="M2134.782,1443.353l-3.048-47.827s-.1-.858-.143-.988l-7.475-33.2c-.511-4.165-60.347,2.441-60.347,2.441l6.7,79.708,9.9-.175,13.957-65.087,16.765,18.36,13.566,46.9Z" transform="translate(-2060.719 -1219.361)" fill="#455564" stroke="rgba(0,0,0,0)" stroke-width="1"/>
            <path id="Path_1645" data-name="Path 1645" d="M2082.391,1026.79h0a26.27,26.27,0,0,1,30.165,24.224l5.318,73.447c-23.684,13.366-38.389,10.146-60.347,4.413l-2.483-69.077A32.217,32.217,0,0,1,2082.391,1026.79Z" transform="translate(-2054.477 -981.366)" fill="#ffbb59" stroke="rgba(0,0,0,0)" stroke-width="1"/>
            <path id="Path_1646" data-name="Path 1646" d="M2053.936,1064.7h-.818l1.2,33.552h.822Zm61.695,34.186-.818.061,1.7,23.477c-22.439,12.663-36.819,10.438-56.948,5.291l.029.85c9.473,2.417,17.177,4.052,25.211,4.052,10.59,0,20.492-2.924,32.109-9.482l.453-.254Zm-30.6-74.435a26.277,26.277,0,0,1,26.172,24.524l1.627,22.488h.818l-1.631-22.541a27.073,27.073,0,0,0-31.1-24.978c-.1.016-.192.029-.29.045l-.061.842c.155-.029.314-.053.474-.078A26.541,26.541,0,0,1,2085.026,1024.453Z" transform="translate(-2053.118 -979.332)" fill="#dca000" stroke="rgba(0,0,0,0)" stroke-width="1"/>
            <g id="Group_1618" data-name="Group 1618" transform="translate(37.507 39.588)">
              <rect id="Rectangle_3646" data-name="Rectangle 3646" width="88.52" height="17.49" transform="matrix(0.993, 0.121, -0.121, 0.993, 3.718, 17.765)" fill="#ff826b" stroke="rgba(0,0,0,0)" stroke-width="1"/>
              <rect id="Rectangle_3647" data-name="Rectangle 3647" width="53.94" height="78.587" transform="translate(0 89.27) rotate(-83.046)" fill="#ff826b" stroke="rgba(0,0,0,0)" stroke-width="1"/>
              <path id="Path_1651" data-name="Path 1651" d="M2265.07,1028.634l-.358,2.942L2235.375,1028s-.082-7.983,2.255-13.424c1.86-4.268,5.225-6.936,11.318-2.837,11.926,8.012,15.275,14.763,15.992,16.482l0,.03c.058.16.094.288.112.352Z" transform="translate(-2220.697 -1008.973)" fill="#ff826b" stroke="rgba(0,0,0,0)" stroke-width="1"/>
              <path id="Path_1652" data-name="Path 1652" d="M2391.561,1034.332l-30.853-3.763.468-3.832.04-.037.005-.041a7.471,7.471,0,0,0,.5-.65c2.995-3.9,17.605-22.15,26.759-18.316,3,1.245,4.507,4.063,5.15,7.4C2395.164,1023.145,2391.561,1034.332,2391.561,1034.332Z" transform="translate(-2310.144 -1007.167)" fill="#ff826b" stroke="rgba(0,0,0,0)" stroke-width="1"/>
              <path id="Path_1653" data-name="Path 1653" d="M2394.891,1015.1c-1.4,3.718-5.751,9-13.524,7.048-6.179-1.548-15.495,2.836-18.365,4.284-.261.135-.449.238-.523.271l.005-.041a7.453,7.453,0,0,0,.5-.65c2.995-3.9,17.605-22.15,26.759-18.316C2392.738,1008.937,2394.249,1011.756,2394.891,1015.1Z" transform="translate(-2311.407 -1007.167)" fill="#bf6b63" stroke="rgba(0,0,0,0)" stroke-width="1"/>
              <path id="Path_1654" data-name="Path 1654" d="M2270.671,1028.6a.575.575,0,0,1-.17-.082c-1.491-1.075-11.377-10.192-18.452-10.04-5.241.1-6.815-2.4-8.8-3.9,1.86-4.268,5.224-6.936,11.318-2.837,11.926,8.012,15.275,14.763,15.992,16.482l0,.03C2270.617,1028.409,2270.653,1028.537,2270.671,1028.6Z" transform="translate(-2226.319 -1008.973)" fill="#bf6b63" stroke="rgba(0,0,0,0)" stroke-width="1"/>
              <path id="Path_1655" data-name="Path 1655" d="M2344.254,1070.376l-.457,3.751-7.874-.96.458-3.751a2.416,2.416,0,0,1,.1-.508,1.378,1.378,0,0,1,.083-.378l.005-.043a4.457,4.457,0,0,1,.214-.537,4.019,4.019,0,0,1,4.11-2.614,4.061,4.061,0,0,1,3.34,3.7l-.005.043a1.024,1.024,0,0,1,.042.265,2.154,2.154,0,0,1,.021.435A3.3,3.3,0,0,1,2344.254,1070.376Z" transform="translate(-2292.455 -1048.662)" fill="#bf6b63" stroke="rgba(0,0,0,0)" stroke-width="1"/>
              <rect id="Rectangle_3648" data-name="Rectangle 3648" width="71.347" height="7.89" transform="translate(35.088 93.551) rotate(-83.046)" fill="#fff" stroke="rgba(0,0,0,0)" stroke-width="1"/>
              <rect id="Rectangle_3649" data-name="Rectangle 3649" width="2.916" height="35.348" transform="translate(49.099 43.857) rotate(-83.046)" fill="#bf6b63" stroke="rgba(0,0,0,0)" stroke-width="1"/>
              <rect id="Rectangle_3650" data-name="Rectangle 3650" width="2.916" height="35.348" transform="translate(6.178 38.622) rotate(-83.046)" fill="#bf6b63" stroke="rgba(0,0,0,0)" stroke-width="1"/>
              <rect id="Rectangle_3651" data-name="Rectangle 3651" width="2.914" height="7.89" transform="matrix(0.121, -0.993, 0.993, 0.121, 41.266, 42.901)" fill="#bf6b63" stroke="rgba(0,0,0,0)" stroke-width="1" opacity="0.5"/>
            </g>
            <g id="Group_1619" data-name="Group 1619" transform="translate(6.867 58.5)">
              <path id="Path_1656" data-name="Path 1656" d="M2163.274,1156.439c-4.077-1.636-8.131-3.3-12.114-5.04s-7.906-3.546-11.646-5.52a72.074,72.074,0,0,1-10.416-6.55,43.875,43.875,0,0,1-8.152-8.115,52.6,52.6,0,0,1-5.778-9.986,104.592,104.592,0,0,1-4.268-11.434c-.306-1-.632-1.98-.92-3l-.879-3.039c-.556-2.058-1.125-4.1-1.648-6.186-1.073-4.146-2.07-8.368-3.056-12.6-1.368-5.34-7.372-8.388-13.242-6.625h0c-5.858,1.759-9.2,7.655-7.26,12.985,1.631,4.16,3.279,8.326,5.036,12.506.858,2.085,1.784,4.182,2.691,6.27l1.428,3.14c.466,1.044.994,2.095,1.488,3.139a120.285,120.285,0,0,0,6.871,12.459,67.034,67.034,0,0,0,9.27,11.611,56.886,56.886,0,0,0,11.943,8.857,83.084,83.084,0,0,0,12.9,5.721c4.327,1.533,8.648,2.8,12.959,3.981s8.615,2.252,12.916,3.29a2.97,2.97,0,0,0,3.457-2.126h0A2.985,2.985,0,0,0,2163.274,1156.439Z" transform="translate(-2081.555 -1076.516)" fill="#f8e4c9" stroke="rgba(0,0,0,0)" stroke-width="1"/>
              <path id="Path_1657" data-name="Path 1657" d="M2086.079,1119.506l-8.185-24.668c-2.476-7.461.977-15.557,8.438-18.033h0c7.461-2.476,16.106,1.607,18.582,9.068l8.185,24.668Z" transform="translate(-2077.1 -1075.261)" fill="#ffbb59" stroke="rgba(0,0,0,0)" stroke-width="1"/>
              <path id="Path_1658" data-name="Path 1658" d="M2108.227,1083.573c-2.356-7.1-10.137-11.529-17.711-10.082a14.989,14.989,0,0,0-1.9.493,13.979,13.979,0,0,0-7.95,6.627l1.06-.2a13.165,13.165,0,0,1,7.147-5.645c7.46-2.479,16.108,1.6,18.583,9.066l.215.646.807-.154Zm3.614,10.9-.807.154,4.6,13.873-10.9,3.615.155.811,11.779-3.908Zm-30.379,1.438-.807.154,7.441,22.43,4.67-1.55-.154-.807-4,1.326Z" transform="translate(-2079.637 -1073.217)" fill="#dca000" stroke="rgba(0,0,0,0)" stroke-width="1"/>
            </g>
            <g id="Group_1617" data-name="Group 1617" transform="translate(10.283)">
              <g id="Group_1616" data-name="Group 1616" transform="translate(7.959 11.432)">
                <path id="Path_1647" data-name="Path 1647" d="M2144.338,985.716l.575,18.685a10.365,10.365,0,0,1-12.175.374l-.574-18.685Z" transform="translate(-2127.773 -963.702)" fill="#f8e4c9" stroke="rgba(0,0,0,0)" stroke-width="1"/>
                <path id="Path_1648" data-name="Path 1648" d="M2144.338,985.716l.26,8.451a9.865,9.865,0,0,1-2.707.709q-.458.051-.918.065a10.955,10.955,0,0,1-8.655-3.836l-.154-5.014Z" transform="translate(-2127.773 -963.702)" fill="#ea8096" stroke="rgba(0,0,0,0)" stroke-width="1"/>
                <path id="Path_1649" data-name="Path 1649" d="M2138.575,919.247l-.057,7.816-.023,3.163a8.675,8.675,0,0,1-7.686,8.561,9.724,9.724,0,0,1-4.193-.435c-.306-.1-.607-.22-.9-.351-.182-.08-.362-.165-.538-.257a9.534,9.534,0,0,1-4.04-4.038c-.778-1.489-1.517-3.134-2.229-4.874-.41-.993-.809-2.018-1.2-3.06a13.2,13.2,0,0,1,2.4-13.481c2.795-3.113,6.4-4.162,10.865-3A10.2,10.2,0,0,1,2138.575,919.247Z" transform="translate(-2116.828 -908.83)" fill="#f8e4c9" stroke="rgba(0,0,0,0)" stroke-width="1"/>
              </g>
              <path id="Path_1650" data-name="Path 1650" d="M2121.5,892.7c.774-.837.747-2.3.531-3.507a7.885,7.885,0,0,1-.188-3.661c.463-1.5,1.957-2.409,2.124-3.988.163-1.545-1.023-2.707-2.078-3.543l-8.421-6.676a11.519,11.519,0,0,0-3.668-2.235,3.742,3.742,0,0,0-3.931.991c-.541.61-.9,1.433-1.468,2.011-1.278,1.3-3.129.994-4.762.794a8.282,8.282,0,0,0-5.945,1.084,6,6,0,0,0-2.257,6.292,12.389,12.389,0,0,0,1.645,2.817,4.5,4.5,0,0,1,.834,3.213c-.312,1.538-1.7,2.305-2.709,3.314a8.07,8.07,0,0,0-2.169,5.907,7.245,7.245,0,0,0,2.65,5.449c1.333.989,3.369,1.071,4.269-.538,1.027-1.836.081-4.895,1.593-6.139,1.817-1.5,4.4,2,6.188.453.958-.825.97-2.593,1.766-3.645,1.05-1.388,2.789-.966,4.1-.688a22.565,22.565,0,0,0,4.192.416,6.879,6.879,0,0,1,3.549,1.181C2118.548,892.731,2120.212,894,2121.5,892.7Z" transform="translate(-2089.033 -868.904)" fill="#333a64" stroke="rgba(0,0,0,0)" stroke-width="1"/>
              <ellipse id="Ellipse_155" data-name="Ellipse 155" cx="4.564" cy="4.061" rx="4.564" ry="4.061" transform="translate(5.583 24.213) rotate(-1.761)" fill="#f8e4c9" stroke="rgba(0,0,0,0)" stroke-width="1"/>
            </g>
          </g>
        </g>
      </g>
    </g>
  </g>
</svg>
