<svg xmlns="http://www.w3.org/2000/svg" width="146.711" height="147.717" viewBox="0 0 146.711 147.717">
  <g id="Group_1666" data-name="Group 1666" transform="translate(-276.168 -193.165)">
    <g id="Group_1655" data-name="Group 1655" transform="translate(357.803 193.95)">
      <g id="Group_1653" data-name="Group 1653" transform="translate(0 0)">
        <g id="Group_1639" data-name="Group 1639" transform="translate(43.374 107.196)">
          <g id="Group_1637" data-name="Group 1637" transform="translate(0 29.939)">
            <path id="Path_1682" data-name="Path 1682" d="M684.961,642.792a1.77,1.77,0,0,1,1.6-.687,1.81,1.81,0,0,1,1.345,1.013,3.435,3.435,0,0,1,.231,1.154c.168,2.031.153,6.854-2.553,7.548a2.014,2.014,0,0,1-2.381-1.537C682.747,648.745,683.424,644.484,684.961,642.792Z" transform="translate(-683.064 -642.087)" fill="#2a313f"/>
          </g>
          <g id="Group_1638" data-name="Group 1638" transform="translate(0.935)">
            <path id="Path_1683" data-name="Path 1683" d="M686.106,544.638l.142,12.39c-.165,5.5.695,11.037.53,16.541a13.948,13.948,0,0,0-.049,3.855c.312,1.227,1.309,1.444,2.332.822,1.371-.832,1.15-2.776,1.379-4.195.627-3.9,1.363-7.776,2.018-11.669.321-1.908-.341-4.583-.2-6.514l2-10.384Z" transform="translate(-686.106 -544.638)" fill="#efc4b1"/>
          </g>
        </g>
        <g id="Group_1640" data-name="Group 1640" transform="translate(41.052 70.285)">
          <path id="Path_1684" data-name="Path 1684" d="M692.918,441.386l-5.393,23.954-1.146,22.621-8.551-.192L675.5,424.494l16.576.3Z" transform="translate(-675.504 -424.494)" fill="#ffbb59"/>
        </g>
        <g id="Group_1645" data-name="Group 1645" transform="translate(26.031 70.745)">
          <g id="Group_1643" data-name="Group 1643" transform="translate(3.329 38.191)">
            <g id="Group_1641" data-name="Group 1641" transform="translate(1.516 27.827)">
              <path id="Path_1685" data-name="Path 1685" d="M644.549,641.5a1.738,1.738,0,0,1,1.626-.593,1.849,1.849,0,0,1,1.3,1.094,3.491,3.491,0,0,1,.181,1.168c.081,2.043-.141,6.869-2.867,7.4a2.047,2.047,0,0,1-2.308-1.679C642.089,647.329,642.946,643.1,644.549,641.5Z" transform="translate(-642.385 -640.874)" fill="#2a313f"/>
            </g>
            <g id="Group_1642" data-name="Group 1642">
              <path id="Path_1686" data-name="Path 1686" d="M645.637,550.3l-.726,12.37c-.059,3.438-.517,6.849-.873,10.263-.331,3.172.184,6.475-1.474,9.36-.52.9-1.571,1.507-2.3.408-.566-.847-.23-2.26-.338-3.221-.443-3.922-1-7.831-1.466-11.75-.231-1.921.556-4.562.5-6.5l-1.51-10.465Z" transform="translate(-637.449 -550.299)" fill="#efc4b1"/>
            </g>
          </g>
          <g id="Group_1644" data-name="Group 1644">
            <path id="Path_1687" data-name="Path 1687" d="M627.31,440.958l-.7,23.253,3.649,23.514,8.7.26-.384-25.448,4.6-21.1,1.545-13.814-13.8-1.628Z" transform="translate(-626.614 -425.99)" fill="#ffbb59"/>
          </g>
        </g>
        <g id="Group_1646" data-name="Group 1646" transform="translate(29.337 22.802)">
          <path id="Path_1688" data-name="Path 1688" d="M645.681,270.3l14.869-.355,8.621,16.033-3.064,15.017-.546,17.971-21.209.289-6.979-1.133,1.853-19.2-1.062-25.65Z" transform="translate(-637.372 -269.94)" fill="#333a64"/>
        </g>
        <g id="Group_1647" data-name="Group 1647" transform="translate(0 26.845)">
          <path id="Path_1689" data-name="Path 1689" d="M577.187,289.974l-5.369,16.458-8.013,2.877L541.884,303.4l2.947-4.557,19.279.627,7.931-16.375Z" transform="translate(-541.884 -283.098)" fill="#3b455a"/>
        </g>
        <g id="Group_1652" data-name="Group 1652" transform="translate(28.735)">
          <g id="Group_1648" data-name="Group 1648" transform="translate(8.954 6.815)">
            <path id="Path_1690" data-name="Path 1690" d="M665.445,221.787c2.242-6.517,10.845-4.074,12.618,1.728,1.157,3.785-1.766,8.7-5.688,9.784a3.782,3.782,0,0,0-.031.406,12.761,12.761,0,0,1-.168,1.814c-.034.226-3.466-.433-3.849-.509a.52.52,0,0,1-.355-.175c-.138-.216.087-.85.112-1.09l.089-.848a6.769,6.769,0,0,1-3.5-5A12.57,12.57,0,0,1,665.445,221.787Z" transform="translate(-664.558 -217.902)" fill="#efc4b1"/>
          </g>
          <g id="Group_1651" data-name="Group 1651">
            <g id="Group_1649" data-name="Group 1649" transform="translate(0 3.887)">
              <path id="Path_1691" data-name="Path 1691" d="M650.868,209.3a3.415,3.415,0,0,1,.776,1.749,2.731,2.731,0,0,1,.068,1.133c-.32,1.479-1.787,1.4-2.921,1.879a7.567,7.567,0,0,0-3.39,2.917c-1.227,1.952-.675,4.465-.177,6.618.175.759.528,1.887-.061,2.564a2.526,2.526,0,0,1-2.7.228c-.654-.323-1.192-.921-1.911-1.042-.761-.127-1.789.207-2.143-.491a4.722,4.722,0,0,0-.232-.609c-.42-.6-1.466.1-2.058-.321a1.156,1.156,0,0,1-.238-1.255,2.99,2.99,0,0,0,.245-1.332,4.4,4.4,0,0,0-.522-1.038,2.044,2.044,0,0,1,.282-2.173c.937-1.084,2.749-.878,3.753-1.9a4.412,4.412,0,0,0,.92-2.023,3.878,3.878,0,0,1,.988-1.981c.69-.607,1.687-.5,2.368-1.224a13.978,13.978,0,0,1,1.116-1.342,9,9,0,0,1,2.486-1.106A3.233,3.233,0,0,1,650.868,209.3Z" transform="translate(-635.414 -208.373)" fill="#2e3644"/>
            </g>
            <g id="Group_1650" data-name="Group 1650" transform="translate(11.689)">
              <path id="Path_1692" data-name="Path 1692" d="M682.668,210.931c.04,2.145-1.025,4.464-.037,6.352,1,1.905,3.483,2.249,5.6,2.348.348.017,4.82.4,4.838.318a14.571,14.571,0,0,1,1.462-4.33,4.768,4.768,0,0,1,3.582-2.492.919.919,0,0,1-.6-1.048,7.051,7.051,0,0,1,.414-1.275,3,3,0,0,0-.784-3.017c-1.582-1.474-4.449-.862-5.8-2.555-.841-1.05-.741-2.573-1.181-3.854-.852-2.478-3.565-3-5.593-4.116a9.715,9.715,0,0,0-6.628-1.417c-3.063.511-5.34,3.629-4.159,6.564,1.515,3.764,7.573,3.439,8.707,7.261A4.71,4.71,0,0,1,682.668,210.931Z" transform="translate(-673.461 -195.721)" fill="#2e3644"/>
            </g>
          </g>
        </g>
      </g>
      <g id="Group_1654" data-name="Group 1654" transform="translate(38.642 22.495)">
        <path id="Path_1693" data-name="Path 1693" d="M675.055,270.21l-4.612,6.519-2.168-.177-3.614-6.612Z" transform="translate(-664.66 -269.94)" fill="#e3e3e4"/>
      </g>
    </g>
    <g id="Group_1660" data-name="Group 1660" transform="translate(276.168 193.165)">
      <path id="Path_1694" data-name="Path 1694" d="M309.314,648.7l-.338,2.632,4.927,3.309,2.971-2.294-2.294-2.971-4.927-3.31Z" transform="translate(-298.896 -506.922)" fill="#2a313f"/>
      <g id="Group_1656" data-name="Group 1656" transform="translate(9.479 60.962)">
        <path id="Path_1695" data-name="Path 1695" d="M307.795,471.522l3.8-33.573-4.571-37.585,1.028-7.995,20.418-.776.737,13.013L325.778,438l-12.9,35.237Z" transform="translate(-307.023 -391.593)" fill="#333a64"/>
      </g>
      <g id="Group_1657" data-name="Group 1657" transform="translate(25.22 61.467)">
        <path id="Path_1696" data-name="Path 1696" d="M378.943,396.494l.054,33.88-6.82,43.614-4.909-.049-2.7-40.333-6.315-40.369Z" transform="translate(-358.256 -393.237)" fill="#333a64"/>
        <path id="Path_1697" data-name="Path 1697" d="M387.617,656.671l5.282,2.707,2.681-2.628-2.628-2.68-5.308-.053Z" transform="translate(-378.596 -573.899)" fill="#2a313f"/>
      </g>
      <g id="Group_1658" data-name="Group 1658" transform="translate(7.334 23.591)">
        <path id="Path_1698" data-name="Path 1698" d="M300.071,322.608c.047-1.468.128-2.693.14-3.131.105-3.939.456-7.868.949-11.779.442-3.5,1-12.2,1.6-15.686.5-2.876,2.221-10.053,3.467-12.72,3.1-6.633,2.142-7.245,15.761-9.215,5.968-.863,7.379,2.857,12.259,7.134.481.422.455,2.934.567,3.6.2,1.171.407,2.341.649,3.5.19.915.4,1.827.634,2.733h0s4.1,18.642,6.805,22.6,8.306,9.494-1.056,12.874a33.478,33.478,0,0,1-5.055,1.319s-7.656-.851-11.594-.821a66.882,66.882,0,0,0-10.833,1.009,23.312,23.312,0,0,0-6.949,2.092c-2.035,1.063-3.5,2.626-5.568,3.727a1.078,1.078,0,0,1-.632.181C300.028,329.864,299.973,325.7,300.071,322.608Z" transform="translate(-300.039 -269.951)" fill="#ffbb59"/>
      </g>
      <g id="Group_1659" data-name="Group 1659" transform="translate(16.404)">
        <path id="Path_1699" data-name="Path 1699" d="M355.063,239.623a5.6,5.6,0,0,1-4-.2.884.884,0,0,1-.566-.828,22.946,22.946,0,0,1,.247-3.071c-1.269-.446-2.735-1.115-2.956-2.442a3.8,3.8,0,0,1,.075-1.262l.895-5.177a4.634,4.634,0,0,1,.537-1.723,3.887,3.887,0,0,1,2.723-1.472,9.457,9.457,0,0,1,7.657,1.865,4.142,4.142,0,0,1,1.293,1.706,5.618,5.618,0,0,1-.188,3.281L360,233.278c-.3,1.143-.733,2.442-1.835,2.871-.585.228-1.275.161-1.8.5C355.423,237.241,355.549,238.629,355.063,239.623Z" transform="translate(-342.168 -214.036)" fill="#8b6a5c"/>
        <path id="Path_1700" data-name="Path 1700" d="M357.882,201.54a11.176,11.176,0,0,1,.862-1.237,21.857,21.857,0,0,0,2.081-2.507,2.826,2.826,0,0,0,.084-3.073,3.369,3.369,0,0,0-1.793-1.034,13.038,13.038,0,0,0-6.857-.127c-2.135.544-4.046,1.444-6.2.641-2.02-.754-3.478-.447-5.589.306-2.284.815-5.351,1.007-7.419,2.158a6.1,6.1,0,0,0-2.089,2.061,9.191,9.191,0,0,0-.025,9.719,13.11,13.11,0,0,0,1.43,1.8c1.078,1.169,2.367,2.612,3.849,3.046.035-1.326-1.173-5.508-.154-6.595,1.616-1.725,5.271-1.123,7.276-.7,2.187.463,4.136,2.012,6.3,2.343a8.174,8.174,0,0,0,4.878-1.334C356.162,206.016,356.924,203.113,357.882,201.54Z" transform="translate(-329.563 -193.165)" fill="#2e3644"/>
      </g>
      <path id="Path_1701" data-name="Path 1701" d="M294.145,278.657l-8.5,7.446-9.479,19.921,11.973,14.244,2.06-7.966Z" transform="translate(-276.168 -252.392)" fill="#ffbb59"/>
    </g>
    <g id="Group_1665" data-name="Group 1665" transform="translate(303.339 209.63)">
      <g id="Group_1664" data-name="Group 1664">
        <g id="Group_1663" data-name="Group 1663">
          <g id="Group_1661" data-name="Group 1661">
            <path id="Path_1702" data-name="Path 1702" d="M435.171,252.221c-7.991-1.689-18.708,1.406-22.021,8.1-1.537-7.31-13.38-13.186-21.541-13.538-21.535-.929-31.81,22.3-24.832,39.675,3.756,9.352,9.776,17.874,16.53,25.7,5.657,6.551,20.581,20.815,20.636,20.78.045.048,18.058-10.055,25.172-14.992,8.495-5.9,16.452-12.653,22.423-20.776C462.632,282.078,456.259,256.677,435.171,252.221Z" transform="translate(-364.609 -246.759)" fill="#ff826b"/>
          </g>
          <g id="Group_1662" data-name="Group 1662" transform="translate(26.371 41.678)" opacity="0.12" style="mix-blend-mode: multiply;isolation: isolate">
            <path id="Path_1703" data-name="Path 1703" d="M506.183,392.26a117.76,117.76,0,0,1-20.407,15.6c-7.1,4.264-15.228,7.734-23.743,8.161a28.989,28.989,0,0,1-11.591-1.722c6.122,6.188,12.819,12.57,12.856,12.546.045.048,18.058-10.055,25.171-14.992,8.495-5.9,16.452-12.653,22.423-20.776a27.317,27.317,0,0,0,4.22-8.658A86.049,86.049,0,0,1,506.183,392.26Z" transform="translate(-450.443 -382.417)" fill="#ff826b"/>
          </g>
        </g>
      </g>
    </g>
  </g>
</svg>
