<svg id="undraw_setup_obqo" xmlns="http://www.w3.org/2000/svg" xmlns:xlink="http://www.w3.org/1999/xlink" width="367.781" height="298.377" viewBox="0 0 367.781 298.377">
  <defs>
    <linearGradient id="linear-gradient" x1="0.5" y1="1" x2="0.5" gradientUnits="objectBoundingBox">
      <stop offset="0" stop-color="gray" stop-opacity="0.251"/>
      <stop offset="0.54" stop-color="gray" stop-opacity="0.122"/>
      <stop offset="1" stop-color="gray" stop-opacity="0.102"/>
    </linearGradient>
    <linearGradient id="linear-gradient-2" x1="0" y1="0.5" x2="1" y2="0.5" xlink:href="#linear-gradient"/>
    <linearGradient id="linear-gradient-4" x1="0.5" y1="1" x2="0.5" y2="0" xlink:href="#linear-gradient"/>
  </defs>
  <circle id="Ellipse_70" data-name="Ellipse 70" cx="147.188" cy="147.188" r="147.188" transform="translate(24.389 2)" fill="none" stroke="#00a19a" stroke-miterlimit="10" stroke-width="4" stroke-dasharray="12.07 15.09"/>
  <rect id="Rectangle_37" data-name="Rectangle 37" width="154.884" height="98.519" transform="translate(30.914 45.747)" fill="#f9a14c" opacity="0.2"/>
  <rect id="Rectangle_38" data-name="Rectangle 38" width="177.62" height="100.887" transform="translate(0 31.584)" fill="url(#linear-gradient)"/>
  <rect id="Rectangle_39" data-name="Rectangle 39" width="173.358" height="83.837" transform="translate(1.894 46.27)" fill="#fff"/>
  <rect id="Rectangle_40" data-name="Rectangle 40" width="60.153" height="63.469" transform="translate(13.738 53.374)" fill="url(#linear-gradient-2)"/>
  <rect id="Rectangle_41" data-name="Rectangle 41" width="56.84" height="60.627" transform="translate(15.631 54.793)" fill="#f9a14c"/>
  <path id="Path_199" data-name="Path 199" d="M247.1,246.569a41.117,41.117,0,0,0-2.433-10.579,17.532,17.532,0,0,0-6.674-8.377,7.627,7.627,0,0,0-3.69-1.277,6.926,6.926,0,0,0-5.887,3.613,16.854,16.854,0,0,0-1.1,2.234A5.2,5.2,0,0,0,223,236.947,13.267,13.267,0,0,0,224.876,262v2.263A13.316,13.316,0,0,0,214.93,277.1v6.159h26.526V277.1a13.316,13.316,0,0,0-9.946-12.841V262a13.267,13.267,0,0,0,9.946-12.846v-.093l1.492,3.321c1.419,3.163,2.875,6.561,2.323,9.983C247.989,257.707,247.762,251.929,247.1,246.569Z" transform="translate(-187.175 -167.836)" fill="#fff"/>
  <rect id="Rectangle_42" data-name="Rectangle 42" width="173.358" height="12.789" transform="translate(1.894 33.481)" fill="#f9a14c"/>
  <rect id="Rectangle_43" data-name="Rectangle 43" width="65.837" height="4.262" transform="translate(95.677 72.557)" fill="#e0e0e0"/>
  <rect id="Rectangle_44" data-name="Rectangle 44" width="65.837" height="4.262" transform="translate(95.677 90.556)" fill="#f5f5f5"/>
  <rect id="Rectangle_45" data-name="Rectangle 45" width="38.841" height="4.262" transform="translate(95.202 81.555)" fill="#f9a14c" opacity="0.2"/>
  <rect id="Rectangle_46" data-name="Rectangle 46" width="26.526" height="4.262" transform="translate(95.202 99.554)" fill="#69f0ae" opacity="0.2"/>
  <rect id="Rectangle_47" data-name="Rectangle 47" width="26.526" height="4.262" transform="translate(126.464 99.554)" fill="#69f0ae"/>
  <rect id="Rectangle_48" data-name="Rectangle 48" width="87.401" height="40.759" transform="translate(270.6 56.606)" fill="#ff6e40" opacity="0.2"/>
  <rect id="Rectangle_49" data-name="Rectangle 49" width="93.722" height="44.274" transform="translate(256.858 46.862)" fill="url(#linear-gradient)"/>
  <rect id="Rectangle_50" data-name="Rectangle 50" width="87.401" height="40.759" transform="translate(260.305 47.916)" fill="#fff"/>
  <rect id="Rectangle_51" data-name="Rectangle 51" width="50.985" height="4.837" transform="translate(273.547 56.829)" fill="#ff6e40" opacity="0.3"/>
  <rect id="Rectangle_52" data-name="Rectangle 52" width="26.441" height="4.837" transform="translate(273.547 67.898)" fill="#ff6e40"/>
  <rect id="Rectangle_53" data-name="Rectangle 53" width="203.886" height="54.841" transform="translate(163.894 227.219)" fill="#f9a14c" opacity="0.2"/>
  <rect id="Rectangle_54" data-name="Rectangle 54" width="206.855" height="58.393" transform="translate(151.361 215.253)" fill="url(#linear-gradient-4)"/>
  <rect id="Rectangle_55" data-name="Rectangle 55" width="203.886" height="54.435" transform="translate(152.845 217.232)" fill="#fff"/>
  <circle id="Ellipse_71" data-name="Ellipse 71" cx="20.396" cy="20.396" r="20.396" transform="translate(182.274 224.056)" fill="url(#linear-gradient)"/>
  <circle id="Ellipse_72" data-name="Ellipse 72" cx="18.129" cy="18.129" r="18.129" transform="translate(184.541 226.322)" fill="#f9a14c"/>
  <g id="Group_39" data-name="Group 39" transform="translate(238.36 230.856)" opacity="0.2">
    <rect id="Rectangle_56" data-name="Rectangle 56" width="32.292" height="5.665" fill="#f9a14c"/>
    <rect id="Rectangle_57" data-name="Rectangle 57" width="88.942" height="5.665" transform="translate(0 10.761)" fill="#f9a14c"/>
    <rect id="Rectangle_58" data-name="Rectangle 58" width="88.942" height="5.665" transform="translate(0 21.527)" fill="#f9a14c"/>
  </g>
  <path id="Path_200" data-name="Path 200" d="M494.908,577.557l-3.982-3.037-10.494,13.75-5.855-4.468-3.037,3.978,7.85,5.993.02-.028,1.987,1.517Z" transform="translate(-280.341 -340.376)" fill="#fff"/>
</svg>
