<svg xmlns="http://www.w3.org/2000/svg" width="413" height="823.522" viewBox="0 0 413 823.522">
  <g id="Group_324" data-name="Group 324" transform="translate(-9972.5 -991.939)">
    <g id="Group_242" data-name="Group 242" transform="translate(-785 999)">
      <path id="Intersection_2" data-name="Intersection 2" d="M599.8,831.59c-1.331-4.267-2.586-2.84-3.859-1.414-.816.914-1.642,1.829-2.5,1.245-3.333-6.15-6.143-2.46-9.733-4.832-3.486,4.513-8.745-.5-11.952-2.539-1.01-2.4-1.669-2.265-2.425-2.129-.642.115-1.354.23-2.41-1.2-2.921-1.718-5.913-.355-8.529-3.115-5.267-4.081-11.02-5.452-16.669-6.045-3.959,4.761-8.07,1.266-12.043.08-2.344,2.628-5.691,2.6-8.022-.31-1.948-3.425-3.569-5-5.621-3.876a3.953,3.953,0,0,0-2.245-.046c-1.307.225-2.62.448-3.877-1.582-1.12,2.121-2.171.26-3.239-1.6-.93-1.617-1.874-3.234-2.89-2.233-4.487-4.063-9.941-3.2-14.645-2.929-2.866-1.727-6.456-.682-9.162-.479-1.93-3.5-2.607-3.475-4.338-3.453-.355,0-.752.009-1.214-.016-5.705-1.212-11.159-1.973-16.864-2.965-3.3-3.991-5.935-5.451-8.8-6.5-3.557-2.138-8.092-.994-12.65.15-4.35,1.092-8.72,2.183-12.283.425-3.291-4.442-6.846-1.115-10.165-.106-1.255.584-2.353.018-3.427-.549-1.234-.651-2.436-1.3-3.809-.2-2.733-5.1-4.382-4.656-7.528-4.372a56.342,56.342,0,0,0-14.547,1.664c-4.856.433-9.706,4.859-14.52,3.522-6.6,3.8-13.212.275-19.807-.045-2.3-1.926-4.605-1.02-6.874-.114-1.547.618-3.077,1.234-4.577.956-4.292-1.319-8.612,5.354-12.982,6.044-4.37.894-8.794-.115-13.3,4.089-3.8,1.521-7.66,5.425-11.465-.053-3.161,1.541-6.063-.325-8.944-2.192-3.189-2.066-6.352-4.131-9.813-1.579-2.179,2.766-4.373,2.642-6.563,1.564V24.93a12.88,12.88,0,0,0,1.844-1.476c1.608-1.45,3.191-2.9,4.607-1.02,2.2-2.035,2.714-1.23,4.731-1.956,1.645,4.9,4.08,3.2,6.4,1.5,1.573-1.154,3.092-2.309,4.274-1.4,5.745,5.18,11.063,4.6,16.492,4.029a37.243,37.243,0,0,1,6.988-.294c2.746-1.3,5.561-.335,8.384.626,3.5,1.191,7.013,2.382,10.428-.723,1.2-1.172,2.252-.044,3.254,1.084,1.445,1.624,2.8,3.248,4.378-2a21.266,21.266,0,0,1,11.187-.9c2.566-2.982,5.356-1.944,8.08-.906a10.58,10.58,0,0,0,4.47,1.038c2.921-4.54,5.823-2.186,8.669,3.523,3.339-6.265,5.969-.142,9.329,1.743,4.167-5.239,7.416-7.177,11.333,4.62,3.788,7.266,6.746,6.5,10.039,5.743,2.113-.489,4.364-.978,7.062.655,2.75,3.946,5.272,2.583,7.783,1.22,2.315-1.257,4.621-2.514,7.091.39,1.837-.8,3.52-1.823,5.35.452,1.521,5.929,2.769,4.969,4.052,4.01.823-.616,1.66-1.232,2.593-.028,4.1,5.7,8.313,5.283,12.62,1.221,4.353,2.727,8.716,1.578,13.076.43,3.875-1.021,7.748-2.04,11.615-.341,4.926-2.514,8.579-5.593,13.324-3.646,3.318,4.425,6.845,8.7,10.212-.089,3.118,3.71,6.237,2.467,9.355,1.226,1.821-.726,3.642-1.451,5.464-1.19,1.348,2.141,2.765.663,4.18-.814,1.651-1.723,3.3-3.445,4.844.566,3.089-.567,5.788-9.673,8.7-4.947,5.224-3.991,9.559-11.143,15.208-3.948,4.7,2.2,9.467,1.473,14.212.744a39.023,39.023,0,0,1,8.44-.682c7.5-7.805,10-12.894,17.024-10.735,2.768-.4,5.618.221,8.5.839,5.309,1.136,10.728,2.273,15.955-2.918,5.8,1.965,12.064,7.328,17.817.088,1.47-4.405,2.516-3.633,3.535-2.86.775.587,1.535,1.174,2.454-.511,3.792,5.814,8.78,7.885,12.753-.363,5.816,4.778,12.724,2.956,18.387-.275,3.472-1.5,6.345-6.771,9.824-5.319a39,39,0,0,1,6.681-.143V825.928a16.874,16.874,0,0,1-3.732-1.115c-2.794-1.072-5.555-2.144-8.061.36-4.668-7.212-8.947,3.408-14.019,6.6-9.093-.363-17.907-6.46-26.938-1.947-4.208.681-8.529,2.08-12.683.451-3.9.036-7.082,4.832-11.006,3.275a8.843,8.843,0,0,1-4.1,1.055C605.226,834.609,602.683,833.237,599.8,831.59Z" transform="translate(10482 -18.149)" fill="#fffaf6"/>
    </g>
  </g>
</svg>
