<svg xmlns="http://www.w3.org/2000/svg" width="215.591" height="87.333" viewBox="0 0 215.591 87.333">
  <g id="Group_229" data-name="Group 229" transform="translate(-1012.968 -341)">
    <g id="Group_177" data-name="Group 177" transform="matrix(-0.809, -0.588, 0.588, -0.809, 1315.468, 751.091)">
      <path id="Path_171" data-name="Path 171" d="M411.035,167.06c-.228.254-.226.254-.049.551a.513.513,0,0,1,.1.226c0,.223-.031.445-.057.744l.506.4a5.251,5.251,0,0,1-.062.686.552.552,0,0,0,.234.562c-.031.376-.062.73-.091,1.086a.549.549,0,0,1,.216.586.351.351,0,0,0,.09.362.382.382,0,0,1,.122.218,4.375,4.375,0,0,1-.039.535c-.025.262-.092.534.176.725,0,.131-.005.261,0,.391.005.083,0,.2.045.242a.564.564,0,0,1,.15.606c-.034.159.068.242.146.345a.32.32,0,0,1-.035.458c-.138.114-.275.229-.41.347-.03.027-.074.071-.07.1.045.271-.245.339-.317.537a.2.2,0,0,0-.01.132,2.694,2.694,0,0,0,.663.8c.03.023.087.015.131.012s.1,0,.118-.03c.16-.254.494-.125.683-.319.125-.128.272-.233.408-.349.254.072.406-.1.58-.234a.358.358,0,0,0,.148-.342c-.047-.334.212-.459.407-.629a.169.169,0,0,1,.114-.044,2.8,2.8,0,0,1,.783.106.23.23,0,0,1,.087.1c.109.186.3.145.468.175a.445.445,0,0,0,.356-.12c.2-.145.321-.139.458-.012.23.215.23.215.437.235l.268.023L418,176.1l.1-.075,2.135.18c.131.119.194.293.413.306.577.033,1.154.092,1.707.138.161-.126.268-.267.481-.234.264.042.536.038.8.076a.628.628,0,0,0,.6-.177c.044-.045.168-.039.247-.022a.565.565,0,0,0,.59-.2.525.525,0,0,0,.552-.249l.824.069c.271.023.271.023.584-.223l1.6.134c.174-.146.338-.3.519-.43a.356.356,0,0,1,.244-.038.671.671,0,0,0,.6-.173c.116-.1.344.009.466-.159.094-.127.242-.065.358-.1.2-.06.325-.309.584-.213.17-.133.324-.3.58-.231.025.006.091-.049.1-.083a.7.7,0,0,1,.334-.527.607.607,0,0,1,.33-.527.425.425,0,0,1,.227-.442.223.223,0,0,0,.1-.228.545.545,0,0,1,.248-.57.154.154,0,0,0,.072-.1c.022-.178.018-.36.052-.534a.5.5,0,0,0-.185-.465c-.062-.063-.119-.132-.174-.2l-2.667-.224c-.109.08-.207.155-.31.231-.184-.36-.5-.316-.807-.29-.193.269-.466.183-.727.177a.358.358,0,0,0-.216.126.345.345,0,0,1-.364.085.55.55,0,0,0-.583.22l-1.07-.09c-.169.141-.319.289-.581.233a6.448,6.448,0,0,0-.791-.075c-.151.1-.239.265-.459.237-.4-.051-.8-.072-1.174-.1-.057.048-.089.078-.125.105-.259.194-.336.195-.55-.028-.078-.08-.126-.142-.185-.1-.174.14-.342.287-.514.431-.249.029-.533-.132-.74.13a.224.224,0,0,1-.24.073c-.22-.032-.443-.042-.668-.061a.551.551,0,0,1-.582.225,1.072,1.072,0,0,0-.26,0l-.512.434c-.4-.025-.606.3-.887.491a.274.274,0,0,1-.255-.013,2.8,2.8,0,0,1-.354-.4c-.011-.012.013-.078.034-.086.249-.093.179-.383.331-.529s.348-.282.508-.438c.112-.11.237-.079.364-.1a.25.25,0,0,0,.177-.156c.04-.261.051-.526.071-.759l.582-.491c.019-.231.03-.5.07-.756.01-.063.126-.168.172-.158.333.069.475-.205.665-.367.076-.065-.022-.263.132-.345A.443.443,0,0,0,420.8,168c0-.146,0-.152.243-.431.115-.133.035-.346.222-.448a1.3,1.3,0,0,0,.308-.257c.174-.183.49-.263.451-.6.195-.179.39-.356.592-.54.015-.172.03-.348.043-.516.248-.21.48-.423.73-.61.175-.131.136-.309.163-.477.007-.044.008-.09.014-.176l.881-.746c.024-.28.046-.546.068-.8a3.548,3.548,0,0,1,.319-.265.568.568,0,0,0,.281-.555.331.331,0,0,1,.172-.328c.21-.118.1-.412.325-.538.193-.107.336-.3.541-.432.078-.05.237,0,.367,0,.26,0,.535.134.779,0a3.3,3.3,0,0,0,.52-.428l1.337.113a.616.616,0,0,1,.578-.232,6.275,6.275,0,0,0,.79.074c.146-.124.287-.236.419-.357a.374.374,0,0,1,.354-.119.658.658,0,0,0,.133.012l.522,0c.155-.259.5-.118.677-.325a.242.242,0,0,1,.23-.1,2.69,2.69,0,0,0,.268.023c.217.011.217.01.326-.289.068-.185.068-.2.277-.193a.269.269,0,0,0,.241-.073,1.582,1.582,0,0,1,.206-.165l.669.056c.192.015.225.013.266-.205s.116-.319.337-.283a.278.278,0,0,0,.231-.1c.337-.294.681-.58,1.026-.872l.558.048c.222-.195.466-.392.69-.608.2-.187.505-.081.689-.317a3.248,3.248,0,0,1,.505-.439c.206-.173.411-.345.615-.52.069-.059.152-.045.246-.052.224-.018.225-.032.266-.411l1.01-.821c.4.136.4-.195.494-.419.318-.128.206-.567.533-.71a.491.491,0,0,0,.334-.519c.243-.237.6-.385.637-.787l.54-.457c.017-.195.036-.413.053-.634a.692.692,0,0,0-.552-.621.661.661,0,0,1-.471-.175c-.217-.233-.285-.218-.547-.024-.036.026-.07.057-.113.094l-2.4-.2-.625.5-.522-.044a3.011,3.011,0,0,0-.412.357c-.157.193-.434.032-.583.231-.13.175-.322.108-.49.085a.373.373,0,0,0-.348.134.247.247,0,0,1-.233.093c-.134-.018-.267-.024-.414-.037l-.623.5c-.168-.014-.345-.028-.522-.044a.727.727,0,0,1-.575.245c-.1,0-.138.109-.123.209s-.01.2-.105.221c-.205.052-.433.041-.575.241a.844.844,0,0,0-.678.324c-.067.06-.137.116-.207.175-.221-.018-.447-.022-.666-.062-.17-.03-.235.1-.341.166a.369.369,0,0,1-.107.069.474.474,0,0,1-.134-.008c-.042,0-.1-.015-.126.006-.483.4-.96.806-1.439,1.211l-.67-.056a1.518,1.518,0,0,1-.037.36c-.031.092-.107.163-.281.2,0,.022.01.038-.01.068a.331.331,0,0,1-.166.108c-.01,0-.077-.073.055-.153-.089.014-.048-.055.009-.076.013-.006.015,0,.028,0a1.682,1.682,0,0,0,.126-.356.213.213,0,0,1,.276-.152c.019-.224.038-.447.057-.676a.54.54,0,0,0,.316-.53c-.008-.087.025-.18.018-.268-.015-.2.115-.306.239-.44.138-.149.126-.39.329-.532.143-.1.068-.331.1-.5.007-.044,0-.089.012-.133.031-.171-.014-.355.092-.512.32-.125.2-.586.534-.706.078-.028.137-.112.207-.169a.321.321,0,0,0,.033-.458c-.026-.035-.061-.066-.086-.1-.062-.087-.092-.315-.025-.363a.642.642,0,0,0,.3-.549,7.018,7.018,0,0,1,.094-.786c.4-.274.24-.72.325-1.089.011-.044-.006-.1.016-.132a.978.978,0,0,1,.161-.2c.133-.12.273-.232.416-.354.067-.795.134-1.6.2-2.4.165-.145.366-.267.323-.535-.007-.043.013-.091.007-.134a.208.208,0,0,1,.119-.221c.071-.046.183-.126.177-.18-.031-.273.248-.347.317-.54.043-.122.049-.244.166-.337.247-.192.481-.4.731-.612.014-.168.025-.346.048-.522,0-.035.054-.075.091-.089.217-.087.434.007.652,0,.174,0,.389.111.511-.013.175-.177.429-.11.576-.238a.678.678,0,0,1,.611-.147c.044.007.089.008.156.013l.874-.735c.133.011.222.016.312.027a.466.466,0,0,0,.363-.093c.2-.152.337-.439.665-.361.174-.134.352-.265.523-.4.208-.17.408-.349.617-.519.172-.141.351-.274.492-.384.028-.183.016-.306.142-.409.555-.452,1.1-.918,1.638-1.376.023-.281.046-.546.068-.8l.846-.715c.05-.605.1-1.225.161-1.914l.588-.385c.029-.35.051-.617.075-.89a.549.549,0,0,0,.317-.532,1.175,1.175,0,0,1,.035-.259c.137-.115.268-.24.413-.344.254-.185-.015-.265-.065-.39-.009-.022.021-.065.042-.09s.07-.056.1-.089c.174-.183.485-.271.433-.614.3-.449.3-.449.324-.671.026-.31.051-.62.077-.923a.549.549,0,0,0,.318-.55.36.36,0,0,1,.155-.341.348.348,0,0,0,.152-.2c.052-.489.076-.982.135-1.471a.631.631,0,0,0-.2-.593,3.669,3.669,0,0,1-.262-.306.574.574,0,0,0-.238-.574.448.448,0,0,0-.2-.142,3.352,3.352,0,0,0-.669-.055c-.138.005-.207.122-.211.276a.2.2,0,0,1-.259.213c-.159-.033-.245.066-.344.148-.357.294-.358.29-.55.32-.287.045-.29.054-.108.291.028.036.075.066.081.1s-.046.074-.081.085c-.521.169-.593.208-.756.426.05.27-.279.341-.3.537-.04.322-.286.43-.5.564-.089.057-.313-.05-.346.1a.782.782,0,0,1-.343.526c.033.265-.163.384-.328.529-.257.226-.587.39-.649.786-.01.066-.136.11-.2.176-.115.125-.334.174-.335.382s-.2.27-.3.409c-.043.063-.022.173-.03.274l-1.025.856c-.2.167-.157.5-.432.62-.022.009-.024.079-.028.121-.014.133-.023.268-.037.425-.225.19-.464.39-.7.593-.065.056-.166.124-.167.188-.007.393-.395.45-.571.689a.613.613,0,0,0-.055.25c-.024.126.028.288-.1.364a.592.592,0,0,0-.25.573c0,.046.01.106-.015.131-.088.1-.217.167-.281.276s.009.253-.131.354c-.217.156-.414.342-.619.516a.294.294,0,0,1-.046-.45.663.663,0,0,0,.255-.432c.033-.581.1-1.16.136-1.741.013-.218.179-.288.3-.414l-.237-.3a.428.428,0,0,0-.154-.473.17.17,0,0,1-.063-.109c.023-.265.054-.529.084-.793.488-.351.238-.9.362-1.35.023-.082.039-.167.057-.25.172-.144.343-.288.542-.457.025-.283.064-.591.072-.9.005-.221.181-.286.3-.415.068-.794.135-1.6.2-2.4-.05-.064-.1-.134-.159-.2a.314.314,0,0,1,.052-.455.463.463,0,0,0,.2-.319c.061-.846.137-1.691.2-2.485.124-.136.275-.224.287-.329.077-.667.128-1.338.173-2.008a.328.328,0,0,0-.112-.22c-.158-.148-.093-.323-.094-.494a.363.363,0,0,1,.181-.327.255.255,0,0,0,.138-.21c.015-.223.036-.446.056-.686l-.493-.616c.073-.2-.054-.441.158-.615.128-.1.119-.119-.015-.379-.035-.07-.007-.129.1-.184s.145-.124.089-.181a.462.462,0,0,1-.171-.468.689.689,0,0,1-.208-.715.208.208,0,0,0-.069-.24,1.705,1.705,0,0,1-.169-.213c.059-.707.119-1.42.179-2.127-.12-.143-.212-.331-.36-.4s-.337-.065-.435-.24a.6.6,0,0,0-.086-.1c-.05.068-.134.132-.142.2-.049.445-.069.894-.124,1.338-.026.214.115.318.218.454-.057.059-.11.12-.168.177-.192.189-.172.446.07.5.191.044.333.078.3.321-.036.309-.055.621-.081.932a.63.63,0,0,1,.251.576.558.558,0,0,1,.192.592,1.964,1.964,0,0,0-.024.267c-.019.263,0,.534-.289.695-.051.027-.058.159-.057.243a.486.486,0,0,1-.316.526c-.039.462-.057.908-.121,1.348a.608.608,0,0,0,.227.577c-.1.089-.188.176-.282.262.109.118.106.12,0,.483a1.353,1.353,0,0,0-.065.244c-.075.848-.145,1.7-.217,2.544-.016.189-.1.352-.168.313a.225.225,0,0,1-.108-.224.608.608,0,0,0,.008-.134.209.209,0,0,0-.053-.112.443.443,0,0,1-.165-.469l-.244-.314a.421.421,0,0,0-.152-.473.222.222,0,0,1-.059-.242.573.573,0,0,0-.151-.607c-.049-.042-.044-.159-.043-.242,0-.134.024-.267.03-.4,0-.085.026-.218-.017-.249-.246-.171-.118-.508-.32-.684-.181-.156-.023-.429-.232-.584a2.411,2.411,0,0,1-.35-.387c.023-.286.045-.553.068-.819-.147-.173-.3-.338-.43-.518a.358.358,0,0,1-.039-.245.569.569,0,0,0-.181-.6,4.539,4.539,0,0,0-.005-.522c-.008-.073-.084-.2-.13-.2a.5.5,0,0,1-.436-.25c-.05-.074-.114-.138-.181-.218.017-.211.027-.434.058-.654.015-.1.016-.186-.069-.239-.254-.16-.063-.524-.322-.683-.079-.048-.069-.142-.057-.242.038-.356.063-.714.093-1.07.012-.154-.03-.225-.225-.251-.153-.019-.259-.08-.268-.22a.687.687,0,0,0-.105-.361c-.193-.294-.188-.318.06-.543.089-.081.118-.109.061-.191-.179-.256-.188-.261-.157-.468a.466.466,0,0,0-.147-.477c-.032-.028-.082-.08-.074-.1.091-.262-.134-.4-.222-.584-.016-.035,0-.088.008-.133.008-.089.018-.178.022-.268,0-.041.007-.107-.016-.122-.252-.161-.143-.488-.321-.683-.12-.132-.232-.272-.357-.42l.275-.26a.629.629,0,0,1-.225-.573c.062-.35.069-.71.1-1.054.146-.123.145-.125.092-.481-.007-.039-.042-.079-.039-.117q.069-.87.144-1.741a.28.28,0,0,1,.42-.165,2.38,2.38,0,0,1,.273.285c.339-.034.416.286.6.453-.049.254,0,.411.309.446.16.019.21.08.173.291-.023.13-.024.263-.034.382l.272.323a1.753,1.753,0,0,1,.172.206c.083.144-.034.368.159.46.109.053.262-.01.351.136a2.216,2.216,0,0,0,.258.308c.058.062.126.159.192.161.312.01.371.177.313.438.157.162.3.327.222.582a.44.44,0,0,0,.165.469.245.245,0,0,1,.045.246.6.6,0,0,0,.167.6c.278.291.527.61.781.908.007.139-.058.264.063.387.19.19.352.406.543.633.1-.091.191-.183.29-.272.187-.167.2-.276,0-.552a.341.341,0,0,1-.086-.237c.016-.247.008-.248-.207-.714.09-.264-.1-.408-.242-.575l-.693-.82a.677.677,0,0,0-.234-.58c-.022-.02,0-.083,0-.127.005-.248.005-.248-.209-.716.088-.263-.106-.407-.246-.572-.115-.138-.23-.275-.344-.409-.126-.03-.261.017-.362-.124-.156-.218-.342-.414-.522-.627a3.8,3.8,0,0,1,.037-.391.2.2,0,0,0-.072-.239c-.059-.039-.125-.006-.2.08a1.082,1.082,0,0,1-.116.1c-.3-.248-.49-.6-.767-.849l-.54-.072c-.112-.278-.457-.227-.614-.434a.537.537,0,0,0-.333-.173c-.194-.057-.184-.106.033-.329.022-.023.051-.068.043-.089a.186.186,0,0,0-.212-.127c-.044,0-.106-.027-.131-.007q-.367.29-.723.6a.179.179,0,0,0-.029.123c.015.223-.192.276-.306.408a6.71,6.71,0,0,1-.073.8.57.57,0,0,0,.229.558c-.136.136-.32.207-.307.426a.547.547,0,0,1-.266.563.1.1,0,0,0-.008.088c.213.14.152.39.24.577a1.073,1.073,0,0,0,.173.212c-.144.15-.336.262-.309.527a2.871,2.871,0,0,1-.039.541.586.586,0,0,1,.239.57c.182.149.183.37.253.57a2.015,2.015,0,0,0,.418.519c0,.086.009.172.006.258s-.018.178-.02.268c0,.127-.084.291.037.373.222.15.109.409.233.583.074.1.2.172.165.341-.04.219-.043.445-.062.668-.014.178-.03.357-.045.531a5.293,5.293,0,0,0,.353.412c.2.188.066.521.318.686.042.028-.036.1-.113.179-.166.163-.249.564-.109.709a.623.623,0,0,1,.139.611.288.288,0,0,0,.064.244c.172.24.166.245.149.472-.007.088-.014.177-.021.26.149.177.3.341.433.522a.36.36,0,0,1,.037.246.572.572,0,0,0,.183.6,2.505,2.505,0,0,1,0,.387.372.372,0,0,0,.126.352c.119.1.064.242.1.361s.165.206.217.322a.461.461,0,0,1-.008.262.441.441,0,0,0,.144.476c.13.105.022.258.07.368.07.152.262.235.221.453-.036.2.239.272.221.445-.022.208.139.313.187.466.066.2.064.424.251.571a3.084,3.084,0,0,1-.027.528.568.568,0,0,0,.224.58c-.024.271-.046.538-.071.832.166.188.331.4.523.587s.229.336-.031.482a.112.112,0,0,0,.014.09c.228.134.118.406.238.577.1.145.23.275.344.413a1.068,1.068,0,0,1,.074.106c-.007.089-.016.178-.022.268-.013.185-.015.187.166.468a.331.331,0,0,1,0,.364c-.042.073-.163.105-.194.178a1.592,1.592,0,0,0-.085.9c.275.194.18.472.162.729-.024.313-.038.628-.084.938-.03.215.119.316.225.462l-.28.261c-.022.26-.045.528-.067.8a.629.629,0,0,0-.323.53c-.037.713-.112,1.424-.17,2.118-.138.136-.307.209-.312.426a5.829,5.829,0,0,1-.081.655c-.295.144-.275.422-.3.686-.042.535-.083,1.072-.139,1.606-.008.07-.092.144-.157.2a.289.289,0,0,0-.141.208,6.9,6.9,0,0,0-.07.937c.018.335-.218.459-.414.628a.094.094,0,0,1-.092.005c-.036-.024-.085-.068-.084-.1.024-.357.056-.714.087-1.076a.581.581,0,0,1-.227-.577c.051-.263.037-.537.078-.8a.633.633,0,0,0-.165-.474c-.109-.171-.031-.433-.246-.57a.749.749,0,0,0-.237-.576.666.666,0,0,0-.238-.576.616.616,0,0,0-.236-.577,3.653,3.653,0,0,1-.346-.411c-.142-.209-.433-.338-.371-.662a3.325,3.325,0,0,0-.474-.632.171.171,0,0,1,0-.128c.084-.256-.288-.324-.23-.584.028-.126-.187-.411-.334-.54a.636.636,0,0,1-.532-.328c-.018-.024-.084-.011-.129-.015.021-.02.026-.061,0-.118s-.091-.1-.147-.134c-.009-.006-.088.06-.083.071a.357.357,0,0,0,.108.166c.053.033.094.035.117.017-.026.31-.053.621-.079.932.192.279.525.472.5.883-.006.092.108.138.207.123s.193.011.222.1a2.617,2.617,0,0,0,.074.365,1.709,1.709,0,0,0,.253.31l.438.519a2.075,2.075,0,0,1-.023.257.422.422,0,0,0,.145.473c.167.125-.026.342.144.479a2.782,2.782,0,0,1,.35.4,1.606,1.606,0,0,1,.252.311c.053.107.016.266.078.36a.633.633,0,0,1,.176.469c-.052.4-.059.8-.111,1.2-.027.215.123.314.228.461-.021.256-.044.52-.063.753.053.2.279.258.243.48-.016.1-.019.179-.118.218a.1.1,0,0,1-.091-.019c-.348-.407-.693-.816-1.039-1.225.069-.426-.3-.608-.5-.879-.186-.251-.4-.482-.6-.715-.129-.031-.258.01-.364-.124-.3-.386-.654-.737-.936-1.137-.146-.208-.4-.165-.532-.326s-.011-.339-.021-.511a.212.212,0,0,0-.027-.12c-.429-.513-.861-1.026-1.3-1.534a.167.167,0,0,0-.121-.033c-.285.017-.348-.416-.668-.328a.39.39,0,0,1-.123-.345.214.214,0,0,0-.253-.227c-.042,0-.106.006-.127-.019-.207-.234-.408-.474-.609-.714.091-.425-.347-.574-.468-.889.079-.266-.155-.385-.258-.568s-.374-.015-.443-.224c-.038-.119-.032-.251-.07-.368-.029-.09-.122-.113-.225-.1a.215.215,0,0,1-.124-.027c-.035-.023-.086-.068-.083-.1a.675.675,0,0,0-.239-.576c-.1-.091-.184-.194-.26-.276.018-.21.032-.387.047-.558-.092-.148-.267-.236-.233-.454.041-.265.049-.534.072-.8.015-.171.088-.235.257-.223s.356.039.534.042c.1,0,.182.016.23.1a.44.44,0,0,0,.437.235.421.421,0,0,1,.444.217c.081.148.25.065.35.13.14.09.186.295.407.3s.279.205.378.338a.63.63,0,0,0,.557.28.341.341,0,0,1,.238.07,4.244,4.244,0,0,1,.517.614c.149.231.363.217.58.233.01-.134.022-.267.035-.417l-1.14-1.3c-.294.012-.392-.134-.34-.412.007-.03-.038-.076-.068-.105a.249.249,0,0,0-.105-.064c-.33-.072-.732.083-.959-.311-.017-.028-.073-.04-.113-.049-.257-.052-.55.04-.768-.129a3.326,3.326,0,0,1-.443-.51l-1.068-.09-.319.248c-.168-.014-.346-.033-.523-.039a.133.133,0,0,0-.1.083.7.7,0,0,1-.334.527,5.978,5.978,0,0,0-.071.8c0,.1.15.2.232.305-.092.262.106.4.235.578.093.128.223.114.345.152a.263.263,0,0,1,.145.187c.018.172-.029.355.006.522.025.114.183.184.2.326a1.369,1.369,0,0,0,.032.25c.032.1.125.093.219.113a.749.749,0,0,1,.48.553c.01.041-.027.1-.006.131.162.211.336.414.5.624.081.1.151.211.226.318-.1.257.241.38.209.579-.047.294.339.423.221.716a.951.951,0,0,0,.559.493c.2.083.2.088.185.289-.005.045-.007.09-.011.134-.007.09-.015.178-.023.265a3.982,3.982,0,0,0,.355.406c.054.05.186.008.249.053a.833.833,0,0,1,.369.909c-.013.057.083.2.125.2.333-.013.425.279.62.464-.011.122-.023.254-.032.386-.013.185.014.239.172.3.078.03.179.021.241.069.234.18.3.567.7.55.177.2.356.4.529.6.2.237.4.477.6.712-.019.338-.019.339.186.42.079.03.183.031.234.085a2.789,2.789,0,0,1,.51.619c.089.181.076.406.245.575.079.079-.013.243.067.366a.828.828,0,0,0,.775.4c.062,0,.19.116.181.149-.071.269.1.425.257.574a.816.816,0,0,1,.238.578c0,.036.057.1.082.1.333-.03.436.258.638.46-.035.422-.071.865-.113,1.308a.153.153,0,0,1-.075.1c-.242.125-.247.35-.245.572,0,.1-.015.185-.108.224-.276.115-.148.506-.432.619-.084.035-.1.127-.1.229s-.016.179-.019.268a.234.234,0,0,1-.136.21c-.185.1-.177.284-.193.459a.379.379,0,0,0,.105.359.266.266,0,0,1,.084.1c.023.06-.025.126-.122.178a.245.245,0,0,0-.137.209c-.02.268-.056.535-.063.8a.362.362,0,0,1-.2.316c-.145.089-.082.244-.14.349a1.293,1.293,0,0,1-.284.272.431.431,0,0,1-.234.439c-.079.049-.091.13-.1.231-.009.2-.019.2.168.6.034.071.01.126-.1.184a.353.353,0,0,0-.164.334c-.006.175,0,.358-.188.46a.242.242,0,0,0-.138.21c-.024.312-.052.624-.081.971l-.871.736c-.014.167-.032.3-.035.435a.607.607,0,0,1-.259.569c-.119.076-.079.241-.089.368a.383.383,0,0,1-.165.336.326.326,0,0,0-.1.087c-.124.188.01.451-.154.616a.641.641,0,0,0-.255.434c-.008.138-.15.144-.255.019-.056-.068-.116-.136-.172-.2-.026-.032-.047-.068-.071-.1.147-.125.144-.126.086-.469a1.139,1.139,0,0,1-.031-.25c.036-.491.068-.983.127-1.472.024-.207-.1-.319-.192-.464a.3.3,0,0,1,.042-.357c.03-.033.071-.055.1-.087.167-.18.2-.321.083-.452-.143-.166-.3-.325-.434-.474.112-.121.195-.212.278-.3a.785.785,0,0,1-.167-.207c-.044-.116-.015-.267-.078-.364a5.4,5.4,0,0,0-.446-.54c.025-.289.051-.6.077-.908.017-.212.016-.212-.29-.325-.213-.078-.214-.078-.2-.277a1.954,1.954,0,0,1,.038-.4c.074-.255-.085-.408-.215-.569.091-.09.179-.175.267-.26l-.725-.857c.018-.2.029-.419.058-.639a.24.24,0,0,0-.058-.243.431.431,0,0,1-.155-.471c-.081-.105-.162-.21-.243-.313a.485.485,0,0,0-.255-.563c-.29-.2-.1-.619-.4-.79,0-.13-.006-.26,0-.39.005-.258,0-.274-.27-.34-.151-.037-.228-.107-.219-.263,0-.045.027-.1.008-.131-.173-.251-.314-.545-.7-.5a.318.318,0,0,1-.237-.071c-.184-.194-.351-.406-.524-.611-.387-.456-.387-.456-1.229-.865-.144-.3-.426-.271-.687-.291a.889.889,0,0,0-.135-.011c-.212.015-.305-.144-.409-.281a.364.364,0,0,0-.1.037q-.463.387-.925.779c.046.067.091.135.139.2a.323.323,0,0,1-.036.457c-.269.248-.267.249-.026.649a.189.189,0,0,1,.025.093c-.351.183-.27.526-.3.823-.01.082-.018.209.028.246.315.252.144.574.143.87,0,.164-.011.164.224.461a1.609,1.609,0,0,0-.274.259.288.288,0,0,0-.022.257,6.29,6.29,0,0,0,.434.523c.107.388-.082.778-.014,1.169a3.923,3.923,0,0,0,.35.407c.18.159.026.429.23.585a2.584,2.584,0,0,1,.351.4c-.1.432.359.571.464.894-.014.179-.033.357-.043.536-.006.085-.028.22.014.249.246.171.117.512.322.682.163.136.035.34.148.477s.232.273.345.41.22.277.33.416c-.13.3.284.432.212.715a.581.581,0,0,0,.166.6c.15.149.349.295.274.562.1.14.207.283.316.419.139.172.285.339.416.494-.028.338-.051.65-.083.962a.213.213,0,0,0,.1.23c.219.136.052.42.233.581a3.589,3.589,0,0,1,.35.406c-.052.3.155.482.324.678.144.168.285.338.416.492-.01.117-.019.206-.024.295a2.279,2.279,0,0,0-.016.527c.022.116.139.215.214.322-.068.324.217.451.365.655.436-.033.373.259.345.528a1.627,1.627,0,0,0-.021.268.35.35,0,0,1-.192.32c-.193.128-.083.423-.326.537a1.908,1.908,0,0,0-.392.328c-.04.274.033.56-.268.726-.125.069-.081.239-.092.366a.417.417,0,0,1-.159.34.359.359,0,0,0-.152.2c-.036.22-.042.445-.063.668-.011.11-.1.158-.3.172s-.249.053-.27.208a1.587,1.587,0,0,0-.022.267.264.264,0,0,1-.088.235c-.172.144-.34.289-.51.434.02.387-.347.476-.535.7a.566.566,0,0,0-.081.237c-.028.126-.047.255-.07.383-.279.109-.212.46-.432.617-.144.1-.272.231-.412.343-.173.138-.364.262-.33.529a.642.642,0,0,0-.32.672.256.256,0,0,1-.133.212c-.172.134-.313.329-.576.238-.171.186-.485.262-.459.6l-.282.273c.022.259-.148.4-.331.526a.67.67,0,0,0-.334.529c0,.031-.069.054-.1.087-.167.191-.449.267-.484.593-.022.2-.345.265-.313.538.005.043-.115.139-.183.145-.13.011-.253-.007-.362.1-.126.125-.27.233-.411.351a1.61,1.61,0,0,1-.174-.145c-.127-.139-.123-.141.022-.474a.126.126,0,0,0-.009-.1c-.142-.27-.147-.274.1-.476.029-.349.055-.706.091-1.061.013-.125-.028-.269.115-.36a1.6,1.6,0,0,0,.188-.172c-.093-.141-.253-.233-.227-.451.056-.486.086-.975.125-1.438a2.645,2.645,0,0,0,.23-.2.288.288,0,0,0,.041-.356c-.1-.145-.213-.257-.19-.464.067-.623.115-1.249.156-1.873,0-.07-.07-.156-.128-.216a.276.276,0,0,1-.1-.231c.04-.446.068-.893.118-1.338a.35.35,0,0,0-.144-.343c-.177-.129.013-.347-.144-.482-.093-.081-.213-.176-.158-.337a.209.209,0,0,0-.08-.237c-.062-.057-.159-.159-.143-.207.105-.3-.3-.43-.226-.719.015-.062-.07-.147-.108-.222l-.67-.057c-.008.09-.015.178-.023.268-.018.2-.011.21.188.285a.986.986,0,0,1,.237.079c.131.1.055.244.052.371-.006.193-.01.192.164.467a.161.161,0,0,1,.028.1c-.073.437-.1.465.047.568.211.154.123.4.232.581.067.107.212.171.167.336-.059.217.179.288.226.448.023.077.015.225-.031.252a.714.714,0,0,0-.315.681c-.021.4-.063.795-.094,1.159.081.136.209.194.2.336a.6.6,0,0,0-.284.553c-.025.49-.064.981-.124,1.469a.607.607,0,0,0,.195.59.638.638,0,0,0,.25.575c-.1.092-.193.178-.289.267-.03.35-.06.706-.089,1.058-.1.091-.231.165-.284.276a.973.973,0,0,0-.04.4.239.239,0,0,1-.126.217.365.365,0,0,0-.2.318c0,.222-.049.445-.048.667,0,.2-.139.3-.247.434-.125.161-.111.418-.338.521-.012.144.123.2.2.33-.122.1-.247.215-.378.318a.315.315,0,0,1-.36-.027c-.166-.2-.392-.366-.324-.676-.255-.156-.14-.492-.325-.675-.153-.149-.1-.32-.1-.491a.358.358,0,0,1,.178-.327c.107-.063.134-.116.071-.186s-.115-.136-.178-.211c.036-.437.074-.88.111-1.324l-.487-.61c.043-.036.078-.064.11-.094.233-.223.241-.288.081-.547-.045-.073-.12-.147-.12-.22a4.258,4.258,0,0,1,.056-.667.363.363,0,0,1,.152-.2c.1-.069.147-.136.082-.184-.275-.2-.179-.485-.139-.734a.593.593,0,0,0-.225-.578c.022-.271.045-.537.067-.8-.085-.107-.166-.211-.247-.315.039-.251-.04-.544.256-.7.082-.045.1-.129.1-.23a3.625,3.625,0,0,1,.028-.37c-.135-.16-.249-.3-.366-.433s-.111-.129.034-.283c.2-.209.2-.3.006-.553-.028-.036-.058-.069-.092-.109.1-1.15.194-2.306.294-3.487a3.932,3.932,0,0,1,.386-.325.273.273,0,0,1,.244-.021c.209.148.438.3.42.6-.01.154.136.217.183.332a2.545,2.545,0,0,1,.073.366c.008.039.051.1.085.1.22.027.444.042.667.06.018-.222.037-.445.055-.67a.681.681,0,0,1-.213-.714c.026-.176,0-.192-.21-.264s-.2-.063-.4-.3c-.1.077-.2.152-.3.227-.124-.114-.185-.294-.406-.3-.309-.008-.618-.047-.857-.067l-.769.649c-.073.874-.148,1.764-.221,2.644.1.148.251.248.228.463-.067.623-.11,1.249-.163,1.873-.008.09.051.149.1.23.188.288.181.291-.04.549a.517.517,0,0,0-.139.205,2.73,2.73,0,0,0-.051.667c.01.112.183.205.2.322a1.373,1.373,0,0,1-.021.526.567.567,0,0,0,.225.577l-.282.262c.034.04.064.073.092.109C411.245,166.762,411.24,166.832,411.035,167.06Zm24.694-29.077a1.8,1.8,0,0,1,.055-.528c.039-.111.213-.167.27-.277s.01-.258.148-.342a.364.364,0,0,0,.19-.321c0-.219.034-.436.049-.624.169-.143.3-.267.445-.371a.359.359,0,0,0,.152-.34.632.632,0,0,1,.292-.551c.086-.073,0-.263.131-.345a.432.432,0,0,0,.231-.439c.171-.137.349-.271.324-.529a.646.646,0,0,0,.317-.672.227.227,0,0,1,.136-.209c.183-.1.183-.283.189-.459a.457.457,0,0,1,.157-.339c.182-.173.488-.259.461-.595a1.717,1.717,0,0,1,.388-.35c.249-.113.14-.4.323-.538.105-.075.211-.152.2-.314a2.9,2.9,0,0,1,.029-.374c.3-.276.7-.459.628-.961-.008-.057.086-.146.152-.192.125-.087.125-.213.161-.339s.156-.166.307-.165c.209,0,.236-.041.257-.214a1.109,1.109,0,0,1,.043-.4c.1-.18.356-.268.31-.54,0-.024.058-.08.094-.085.256-.036.542-.028.493-.42.238-.2.473-.41.718-.6a.574.574,0,0,0,.169-.334c.06-.2.357-.266.306-.536.094-.091.187-.184.284-.271a2.554,2.554,0,0,0,.3-.263c.131-.167.336-.044.475-.149.071-.053.137-.114.215-.18.084.092.166.187.254.276.184.189.067.52.319.68.023.015.02.079.021.12a.284.284,0,0,1-.013.132c-.106.178-.362.265-.317.537,0,.025-.049.067-.084.092-.176.134-.355.264-.5.368-.029.337-.05.6-.073.86-.182.164-.181.164-.085.476.009.029.013.083,0,.092a.545.545,0,0,0-.269.558c.015.217-.16.3-.294.42l.225.3c-.168.132-.333.262-.312.525a3.49,3.49,0,0,1-.038.523c-.179.151-.358.287-.516.444a.355.355,0,0,0-.077.234.636.636,0,0,1-.273.562.242.242,0,0,0-.02.349c.258.226.1.346-.085.475a.579.579,0,0,1-.222.448c-.159.132-.377.212-.417.479-.043.289-.367.358-.529.561-.1.129-.048.335-.226.442a2.9,2.9,0,0,0-.409.344.175.175,0,0,0-.028.122c.012.284-.421.347-.327.668-.233.246-.614.371-.634.787q-.36.294-.722.586c-.3-.129-.426.268-.714.218-.213-.037-.321.307-.578.213-.107.071-.221.132-.321.212-.243.2-.489.391-.714.608-.142.137-.307.119-.471.159s-.24.25-.455.208c-.149-.028-.222.118-.329.186a.106.106,0,0,1-.092,0C435.775,138.06,435.728,138.017,435.729,137.983Zm-.807-2.715c-.031-.06.007-.122.1-.166.011,0,.052.06.079.092.026.062-.007.122-.106.166C434.988,135.365,434.94,135.3,434.922,135.268Zm-7.956,23.456c.028-.267.059-.535.065-.8a.371.371,0,0,1,.2-.313.215.215,0,0,0,.117-.222.658.658,0,0,1,.325-.67.466.466,0,0,1,.237-.438c.177-.135.336-.294.481-.423.164,0,.291.057.409-.068a1.563,1.563,0,0,1,.411-.343c.183-.091.414-.052.577-.24a4.286,4.286,0,0,1,.508-.438c.034-.029.066-.08.1-.082a1.4,1.4,0,0,1,.244.016l1.461-1.235c.132.012.265.014.394.037a.234.234,0,0,0,.243-.056.478.478,0,0,1,.474-.167c.042.006.123-.11.154-.183.142-.318.137-.32.447-.3l.523.044c.078-.067.149-.12.214-.183a.885.885,0,0,1,.679-.323c.173-.3.591-.111.789-.4a.481.481,0,0,1,.566-.249l.31-.243c.226.019.449.039.672.056.186.014.222.006.264-.208.028-.143.075-.289.2-.28a.651.651,0,0,0,.468-.186c.133-.1.352.019.47-.156s.341-.039.47-.153a.539.539,0,0,1,.47-.173c.266.042.535.053.8.069.035,0,.071-.045.109-.062.358-.158.36-.175.605-.139.168.026.238-.089.34-.164a.319.319,0,0,1,.456.063c.086.1.173.206.265.314-.015.172-.029.349-.05.586-.208.165-.46.35-.694.557-.162.142-.4.231-.458.458a1.865,1.865,0,0,0-.047.534c0,.214-.155.3-.284.414.009.313-.225.462-.438.608-.093.064-.255.023-.362.076-.231.117-.351.422-.645.429-.357.01-.482.36-.76.481-.134-.012-.267-.026-.4-.034-.179-.01-.224,0-.257.215-.024.148-.092.3-.208.272-.3-.078-.431.319-.72.225-.031-.01-.081.016-.116.037-.224.131-.347.428-.643.431-.314,0-.429.286-.651.413-.037.021-.073.044-.1.062l-.539-.021a.684.684,0,0,1-.576.237.549.549,0,0,1-.592.186.34.34,0,0,0-.353.117.251.251,0,0,1-.228.1c-.216-.032-.329.057-.335.279a2.688,2.688,0,0,1-.022.268c-.021.154-.063.211-.268.2a.38.38,0,0,0-.339.161c-.133.171-.358-.038-.481.144a.7.7,0,0,1-.2.138c-.246-.272-.246-.283-.412-.283-.295,0-.617-.167-.869.146-.037.046-.163.03-.247.026a2.849,2.849,0,0,0-.534-.033c-.115.017-.208.173-.325.2a3.074,3.074,0,0,1-.525,0,.161.161,0,0,0-.11.057.542.542,0,0,1-.605.146.219.219,0,0,0-.24.068c-.125.155-.289.152-.472.163-.136.008-.141.191-.167.322-.013.06-.122.154-.158.142C426.973,158.914,426.956,158.819,426.966,158.724Zm-2.147-3.6a4.849,4.849,0,0,0-.348-.407c-.156-.149-.1-.322-.094-.493a.461.461,0,0,0-.036-.246,1.835,1.835,0,0,0-.345-.408c-.17-.136.011-.346-.143-.482a.348.348,0,0,1-.165-.337c.04-.219.043-.443.062-.66-.235-.279-.473-.547-.692-.83a.305.305,0,0,1-.022-.247c.108-.3-.18-.47-.208-.716-.011-.092.006-.176-.053-.245-.2-.238-.407-.475-.6-.718-.109-.135-.208-.28-.312-.421.057-.2-.063-.331-.185-.46a.9.9,0,0,0-.323-.678c-.063-.064-.117-.136-.174-.2,0-.044,0-.087,0-.13,0-.088.014-.178.021-.267.016-.182-.018-.285-.167-.295-.311-.022-.366-.182-.31-.44a4.854,4.854,0,0,1-.426-.517c-.063-.1-.02-.26-.078-.361a2.093,2.093,0,0,0-.342-.412.418.418,0,0,1-.1-.361c.009-.127.072-.27-.03-.379a.477.477,0,0,1-.168-.469c.021-.086,0-.182.027-.267a.543.543,0,0,0-.223-.577c.026-.315.045-.628.083-.938.013-.1.013-.18-.076-.237-.247-.161-.063-.522-.322-.682-.074-.045-.064-.143-.051-.242.028-.217.04-.437.055-.631.235-.2.438-.371.645-.542a.568.568,0,0,1,.1-.052c.22.263.221.263.544.3.084.01.224.012.242.057.132.326.569.209.719.526a.52.52,0,0,0,.51.359c.042,0,.115.12.136.195.119.435.21.571.511.653.088.025.206.041.2.134a.7.7,0,0,0,.244.575c-.069.252.086.411.236.576.088.1.163.205.248.313-.014.177-.029.352-.043.516a2.454,2.454,0,0,1,.429.53c.082.189.059.424.25.569a.619.619,0,0,0,.244.572l-.283.265a3.576,3.576,0,0,1,.426.517c.133.243-.005.517,0,.778,0,.13-.007.26-.011.374l.473.559c-.024.279-.036.589-.08.9-.032.215.124.313.228.461-.021.256-.043.522-.064.777a.526.526,0,0,0,.077.117.406.406,0,0,1,.147.472c-.086.253.1.4.207.56-.1.1-.232.181-.264.292a2.091,2.091,0,0,0-.026.521c.2.144.169.379.249.57.064.154.2.262.179.467-.058.488-.077.98-.135,1.469-.024.213.112.318.235.478-.035.419-.065.863-.115,1.3a.134.134,0,0,1-.171.117c-.036-.014-.086-.067-.084-.1.024-.307.088-.62-.209-.846C425.153,155.43,424.959,155.287,424.819,155.121ZM416.488,174.4c.137-.115.274-.23.391-.33.264-.073.556.142.759-.144a.213.213,0,0,1,.238-.078c.221.033.445.042.667.06a2.519,2.519,0,0,0,.406-.351c.156-.2.431-.045.585-.23a.334.334,0,0,1,.218-.119c.178-.006.356.028.535.036a1.137,1.137,0,0,0,.252-.027c.344-.066.346-.069.47.076.087.011.174.025.26.035.307.037.623.111.849-.2.263.091.4-.1.576-.238.206-.162.367-.423.629-.458a3.529,3.529,0,0,1,.8.056c.265.025.534.086.725-.179.309.015.62.014.926.053.216.026.314-.125.462-.23l1.057.089c.105-.085.2-.218.314-.239a1.081,1.081,0,0,1,.529.045c.11.039.167.23.276.27a1.965,1.965,0,0,0,.509.054c.188-.16.358-.306.532-.446a.1.1,0,0,1,.09.009c.186.361.539.247.831.285.4.052.8.07,1.2.108a.193.193,0,0,1,.1.072.21.21,0,0,1,.038.093.767.767,0,0,0-.331.53.138.138,0,0,1-.1.083c-.179-.006-.356-.026-.535-.041a2.5,2.5,0,0,0-.4.352c-.157.205-.431.045-.585.23a.336.336,0,0,1-.218.12c-.223,0-.445-.033-.669-.05-.115-.007-.183.076-.224.263s-.106.248-.245.237c-.268-.022-.536-.04-.8-.071a.273.273,0,0,0-.245.047.445.445,0,0,1-.468.166c-.105.081-.209.163-.314.243a.422.422,0,0,0-.473.151c-.061.075-.141.074-.242.062-.308-.035-.62-.055-.914-.08-.188.159-.357.3-.532.446-.018.014-.081.008-.09-.009-.158-.289-.317-.192-.476,0l-1.6-.134c-.177.128-.322.312-.584.232a1.959,1.959,0,0,0-.4-.038.17.17,0,0,1-.108.213c-.1.04-.151-.041-.16-.236a1.954,1.954,0,0,0-.4-.029c-.264.036-.376-.164-.527-.307-.039.033-.072.062-.107.09-.16.128-.182.139-.281,0-.126-.171-.3-.155-.47-.18a.434.434,0,0,0-.358.112c-.13.108-.14.1-.278-.052-.029-.035-.057-.069-.087-.1-.067.047-.136.094-.2.142a.325.325,0,0,1-.457-.039c-.058-.059-.117-.115-.176-.172-.068.057-.134.119-.206.172a.3.3,0,0,1-.361,0c-.1-.07-.149-.23-.288-.251S416.55,174.53,416.488,174.4Z" fill="#00a19a" fill-rule="evenodd"/>
      <path id="Path_172" data-name="Path 172" d="M428.834,154.35a.586.586,0,0,0,.037-.076c.06-.012.085.008.084.053A1.01,1.01,0,0,1,428.834,154.35Z" fill="#00a19a" fill-rule="evenodd"/>
      <path id="Path_173" data-name="Path 173" d="M428.038,128.277l-.539-.556c-.27.027-.35-.213-.5-.354-.075-.069-.113-.139-.065-.231.008-.015.083,0,.126.008l.539.045c.19.226.4.454.579.7a.3.3,0,0,1,.009.245C428.163,128.194,428.082,128.237,428.038,128.277Z" fill="#00a19a" fill-rule="evenodd"/>
      <path id="Path_174" data-name="Path 174" d="M437.161,109.646c-.011,0-.059-.056-.077-.092-.031-.059.007-.122.1-.165.011-.006.053.059.081.091C437.293,109.542,437.26,109.6,437.161,109.646Z" fill="#00a19a" fill-rule="evenodd"/>
      <path id="Path_175" data-name="Path 175" d="M421.1,174.976c.1-.04.153.041.162.236l-.268-.023A.169.169,0,0,1,421.1,174.976Z" fill="#00a19a" fill-rule="evenodd"/>
    </g>
    <g id="Group_227" data-name="Group 227" transform="translate(-10226.691 -777.779)">
      <g id="Group_207" data-name="Group 207" transform="translate(11329.997 1118.779)">
        <g id="Group_206" data-name="Group 206" transform="translate(0 0)">
          <path id="Path_206" data-name="Path 206" d="M140.041,429.46c.011.223.051.454-.187.6a.194.194,0,0,0-.077.1.353.353,0,0,0,0,.134c.014.228.018.446-.207.595-.074.049-.074.142-.068.243.009.18,0,.362,0,.543a.2.2,0,0,1-.128.211c-.122.025-.263.063-.368-.07a1.573,1.573,0,0,0-.19-.178c-.272.278-.275.264-.568.267-.259,0-.549-.086-.727.211a.1.1,0,0,1-.091.015c-.038-.021-.063-.064-.1-.093-.208-.167-.323-.2-.457-.077s-.252.243-.458.215c-.133-.018-.272.006-.406-.005-.1-.01-.191,0-.24.075-.187.285-.476.181-.732.2l-.3.274h-.8c-.141.108-.217.291-.439.273s-.452.011-.677-.008a.5.5,0,0,0-.455.217.176.176,0,0,1-.111.057c-.263.008-.548-.061-.718.232a3.248,3.248,0,0,1-.524.036.592.592,0,0,0-.577.25.658.658,0,0,0-.56.288.459.459,0,0,0-.462.192.225.225,0,0,1-.235.094c-.224-.014-.45-.005-.665-.005-.146.109-.22.295-.443.276s-.452,0-.677-.005c-.149,0-.148,0-.455.213-.149.1-.434.066-.456-.075-.019-.121-.06-.266.082-.368a1.21,1.21,0,0,0,.174-.188v-.806c-.116-.141-.274-.224-.271-.444.013-.9.005-1.807.007-2.711,0-.093-.059-.149-.12-.224-.224-.277-.214-.282-.014-.556.05-.069.123-.142.128-.216.014-.271-.009-.543.01-.812.016-.218-.138-.312-.275-.462,0-.561-.011-1.147,0-1.731.006-.222-.166-.3-.274-.44V423.09l.272-.294v-1.822l.965-.993c.126.108.214.268.434.257.359-.019.721-.008,1.084,0,.152,0,.2.168.318.215.143.058.185-.125.285-.18.02-.011.067.01.094.03s.062.066.1.094c.2.156.309.472.654.383l.285.272a5.418,5.418,0,0,0,.551,0,.594.594,0,0,1,.462.2c.161.128.435.066.553.295.129.016.257.034.387.047.044.005.091-.005.135,0s.1.019.113.047c.139.27.5.15.658.382a.231.231,0,0,0,.225.113c.135-.008.271,0,.406,0,.287-.008.29-.012.566.272h.547c.124.127.263.246.376.385a.5.5,0,0,0,.479.158.355.355,0,0,1,.354.127c.1.141.318.2.279.427-.018.1.006.2.1.219.055.01.129-.073.19-.119a.837.837,0,0,0,.1-.1l.561.525c.174-.163.171-.155.489-.042a2.1,2.1,0,0,0,.385.052,1.393,1.393,0,0,1,.25.05c.038.014.065.061.1.094s.064.064.1.095l.287.288c.438-.047.562.382.854.558.31-.107.408.312.7.279a.2.2,0,0,1,.223.253c-.024.166.068.239.206.282.346.108.347.107.34.419-.005.18,0,.359,0,.53-.041.041-.074.072-.1.105-.223.235-.225.331-.047.559.212.273.223.282.01.554a.69.69,0,0,0-.137.354.228.228,0,0,1-.288.194c-.2-.032-.26.278-.411.223s-.235-.238-.449-.229c-.406.018-.814,0-1.22.006-.267,0-.545.046-.715-.24a2.548,2.548,0,0,0-.392-.028.364.364,0,0,1-.339-.166c-.1-.133-.233-.111-.362-.106-.036,0-.075.044-.1.076s-.03.08-.017.092c.189.176.327.44.652.385a.568.568,0,0,0,.572.258.36.36,0,0,1,.357.123c.116.138.251.259.381.385a.358.358,0,0,0,.366-.032c.068-.059.129-.126.2-.2.093.087.173.212.284.252A1.21,1.21,0,0,0,140.041,429.46Zm-11.531-6.786a.551.551,0,0,1-.135,0,.183.183,0,0,0-.232.1.333.333,0,0,0,.016.367c.092.1.191.192.286.288.064.064.113.029.2-.06.121-.133.144-.136.28,0a.363.363,0,0,0,.356.115.288.288,0,0,0,.063-.519c-.12-.038-.253.014-.37-.092C128.742,422.665,128.734,422.675,128.509,422.675ZM135.585,427a4.494,4.494,0,0,0-.391.4.311.311,0,0,0-.028.243.275.275,0,0,0,.149.181c.124.028.262,0,.39.012a.191.191,0,0,0,.224-.1.326.326,0,0,0,0-.355A4.9,4.9,0,0,0,135.585,427Zm3.26,3.82c.041-.007.167-.02.29-.047a.18.18,0,0,0,.091-.091.473.473,0,0,0-.084-.361c-.066-.025-.124,0-.188.091a.372.372,0,0,1-.093.092.209.209,0,0,1-.114.041.316.316,0,0,0-.326.144C138.387,430.747,138.554,430.814,138.846,430.819Zm-2.061,0a1.987,1.987,0,0,0,.4-.005.125.125,0,0,0,.106-.171.2.2,0,0,0-.092-.091.375.375,0,0,0-.131,0H136.8c-.167,0-.29.093-.24.178A.175.175,0,0,0,136.785,430.816Zm-6.51-7.6a.366.366,0,0,0,0-.13.2.2,0,0,0-.091-.092c-.06-.032-.129,0-.174.1-.018.035.005.087-.005.129a.174.174,0,0,0,.095.224C130.188,423.492,130.272,423.382,130.274,423.213Zm4.347,4.076a.365.365,0,0,0,.13,0,.211.211,0,0,0,.092-.091c.032-.059-.005-.126-.1-.174-.036-.016-.088.006-.13,0a.173.173,0,0,0-.224.094C134.342,427.2,134.452,427.287,134.621,427.289Zm-3.895-2.76c.03-.03.091-.077.085-.087-.052-.1-.118-.128-.174-.091-.036.022-.092.075-.086.086C130.6,424.532,130.665,424.56,130.726,424.529Zm5.292,6.2c.031.03.078.092.088.086.1-.052.127-.119.091-.175-.022-.035-.076-.091-.086-.086C136.016,430.6,135.988,430.666,136.018,430.726Zm2.082,0c.03-.06,0-.125-.093-.176-.011-.005-.065.052-.087.086-.036.057,0,.123.092.176C138.022,430.819,138.069,430.757,138.1,430.726Zm-1.765-2.4c.06.03.124,0,.176-.092.006-.011-.052-.064-.086-.087-.057-.036-.123,0-.175.091C136.243,428.252,136.305,428.3,136.335,428.329Zm-5.021-3.392c-.03-.031-.077-.091-.087-.086-.1.052-.128.119-.092.175.023.036.076.091.086.086C131.316,425.061,131.344,425,131.314,424.937Zm2.986,2.8c.03-.061,0-.125-.093-.176-.011-.005-.064.051-.087.086-.035.057,0,.124.091.175C134.222,427.833,134.269,427.771,134.3,427.741Z" transform="translate(-125.934 -419.684)" fill="#ff5c6f" fill-rule="evenodd"/>
          <g id="Group_199" data-name="Group 199" transform="translate(3.791 23.34)">
            <g id="Group_198" data-name="Group 198">
              <path id="Path_207" data-name="Path 207" d="M140.73,455.34c-.239.046-.289.106-.272.324.012.136.064.184.246.219.274.053.294.07.3.3a.806.806,0,0,1,0,.128.4.4,0,0,0,.186.438.181.181,0,0,1,.086.223.171.171,0,0,0-.224.09c-.048.094.029.156.224.182v2.3a1.822,1.822,0,0,0-.263.3.282.282,0,0,0,.01.257c.141.174.322.317.469.486.111.128.049.318.185.468.225.248.216.282-.017.545-.1.116-.06.264-.122.356-.17.251-.347.51-.738.453-.26-.036-.542.037-.712-.246-.064.042-.13.079-.191.127-.179.141-.325.157-.462.032-.034-.029-.064-.062-.1-.095l-.1-.1a3.551,3.551,0,0,0-.538.005.536.536,0,0,1-.536-.271h-1.645c-.069.069-.131.134-.2.2-.084.079-.316.118-.36.041-.151-.261-.49-.176-.657-.381-.119-.145-.2-.091-.288.02a.228.228,0,0,1-.223.117c-.221-.035-.3.159-.434.263l-.286-.254c-.217.221-.221.218-.478.048-.067-.044-.127-.023-.191.079s-.138.136-.19.08a.5.5,0,0,0-.454-.218c-.133.018-.271-.006-.406.006-.1.009-.191,0-.24-.073-.146-.229-.37-.21-.594-.2-.188.006-.256-.03-.28-.2a.51.51,0,0,0-.146-.349c-.135-.119-.257-.253-.384-.38a2.233,2.233,0,0,0-.022-.263.547.547,0,0,1,.274-.566,6.637,6.637,0,0,0-.008-.811.634.634,0,0,1,.274-.557c-.28-.275-.275-.279-.267-.572,0-.135,0-.271,0-.406,0-.159-.046-.223-.246-.232-.155-.008-.284-.061-.289-.2-.018-.54,0-1.083-.013-1.623-.007-.208.143-.306.219-.454.1-.186.108-.4.29-.561a.268.268,0,0,0-.027-.357c-.061-.066-.127-.127-.2-.2l.263-.288a.6.6,0,0,1-.279-.56c.03-.357.008-.717.008-1.073a.561.561,0,0,0,.274-.574c-.025-.174-.022-.352-.031-.529-.395-.3-.2-.739-.238-1.118-.025-.224.008-.452-.009-.677a.581.581,0,0,1,.236-.58c0-.145-.14-.191-.217-.3.081-.088.163-.183.249-.273.14-.144.141-.143.287,0,.129.127.255.255.39.389a1.677,1.677,0,0,1,.285-.255c.069-.038.194.025.264-.012.489-.262.486-.267.7-.267h2.286c.225-.211.225-.212.49-.052.065.04.114,0,.194-.083.121-.128.141-.13.281.022.085.092.127.12.2.041s.126-.129.2-.2c.625,0,1.257-.015,1.887.008a.574.574,0,0,0,.544-.283l.3.263c.137-.125.232-.286.449-.263s.441.024.661.043a.137.137,0,0,1,.092.092c.006.721.007,1.443.008,2.165,0,.27,0,.27.263.56-.1.135-.281.211-.268.433.019.313,0,.627,0,.918.148.146.145.147.046.5-.009.03-.008.079.009.093a.546.546,0,0,1,.222.454c-.015.586-.016,1.174,0,1.76.007.22-.155.3-.263.445.083.09.207.169.248.281A1.221,1.221,0,0,1,140.73,455.34Zm-8.413-5.027c0,.5.006,1,0,1.5,0,.169.1.3.354.268a.288.288,0,0,0,.113-.054c.1-.062.079-.116-.029-.194a.342.342,0,0,1-.164-.337c.021-.17-.046-.356.127-.494a.34.34,0,0,0,.141-.209c.012-.5.007-.993,0-1.49a.212.212,0,0,0-.047-.115c-.026-.036-.062-.081-.1-.086-.126-.02-.267.035-.367-.1-.044-.064-.132-.146-.187-.137-.1.017-.119.118-.116.215a4.2,4.2,0,0,1,0,.678A.582.582,0,0,0,132.316,450.313Zm1.78-1.215h-.4a.477.477,0,0,0-.13,0,.328.328,0,0,0-.1.07c-.066.059-.037.113.058.189a3.491,3.491,0,0,0,.284.267.33.33,0,0,0,.253.008.5.5,0,0,0,.191-.168c.072-.085.235-.14.187-.274C134.38,449.034,134.212,449.115,134.1,449.1Zm1.11,10.816c.034-.034.086-.062.091-.1.013-.085.039-.2,0-.255a2.948,2.948,0,0,0-.355-.373.092.092,0,0,0-.088,0c-.037.021-.09.058-.089.09,0,.121-.056.262.08.355S135.023,459.9,135.207,459.914Zm-2.393-3.036c.031-.06,0-.124-.092-.176-.011-.005-.064.052-.086.086-.036.058,0,.123.091.174C132.736,456.97,132.784,456.909,132.813,456.878Zm6.831.226a.647.647,0,0,0-.091-.09c-.058-.035-.124,0-.176.092-.005.012.052.064.087.086C139.521,457.229,139.584,457.195,139.644,457.1Zm-4.025,1.4c.03.03.076.092.087.086.095-.052.128-.118.092-.176-.022-.034-.076-.091-.087-.086C135.616,458.382,135.588,458.446,135.619,458.506Z" transform="translate(-130.411 -447.192)" fill="#ffbb59" fill-rule="evenodd"/>
            </g>
          </g>
          <g id="Group_201" data-name="Group 201" transform="translate(22.239 23.08)">
            <g id="Group_200" data-name="Group 200">
              <path id="Path_208" data-name="Path 208" d="M161.033,449.174c-.072.611-.013.672.042.738a.712.712,0,0,1-.013.732c-.086.1-.181.179-.174.338.016.313.005.627.005.91.091.125.224.176.235.317-.285.17-.238.45-.235.715,0,.136-.011.273,0,.406.034.338-.145.729.239.984l-.22.3a.742.742,0,0,1,.261.543c-.03.677-.009,1.354-.009,2.031,0,.136.005.271,0,.406s.053.269-.088.372a1.247,1.247,0,0,0-.17.188c.064.065.13.127.191.193.078.085.111.3.038.362a.618.618,0,0,0-.245.58c.02.179-.011.363.008.541.023.212-.11.322-.235.447a.18.18,0,0,0-.039.118c.024.334-.192.337-.432.329-.218-.008-.213.005-.388.368a.378.378,0,0,1-.179.168c-.075.034-.207-.007-.248.042a.652.652,0,0,1-.585.241c-.172-.014-.4-.087-.512.047-.208.264-.468.215-.729.216-.677,0-1.354.007-2.032,0a.385.385,0,0,0-.341.157c-.135.178-.326.091-.494.119s-.243-.075-.337-.168l-.1-.1c-.064.058-.127.116-.191.174-.031.028-.063.053-.1.08-.064-.063-.123-.133-.192-.19a.464.464,0,0,1-.209-.458,1.93,1.93,0,0,0,0-.281l-.549-.574v-2.708a.571.571,0,0,1-.27-.567c.032-.256-.076-.548.221-.723a3.3,3.3,0,0,0,.016-1.179c-.423-.355-.164-.838-.233-1.258-.06-.377.152-.815-.243-1.118.073-.1.146-.2.225-.3l-.246-.271.251-.281c-.121-.137-.268-.229-.264-.446.014-.813.005-1.625.006-2.436,0-.092-.064-.146-.124-.223-.217-.278-.212-.283-.006-.554.191-.252.19-.315-.029-.559-.03-.033-.064-.064-.1-.1.086-.093.17-.188.256-.282l-.088-.093c-.227-.239-.229-.275.058-.3.214-.02.3-.165.44-.278h7.607c.168.168.351.365.55.543.114.1.095.233.134.354a1.21,1.21,0,0,0,.245.319,1.557,1.557,0,0,0-.25.275c-.069.122,0,.124.129.146s.158.2.136.335c-.029.179-.284.23-.265.429a.4.4,0,0,1-.17.34c-.032.03-.064.063.034-.451.142-.582.144-.655.13-.661a.174.174,0,0,0-.211.068c-.055.064-.047.119.053.17.019.009.06-.015.083-.034S161.15,448.663,161.033,449.174Zm-2.688,10.16.285-.284c.1-.1.1-.105-.135-.322-.062-.058-.125-.113-.187-.167-.135.1-.208.3-.427.26a.228.228,0,0,0-.223.111c-.085.1-.185.19-.3.3.319.218.66.108,1.529-.656a.363.363,0,0,0-.159.123c-.056.113,0,.169.114.114a.369.369,0,0,0,.123-.159C158.969,458.648,158.9,458.575,158.345,459.334Zm-2.972.53c.03-.031.082-.059.088-.094a.927.927,0,0,0,0-.261c-.005-.035-.049-.07-.083-.093a.118.118,0,0,0-.091-.008c-.136.059-.141.356-.005.447C155.3,459.87,155.342,459.862,155.373,459.864Z" transform="translate(-152.195 -446.885)" fill="#ffbb59" fill-rule="evenodd"/>
            </g>
          </g>
          <path id="Path_209" data-name="Path 209" d="M158.719,420.179a.589.589,0,0,1,.563-.278,7.4,7.4,0,0,0,.785.006c.15-.131.24-.279.459-.276.763.014,1.528.005,2.264.005l.4.422a.438.438,0,0,0,.2.459c.078.06.042.112-.049.2-.147.135-.146.155-.01.28.087.082.119.128.07.2-.218.306-.2.311-.218.453a.585.585,0,0,0,.294.578c-.073.064-.142.119-.2.183s-.127.315-.069.362a.707.707,0,0,1,.285.563l.511.512c.008.37.014.773,0,1.175-.009.218.144.309.265.446l-.262.29c.062.058.131.115.191.181.124.138.112.288-.028.463-.054.068-.15.134-.154.2-.017.316-.008.633-.007.949,0,.091-.064.146-.123.222-.213.273-.207.277-.007.557a.536.536,0,0,1,.124.218,3.049,3.049,0,0,1,0,.542.361.361,0,0,0,.163.34c.134.1.111.232.11.362,0,.3,0,.3.272.566v1.087l-.395.391-.293-.257a6.36,6.36,0,0,0-.793.008.638.638,0,0,1-.565-.282h-3.247c-.141-.11-.22-.274-.441-.273-1.67.009-3.34.005-4.987.005a3.02,3.02,0,0,0-.313-.308c-.143-.1-.1-.247-.083-.369.008-.054.13-.125.2-.131.224-.017.452.006.677-.013a.36.36,0,0,0,.2-.147c.1-.126.241-.084.357-.126a1.2,1.2,0,0,0,.3-.255c.328.06.462-.213.657-.385-.054-.173-.214-.257-.326-.38a.291.291,0,0,0-.362-.011c-.133.119-.24.247-.451.231a4.936,4.936,0,0,0-.814,0,.6.6,0,0,1-.575-.255c-.318.042-.48-.194-.65-.388a.585.585,0,0,0-.468-.193c-.086,0-.177-.282-.124-.349.191-.24.349-.529.74-.454a.55.55,0,0,0,.251-.042c.039-.012.065-.06.1-.092l.675-.676c.177,0,.357.006.538,0,.034,0,.076-.052.1-.09a.121.121,0,0,0-.109-.171c-.768-.013-1.537-.007-2.306-.007-.177,0-.2-.011-.247-.233-.017-.093-.008-.18-.075-.243l-.475-.453c0-.163,0-.3,0-.435,0-.2,0-.229.224-.257s.338-.076.319-.309a.257.257,0,0,1,.115-.224,2.244,2.244,0,0,0,.379-.387c.068-.1.058-.245.107-.361.037-.089.134-.082.234-.089.2-.015.226-.027.244-.229a.323.323,0,0,1,.186-.308c.3.093.4-.31.7-.283.177.016.268-.21.4-.324.069-.058.129-.128.193-.191.246-.245.246-.281.423-.279.225,0,.271-.216.431-.278a.5.5,0,0,1,.135,0c.043,0,.1.006.126-.018a2.451,2.451,0,0,0,.382-.385c.142-.2.434-.067.566-.282.116-.189.318-.115.489-.127a.8.8,0,0,0,.135,0,.167.167,0,0,0,.106-.064c.114-.246.4-.148.562-.285.1-.082.156-.213.329-.2C158.262,420.195,158.489,420.179,158.719,420.179Zm-3.806,3.8c-.344.344-.686.688-1.032,1.03-.055.054-.125.019-.189-.08s-.127-.125-.191-.081a.229.229,0,0,0-.085.235c.016.174.079.25.233.252.09,0,.18,0,.268,0,.271.014.535.023.707-.25.014-.024.081-.01.121-.024.3-.092.3-.093.3-.314s-.013-.44-.03-.661C155.016,424.054,154.96,424.024,154.913,423.979Zm3.929,4.072c.223,0,.446.014.667-.008a.123.123,0,0,0,.109-.169c-.018-.037-.059-.091-.091-.091-.357-.007-.713-.014-1.069,0a.123.123,0,0,0-.109.169c.019.037.058.088.092.091C158.574,428.056,158.709,428.05,158.842,428.05Z" transform="translate(-129.811 -419.631)" fill="#ff5c6f" fill-rule="evenodd"/>
          <path id="Path_210" data-name="Path 210" d="M144.475,443.587v-1.359c.12-.113.118-.114.041-.487a1.3,1.3,0,0,1-.047-.25c0-.588-.012-1.176,0-1.764.006-.212-.137-.307-.236-.448a.292.292,0,0,1,.023-.362c.08-.1.223-.158.209-.321-.021-.239.122-.278.324-.3s.213-.052.213-.263c0-.1,0-.186.1-.231.151-.069.359-.009.461-.193s.324-.075.468-.186c.276-.216.285-.207.456-.206h.27l.291-.268h1.353l.4.4c0,.433.005.882,0,1.332,0,.285-.015.289.268.565l-.257.283c.114.137.278.222.267.442-.025.492-.008.987-.038,1.479-.027.437-.046.437.095.575.064.064.13.126.191.192a.424.424,0,0,1-.06.367c-.06.066-.126.128-.194.2a.662.662,0,0,1,.281.561c-.018,1.355-.008,2.709-.008,4.05.075.076.141.139.2.2.079.086.112.3.038.363a.642.642,0,0,0-.246.579c.021.362.006.724.005,1.085,0,.266-.052.546.235.717.013.13.035.261.035.39q.005,2.307,0,4.61a.39.39,0,0,0,.156.343.261.261,0,0,1,.12.223c0,.271,0,.544-.005.814,0,.1,0,.19.075.24a.541.541,0,0,1,.2.6c-.02.169.1.236.187.332a.3.3,0,0,1-.02.457c-.218.18-.076.273.05.39.057.054,0,.109-.074.195-.179.2-.218.346-.078.45.275.2.222.477.2.733-.011.107-.163.2-.251.3.061.329-.213.463-.4.672l-.283-.239a.75.75,0,0,1-.55.264c-.586-.032-1.175-.01-1.761-.01h-.543c-.509,0-.517,0-.539-.484a.414.414,0,0,0-.156-.342.26.26,0,0,1-.121-.223c0-.272-.014-.543.005-.813.016-.222-.159-.3-.271-.443v-2.43a.672.672,0,0,1-.285-.565c.036-.357.008-.721.008-1.07-.092-.1-.175-.2-.259-.291.073-.073.141-.132.2-.2a.287.287,0,0,0,.018-.361c-.1-.141-.236-.239-.234-.451.011-1.129.007-2.259,0-3.389,0-.084,0-.21-.053-.243-.286-.187-.21-.469-.215-.73a6.217,6.217,0,0,1,0-.677c.019-.221-.152-.3-.268-.446v-3.254a.68.68,0,0,0,0-1.1Zm3.385-6.1a.551.551,0,0,0-.091.093.349.349,0,0,0,0,.357.526.526,0,0,0,.091.094.774.774,0,0,0,.131-.207C148.024,437.682,147.936,437.486,147.86,437.486Zm-.86.5c.061.03.124,0,.176-.093.007-.01-.051-.064-.086-.087-.057-.036-.123,0-.175.093C146.909,437.907,146.971,437.955,147,437.984Z" transform="translate(-128.729 -422.283)" fill="#ff5c6f" fill-rule="evenodd"/>
          <g id="Group_203" data-name="Group 203" transform="translate(21.964 14.932)">
            <g id="Group_202" data-name="Group 202">
              <path id="Path_211" data-name="Path 211" d="M156.633,437.268h4.337c.094.086.179.213.295.257a1.2,1.2,0,0,0,.4.012c.044,0,.088,0,.133.006l.384.383a1.074,1.074,0,0,1,.013.264.555.555,0,0,0,.274.561v1.639a.544.544,0,0,0-.272.559c.043.2-.083.319-.2.463-.127.16-.091.4-.286.564-.136.112-.042.337-.055.512-.007.09,0,.18,0,.271,0,.045,0,.091,0,.136,0,.279-.168.473-.579.6-.141.045-.206.161-.317.218s-.265.039-.361.108a.807.807,0,0,1-.451.233c-.381.025-.817-.164-1.119.239l-.314-.248h-1.6c-.269,0-.269,0-.567.268a.614.614,0,0,0-.554-.292.633.633,0,0,0-.577-.252c-.859.015-1.718.006-2.577.005-.13,0-.218-.107-.215-.271,0-.045,0-.091,0-.135,0-.223,0-.223-.191-.463-.133-.168-.045-.443-.285-.563-.076-.038-.035-.113.06-.191a.348.348,0,0,0,.139-.209c.011-.678.007-1.357.007-2.034-.138-.216-.341-.4-.276-.7a1.963,1.963,0,0,0,0-.406v-.678a.718.718,0,0,1,.6-.589h.677c.265,0,.545.055.722-.23.017-.027.077-.04.117-.041q1.016,0,2.034,0c.037,0,.073.041.113.052C156.486,437.409,156.488,437.41,156.633,437.268Zm1.451,4.791c.031-.06,0-.124-.092-.176-.011-.006-.064.052-.086.086-.036.057,0,.124.091.176C158.007,442.149,158.054,442.089,158.084,442.059Z" transform="translate(-151.87 -437.264)" fill="#ffbb59" fill-rule="evenodd"/>
            </g>
          </g>
          <g id="Group_205" data-name="Group 205" transform="translate(1.89 15.461)">
            <g id="Group_204" data-name="Group 204">
              <path id="Path_212" data-name="Path 212" d="M136.178,444.144c-1.1,0-2.228,0-3.354,0-.1,0-.185,0-.242.072a.563.563,0,0,1-.458.212.643.643,0,0,1-.561-.284h-.809c-.141-.106-.215-.3-.439-.273a.2.2,0,0,1-.239-.24.259.259,0,0,0-.191-.3c-.08-.026-.195,0-.251-.043-.172-.146-.322-.317-.484-.473a.39.39,0,0,1-.133-.463c.082-.148.237-.082.36-.113.105-.025.147-.114.107-.173a1.757,1.757,0,0,0-.189-.193l-.288-.288a.738.738,0,0,0-.279-.567c-.07-.078.041-.263-.1-.358a.463.463,0,0,1-.184-.468c.011-.194,0-.2-.2-.456a.275.275,0,0,1-.066-.245c.009-.042.005-.108.03-.12.268-.14.18-.482.381-.658a2.1,2.1,0,0,1,.3-.261c.068-.041.211.015.253-.032.166-.187.311-.294.486-.019.151.014.184-.167.29-.191a2.49,2.49,0,0,1,.528-.035c.587,0,1.175.009,1.761-.006.218-.006.3.152.442.267.093-.086.175-.224.285-.251a1.378,1.378,0,0,1,.537,0c.072.01.127.121.194.182.139.125.285.109.462-.033s.168-.137.287-.031c.143.128.152.136.285-.005.083-.09.13-.124.2-.058s.127.129.2.2c.161-.135.291-.308.556-.268.228.035.234.007.461-.185.143-.121.285-.111.463.036.265.217.312.216.559.029.274-.207.3-.207.558,0,.132.108.133.108.288-.034.033-.03.064-.064.111-.11.209,0,.433-.012.655,0,.171.012.371-.086.507.079a.472.472,0,0,0,.466.194c.027,0,.069.055.093.091a.227.227,0,0,1,.041.119c0,1.671.005,3.342,0,5.013a.216.216,0,0,1-.28.2c-.167-.028-.228.118-.322.2-.071.065-.122.05-.195-.053a.362.362,0,0,0-.343-.153c-.173.014-.354-.032-.489.138a.334.334,0,0,1-.213.13c-.451.011-.9.019-1.355,0C136.424,443.859,136.329,444,136.178,444.144Zm-2.458-1.636c.169-.135.3-.288.561-.274.632.031,1.266.014,1.9,0,.047,0,.111-.129.132-.207.037-.141-.064-.327-.154-.327-.5,0-1,0-1.492,0q-1.285.005-2.571.019c-.032,0-.073.054-.094.092a.526.526,0,0,0-.028.124.239.239,0,0,0,.071.243c.067.064.126.042.193-.063s.154-.145.186-.094c.181.289.467.235.726.215A.585.585,0,0,1,133.719,442.508Zm3.138-.6a.567.567,0,0,0-.045-.113c-.024-.035-.06-.086-.091-.086s-.068.052-.091.086a.218.218,0,0,0-.042.113,1.033,1.033,0,0,0,.044.243.15.15,0,0,0,.09.09C136.794,442.255,136.875,442.052,136.858,441.908Zm-5.247.292c.03-.03.091-.077.086-.088-.053-.095-.119-.128-.175-.091-.036.021-.092.075-.086.086C131.486,442.2,131.55,442.23,131.611,442.2Z" transform="translate(-128.166 -437.888)" fill="#ffbb59" fill-rule="evenodd"/>
            </g>
          </g>
          <path id="Path_213" data-name="Path 213" d="M150.232,432.238a3.4,3.4,0,0,0-.113,1.079c0,.148-.056.206-.258.221-.1.008-.179.008-.235.093-.11.169-.28.175-.46.2-.111.018-.191.182-.3.244-.069.038-.177,0-.268.008s-.224-.019-.253.027c-.22.333-.552.226-.854.245-.086,0-.215-.006-.248.042-.226.332-.561.215-.86.225-.362.012-.724,0-1.085,0-.269,0-.544.036-.711-.246-.132-.009-.264-.019-.4-.026-.18-.01-.308-.081-.308-.177q0-1.288,0-2.575c0-.157.141-.215.218-.318s.042-.256.055-.384c.023-.213-.091-.463.14-.617.177-.119.06-.356.194-.461a.589.589,0,0,0,.206-.594.315.315,0,0,1,.074-.243c.2-.279.2-.283.2-.459,0-.237,0-.242.188-.462a.279.279,0,0,0,.086-.24,1.907,1.907,0,0,0-.024-.4c-.038-.108-.156-.188-.237-.279.14-.141.261-.276.4-.394a.5.5,0,0,0,.138-.353.241.241,0,0,1,.291-.193.206.206,0,0,0,.242-.237c-.011-.155.05-.269.189-.3a.708.708,0,0,0,.356-.13c.267-.22.294-.227.549.005.159.146.325.11.5.118.245.012.245.009.313.309a.48.48,0,0,0,.029.124c.021.038.07.1.092.092.309-.083.423.286.7.294.193.007.259.076.268.213a1.449,1.449,0,0,1,0,.271.349.349,0,0,0,.157.342c.13.095.112.228.119.359a.593.593,0,0,0,.068.38c.211.283.2.289.2.456,0,.237,0,.242.189.463a.284.284,0,0,1,.086.238.562.562,0,0,0,.195.6c.128.089.066.246.072.374s-.006.261.119.36c.065.051.148.137.146.2a4.252,4.252,0,0,1-.036,1.068c-.029.1-.124.128-.229.1.008.26-.092.559.112.322-.2-.312-.122-.31-.116-.324a.174.174,0,0,0-.069-.211c-.065-.055-.119-.047-.17.054-.009.017.015.059.034.082S149.966,431.9,150.232,432.238Z" transform="translate(-128.682 -420.512)" fill="#ff5c6f" fill-rule="evenodd"/>
          <path id="Path_214" data-name="Path 214" d="M142.72,431.126c-.127.042-.173,0-.124-.125a.159.159,0,0,1,.081-.091,1.173,1.173,0,0,1,.229-.055.165.165,0,0,1,.2.114c.009.04-.075.13-.132.15A.772.772,0,0,1,142.72,431.126Z" transform="translate(-128.483 -421.35)" fill="#fa528b" fill-rule="evenodd"/>
          <path id="Path_215" data-name="Path 215" d="M142.834,456.973c.006.011-.068.084-.077.079a.354.354,0,0,1-.159-.124c-.056-.113,0-.169.114-.113A.369.369,0,0,1,142.834,456.973Z" transform="translate(-128.483 -425.323)" fill="#fa528b" fill-rule="evenodd"/>
          <path id="Path_216" data-name="Path 216" d="M143.237,458.737c.2.025.272.086.224.182a.173.173,0,0,1-.224.09Z" transform="translate(-128.584 -425.62)" fill="#fa528b" fill-rule="evenodd"/>
        </g>
      </g>
    </g>
    <g id="Group_228" data-name="Group 228" transform="matrix(0.809, -0.588, 0.588, 0.809, 1153.968, 365.842)">
      <path id="Path_171-2" data-name="Path 171" d="M.21,10.652C-.018,10.4-.016,10.4.161,10.1a.513.513,0,0,0,.1-.226c0-.223-.031-.445-.057-.744l.506-.4a5.251,5.251,0,0,0-.062-.686.552.552,0,0,1,.234-.562C.855,7.108.824,6.754.795,6.4a.549.549,0,0,0,.216-.586A.351.351,0,0,1,1.1,5.45a.382.382,0,0,0,.122-.218A4.375,4.375,0,0,0,1.184,4.7c-.025-.262-.092-.534.176-.725,0-.131-.005-.261,0-.391.005-.083,0-.2.045-.242a.564.564,0,0,0,.15-.606c-.034-.159.068-.242.146-.345a.32.32,0,0,0-.035-.458c-.138-.114-.275-.229-.41-.347-.03-.027-.074-.071-.07-.1C1.232,1.211.942,1.143.87.945A.2.2,0,0,1,.86.813a2.694,2.694,0,0,1,.663-.8C1.553-.007,1.61,0,1.654,0s.1,0,.118.03c.16.254.494.125.683.319.125.128.272.233.408.349.254-.072.406.1.58.234a.358.358,0,0,1,.148.342c-.047.334.212.459.407.629a.169.169,0,0,0,.114.044,2.8,2.8,0,0,0,.783-.106.23.23,0,0,0,.087-.1c.109-.186.3-.145.468-.175a.445.445,0,0,1,.356.12c.2.145.321.139.458.012.23-.215.23-.215.437-.235l.268-.023.208.166.1.075L9.412,1.5c.131-.119.194-.293.413-.306.577-.033,1.154-.092,1.707-.138.161.126.268.267.481.234.264-.042.536-.038.8-.076a.628.628,0,0,1,.6.177c.044.045.168.039.247.022a.565.565,0,0,1,.59.2.525.525,0,0,1,.552.249l.824-.069c.271-.023.271-.023.584.223l1.6-.134c.174.146.338.3.519.43a.356.356,0,0,0,.244.038.671.671,0,0,1,.6.173c.116.1.344-.009.466.159.094.127.242.065.358.1.2.06.325.309.584.213.17.133.324.3.58.231.025-.006.091.049.1.083a.7.7,0,0,0,.334.527.607.607,0,0,0,.33.527.425.425,0,0,0,.227.442.224.224,0,0,1,.1.228.545.545,0,0,0,.248.57.154.154,0,0,1,.072.1c.022.178.018.36.052.534a.5.5,0,0,1-.185.465c-.062.063-.119.132-.174.2L19.6,7.122c-.109-.08-.207-.155-.31-.231-.184.36-.5.316-.807.29C18.292,6.912,18.019,7,17.758,7a.358.358,0,0,1-.216-.126.345.345,0,0,0-.364-.085.55.55,0,0,1-.583-.22l-1.07.09c-.169-.141-.319-.289-.581-.233a6.448,6.448,0,0,1-.791.075c-.151-.1-.239-.265-.459-.237-.4.051-.8.072-1.174.1-.057-.048-.089-.078-.125-.105-.259-.194-.336-.195-.55.028-.078.08-.126.142-.185.1-.174-.14-.342-.287-.514-.431-.249-.029-.533.132-.74-.13a.224.224,0,0,0-.24-.073c-.22.032-.443.042-.668.061a.551.551,0,0,0-.582-.225,1.072,1.072,0,0,1-.26,0l-.512-.434c-.4.025-.606-.3-.887-.491A.274.274,0,0,0,7,4.685a2.793,2.793,0,0,0-.354.4c-.011.012.013.078.034.086.249.093.179.383.331.529s.348.282.508.438c.112.11.237.079.364.1a.25.25,0,0,1,.177.156c.04.261.051.526.071.759l.582.491c.019.231.03.5.07.756.01.063.126.168.172.158.333-.069.475.205.665.367.076.065-.022.263.132.345a.443.443,0,0,1,.216.448c0,.146,0,.152.243.431.115.133.035.346.222.448a1.3,1.3,0,0,1,.308.257c.174.183.49.263.451.6.195.179.39.356.592.54.015.172.03.348.043.516.248.21.48.423.73.61.175.131.136.309.163.477.007.044.008.09.014.176l.881.746c.024.28.046.546.068.8a3.548,3.548,0,0,0,.319.265.568.568,0,0,1,.281.555.331.331,0,0,0,.172.328c.21.118.1.412.325.538.193.107.336.3.541.432.078.05.237,0,.367,0,.26,0,.535-.134.779,0a3.3,3.3,0,0,1,.52.428l1.337-.113a.616.616,0,0,0,.578.232,6.275,6.275,0,0,1,.79-.074c.146.124.287.236.419.357a.374.374,0,0,0,.354.119.658.658,0,0,1,.133-.012l.522,0c.155.259.5.118.677.325a.242.242,0,0,0,.23.1,2.69,2.69,0,0,1,.268-.023c.217-.011.217-.01.326.289.068.185.068.2.277.193a.269.269,0,0,1,.241.073,1.582,1.582,0,0,0,.206.165l.669-.056c.192-.015.225-.013.266.205s.116.319.337.283a.278.278,0,0,1,.231.1c.337.294.681.58,1.026.872l.558-.048c.222.195.466.392.69.608.2.187.505.081.689.317a3.248,3.248,0,0,0,.505.439c.206.173.411.345.615.52.069.059.152.045.246.052.224.018.225.032.266.411l1.01.821c.4-.136.4.195.494.419.318.128.206.567.533.71a.491.491,0,0,1,.334.519c.243.237.6.385.637.787l.54.457c.017.195.036.413.053.634a.692.692,0,0,1-.552.621.661.661,0,0,0-.471.175c-.217.233-.285.218-.547.024-.036-.026-.07-.057-.113-.094l-2.4.2-.625-.5-.522.044a3.011,3.011,0,0,1-.412-.357c-.157-.193-.434-.032-.583-.231-.13-.175-.322-.108-.49-.085a.373.373,0,0,1-.348-.134.247.247,0,0,0-.233-.093c-.134.018-.267.024-.414.037l-.623-.5c-.168.014-.345.028-.522.044a.727.727,0,0,0-.575-.245c-.1,0-.138-.109-.123-.209s-.01-.2-.105-.221c-.205-.052-.433-.041-.575-.241a.844.844,0,0,1-.678-.324c-.067-.06-.137-.116-.207-.175-.221.018-.447.022-.666.062-.17.03-.235-.1-.341-.166a.369.369,0,0,0-.107-.069.474.474,0,0,0-.134.008c-.042,0-.1.015-.126-.006-.483-.4-.96-.806-1.439-1.211l-.67.056a1.518,1.518,0,0,0-.037-.36c-.031-.092-.107-.163-.281-.2,0-.022.01-.038-.01-.068a.331.331,0,0,0-.166-.108c-.01,0-.077.073.055.153-.089-.014-.048.055.009.076.013.006.015,0,.028,0a1.682,1.682,0,0,1,.126.356.213.213,0,0,0,.276.152c.019.224.038.447.057.676a.54.54,0,0,1,.316.53c-.008.087.025.18.018.268-.015.2.115.306.239.44.138.149.126.39.329.532.143.1.068.331.1.5.007.044,0,.089.012.133.031.171-.014.355.092.512.32.125.2.586.534.706.078.028.137.112.207.169a.321.321,0,0,1,.033.458c-.026.035-.061.066-.086.1-.062.087-.092.315-.025.363a.642.642,0,0,1,.3.549,7.018,7.018,0,0,0,.094.786c.4.274.24.72.325,1.089.011.044-.006.1.016.132a.978.978,0,0,0,.161.2c.133.12.273.232.416.354.067.795.134,1.6.2,2.4.165.145.366.267.323.535-.007.043.013.091.007.134a.208.208,0,0,0,.119.221c.071.046.183.126.177.18-.031.273.248.347.317.54.043.122.049.244.166.337.247.192.481.4.731.612.014.168.025.346.048.522,0,.035.054.075.091.089.217.087.434-.007.652,0,.174,0,.389-.111.511.013.175.177.429.11.576.238a.678.678,0,0,0,.611.147c.044-.007.089-.008.156-.013l.874.735c.133-.011.222-.016.312-.027a.466.466,0,0,1,.363.093c.2.152.337.439.665.361.174.134.352.265.523.4.208.17.408.349.617.519.172.141.351.274.492.384.028.183.016.306.142.409.555.452,1.1.918,1.638,1.376.023.281.046.546.068.8l.846.715c.05.605.1,1.225.161,1.914l.588.385c.029.35.051.617.075.89a.549.549,0,0,1,.317.532,1.175,1.175,0,0,0,.035.259c.137.115.268.24.413.344.254.185-.015.265-.065.39-.009.022.021.065.042.09s.07.056.1.089c.174.183.485.271.433.614.3.449.3.449.324.671.026.31.051.62.077.923a.549.549,0,0,1,.318.55.36.36,0,0,0,.155.341.348.348,0,0,1,.152.2c.052.489.076.982.135,1.471a.631.631,0,0,1-.2.593,3.669,3.669,0,0,0-.262.306.574.574,0,0,1-.238.574.448.448,0,0,1-.2.142,3.352,3.352,0,0,1-.669.055c-.138-.005-.207-.122-.211-.276a.2.2,0,0,0-.259-.213c-.159.033-.245-.066-.344-.148-.357-.294-.358-.29-.55-.32-.287-.045-.29-.054-.108-.291.028-.036.075-.066.081-.1s-.046-.074-.081-.085c-.521-.169-.593-.208-.756-.426.05-.27-.279-.341-.3-.537-.04-.322-.286-.43-.5-.564-.089-.057-.313.05-.346-.1a.782.782,0,0,0-.343-.526c.033-.265-.163-.384-.328-.529-.257-.226-.587-.39-.649-.786-.01-.066-.136-.11-.2-.176-.115-.125-.334-.174-.335-.382s-.2-.27-.3-.409c-.043-.063-.022-.173-.03-.274L27.925,48.5c-.2-.167-.157-.5-.432-.62-.022-.009-.024-.079-.028-.121-.014-.133-.023-.268-.037-.425-.225-.19-.464-.39-.7-.593-.065-.056-.166-.124-.167-.188-.007-.393-.395-.45-.571-.689a.613.613,0,0,1-.055-.25c-.024-.126.028-.288-.1-.364a.592.592,0,0,1-.25-.573c0-.046.01-.106-.015-.131-.088-.1-.217-.167-.281-.276s.009-.253-.131-.354c-.217-.156-.414-.342-.619-.516a.294.294,0,0,0-.046.45.663.663,0,0,1,.255.432c.033.581.1,1.16.136,1.741.013.218.179.288.3.414l-.237.3a.428.428,0,0,1-.154.473.17.17,0,0,0-.063.109c.023.265.054.529.084.793.488.351.238.9.362,1.35.023.082.039.167.057.25.172.144.343.288.542.457.025.283.064.591.072.9.005.221.181.286.3.415.068.794.135,1.6.2,2.4-.05.064-.1.134-.159.2a.314.314,0,0,0,.052.455.463.463,0,0,1,.2.319c.061.846.137,1.691.2,2.485.124.136.275.224.287.329.077.667.128,1.338.173,2.008a.328.328,0,0,1-.112.22c-.158.148-.093.323-.094.494a.363.363,0,0,0,.181.327.255.255,0,0,1,.138.21c.015.223.036.446.056.686l-.493.616c.073.2-.054.441.158.615.128.1.119.119-.015.379-.035.07-.007.129.1.184s.145.124.089.181a.462.462,0,0,0-.171.468.689.689,0,0,0-.208.715.208.208,0,0,1-.069.24,1.705,1.705,0,0,0-.169.213c.059.707.119,1.42.179,2.127-.12.143-.212.331-.36.4s-.337.065-.435.24a.6.6,0,0,1-.086.1c-.05-.068-.134-.132-.142-.2-.049-.445-.069-.894-.124-1.338-.026-.214.115-.318.218-.454-.057-.059-.11-.12-.168-.177-.192-.189-.172-.446.07-.5.191-.044.333-.078.3-.321-.036-.309-.055-.621-.081-.932a.63.63,0,0,0,.251-.576.558.558,0,0,0,.192-.592,1.964,1.964,0,0,1-.024-.267c-.019-.263,0-.534-.289-.695-.051-.027-.058-.159-.057-.243a.486.486,0,0,0-.316-.526c-.039-.462-.057-.908-.121-1.348a.608.608,0,0,1,.227-.577c-.1-.089-.188-.176-.282-.262.109-.118.106-.12,0-.483a1.353,1.353,0,0,1-.065-.244c-.075-.848-.145-1.7-.217-2.544-.016-.189-.1-.352-.168-.313a.225.225,0,0,0-.108.224.608.608,0,0,1,.008.134.209.209,0,0,1-.053.112.443.443,0,0,0-.165.469l-.244.314a.421.421,0,0,1-.152.473.222.222,0,0,0-.059.242.573.573,0,0,1-.151.607c-.049.042-.044.159-.043.242,0,.134.024.267.03.4,0,.085.026.218-.017.249-.246.171-.118.508-.32.684-.181.156-.023.429-.232.584a2.411,2.411,0,0,0-.35.387c.023.286.045.553.068.819-.147.173-.3.338-.43.518a.358.358,0,0,0-.039.245.569.569,0,0,1-.181.6,4.539,4.539,0,0,1-.005.522c-.008.073-.084.2-.13.2a.5.5,0,0,0-.436.25c-.05.074-.114.138-.181.218.017.211.027.434.058.654.015.1.016.186-.069.239-.254.16-.063.524-.322.683-.079.048-.069.142-.057.242.038.356.063.714.093,1.07.012.154-.03.225-.225.251-.153.019-.259.08-.268.22a.687.687,0,0,1-.105.361c-.193.294-.188.318.06.543.089.081.118.109.061.191-.179.256-.188.261-.157.468a.466.466,0,0,1-.147.477c-.032.028-.082.08-.074.1.091.262-.134.4-.222.584-.016.035,0,.088.008.133.008.089.018.178.022.268,0,.041.007.107-.016.122-.252.161-.143.488-.321.683-.12.132-.232.272-.357.42l.275.26a.629.629,0,0,0-.225.573c.062.35.069.71.1,1.054.146.123.145.125.092.481-.007.039-.042.079-.039.117q.069.87.144,1.741a.28.28,0,0,0,.42.165,2.38,2.38,0,0,0,.273-.285c.339.034.416-.286.6-.453-.049-.254,0-.411.309-.446.16-.019.21-.08.173-.291-.023-.13-.024-.263-.034-.382l.272-.323a1.753,1.753,0,0,0,.172-.206c.083-.144-.034-.368.159-.46.109-.053.262.01.351-.136a2.216,2.216,0,0,1,.258-.308c.058-.062.126-.159.192-.161.312-.01.371-.177.313-.438.157-.162.3-.327.222-.582a.44.44,0,0,1,.165-.469.245.245,0,0,0,.045-.246.6.6,0,0,1,.167-.6c.278-.291.527-.61.781-.908.007-.139-.058-.264.063-.387.19-.19.352-.406.543-.633.1.091.191.183.29.272.187.167.2.276,0,.552a.341.341,0,0,0-.086.237c.016.247.008.248-.207.714.09.264-.1.408-.242.575l-.693.82a.677.677,0,0,1-.234.58c-.022.02,0,.083,0,.127.005.248.005.248-.209.716.088.263-.106.407-.246.572-.115.138-.23.275-.344.409-.126.03-.261-.017-.362.124-.156.218-.342.414-.522.627a3.8,3.8,0,0,0,.037.391.2.2,0,0,1-.072.239c-.059.039-.125.006-.2-.08a1.082,1.082,0,0,0-.116-.1c-.3.248-.49.6-.767.849l-.54.072c-.112.278-.457.227-.614.434a.537.537,0,0,1-.333.173c-.194.057-.184.106.033.329.022.023.051.068.043.089a.186.186,0,0,1-.212.127c-.044,0-.106.027-.131.007q-.367-.29-.723-.6a.179.179,0,0,1-.029-.123c.015-.223-.192-.276-.306-.408a6.71,6.71,0,0,0-.073-.8.57.57,0,0,1,.229-.558c-.136-.136-.32-.207-.307-.426a.547.547,0,0,0-.266-.563.1.1,0,0,1-.008-.088c.213-.14.152-.39.24-.577a1.073,1.073,0,0,1,.173-.212c-.144-.15-.336-.262-.309-.527a2.871,2.871,0,0,0-.039-.541.586.586,0,0,0,.239-.57c.182-.149.183-.37.253-.57a2.015,2.015,0,0,1,.418-.519c0-.086.009-.172.006-.258s-.018-.178-.02-.268c0-.127-.084-.291.037-.373.222-.15.109-.409.233-.583.074-.1.2-.172.165-.341-.04-.219-.043-.445-.062-.668-.014-.178-.03-.357-.045-.531A5.293,5.293,0,0,1,20,66.728c.2-.188.066-.521.318-.686.042-.028-.036-.1-.113-.179-.166-.163-.249-.564-.109-.709a.623.623,0,0,0,.139-.611A.288.288,0,0,1,20.3,64.3c.172-.24.166-.245.149-.472-.007-.088-.014-.177-.021-.26.149-.177.3-.341.433-.522A.36.36,0,0,0,20.9,62.8a.572.572,0,0,1,.183-.6,2.505,2.505,0,0,0,0-.387.372.372,0,0,1,.126-.352c.119-.1.064-.242.1-.361s.165-.206.217-.322a.461.461,0,0,0-.008-.262.441.441,0,0,1,.144-.476c.13-.105.022-.258.07-.368.07-.152.262-.235.221-.453-.036-.2.239-.272.221-.445-.022-.208.139-.313.187-.466.066-.2.064-.424.251-.571a3.084,3.084,0,0,0-.027-.528.568.568,0,0,1,.224-.58c-.024-.271-.046-.538-.071-.832.166-.188.331-.4.523-.587s.229-.336-.031-.482a.112.112,0,0,1,.014-.09c.228-.134.118-.406.238-.577.1-.145.23-.275.344-.413a1.068,1.068,0,0,0,.074-.106c-.007-.089-.016-.178-.022-.268-.013-.185-.015-.187.166-.468a.331.331,0,0,0,0-.364c-.042-.073-.163-.105-.194-.178a1.592,1.592,0,0,1-.085-.9c.275-.194.18-.472.162-.729-.024-.313-.038-.628-.084-.938-.03-.215.119-.316.225-.462l-.28-.261c-.022-.26-.045-.528-.067-.8a.629.629,0,0,1-.323-.53c-.037-.713-.112-1.424-.17-2.118-.138-.136-.307-.209-.312-.426a5.829,5.829,0,0,0-.081-.655c-.295-.144-.275-.422-.3-.686-.042-.535-.083-1.072-.139-1.606-.008-.07-.092-.144-.157-.2a.289.289,0,0,1-.141-.208,6.9,6.9,0,0,1-.07-.937c.018-.335-.218-.459-.414-.628a.094.094,0,0,0-.092-.005c-.036.024-.085.068-.084.1.024.357.056.714.087,1.076a.581.581,0,0,0-.227.577c.051.263.037.537.078.8a.633.633,0,0,1-.165.474c-.109.171-.031.433-.246.57a.749.749,0,0,1-.237.576.666.666,0,0,1-.238.576.616.616,0,0,1-.236.577,3.653,3.653,0,0,0-.346.411c-.142.209-.433.338-.371.662a3.325,3.325,0,0,1-.474.632.171.171,0,0,0,0,.128c.084.256-.288.324-.23.584.028.126-.187.411-.334.54a.636.636,0,0,0-.532.328c-.018.024-.084.011-.129.015.021.02.026.061,0,.118s-.091.1-.147.134c-.009.006-.088-.06-.083-.071a.357.357,0,0,1,.108-.166c.053-.033.094-.035.117-.017-.026-.31-.053-.621-.079-.932.192-.279.525-.472.5-.883-.006-.092.108-.138.207-.123s.193-.011.222-.1a2.617,2.617,0,0,1,.074-.365,1.709,1.709,0,0,1,.253-.31l.438-.519a2.075,2.075,0,0,0-.023-.257.422.422,0,0,1,.145-.473c.167-.125-.026-.342.144-.479a2.782,2.782,0,0,0,.35-.4,1.607,1.607,0,0,0,.252-.311c.053-.107.016-.266.078-.36a.633.633,0,0,0,.176-.469c-.052-.4-.059-.8-.111-1.2-.027-.215.123-.314.228-.461-.021-.256-.044-.52-.063-.753.053-.2.279-.258.243-.48-.016-.1-.019-.179-.118-.218a.1.1,0,0,0-.091.019c-.348.407-.693.816-1.039,1.225.069.426-.3.608-.5.879-.186.251-.4.482-.6.715-.129.031-.258-.01-.364.124-.3.386-.654.737-.936,1.137-.146.208-.4.165-.532.326s-.011.339-.021.511a.212.212,0,0,1-.027.12c-.429.513-.861,1.026-1.3,1.534a.167.167,0,0,1-.121.033c-.285-.017-.348.416-.668.328a.39.39,0,0,0-.123.345.214.214,0,0,1-.253.227c-.042,0-.106-.006-.127.019-.207.234-.408.474-.609.714.091.425-.347.574-.468.889.079.266-.155.385-.258.568s-.374.015-.443.224c-.038.119-.032.251-.07.368-.029.09-.122.113-.225.1a.215.215,0,0,0-.124.027c-.035.023-.086.068-.083.1a.675.675,0,0,1-.239.576c-.1.091-.184.194-.26.276.018.21.032.387.047.558-.092.148-.267.236-.233.454.041.265.049.534.072.8.015.171.088.235.257.223s.356-.039.534-.042c.1,0,.182-.016.23-.1a.44.44,0,0,1,.437-.235.421.421,0,0,0,.444-.217c.081-.148.25-.065.35-.13.14-.09.186-.295.407-.3s.279-.205.378-.338a.63.63,0,0,1,.557-.28.341.341,0,0,0,.238-.07,4.244,4.244,0,0,0,.517-.614c.149-.231.363-.217.58-.233.01.134.022.267.035.417L15,52.291c-.294-.012-.392.134-.34.412.007.03-.038.076-.068.105a.249.249,0,0,1-.105.064c-.33.072-.732-.083-.959.311-.017.028-.073.04-.113.049-.257.052-.55-.04-.768.129a3.326,3.326,0,0,0-.443.51l-1.068.09-.319-.248c-.168.014-.346.033-.523.039a.133.133,0,0,1-.1-.083.7.7,0,0,0-.334-.527,5.978,5.978,0,0,1-.071-.8c0-.1.15-.2.232-.305-.092-.262.106-.4.235-.578.093-.128.223-.114.345-.152a.263.263,0,0,0,.145-.187c.018-.172-.029-.355.006-.522.025-.114.183-.184.2-.326a1.369,1.369,0,0,1,.032-.25c.032-.1.125-.093.219-.113a.749.749,0,0,0,.48-.553c.01-.041-.027-.1-.006-.131.162-.211.336-.414.5-.624.081-.1.151-.211.226-.318-.1-.257.241-.38.209-.579-.047-.294.339-.423.221-.716a.951.951,0,0,1,.559-.493c.2-.083.2-.088.185-.289-.005-.045-.007-.09-.011-.134-.007-.09-.015-.178-.023-.265A3.982,3.982,0,0,1,13.9,45.4c.054-.05.186-.008.249-.053a.833.833,0,0,0,.369-.909c-.013-.057.083-.2.125-.2.333.013.425-.279.62-.464-.011-.122-.023-.254-.032-.386-.013-.185.014-.239.172-.3.078-.03.179-.021.241-.069.234-.18.3-.567.7-.55.177-.2.356-.4.529-.6.2-.237.4-.477.6-.712-.019-.338-.019-.339.186-.42.079-.03.183-.031.234-.085a2.788,2.788,0,0,0,.51-.619c.089-.181.076-.406.245-.575.079-.079-.013-.243.067-.366a.828.828,0,0,1,.775-.4c.062,0,.19-.116.181-.149-.071-.269.1-.425.257-.574a.816.816,0,0,0,.238-.578c0-.036.057-.1.082-.1.333.03.436-.258.638-.46-.035-.422-.071-.865-.113-1.308a.153.153,0,0,0-.075-.1c-.242-.125-.247-.35-.245-.572,0-.1-.015-.185-.108-.224-.276-.115-.148-.506-.432-.619-.084-.035-.1-.127-.1-.229s-.016-.179-.019-.268a.234.234,0,0,0-.136-.21c-.185-.1-.177-.284-.193-.459a.379.379,0,0,1,.105-.359.266.266,0,0,0,.084-.1c.023-.06-.025-.126-.122-.178a.245.245,0,0,1-.137-.209c-.02-.268-.056-.535-.063-.8a.362.362,0,0,0-.2-.316c-.145-.089-.082-.244-.14-.349a1.293,1.293,0,0,0-.284-.272.431.431,0,0,0-.234-.439c-.079-.049-.091-.13-.1-.231-.009-.2-.019-.2.168-.6.034-.071.01-.126-.1-.184a.353.353,0,0,1-.164-.334c-.006-.175,0-.358-.188-.46a.243.243,0,0,1-.138-.21c-.024-.312-.052-.624-.081-.971l-.871-.736c-.014-.167-.032-.3-.035-.435a.607.607,0,0,0-.259-.569c-.119-.076-.079-.241-.089-.368a.383.383,0,0,0-.165-.336.326.326,0,0,1-.1-.087c-.124-.188.01-.451-.154-.616a.641.641,0,0,1-.255-.434c-.008-.138-.15-.144-.255-.019-.056.068-.116.136-.172.2-.026.032-.047.068-.071.1.147.125.144.126.086.469a1.139,1.139,0,0,0-.031.25c.036.491.068.983.127,1.472.024.207-.1.319-.192.464a.3.3,0,0,0,.042.357c.03.033.071.055.1.087.167.18.2.321.083.452-.143.166-.3.325-.434.474.112.121.195.212.278.3a.785.785,0,0,0-.167.207c-.044.116-.015.267-.078.364a5.4,5.4,0,0,1-.446.54c.025.289.051.6.077.908.017.212.016.212-.29.325-.213.078-.214.078-.2.277a1.954,1.954,0,0,0,.038.4c.074.255-.085.408-.215.569.091.09.179.175.267.26l-.725.857c.018.2.029.419.058.639a.24.24,0,0,1-.058.243.431.431,0,0,0-.155.471c-.081.105-.162.21-.243.313a.485.485,0,0,1-.255.563c-.29.2-.1.619-.4.79,0,.13-.006.26,0,.39.005.258,0,.274-.27.34-.151.037-.228.107-.219.263,0,.045.027.1.008.131-.173.251-.314.545-.7.5a.318.318,0,0,0-.237.071c-.184.194-.351.406-.524.611-.387.456-.387.456-1.229.865-.144.3-.426.271-.687.291a.889.889,0,0,1-.135.011c-.212-.015-.305.144-.409.281a.364.364,0,0,1-.1-.037q-.463-.387-.925-.779c.046-.067.091-.135.139-.2a.323.323,0,0,0-.036-.457c-.269-.248-.267-.249-.026-.649a.189.189,0,0,0,.025-.093c-.351-.183-.27-.526-.3-.823-.01-.082-.018-.209.028-.246.315-.252.144-.574.143-.87,0-.164-.011-.164.224-.461a1.609,1.609,0,0,1-.274-.259.288.288,0,0,1-.022-.257,6.29,6.29,0,0,1,.434-.523c.107-.388-.082-.778-.014-1.169a3.923,3.923,0,0,1,.35-.407c.18-.159.026-.429.23-.585a2.584,2.584,0,0,0,.351-.4c-.1-.432.359-.571.464-.894-.014-.179-.033-.357-.043-.536-.006-.085-.028-.22.014-.249.246-.171.117-.512.322-.682.163-.136.035-.34.148-.477s.232-.273.345-.41.22-.277.33-.416c-.13-.3.284-.432.212-.715a.581.581,0,0,1,.166-.6c.15-.149.349-.295.274-.562.1-.14.207-.283.316-.419.139-.172.285-.339.416-.494-.028-.338-.051-.65-.083-.962a.213.213,0,0,1,.1-.23c.219-.136.052-.42.233-.581a3.589,3.589,0,0,0,.35-.406c-.052-.3.155-.482.324-.678.144-.168.285-.338.416-.492-.01-.117-.019-.206-.024-.295a2.279,2.279,0,0,1-.016-.527c.022-.116.139-.215.214-.322-.068-.324.217-.451.365-.655.436.033.373-.259.345-.528a1.627,1.627,0,0,1-.021-.268.35.35,0,0,0-.192-.32c-.193-.128-.083-.423-.326-.537a1.908,1.908,0,0,1-.392-.328c-.04-.274.033-.56-.268-.726-.125-.069-.081-.239-.092-.366a.417.417,0,0,0-.159-.34.359.359,0,0,1-.152-.2c-.036-.22-.042-.445-.063-.668-.011-.11-.1-.158-.3-.172s-.249-.053-.27-.208a1.587,1.587,0,0,1-.022-.267.264.264,0,0,0-.088-.235c-.172-.144-.34-.289-.51-.434.02-.387-.347-.476-.535-.7a.566.566,0,0,1-.081-.237c-.028-.126-.047-.255-.07-.383-.279-.109-.212-.46-.432-.617-.144-.1-.272-.231-.412-.343-.173-.138-.364-.262-.33-.529a.642.642,0,0,1-.32-.672.256.256,0,0,0-.133-.212c-.172-.134-.313-.329-.576-.238-.171-.186-.485-.262-.459-.6l-.282-.273c.022-.259-.148-.4-.331-.526a.67.67,0,0,1-.334-.529c0-.031-.069-.054-.1-.087-.167-.191-.449-.267-.484-.593-.022-.2-.345-.265-.313-.538.005-.043-.115-.139-.183-.145-.13-.011-.253.007-.362-.1-.126-.125-.27-.233-.411-.351a1.61,1.61,0,0,0-.174.145c-.127.139-.123.141.022.474a.126.126,0,0,1-.009.1c-.142.27-.147.274.1.476.029.349.055.706.091,1.061.013.125-.028.269.115.36a1.6,1.6,0,0,1,.188.172c-.093.141-.253.233-.227.451.056.486.086.975.125,1.438a2.645,2.645,0,0,1,.23.2.288.288,0,0,1,.041.356c-.1.145-.213.257-.19.464.067.623.115,1.249.156,1.873,0,.07-.07.156-.128.216a.276.276,0,0,0-.1.231c.04.446.068.893.118,1.338a.35.35,0,0,1-.144.343c-.177.129.013.347-.144.482-.093.081-.213.176-.158.337a.209.209,0,0,1-.08.237c-.062.057-.159.159-.143.207.105.3-.3.43-.226.719.015.062-.07.147-.108.222L3.4,18.2c-.008-.09-.015-.178-.023-.268-.018-.2-.011-.21.188-.285a.986.986,0,0,0,.237-.079c.131-.1.055-.244.052-.371-.006-.193-.01-.192.164-.467a.161.161,0,0,0,.028-.1c-.073-.437-.1-.465.047-.568.211-.154.123-.4.232-.581.067-.107.212-.171.167-.336-.059-.217.179-.288.226-.448.023-.077.015-.225-.031-.252a.714.714,0,0,1-.315-.681c-.021-.4-.063-.795-.094-1.159.081-.136.209-.194.2-.336a.6.6,0,0,1-.284-.553c-.025-.49-.064-.981-.124-1.469a.607.607,0,0,1,.195-.59.638.638,0,0,1,.25-.575c-.1-.092-.193-.178-.289-.267-.03-.35-.06-.706-.089-1.058-.1-.091-.231-.165-.284-.276a.973.973,0,0,1-.04-.4A.239.239,0,0,0,3.69,6.87a.365.365,0,0,1-.2-.318c0-.222-.049-.445-.048-.667,0-.2-.139-.3-.247-.434-.125-.161-.111-.418-.338-.521-.012-.144.123-.2.2-.33-.122-.1-.247-.215-.378-.318a.315.315,0,0,0-.36.027c-.166.2-.392.366-.324.676-.255.156-.14.492-.325.675-.153.149-.1.32-.1.491a.358.358,0,0,0,.178.327c.107.063.134.116.071.186s-.115.136-.178.211c.036.437.074.88.111,1.324l-.487.61c.043.036.078.064.11.094.233.223.241.288.081.547-.045.073-.12.147-.12.22a4.258,4.258,0,0,0,.056.667.363.363,0,0,0,.152.2c.1.069.147.136.082.184-.275.2-.179.485-.139.734a.593.593,0,0,1-.225.578c.022.271.045.537.067.8-.085.107-.166.211-.247.315.039.251-.04.544.256.7.082.045.1.129.1.23a3.625,3.625,0,0,0,.028.37c-.135.16-.249.3-.366.433s-.111.129.034.283c.2.209.2.3.006.553-.028.036-.058.069-.092.109.1,1.15.194,2.306.294,3.487a3.932,3.932,0,0,0,.386.325.273.273,0,0,0,.244.021c.209-.148.438-.3.42-.6-.01-.154.136-.217.183-.332a2.545,2.545,0,0,0,.073-.366c.008-.039.051-.1.085-.1.22-.027.444-.042.667-.06.018.222.037.445.055.67a.681.681,0,0,0-.213.714c.026.176,0,.192-.21.264s-.2.063-.4.3c-.1-.077-.2-.152-.3-.227-.124.114-.185.294-.406.3-.309.008-.618.047-.857.067l-.769-.649C.216,18.76.141,17.87.068,16.99c.1-.148.251-.248.228-.463C.229,15.9.186,15.278.133,14.654c-.008-.09.051-.149.1-.23.188-.288.181-.291-.04-.549a.517.517,0,0,1-.139-.205A2.73,2.73,0,0,1,.006,13c.01-.112.183-.205.2-.322a1.373,1.373,0,0,0-.021-.526.567.567,0,0,1,.225-.577l-.282-.262c.034-.04.064-.073.092-.109C.42,10.95.415,10.88.21,10.652ZM24.9,39.729a1.8,1.8,0,0,0,.055.528c.039.111.213.167.27.277s.01.258.148.342a.364.364,0,0,1,.19.321c0,.219.034.436.049.624.169.143.3.267.445.371a.359.359,0,0,1,.152.34.632.632,0,0,0,.292.551c.086.073,0,.263.131.345a.432.432,0,0,1,.231.439c.171.137.349.271.324.529a.646.646,0,0,1,.317.672.227.227,0,0,0,.136.209c.183.1.183.283.189.459a.457.457,0,0,0,.157.339c.182.173.488.259.461.595a1.717,1.717,0,0,0,.388.35c.249.113.14.4.323.538.105.075.211.152.2.314a2.9,2.9,0,0,0,.029.374c.3.276.7.459.628.961-.008.057.086.146.152.192.125.087.125.213.161.339s.156.166.307.165c.209,0,.236.041.257.214a1.109,1.109,0,0,0,.043.4c.1.18.356.268.31.54,0,.024.058.08.094.085.256.036.542.028.493.42.238.2.473.41.718.6a.574.574,0,0,1,.169.334c.06.2.357.266.306.536.094.091.187.184.284.271a2.554,2.554,0,0,1,.3.263c.131.167.336.044.475.149.071.053.137.114.215.18.084-.092.166-.187.254-.276.184-.189.067-.52.319-.68.023-.015.02-.079.021-.12a.284.284,0,0,0-.013-.132c-.106-.178-.362-.265-.317-.537,0-.025-.049-.067-.084-.092-.176-.134-.355-.264-.5-.368-.029-.337-.05-.6-.073-.86-.182-.164-.181-.164-.085-.476.009-.029.013-.083,0-.092a.545.545,0,0,1-.269-.558c.015-.217-.16-.3-.294-.42l.225-.3c-.168-.132-.333-.262-.312-.525a3.491,3.491,0,0,0-.038-.523c-.179-.151-.358-.287-.516-.444a.355.355,0,0,1-.077-.234.636.636,0,0,0-.273-.562.242.242,0,0,1-.02-.349c.258-.226.1-.346-.085-.475a.579.579,0,0,0-.222-.448c-.159-.132-.377-.212-.417-.479-.043-.289-.367-.358-.529-.561-.1-.129-.048-.335-.226-.442a2.9,2.9,0,0,1-.409-.344.175.175,0,0,1-.028-.122c.012-.284-.421-.347-.327-.668-.233-.246-.614-.371-.634-.787q-.36-.294-.722-.586c-.3.129-.426-.268-.714-.218-.213.037-.321-.307-.578-.213-.107-.071-.221-.132-.321-.212-.243-.2-.489-.391-.714-.608-.142-.137-.307-.119-.471-.159s-.24-.25-.455-.208c-.149.028-.222-.118-.329-.186a.106.106,0,0,0-.092,0C24.95,39.652,24.9,39.695,24.9,39.729ZM24.1,42.444c-.031.06.007.122.1.166.011,0,.052-.06.079-.092.026-.062-.007-.122-.106-.166C24.163,42.347,24.115,42.408,24.1,42.444ZM16.141,18.988c.028.267.059.535.065.8a.371.371,0,0,0,.2.313.215.215,0,0,1,.117.222.658.658,0,0,0,.325.67.466.466,0,0,0,.237.438c.177.135.336.294.481.423.164,0,.291-.057.409.068a1.563,1.563,0,0,0,.411.343c.183.091.414.052.577.24a4.286,4.286,0,0,0,.508.438c.034.029.066.08.1.082a1.4,1.4,0,0,0,.244-.016l1.461,1.235c.132-.012.265-.014.394-.037a.234.234,0,0,1,.243.056.478.478,0,0,0,.474.167c.042-.006.123.11.154.183.142.318.137.32.447.3l.523-.044c.078.067.149.12.214.183a.885.885,0,0,0,.679.323c.173.3.591.111.789.4a.481.481,0,0,0,.566.249l.31.243c.226-.019.449-.039.672-.056.186-.014.222-.006.264.208.028.143.075.289.2.28a.651.651,0,0,1,.468.186c.133.1.352-.019.47.156s.341.039.47.153a.539.539,0,0,0,.47.173c.266-.042.535-.053.8-.069.035,0,.071.045.109.062.358.158.36.175.605.139.168-.026.238.089.34.164a.319.319,0,0,0,.456-.063c.086-.1.173-.206.265-.314-.015-.172-.029-.349-.05-.586-.208-.165-.46-.35-.694-.557-.162-.142-.4-.231-.458-.458a1.865,1.865,0,0,1-.047-.534c0-.214-.155-.3-.284-.414.009-.313-.225-.462-.438-.608-.093-.064-.255-.023-.362-.076-.231-.117-.351-.422-.645-.429-.357-.01-.482-.36-.76-.481-.134.012-.267.026-.4.034-.179.01-.224,0-.257-.215-.024-.148-.092-.3-.208-.272-.3.078-.431-.319-.72-.225-.031.01-.081-.016-.116-.037-.224-.131-.347-.428-.643-.431-.314,0-.429-.286-.651-.413-.037-.021-.073-.044-.1-.062l-.539.021a.684.684,0,0,0-.576-.237.549.549,0,0,0-.592-.186.34.34,0,0,1-.353-.117.251.251,0,0,0-.228-.1c-.216.032-.329-.057-.335-.279a2.688,2.688,0,0,0-.022-.268c-.021-.154-.063-.211-.268-.2a.38.38,0,0,1-.339-.161c-.133-.171-.358.038-.481-.144a.7.7,0,0,0-.2-.138c-.246.272-.246.283-.412.283-.295,0-.617.167-.869-.146-.037-.046-.163-.03-.247-.026a2.849,2.849,0,0,1-.534.033c-.115-.017-.208-.173-.325-.2a3.074,3.074,0,0,0-.525,0,.161.161,0,0,1-.11-.057.542.542,0,0,0-.605-.146.219.219,0,0,1-.24-.068c-.125-.155-.289-.152-.472-.163-.136-.008-.141-.191-.167-.322-.013-.06-.122-.154-.158-.142C16.148,18.8,16.131,18.893,16.141,18.988Zm-2.147,3.6a4.849,4.849,0,0,1-.348.407c-.156.149-.095.322-.094.493a.461.461,0,0,1-.036.246,1.835,1.835,0,0,1-.345.408c-.17.136.011.346-.143.482a.348.348,0,0,0-.165.337c.04.219.043.443.062.66-.235.279-.473.547-.692.83a.305.305,0,0,0-.022.247c.108.3-.18.47-.208.716-.011.092.006.176-.053.245-.2.238-.407.475-.6.718-.109.135-.208.28-.312.421.057.2-.063.331-.185.46a.9.9,0,0,1-.323.678c-.063.064-.117.136-.174.2,0,.044,0,.087,0,.13,0,.088.014.178.021.267.016.182-.018.285-.167.295-.311.022-.366.182-.31.44a4.854,4.854,0,0,0-.426.517c-.063.1-.02.26-.078.361a2.093,2.093,0,0,1-.342.412.418.418,0,0,0-.1.361c.009.127.072.27-.03.379a.477.477,0,0,0-.168.469c.021.086,0,.182.027.267a.543.543,0,0,1-.223.577c.026.315.045.628.083.938.013.1.013.18-.076.237-.247.161-.063.522-.322.682-.074.045-.064.143-.051.242.028.217.04.437.055.631.235.2.438.371.645.542a.568.568,0,0,0,.1.052c.22-.263.221-.263.544-.3.084-.01.224-.012.242-.057.132-.326.569-.209.719-.526A.52.52,0,0,1,11,36.7c.042,0,.115-.12.136-.195.119-.435.21-.571.511-.653.088-.025.206-.041.2-.134a.7.7,0,0,1,.244-.575c-.069-.252.086-.411.236-.576.088-.1.163-.205.248-.313-.014-.177-.029-.352-.043-.516a2.454,2.454,0,0,0,.429-.53c.082-.189.059-.424.25-.569a.619.619,0,0,1,.244-.572l-.283-.265a3.576,3.576,0,0,0,.426-.517c.133-.243-.005-.517,0-.778,0-.13-.007-.26-.011-.374l.473-.559c-.024-.279-.036-.589-.08-.9-.032-.215.124-.313.228-.461-.021-.256-.043-.522-.064-.777a.526.526,0,0,1,.077-.117.406.406,0,0,0,.147-.472c-.086-.253.1-.4.207-.56-.1-.1-.232-.181-.264-.292a2.091,2.091,0,0,1-.026-.521c.2-.144.169-.379.249-.57.064-.154.2-.262.179-.467-.058-.488-.077-.98-.135-1.469-.024-.213.112-.318.235-.478-.035-.419-.065-.863-.115-1.3a.134.134,0,0,0-.171-.117c-.036.014-.086.067-.084.1.024.307.088.62-.209.846C14.328,22.282,14.134,22.425,13.994,22.591ZM5.663,3.317c.137.115.274.23.391.33.264.073.556-.142.759.144a.213.213,0,0,0,.238.078c.221-.033.445-.042.667-.06a2.519,2.519,0,0,1,.406.351c.156.2.431.045.585.23a.334.334,0,0,0,.218.119c.178.006.356-.028.535-.036a1.137,1.137,0,0,1,.252.027c.344.066.346.069.47-.076.087-.011.174-.025.26-.035.307-.037.623-.111.849.2.263-.091.4.1.576.238.206.162.367.423.629.458a3.529,3.529,0,0,0,.8-.056c.265-.025.534-.086.725.179.309-.015.62-.014.926-.053.216-.026.314.125.462.23l1.057-.089c.105.085.2.218.314.239a1.081,1.081,0,0,0,.529-.045c.11-.039.167-.23.276-.27a1.965,1.965,0,0,1,.509-.054c.188.16.358.306.532.446a.1.1,0,0,0,.09-.009c.186-.361.539-.247.831-.285.4-.052.8-.07,1.2-.108a.193.193,0,0,0,.1-.072.21.21,0,0,0,.038-.093.767.767,0,0,1-.331-.53.138.138,0,0,0-.1-.083c-.179.006-.356.026-.535.041a2.5,2.5,0,0,1-.4-.352c-.157-.205-.431-.045-.585-.23a.336.336,0,0,0-.218-.12c-.223,0-.445.033-.669.05-.115.007-.183-.076-.224-.263s-.106-.248-.245-.237c-.268.022-.536.04-.8.071a.273.273,0,0,1-.245-.047.445.445,0,0,0-.468-.166c-.105-.081-.209-.163-.314-.243a.422.422,0,0,1-.473-.151c-.061-.075-.141-.074-.242-.062-.308.035-.62.055-.914.08-.188-.159-.357-.3-.532-.446-.018-.014-.081-.008-.09.009-.158.289-.317.192-.476,0l-1.6.134c-.177-.128-.322-.312-.584-.232a1.959,1.959,0,0,1-.4.038.17.17,0,0,0-.108-.213c-.1-.04-.151.041-.16.236a1.954,1.954,0,0,1-.4.029c-.264-.036-.376.164-.527.307-.039-.033-.072-.062-.107-.09-.16-.128-.182-.139-.281,0-.126.171-.3.155-.47.18a.434.434,0,0,1-.358-.112c-.13-.108-.14-.1-.278.052-.029.035-.057.069-.087.1-.067-.047-.136-.094-.2-.142A.325.325,0,0,0,7,2.885c-.058.059-.117.115-.176.172-.068-.057-.134-.119-.206-.172a.3.3,0,0,0-.361,0c-.1.07-.149.23-.288.251S5.725,3.182,5.663,3.317Z" transform="translate(0 0)" fill="#00a19a" fill-rule="evenodd"/>
      <path id="Path_172-2" data-name="Path 172" d="M0,0A.586.586,0,0,1,.037.076C.1.088.122.068.121.023A1.01,1.01,0,0,0,0,0Z" transform="translate(18.009 23.362)" fill="#00a19a" fill-rule="evenodd"/>
      <path id="Path_173-2" data-name="Path 173" d="M1.127,0,.588.556C.318.529.238.769.086.91c-.075.069-.113.139-.065.231.008.015.083,0,.126-.008l.539-.045c.19-.226.4-.454.579-.7A.3.3,0,0,0,1.274.146C1.252.083,1.171.04,1.127,0Z" transform="translate(16.085 49.435)" fill="#00a19a" fill-rule="evenodd"/>
      <path id="Path_174-2" data-name="Path 174" d="M.088,0C.077,0,.029.056.011.092c-.031.059.007.122.1.165C.126.263.168.2.2.166.22.1.187.043.088,0Z" transform="translate(26.248 68.066)" fill="#00a19a" fill-rule="evenodd"/>
      <path id="Path_175-2" data-name="Path 175" d="M.112.236C.21.276.265.2.274,0L.006.023A.169.169,0,0,0,.112.236Z" transform="translate(10.167 2.5)" fill="#00a19a" fill-rule="evenodd"/>
    </g>
  </g>
</svg>
