<svg xmlns="http://www.w3.org/2000/svg" width="426.73" height="298.278" viewBox="0 0 426.73 298.278">
  <g id="undraw_happy_announcement_ac67" transform="translate(-0.002 0)">
    <path id="Path_254" data-name="Path 254" d="M165.307,322.5c.408,25.191,9.824,27.919,21.386,25.291a42.49,42.49,0,0,0,29.394-24.856l3.685-8.584a23.417,23.417,0,0,0-12.281-30.755h0a23.417,23.417,0,0,0-30.755,12.281C164.878,300.53,162.536,310.173,165.307,322.5Z" transform="translate(-146.298 -208.027)" fill="#2f2e41"/>
    <path id="Path_255" data-name="Path 255" d="M303.59,241.772l3.549-6.005a5.641,5.641,0,0,0-3.188-8.259h0a5.641,5.641,0,0,0-7.307,5.571l.209,6.455L280.174,285.24l9.095,1.9Z" transform="translate(-210.232 -178.006)" fill="#9f616a"/>
    <path id="Path_256" data-name="Path 256" d="M129.829,458.16,125.46,463.6a5.641,5.641,0,0,0,1.979,8.629h0a5.641,5.641,0,0,0,8.027-4.473l.713-6.419,23.02-42.864-8.732-3.175Z" transform="translate(-124.215 -281.72)" fill="#9f616a"/>
    <path id="Path_257" data-name="Path 257" d="M196.912,547.339l.643,7.723.151,1.8,42.753-4.112a9.426,9.426,0,0,0,7.549-13.216l-13.788-29.6-4.763-10.224-20.639-4.763c-17.019,13.026-1.707,27.4,17.559,41.944q1.131.857,2.286,1.715Z" transform="translate(-164.309 -325.652)" fill="#2f2e41"/>
    <path id="Path_258" data-name="Path 258" d="M161.545,635.426h0a3.072,3.072,0,0,0,2.8-1.085l13.985-16.929-.794-7.938-4.768-2.861a3.133,3.133,0,0,0-4.527,1.536l-9.121,23.107a3.072,3.072,0,0,0,2.423,4.169Z" transform="translate(-143.348 -386.994)" fill="#2f2e41"/>
    <path id="Path_259" data-name="Path 259" d="M191.6,545.751l.794,9.526,2.231-.214,40.523-3.9a9.427,9.427,0,0,0,7.549-13.217l-11.407-25.536v-2.477l-4.763-10.224-20.639-4.763c-17.019,13.026-1.707,27.4,17.559,41.944l-.1.127Z" transform="translate(-161.381 -325.652)" opacity="0.2"/>
    <path id="Path_260" data-name="Path 260" d="M152.695,628.346h0a3.072,3.072,0,0,0,2.8-1.085l13.985-16.929-.794-7.938-4.768-2.861a3.133,3.133,0,0,0-4.527,1.536l-9.121,23.107a3.072,3.072,0,0,0,2.423,4.169Z" transform="translate(-138.467 -383.089)" fill="#2f2e41"/>
    <path id="Path_261" data-name="Path 261" d="M188.062,540.258l.794,9.525,42.753-4.113a9.428,9.428,0,0,0,7.552-13.215l-11.41-25.537V492.631l-27.783-4.763c-17.688,13.537-.454,28.534,19.845,43.658Z" transform="translate(-159.428 -321.747)" fill="#2f2e41"/>
    <circle id="Ellipse_88" data-name="Ellipse 88" cx="11.907" cy="11.907" r="11.907" transform="translate(43.716 82.774)" fill="#9f616a"/>
    <path id="Path_262" data-name="Path 262" d="M212.843,357.195l16.669,11.113,14.288-3.175-7.938-7.938V345.288l-12.7-.794C222.9,349.249,220.171,353.6,212.843,357.195Z" transform="translate(-173.096 -242.669)" fill="#9f616a"/>
    <path id="Path_263" data-name="Path 263" d="M206.7,425.451l30.958,3.969,7.144-33.339c3.319-8.849,1.415-16.668-4.73-23.65a5.3,5.3,0,0,0-5.039-4.26l-2.932.128c.332,10.528-7.425,7.992-19.051-.794l-1.4.421a7.885,7.885,0,0,0-5.534,8.708l1.28,8.641a59.12,59.12,0,0,0,2.52,10.075C213.09,404.835,211.956,414.877,206.7,425.451Z" transform="translate(-169.339 -255.361)" fill="#f9a14c"/>
    <path id="Path_264" data-name="Path 264" d="M175.672,392.557l14.288,4.763,6.35-23.02-2.151-.978a7.715,7.715,0,0,0-9.994,3.38Z" transform="translate(-152.594 -258.187)" fill="#f9a14c"/>
    <path id="Path_265" data-name="Path 265" d="M145.27,236.219l7.938,8.731,9.525-15.082-11.907-6.35Z" transform="translate(-80.122 -123.28)" fill="#f9a14c"/>
    <path id="Path_266" data-name="Path 266" d="M217.268,308.883c7.482,2.821,15.467,2.529,23.814,0v-9.525H217.268Z" transform="translate(-175.537 -217.774)" fill="#2f2e41"/>
    <path id="Path_267" data-name="Path 267" d="M782.316,442.424l-8.209,3.42-54.724-74.562-39.675,75.93-10.261-2.052,30.1-104.66h34.887Z" transform="translate(-369.23 -187.801)" fill="#2f2e41"/>
    <path id="Path_268" data-name="Path 268" d="M1043.092,701.767h0a3.577,3.577,0,0,1-2.726-.351l-17.311-9.967a3.513,3.513,0,0,1-.731-5.528l1.547-1.547,8.208-.684,12.549,12.047a3.577,3.577,0,0,1-1.536,6.031Z" transform="translate(-618.995 -429.751)" fill="#2f2e41"/>
    <path id="Path_269" data-name="Path 269" d="M767.388,707.869h0a3.576,3.576,0,0,0,2.726-.351l17.312-9.967a3.513,3.513,0,0,0,.731-5.528l-1.547-1.547-8.209-.684-12.549,12.047a3.577,3.577,0,0,0,1.536,6.031Z" transform="translate(-477.5 -433.117)" fill="#2f2e41"/>
    <path id="Path_270" data-name="Path 270" d="M795.046,194.052l-3.42,2.052-7.088-11.518a5.18,5.18,0,0,1,3.345-7.784h0a5.18,5.18,0,0,1,6.233,4.686Z" transform="translate(-487.989 -150.118)" fill="#ffb9b9"/>
    <path id="Path_271" data-name="Path 271" d="M1020.19,410.776l1.419-3.728,12.692,4.669a5.18,5.18,0,0,1,2.185,8.185h0a5.18,5.18,0,0,1-7.8.171Z" transform="translate(-618.386 -277.171)" fill="#ffb9b9"/>
    <circle id="Ellipse_89" data-name="Ellipse 89" cx="10.261" cy="10.261" r="10.261" transform="translate(337.84 64.456)" fill="#ffb9b9"/>
    <path id="Path_272" data-name="Path 272" d="M778.384,194.387H764.019V178.654l12.313-1.368Z" transform="translate(-421.391 -97.781)" fill="#ffb9b9"/>
    <path id="Path_273" data-name="Path 273" d="M895.192,380.4H856.2c1.375-21.755,2.464-42.779,0-54.724l2.267-10.883a6.131,6.131,0,0,1,6.763-4.834l5.335.667c3.613,6.352,7.979,6.29,13,.684h6.426a6.442,6.442,0,0,1,6.441,6.57h0a81.373,81.373,0,0,1,1.653,23.356Z" transform="translate(-527.938 -223.593)" fill="#3f3d56"/>
    <path id="Path_274" data-name="Path 274" d="M672.5,94.6l5.473-2.736,29.414,48.568-8.208,12.313Z" transform="translate(-370.912 -50.668)" fill="#3f3d56"/>
    <path id="Path_275" data-name="Path 275" d="M967.645,360.669l4.677-3.945L947.471,321.9a22.024,22.024,0,0,0-21.9-8.868l-.784.144,9.4,16.444,12.376,9.37Z" transform="translate(-565.765 -225.117)" fill="#3f3d56"/>
    <path id="Path_276" data-name="Path 276" d="M898.129,258.217s1.917-4.218-3.068-6.135c0,0-4.218-6.9-12.654-2.3,0,0-5.752,2.3-5.752,8.436s-1.917,7.286-1.917,7.286,2.855-2.929,3.622-5.23,6.731-2.823,9.032-.522,8.053,1.917,8.053,1.917l-.383,8.436s1.917-4.985,2.684-4.985S899.279,258.217,898.129,258.217Z" transform="translate(-538.162 -189.558)" fill="#2f2e41"/>
    <ellipse id="Ellipse_90" data-name="Ellipse 90" cx="62.783" cy="3.27" rx="62.783" ry="3.27" transform="translate(296.236 291.739)" fill="#e6e6e6"/>
    <ellipse id="Ellipse_91" data-name="Ellipse 91" cx="33.186" cy="1.728" rx="33.186" ry="1.728" transform="translate(12.366 293.28)" fill="#e6e6e6"/>
    <path id="Path_277" data-name="Path 277" d="M532.5,174.968,330.759,193.049a3.755,3.755,0,0,1-4.071-3.4L322.2,139.6a3.755,3.755,0,0,1,3.4-4.071l201.745-18.081a3.755,3.755,0,0,1,4.071,3.4l4.485,50.044a3.755,3.755,0,0,1-3.4,4.071Z" transform="translate(-233.405 -117.436)" fill="#f9a14c"/>
    <circle id="Ellipse_92" data-name="Ellipse 92" cx="15.754" cy="15.754" r="15.754" transform="translate(105.175 28.756)" fill="#fff"/>
    <path id="Path_278" data-name="Path 278" d="M469.647,172.517a2.626,2.626,0,1,0,.469,5.23L593.4,166.7a2.626,2.626,0,0,0-.469-5.23Z" transform="translate(-313.416 -141.715)" fill="#fff"/>
    <path id="Path_279" data-name="Path 279" d="M472.783,207.507a2.626,2.626,0,0,0,.469,5.23l123.289-11.05a2.626,2.626,0,1,0-.469-5.23Z" transform="translate(-315.146 -161.014)" fill="#fff"/>
  </g>
</svg>
